<svg width="1150" height="900" viewBox="0 0 1150 900" fill="none" xmlns="http://www.w3.org/2000/svg">
<path fill-rule="evenodd" clip-rule="evenodd" d="M990.477 567.542C952.562 555.601 909.032 560.033 870.096 566.224C827.536 572.973 785.997 582.997 744.662 593.341C618.156 625.01 482.618 643.341 349.427 638.629C313.042 637.351 275.739 632.438 241.191 623.133C208.837 614.427 180.821 601.328 158.367 581.08C156.734 579.602 154.999 578.205 153.315 576.807C106.112 536.99 97.2835 478.084 99.6309 426.046C100.447 408.514 103.356 390.982 108.153 373.849C111.062 363.546 115.757 352.803 116.267 342.179C116.42 338.665 113.154 327.363 107.949 336.468C107.949 336.468 91.7211 358.993 84.0154 367.819C75.9525 377.044 68.5531 386.669 61.7149 396.493C24.8196 449.529 3.38659 501.087 17.4201 562.03C22.166 582.598 31.1474 602.246 42.6294 621.057C79.2696 680.882 144.436 719.78 226.034 735.555C252.928 740.746 280.638 744.461 308.092 747.096C354.173 751.569 400.713 754.724 447.151 755.803C510.991 757.24 576.158 750.731 638.262 739.389C686.078 730.683 734.455 724.093 781.047 711.513C793.957 708.038 805.49 701.768 819.422 700.61C823.913 695.658 828.658 690.866 832.792 685.754C841.722 674.611 852.898 664.947 864.176 655.282C881.22 640.705 902.704 630.681 922.198 618.66C922.81 618.94 968.942 590.425 990.937 575.768C994.662 573.292 995.581 570.058 990.324 567.581L990.477 567.542Z" fill="#C5D59B"/>
<path fill-rule="evenodd" clip-rule="evenodd" d="M1054.34 693.741C1049.63 651.702 1028.77 618.772 996.998 591.974C979.11 561.402 962.49 615.028 959.455 617.858C956.154 621.808 955.565 626.849 953.856 631.448C953.089 633.483 952.5 636.431 949.259 634.603C945.634 632.569 944.691 634.868 943.483 637.492C940.683 643.624 939.298 650.08 938.65 656.714C938.355 659.691 938.06 661.371 934.288 659.544C930.369 657.627 928.63 659.691 929.279 663.848C933.758 665.44 938.178 667.12 941.921 670.186C951.616 678.058 958.394 688.052 962.785 699.667C964.759 704.856 964.7 710.044 962.313 715.203C956.773 727.055 947.52 731.005 935.968 730.386C924.299 729.767 913.071 719.36 910.625 708.777C907.943 697.132 911.097 687.02 917.491 677.438C918.876 675.345 921.469 673.635 920.291 670.481C918.375 669.597 917.02 670.805 915.605 671.749C907.266 677.468 901.696 685.162 899.103 694.98C898.631 696.807 898.926 699.048 896.804 700.787C894.24 694.095 893.857 687.757 895.272 681.3C896.038 677.822 895.95 675.139 891.117 675.64C888.17 675.964 887.875 674.284 889.054 672.073C890.409 669.538 892.266 667.356 894.152 665.204C899.731 658.895 899.28 653.038 892.796 647.633C891.087 646.218 888.464 645.069 889.024 642.386C889.584 639.733 892.413 639.615 894.565 639.055C902.109 637.079 909.682 635.104 916.607 631.36C918.228 630.505 920.527 629.886 920.379 627.587C920.261 625.641 918.198 625.169 916.637 624.491C915.281 623.901 913.395 623.607 913.513 621.69C913.601 619.892 915.428 619.479 916.784 618.86C918.346 618.153 919.996 617.681 921.617 617.121C932.049 613.613 941.361 608.247 949.2 600.376C951.587 597.958 952.559 596.219 948.581 594.627C946.577 593.831 943.512 593.802 943.424 590.912C943.335 587.994 946.253 587.08 948.316 585.871C958.217 580.005 976.105 573.991 984.032 565.677C986.301 563.289 988.393 560.046 987.45 556.361C986.507 552.646 975.338 554.209 972.303 553.59C970.8 553.295 969.061 553 968.826 551.172C968.619 549.698 969.975 548.873 971.036 548.077C972.421 547.045 973.894 546.161 975.397 545.335C985.947 539.38 995.112 531.715 1003.36 522.9C1004.66 521.515 1006.55 520.1 1006.07 518.154C1005.51 515.884 1003.04 516.356 1001.21 516.09C999.738 515.855 997.705 516.297 997.204 514.616C996.556 512.464 998.854 511.875 1000.21 511.079C1007.46 506.863 1014.12 501.704 1021.43 497.606C1028.29 493.744 1032.07 487.435 1035.31 480.684C1036.81 477.559 1035.31 476.527 1032.45 476.291C1031.51 476.203 1030.56 476.38 1029.59 476.468C1027.79 476.586 1025.44 477.824 1024.58 475.407C1023.84 473.225 1026.14 472.194 1027.56 471.014C1031.95 467.359 1036.16 463.349 1040.97 460.372C1051.6 453.768 1051.81 442.772 1053.58 432.365C1054.02 429.83 1052.69 428.827 1050.16 429.741C1049.28 430.066 1044 431.952 1042.14 430.154C1040.35 428.385 1041.76 427.972 1042.5 426.086C1044.5 420.897 1047.42 416.18 1050.34 411.522C1057.53 400.084 1058 387.879 1055.11 375.172C1054.52 372.637 1053.34 370.573 1050.96 369.306C1047.95 367.714 1047.3 365.031 1047.83 361.994C1050.16 348.699 1047.18 335.875 1044.41 323.021C1043.94 320.81 1043.59 318.009 1041.23 317.243C1036.87 315.798 1037.52 312.88 1037.84 309.489C1038.96 297.756 1037.78 286.258 1033.24 275.321C1029.38 266.005 1022.93 262.91 1012.94 265.268C1008.79 266.241 1009.7 263.647 1010.61 261.848C1014.8 253.476 1013.53 245.634 1008.76 238.028C1007.67 236.849 1006.25 236.2 1004.72 236.171C994.847 236.023 984.975 235.375 975.103 236.583C973.334 236.79 971.242 238.588 969.916 236.554C968.796 234.844 970.211 232.869 971.124 231.247C976.959 220.752 985.535 213.235 996.408 208.223C999.68 206.719 1003.33 206.1 1006.1 203.565C1006.78 199.438 1003.48 197.964 1000.92 196.283C992.312 190.593 982.676 187.056 973.187 183.194C969.533 183.076 966.881 185.611 963.698 186.702C961.812 187.351 959.867 187.704 958.423 186.024C956.92 184.226 958.482 182.899 959.514 181.572C960.309 180.511 961.37 179.45 959.69 178.27C948.522 174.202 937.058 171.136 925.536 168.335C919.819 166.626 913.896 165.83 908.091 164.65C896.745 162.292 887.669 166.95 879.477 174.084C873.73 179.096 867.836 183.931 861.53 188.176C845.057 199.261 827.936 209.019 807.985 212.557C802.121 213.588 785.766 214.031 783.526 213.353C778.988 212.704 774.45 212.733 769.912 213.146C754.5 214.532 745.865 223.582 745.07 238.942C745.129 242.804 745.129 246.666 745.07 250.528C745.423 265.032 752.054 275.852 764.372 283.281C774.715 289.501 786.002 292.39 797.966 292.626C801.561 292.715 803.948 293.57 805.481 297.225C807.809 302.886 812.818 305.716 818.417 307.485C821.659 308.516 825.107 308.782 828.407 309.696C832.091 309.99 835.686 310.698 839.37 310.845C843.348 310.993 862.827 312.732 868.603 312.909C876.706 313.145 884.81 312.732 892.855 311.818C900.812 310.904 908.916 309.607 916.666 307.544C918.346 307.101 920.055 306.806 921.735 306.335C924.475 304.566 927.216 306.158 929.927 306.423C930.634 306.482 931.253 306.453 931.813 306.335C932.049 306.512 932.255 306.718 932.461 306.895C933.11 307.426 933.758 307.927 934.436 308.428C933.169 309.253 931.518 309.725 929.721 310.138C928.395 312.29 930.251 313.263 931.4 314.354C946.754 328.622 957.245 345.868 965.083 365.326C974.543 388.851 977.048 412.79 972.863 437.524C967.529 469.039 954.474 497.075 933.345 521.073C922.354 533.543 910.124 544.893 895.419 552.823C854.192 574.963 801.65 579.12 772.004 618.801C741.887 659.131 734.579 723.635 762.309 769.153C789.656 814.023 845.794 832.153 895.92 827.879C930.251 824.96 965.879 816.027 995.318 797.631C1011.11 787.755 1026.47 777.054 1037.37 761.635C1049.66 744.212 1055.79 724.549 1055.14 702.998C1053.87 699.962 1055.29 696.719 1054.29 693.653L1054.34 693.741Z" fill="#C5D59B"/>
<path fill-rule="evenodd" clip-rule="evenodd" d="M996.999 591.974C994.907 601.054 987.982 587.168 982.972 589.586C975.074 593.418 978.168 605.771 973.1 610.429C967.943 615.175 965.792 609.78 960.458 618.212C956.538 624.196 956.538 643.034 946.519 634.691C942.482 642.15 940.39 650.464 940.006 658.925C939.564 668.535 935.557 658.129 931.284 660.074C927.571 661.755 936.676 675.522 929.486 673.606C920.645 671.277 917.993 670.481 910.42 677.881C903.229 684.927 902.021 692.651 899.634 701.849C898.338 706.86 894.684 700.463 894.389 699.254C892.68 691.884 892.238 684.19 894.89 676.967C892.09 677.999 889.379 677.881 886.756 676.642C883.898 671.985 893.858 662.845 896.805 660.605C904.231 654.974 892.856 650.08 889.114 646.749C879.684 638.317 914.31 631.507 919.909 627.852C917.846 625.493 911.333 626.702 911.098 622.25C910.862 618.094 945.311 602.852 950.468 596.927C919.526 586.284 986.567 570.63 979.878 556.803C978.728 554.415 957.216 554.415 970.006 547.104C983.355 539.469 995.702 530.064 1005.66 518.272C1002.98 517.004 995.526 519.274 994.406 515.088C993.198 510.607 1007.17 504.829 1009.73 503.178C1021.61 495.601 1028.65 490.619 1035.1 478.031C1032.3 477.235 1024.49 480.861 1022.58 476.91C1020.22 472.017 1031.39 465.796 1034.19 463.615C1046.71 453.945 1050.72 446.339 1052.43 430.39C1044.44 430.301 1034.25 439.44 1042.41 422.489C1049.78 407.159 1061.83 390.62 1052.96 372.549C1051.19 368.922 1046.45 370.544 1046.06 365.355C1045.36 355.715 1047.54 346.812 1045.8 336.965C1045.45 335.02 1043.97 317.449 1040.32 318.039C1032.1 319.336 1036.84 307.013 1036.9 303.298C1037.05 294.631 1034.37 262.703 1018.81 264.826C1018.1 264.914 1006.78 271.341 1007.87 265.327C1009.29 257.633 1014 252.503 1010.23 244.425C1003.72 230.481 1037.49 235.257 1046.09 232.338C1070.58 224.025 1050.07 243.393 1047.27 252.827C1043.56 265.327 1076.21 272.461 1083.11 274.142C1102.29 278.8 1064.45 287.585 1069.32 297.667C1076.03 311.582 1100.32 313.558 1105.38 325.556C1105.59 340.031 1076.54 326.323 1077.15 334.931C1078.04 346.959 1100.79 359.577 1108.95 366.593C1122.77 378.445 1101.44 377.855 1094.63 378.563C1086.17 379.418 1109.75 411.198 1111.49 413.615C1126.28 433.957 1101.17 428.975 1087.29 425.968C1088.26 433.662 1089.59 441.327 1092.04 448.697C1093.51 453.119 1103.65 466.681 1101.14 471.044C1097.78 476.91 1076.98 470.012 1073.35 467.565C1071.97 466.622 1069.76 510.902 1070.7 516.709C1072.76 529.357 1047.69 515.972 1044.8 517.535C1038.23 521.102 1042.7 556.449 1035.34 553.413C1024.38 548.902 1021.46 537.11 1017.24 555.919C1016.3 560.135 1019.22 581.007 1009.38 573.932C996.056 564.35 997.235 581.184 996.911 591.885C997.028 587.375 995.968 595.954 996.911 591.885L996.999 591.974Z" fill="#82A189"/>
<path fill-rule="evenodd" clip-rule="evenodd" d="M1008.37 238.676C1005.4 238.765 981.143 235.817 970.711 239.502C967.352 240.681 966.939 238.146 967.794 235.463C970.387 227.444 975.544 221.165 981.762 215.77C988.864 209.608 1001.65 203.211 1006.13 201.442C1009.64 200.057 1012.44 199.968 1015.53 199.467C1024.49 198.023 1032.98 199.614 1042 199.29C1043.53 199.231 1061.18 198.818 1066.99 198.848C1077.12 198.052 1073.23 201.089 1070.26 205.982C1063.42 218.571 1055.2 229.862 1040.52 234.284C1039.79 234.49 1018.39 238.352 1008.4 238.676H1008.37Z" fill="#A6AC4B"/>
<path fill-rule="evenodd" clip-rule="evenodd" d="M939.709 419.04C942.832 400.968 939.031 383.25 937.027 365.444C935.2 349.318 931.34 333.84 923.265 319.601C920.908 315.444 916.988 311.789 917.99 306.276C919.169 305.48 920.318 305.362 921.468 306.276C924.179 307.691 927.479 308.104 929.513 310.727C957.39 334.813 971.594 366.387 975.896 401.941C978.843 426.41 973.745 450.466 964.286 473.697C951.319 505.507 930.514 530.624 902.814 550.376C893.266 557.186 881.891 560.282 871.577 565.559C858.11 572.457 818.622 584.397 818.18 584.132C831.323 574.315 853.012 558.366 865.565 547.841C866.892 546.75 875.054 539.203 877.972 536.432C894.121 520.925 906.144 502.323 917.637 483.308C926.006 469.452 933.108 455.095 936.88 439.234C937.469 436.787 937.675 434.399 937.646 431.923C938.766 431.333 939.856 431.716 940.917 432.129C943.304 433.072 945.809 434.016 947.046 430.685C948.137 427.766 947.636 425.142 944.689 423.344C942.832 422.194 940.357 421.693 939.709 419.099V419.04Z" fill="#CDC69D"/>
<path fill-rule="evenodd" clip-rule="evenodd" d="M877.003 248.847C870.255 248.877 867.308 245.958 867.19 239.119C867.072 233.075 871.846 228.24 877.946 228.24C884.488 228.24 890.353 232.928 890.589 238.293C890.824 243.393 883.84 248.788 877.003 248.818V248.847Z" fill="#533F2D"/>
<path fill-rule="evenodd" clip-rule="evenodd" d="M960.131 298.316C957.361 298.021 954.886 296.901 952.469 295.663C955.947 293.069 955.298 291.005 952.41 288.027C949.404 284.932 947.548 280.864 946.222 276.618C944.837 272.196 946.458 270.486 950.789 270.663C951.349 270.663 951.968 270.811 952.499 270.663C955.004 269.956 958.51 273.7 959.63 270.693C960.809 267.479 956.742 265.357 954.532 263.146C953.235 261.848 951.497 260.993 949.788 259.814C954.561 259.696 966.231 267.833 967.115 271.813C967.822 274.908 965.642 275.999 963.255 276.235C960.072 276.53 956.831 276.294 952.97 276.294C955.033 281.748 958.569 285.286 962.105 288.882C966.644 293.481 966.172 295.633 960.161 298.316H960.131Z" fill="#82A189"/>
<path fill-rule="evenodd" clip-rule="evenodd" d="M939.034 293.392C942.718 295.397 946.402 297.431 950.115 299.436C947.138 301.264 943.867 300.615 940.832 300.026C937.973 299.436 937.531 300.409 937.649 302.767C937.885 307.995 935.184 310.649 929.545 310.727C926.687 309.548 922.915 310.049 921.5 306.276C921.884 302.649 923.74 303.416 926.274 304.3C932.198 306.335 932.964 305.686 931.962 299.849C930.96 293.835 934.526 293.157 939.064 293.392H939.034Z" fill="#82A189"/>
<path fill-rule="evenodd" clip-rule="evenodd" d="M777.486 253.535C776.337 255.481 775.04 257.603 772.27 257.898C771.356 258.016 770.767 257.102 771.18 256.424C772.476 254.39 773.891 252.267 776.455 251.648C777.339 251.442 777.486 252.503 777.486 253.505V253.535Z" fill="#9C8C2C"/>
<path fill-rule="evenodd" clip-rule="evenodd" d="M943.802 421.243C945.275 422.039 946.778 422.835 948.281 423.602C952.996 426.019 954.676 430.382 952.289 434.421C949.254 439.551 945.953 436.013 942.77 434.509C942.417 434.362 942.093 434.215 941.739 434.038C935.226 429.969 928.331 426.962 920.787 425.429C916.543 424.574 914.215 425.99 913.596 430.294C912.889 435.188 912.359 440.111 911.357 444.916C910.856 447.422 910.119 450.753 906.878 450.812C903.223 450.871 902.899 447.275 902.104 444.621C901.632 443 901.632 441.231 901.426 439.551C900.483 439.256 900.07 439.904 899.687 440.553C898.597 442.469 898.096 445.506 895.237 444.887C892.202 444.238 891.76 441.054 891.495 438.43C890.817 431.945 891.907 425.606 893.646 419.091C889.609 418.59 886.426 420.27 883.185 421.597C881.888 422.128 880.621 422.57 879.531 421.361C878.47 420.182 878.912 418.885 879.531 417.647C882.802 411.043 887.723 406.414 895.385 404.94C893.823 402.199 892.202 399.811 891.053 397.246C889.078 392.824 891.259 390.023 896.033 390.819C902.428 391.91 907.762 395.33 910.414 401.049C914.687 410.247 921.789 414.521 931.219 416.497C935.551 417.411 939.647 419.563 943.831 421.184L943.802 421.243Z" fill="#C5D59B"/>
<path fill-rule="evenodd" clip-rule="evenodd" d="M870.167 270.722C868.635 268.983 866.424 271.813 865.216 273.11C854.607 284.519 838.606 286.789 823.813 286.907C820.188 286.936 816.534 286.877 812.909 286.612C809.786 286.376 801.976 285.462 803.951 287.88C813.882 288.853 824.019 289.324 834.009 288.823C841.7 288.44 849.686 287.438 856.552 283.752C860.472 281.659 864.273 278.623 867.22 275.321C868.428 273.965 871.964 272.727 870.196 270.751L870.167 270.722ZM814.058 287.968C814.058 287.968 813.882 287.968 813.823 287.968V287.85C813.823 287.85 813.911 287.939 814.058 287.968Z" fill="#B9512A"/>
<path d="M886.253 269.955C886.253 269.955 888.168 268.305 892.265 266.683C894.298 265.887 896.891 265.15 899.956 264.737C902.991 264.295 906.557 264.266 910.299 265.003C914.042 265.71 918.05 266.919 921.91 268.983C925.829 270.84 929.69 274.053 932.548 277.856C935.554 281.541 937.971 285.787 941.153 289.206C944.218 292.331 948.491 294.955 952.823 296.842C955.003 297.815 957.273 298.699 959.571 299.407C960.102 299.554 960.809 299.819 961.192 299.908L962.989 300.291L966.585 301.058C968.972 301.559 971.241 301.559 973.539 301.883C975.838 302.089 978.254 302.178 980.494 302.207C985.032 302.237 989.423 301.942 993.254 300.645C995.14 299.967 996.878 299.053 998.381 297.903C999.825 296.694 1001.15 295.427 1002.09 293.923C1004.04 291.005 1005.31 287.732 1005.75 284.961C1005.75 284.254 1005.95 283.546 1005.87 282.897C1005.78 282.249 1005.72 281.6 1005.6 280.981C1005.37 280.421 1005.13 279.861 1004.92 279.33C1004.72 278.8 1004.28 278.416 1004.01 277.974C1003.45 277.06 1002.62 276.559 1002.01 275.999C1001.42 275.409 1000.74 275.144 1000.24 274.82C999.236 274.26 998.676 273.935 998.676 273.935C998.676 273.935 999.236 274.171 1000.33 274.643C1000.86 274.879 1001.56 275.115 1002.24 275.645C1002.92 276.146 1003.83 276.589 1004.51 277.532C1004.86 277.974 1005.37 278.357 1005.63 278.918C1005.9 279.478 1006.19 280.067 1006.51 280.686C1006.69 281.335 1006.81 282.043 1006.99 282.78C1007.13 283.517 1007.02 284.283 1007.05 285.079C1006.78 288.292 1005.75 291.624 1003.74 294.985C1002.77 296.694 1001.39 298.198 999.796 299.643C998.146 300.999 996.23 302.119 994.167 303.003C989.983 304.654 985.268 305.214 980.553 305.244C978.166 305.244 975.838 305.244 973.362 305.096C970.917 304.861 968.323 304.831 965.936 304.33L962.341 303.593L960.544 303.21C959.718 303.033 959.276 302.856 958.628 302.65C956.212 301.942 953.825 301.028 951.467 299.996C946.811 297.844 942.391 295.279 938.648 291.358C937.853 290.386 937.116 289.619 936.261 288.44C935.584 287.438 934.876 286.435 934.199 285.433C932.843 283.428 931.546 281.512 930.191 279.684C927.48 276.028 924.415 273.169 920.731 271.164C917.166 269.012 913.423 267.715 909.916 266.86C902.844 265.15 896.596 266.064 892.5 267.273C888.375 268.54 886.282 269.926 886.282 269.926L886.253 269.955Z" fill="#F4F2DF"/>
<path fill-rule="evenodd" clip-rule="evenodd" d="M961.09 176.564C968.575 170.55 973.968 162.59 980.185 155.426C981.6 153.805 981.453 151.977 981.07 150.031C979.979 144.43 979.066 138.799 977.857 133.256C976.973 129.247 977.003 126.034 982.013 125.061C988.319 123.823 990.087 124.737 991.531 130.544C992.71 135.261 993.8 140.008 995.067 145.373C999.429 141.6 1002.08 137.266 1004.53 132.814C1012.54 118.221 1015.55 102.597 1013.81 86.0283C1013.49 83.0508 1012.6 79.9553 1015.05 77.3315C1017.67 77.2136 1020.26 77.1252 1022.89 77.0072C1026.48 77.9801 1026.45 81.0166 1026.69 83.8468C1027.31 91.2759 1028.66 98.5282 1031.23 105.574C1032.4 108.758 1033.82 109.141 1035.7 106.105C1037.62 103.039 1039.3 99.8253 1040.45 96.3761C1045.25 81.6947 1049.02 66.7774 1048.82 51.1526C1048.82 49.4427 1048.79 47.7328 1048.94 46.023C1049.14 43.635 1049.76 41.2766 1052.44 40.7754C1055.27 40.2447 1057.72 41.1881 1059.1 43.9888C1060.55 46.9074 1061.4 50.0029 1062.11 53.1868C1068.09 80.3091 1060.84 104.542 1045.19 126.446C1028.4 149.943 1006.56 167.69 980.333 179.925C978.299 180.868 976.296 182.165 973.85 181.074C971.315 182.283 968.693 183.315 966.306 184.73C963.005 186.676 959.498 187.118 957.318 183.934C954.695 180.072 958.997 178.627 961.149 176.623L961.09 176.564Z" fill="#B89E2E"/>
<path fill-rule="evenodd" clip-rule="evenodd" d="M908.121 165.535C894.801 129.922 895.007 94.044 906.824 58.1954C912.099 42.1874 922.413 29.5696 936.028 19.723C937.354 18.7797 938.769 17.0698 940.507 18.6323C942.216 20.1652 940.772 21.4919 939.859 23.0249C931.431 37.1756 919.349 79.7753 919.997 92.7763C925.036 91.715 928.16 88.0889 931.313 84.5512C934.348 81.1314 937.236 77.5937 940.242 74.174C941.45 72.8179 942.953 71.9629 944.81 72.8768C946.371 73.6433 946.637 75.1468 946.784 76.7388C947.108 80.7187 945.605 84.1679 943.778 87.5877C939.947 94.781 933.965 100.147 928.337 105.836C920.616 113.619 918.818 122.699 921.765 134.403C926.627 126.325 930.812 119.103 936.411 112.941C937.884 111.32 938.769 108.696 941.686 109.492C944.397 110.229 944.633 112.882 945.075 115.005C947.02 124.674 943.808 133.018 937.943 140.506C935.586 143.513 933.022 146.313 930.517 149.173C925.242 155.246 922.03 161.82 925.242 170.016C919.791 167.539 913.455 168.512 908.151 165.535H908.121Z" fill="#B89E2E"/>
</svg>
