<svg width="192" height="192" viewBox="0 0 192 192" fill="none" xmlns="http://www.w3.org/2000/svg">
<g clip-path="url(#clip0_31_338)">
<g clip-path="url(#clip1_31_338)">
<path d="M161.073 97.5025C157.383 96.979 153.891 95.0866 151.309 93.3216C151.731 93.1936 152.14 92.968 152.474 92.6379L160.77 84.2697C161.84 83.1942 161.832 81.4539 160.754 80.3933C159.678 79.3232 157.938 79.331 156.877 80.4092L148.582 88.7774C148.081 89.2884 147.819 89.9416 147.796 90.6008C147.339 90.1985 147.053 89.9286 146.98 89.8556C146.961 89.85 146.957 89.828 146.941 89.8129C145.779 88.4266 144.277 87.2853 142.649 86.3263C142.732 86.1837 142.795 86.0355 142.849 85.8846L146.904 73.8885C147.39 72.4571 146.624 70.8933 145.18 70.4142C143.748 69.9283 142.185 70.6948 141.706 72.1386L137.665 84.0866C134.765 83.0625 132.068 82.5238 130.641 82.2783C130.573 82.2589 130.319 82.2376 130.218 82.2291C129.241 82.1867 127.689 82.1551 125.848 82.2588L124.455 70.3143C124.276 68.8056 122.922 67.7279 121.413 67.9066C119.905 68.0853 118.837 69.4424 119.006 70.9483L120.401 82.956C118.264 83.4009 116.115 84.1026 114.257 85.1691L107.886 75.2541C107.068 73.9773 105.372 73.6129 104.096 74.431C102.819 75.249 102.454 76.9445 103.272 78.2213L109.515 87.9327C106.525 89.3493 101.824 91.1047 97.2628 90.7878C96.3234 90.7249 96.0263 91.8985 96.8894 92.262C101.003 93.9487 107.906 95.1289 117.715 91.4337C117.715 91.4337 123.885 89.5296 129.203 90.0024C129.424 89.9934 129.712 90.0038 129.955 90.0635C135.354 90.5076 140.948 93.8808 140.948 93.8808C149.772 99.5496 156.768 99.8304 161.139 99.0411C162.059 98.8801 162.006 97.6574 161.077 97.5245L161.073 97.5025Z" fill="#B89E2E"/>
<path d="M192.066 71.3606C191.949 70.1406 191.713 68.938 191.37 67.7462C191.022 66.5736 190.551 65.4281 189.984 64.3277C189.421 63.2494 188.738 62.1885 187.962 61.2359C187.755 60.9785 187.521 60.7444 187.292 60.491C187.292 60.491 187.259 60.4607 187.243 60.4456C186.65 59.7957 186.02 59.1663 185.348 58.6082C184.388 57.8213 183.36 57.1291 182.292 56.5397C181.223 55.9504 180.071 55.4721 178.907 55.105C178.249 54.8945 177.575 54.7416 176.905 54.6107C177.347 48.6806 174.999 42.6429 170.048 38.5915C164.911 34.3925 158.232 33.3708 152.362 35.2468C149.805 29.6797 144.541 25.486 138.018 24.5402C131.051 23.5081 124.392 26.4576 120.363 31.6543C115.019 28.4988 108.227 28.0482 102.292 31.0504C96.4192 34.0184 92.7809 39.6296 92.0698 45.7005C91.5286 45.7005 90.9819 45.7196 90.4364 45.7704C89.2163 45.8867 87.9946 46.117 86.8 46.4696C85.6274 46.8181 84.4819 47.289 83.3939 47.8493C82.2935 48.4165 81.2519 49.1047 80.2829 49.8658C80.0255 50.0726 79.7913 50.3068 79.5504 50.5287L79.5009 50.5561L79.5105 50.5589C78.8578 51.1615 78.238 51.7945 77.6579 52.4702C76.8711 53.4296 76.1816 54.4484 75.5895 55.5265C75.0042 56.617 74.5246 57.7379 74.1547 58.9114C73.7793 60.1041 73.5412 61.326 73.4075 62.5468C73.2766 63.7579 73.2582 65.012 73.3745 66.2321C73.4908 67.4521 73.721 68.6739 74.0696 69.8465C74.4126 71.0383 74.8835 72.1838 75.4466 73.2622C76.0329 74.3681 76.6923 75.4014 77.4686 76.354C78.2546 77.3093 79.1327 78.1976 80.0894 78.9941C81.0296 79.7754 82.058 80.4677 83.1265 81.057C84.217 81.6423 85.3572 82.1275 86.5306 82.4973C87.7041 82.8671 88.9232 83.1149 90.1468 83.239C91.358 83.3699 92.612 83.3883 93.8541 83.268C95.0645 83.1489 96.2767 82.9158 97.4685 82.5728C98.6411 82.2243 99.7866 81.7534 100.875 81.1931C101.98 80.6067 103.019 79.9281 103.972 79.1518C104.082 79.0587 104.185 78.9532 104.296 78.8601C104.32 78.8464 104.296 78.8601 104.4 78.7862L104.783 78.4699L104.76 78.4424C105.083 78.1506 105.4 77.8465 105.71 77.53C106.38 77.0469 107.161 76.5751 107.994 76.1075C110.001 75.0317 112.394 74.1301 114.942 73.4184C120.057 71.9594 125.973 71.3665 132.084 71.5062C138.039 72.7979 143.637 74.7879 148.579 77.3902C151.044 78.6948 153.311 80.1815 155.334 81.7541C156.362 82.5192 157.267 83.3526 158.09 84.1418C158.123 84.1722 158.153 84.2121 158.186 84.2424C158.35 84.4667 158.502 84.6979 158.672 84.903C158.879 85.1604 159.11 85.4041 159.342 85.6479L159.336 85.6671C159.495 85.8378 159.561 85.8985 159.587 85.9164C160.12 86.4865 160.67 87.0305 161.273 87.5376C162.214 88.3189 163.242 89.0111 164.33 89.606C165.398 90.1954 166.551 90.6737 167.715 91.0408C168.888 91.4106 170.11 91.6487 171.331 91.7824C172.542 91.9133 173.796 91.9318 175.038 91.8114C176.258 91.6951 177.48 91.4648 178.652 91.1163C179.825 90.7677 180.971 90.2968 182.068 89.7393C183.152 89.157 184.203 88.4716 185.166 87.698C186.115 86.9313 187.004 86.0532 187.788 85.1033C188.569 84.1631 189.261 83.1347 189.856 82.047C190.446 80.9785 190.921 79.8355 191.291 78.6621C191.661 77.4886 191.921 76.2627 192.052 75.0515C192.185 73.8307 192.182 72.5807 192.062 71.3386L192.066 71.3606Z" fill="#3E3A39"/>
<path d="M130.543 50.0476C131.051 45.2193 133.204 42.5932 135.477 42.8327C137.759 43.0749 139.313 46.0941 138.804 50.9224C138.296 55.7506 133.634 60.3276 133.634 60.3276C133.634 60.3276 130.034 54.8759 130.543 50.0476Z" fill="#B89E2E"/>
<path d="M110.011 52.3452C106.958 48.5707 103.728 47.5347 101.939 48.975C100.159 50.4181 100.496 53.794 103.549 57.5685C106.603 61.343 113.002 62.6483 113.002 62.6483C113.002 62.6483 113.064 56.1196 110.001 52.3424L110.011 52.3452Z" fill="#B89E2E"/>
<path d="M159.098 57.528C162.873 54.4748 166.249 54.1375 167.692 55.9174C169.135 57.6973 168.099 60.9267 164.322 63.9895C160.547 67.0427 154.016 66.9898 154.016 66.9898C154.016 66.9898 155.321 60.5908 159.096 57.5376L159.098 57.528Z" fill="#B89E2E"/>
</g>
<g clip-path="url(#clip2_31_338)">
<path d="M86.8475 139.067C84.3071 140.352 81.2921 140.692 78.9032 140.715C79.1116 140.45 79.269 140.13 79.3344 139.777L80.8746 130.909C81.0751 129.768 80.3096 128.681 79.1706 128.487C78.0291 128.287 76.9421 129.052 76.7489 130.191L75.2087 139.059C75.1179 139.599 75.2396 140.122 75.5129 140.546C75.0512 140.493 74.7537 140.449 74.6764 140.435C74.6619 140.44 74.6497 140.428 74.6328 140.426C73.2995 140.064 71.8594 140.006 70.4203 140.117C70.4099 139.991 70.3849 139.87 70.3528 139.752L67.6508 130.464C67.3297 129.355 66.166 128.71 65.0521 129.041C63.9429 129.362 63.2981 130.526 63.6289 131.64L66.3186 140.892C64.0543 141.517 62.1295 142.358 61.1276 142.828C61.077 142.846 60.9085 142.943 60.8411 142.982C60.2108 143.383 59.2245 144.041 58.1165 144.911L52.0238 138.036C51.2525 137.169 49.933 137.085 49.0658 137.857C48.1987 138.628 48.1225 139.945 48.8866 140.814L55.0085 147.728C53.864 148.94 52.8244 150.319 52.126 151.8L43.8015 148.372C42.731 147.929 41.5095 148.442 41.067 149.512C40.6245 150.583 41.1372 151.804 42.2077 152.247L50.3627 155.603C49.1085 157.798 46.9303 160.952 43.9343 162.747C43.3182 163.118 43.645 163.983 44.3446 163.833C47.659 163.092 52.5 160.815 57.0308 154.213C57.0308 154.213 60.0642 150.324 63.6023 148.296C63.7369 148.194 63.9222 148.074 64.1005 148.005C67.6769 145.925 72.6559 145.593 72.6559 145.593C80.6619 145.289 85.1681 142.407 87.5612 140.003C88.0677 139.499 87.5001 138.756 86.8596 139.079L86.8475 139.067Z" fill="#3E3A39"/>
<path d="M94.8409 109.144C94.2349 108.431 93.5616 107.78 92.8258 107.183C92.095 106.601 91.2994 106.089 90.4632 105.648C89.6391 105.218 88.7478 104.852 87.8451 104.594C87.6031 104.523 87.354 104.479 87.1 104.42C87.1 104.42 87.0661 104.416 87.0492 104.413C86.3936 104.265 85.7237 104.146 85.059 104.09C84.114 104.016 83.1672 104.032 82.2402 104.13C81.3132 104.228 80.3821 104.432 79.4924 104.71C78.9886 104.866 78.4994 105.064 78.0225 105.275C75.7075 101.367 71.5978 98.6103 66.7254 98.2356C61.6717 97.8499 57.0409 100.128 54.1829 103.869C50.1481 101.499 45.0175 101.171 40.517 103.43C35.701 105.828 32.818 110.586 32.565 115.602C27.8374 115.961 23.3855 118.647 20.979 123.121C18.5964 127.548 18.7691 132.653 20.9767 136.767C20.6376 137.004 20.3034 137.255 19.9838 137.525C19.2703 138.131 18.6054 138.809 18.0111 139.552C17.4287 140.283 16.9169 141.079 16.4801 141.905C16.0385 142.742 15.6866 143.628 15.4122 144.528C15.3412 144.77 15.2969 145.019 15.2429 145.264L15.2238 145.303L15.2311 145.3C15.0855 145.963 14.9738 146.63 14.9057 147.307C14.832 148.252 14.8452 149.192 14.9454 150.126C15.0553 151.065 15.2447 151.977 15.5258 152.874C15.8118 153.785 16.1966 154.655 16.6464 155.478C17.0936 156.294 17.6301 157.088 18.2362 157.801C18.8422 158.515 19.5205 159.18 20.2513 159.762C20.987 160.359 21.7826 160.871 22.6067 161.3C23.4574 161.737 24.3221 162.096 25.2248 162.354C26.1347 162.609 27.0731 162.782 28.0205 162.863C28.9511 162.941 29.8979 162.925 30.8249 162.828C31.7639 162.718 32.6903 162.524 33.5871 162.242C34.484 161.961 35.356 161.584 36.1769 161.127C36.9929 160.68 37.7867 160.143 38.5123 159.525C39.2186 158.921 39.8762 158.245 40.473 157.51C41.0554 156.779 41.5673 155.983 42.0041 155.157C42.4407 154.306 42.795 153.427 43.0526 152.524C43.0809 152.418 43.0995 152.307 43.1278 152.2C43.1374 152.181 43.1278 152.2 43.161 152.108L43.2626 151.743L43.236 151.736C43.3112 151.411 43.3767 151.082 43.4326 150.749C43.6414 150.153 43.9248 149.516 44.2419 148.859C45.0292 147.308 46.1349 145.697 47.4198 144.138C49.9869 140.989 53.4345 138.032 57.3242 135.449C61.6199 133.655 65.9967 132.456 70.2304 131.926C72.3449 131.666 74.4147 131.607 76.3697 131.708C77.3482 131.738 78.279 131.865 79.1399 132C79.1737 132.005 79.21 132.016 79.2439 132.021C79.4448 132.09 79.641 132.168 79.837 132.223C80.079 132.294 80.3306 132.345 80.5822 132.397L80.5871 132.411C80.7612 132.449 80.8289 132.458 80.8531 132.458C81.4361 132.582 82.0189 132.682 82.6183 132.736C83.5489 132.815 84.4957 132.799 85.4372 132.697C86.3642 132.599 87.2953 132.395 88.1849 132.116C89.0818 131.835 89.9514 131.45 90.7746 131.001C91.5907 130.553 92.3845 130.017 93.11 129.399C93.8236 128.793 94.4885 128.114 95.0708 127.383C95.6532 126.653 96.165 125.857 96.6091 125.028C97.0337 124.19 97.3928 123.301 97.6576 122.396C97.9176 121.5 98.0904 120.562 98.1665 119.624C98.2451 118.693 98.2294 117.747 98.1268 116.805C98.0291 115.878 97.8275 114.954 97.5464 114.057C97.2653 113.16 96.8925 112.279 96.4452 111.463C95.9955 110.639 95.447 109.858 94.8288 109.132L94.8409 109.144Z" fill="#B89E2E"/>
<path d="M46.9809 122.678C45.1895 119.43 45.3905 116.844 46.919 116.001C48.4548 115.156 50.7478 116.368 52.5392 119.615C54.3306 122.863 53.4101 127.768 53.4101 127.768C53.4101 127.768 48.7723 125.925 46.9809 122.678Z" fill="#3E3A39"/>
<path d="M35.1211 133.09C31.5587 132.059 29.0826 132.822 28.5909 134.506C28.1064 136.188 29.7931 138.156 33.3555 139.186C36.9179 140.217 41.4975 138.238 41.4975 138.238C41.4975 138.238 38.6836 134.12 35.1139 133.092L35.1211 133.09Z" fill="#3E3A39"/>
<path d="M68.1409 114.885C69.1714 111.323 71.1391 109.636 72.821 110.12C74.503 110.605 75.2653 113.081 74.2372 116.651C73.2067 120.213 69.0915 123.034 69.0915 123.034C69.0915 123.034 67.1128 118.455 68.1433 114.892L68.1409 114.885Z" fill="#3E3A39"/>
</g>
</g>
<defs>
<clipPath id="clip0_31_338">
<rect width="192" height="192" fill="white"/>
</clipPath>
<clipPath id="clip1_31_338">
<rect width="118.03" height="76.75" fill="white" transform="translate(88.2793 10) rotate(16.0963)"/>
</clipPath>
<clipPath id="clip2_31_338">
<rect width="90.1617" height="58.6284" fill="white" transform="translate(3 116.057) rotate(-18.8004)"/>
</clipPath>
</defs>
</svg>
