<svg width="220" height="220" viewBox="0 0 220 220" fill="none" xmlns="http://www.w3.org/2000/svg">
<g clip-path="url(#clip0_31_254)">
<path d="M75.2649 46.2366C74.9349 46.2366 74.605 46.1589 74.2944 45.9839C73.3337 45.4492 72.994 44.2341 73.5277 43.2814C77.0796 36.9043 82.2619 31.5673 88.5213 27.8344C94.8293 24.0625 101.991 22.06 109.211 22.0211C116.509 21.953 123.72 23.8195 129.999 27.4164C136.326 31.0132 141.615 36.2432 145.293 42.5523C145.846 43.505 145.526 44.7201 144.585 45.2742C143.634 45.8284 142.42 45.5076 141.867 44.5646C138.539 38.8582 133.754 34.1337 128.038 30.8771C122.361 27.6302 115.84 25.9387 109.241 26.0068C102.709 26.0359 96.2558 27.8538 90.5496 31.2562C84.8918 34.6295 80.2045 39.461 76.9923 45.2256C76.6332 45.877 75.9539 46.2464 75.2552 46.2464L75.2649 46.2366Z" fill="#F2C960"/>
<path d="M69.511 43.0091C69.181 43.0091 68.851 42.9313 68.5405 42.7563C67.5798 42.2217 67.2401 41.0065 67.7738 40.0538C71.8886 32.6657 77.8957 26.4733 85.145 22.1571C92.4525 17.7825 100.76 15.4592 109.154 15.4203C117.636 15.3328 125.972 17.5006 133.27 21.6807C140.597 25.8511 146.73 31.9172 150.99 39.2275C151.544 40.1802 151.223 41.3954 150.282 41.9495C149.331 42.5036 148.118 42.1828 147.565 41.2398C143.654 34.5419 138.035 28.9717 131.3 25.1512C124.613 21.3211 116.957 19.3379 109.173 19.4157C101.478 19.4546 93.8791 21.5835 87.1733 25.5984C80.5159 29.5646 75.0134 35.2418 71.2384 42.0175C70.8793 42.6688 70.2 43.0383 69.5013 43.0383L69.511 43.0091Z" fill="#F2C960"/>
<path d="M63.7573 39.7916C63.4273 39.7916 63.0974 39.7138 62.7868 39.5388C61.8261 39.0042 61.4864 37.789 62.0202 36.8363C66.6978 28.4372 73.5298 21.399 81.7787 16.4898C90.0858 11.5028 99.5283 8.84893 109.097 8.80032C118.753 8.68367 128.234 11.1626 136.542 15.926C144.878 20.6699 151.846 27.5623 156.698 35.8739C157.251 36.8266 156.931 38.0418 155.989 38.5959C155.038 39.15 153.825 38.8292 153.272 37.8862C148.779 30.187 142.316 23.7904 134.581 19.3867C126.876 14.9733 118.074 12.6888 109.126 12.786C100.266 12.8249 91.5123 15.2844 83.8166 19.902C76.1694 24.4612 69.8323 30.9841 65.4944 38.7708C65.1353 39.4222 64.456 39.7916 63.7573 39.7916Z" fill="#3B3B3B"/>
<path d="M189.703 124.191C189.295 124.191 188.878 124.064 188.519 123.802C187.636 123.151 187.451 121.897 188.111 121.022C191.799 116.044 194.215 110.192 195.099 104.097C195.991 98.0116 195.341 91.722 193.206 85.899C191.071 80.0079 187.539 74.7779 182.968 70.7727C178.349 66.6704 172.73 63.754 166.722 62.325C165.655 62.0722 164.995 61.0029 165.247 59.9336C165.5 58.8642 166.567 58.2032 167.635 58.456C174.273 60.0405 180.484 63.268 185.588 67.7883C190.654 72.2309 194.575 78.0248 196.933 84.538C199.291 90.9734 200.019 97.9436 199.019 104.671C198.039 111.417 195.37 117.891 191.285 123.394C190.897 123.919 190.295 124.201 189.683 124.201L189.703 124.191Z" fill="#F2C960"/>
<path d="M195.005 128.128C194.597 128.128 194.18 128.002 193.821 127.739C192.938 127.088 192.754 125.834 193.413 124.959C197.751 119.117 200.585 112.234 201.633 105.06C202.691 97.8951 201.924 90.4973 199.411 83.6438C196.907 76.7223 192.744 70.5688 187.348 65.8345C181.914 61.0128 175.314 57.5812 168.25 55.8995C167.182 55.6467 166.522 54.5774 166.774 53.508C167.027 52.4387 168.094 51.7777 169.162 52.0304C176.857 53.858 184.049 57.6007 189.968 62.8501C195.849 68.0218 200.41 74.7392 203.137 82.2828C205.874 89.739 206.709 97.8173 205.554 105.633C204.418 113.449 201.323 120.954 196.597 127.331C196.208 127.856 195.607 128.138 195.005 128.138V128.128Z" fill="#F2C960"/>
<path d="M200.3 132.065C199.892 132.065 199.475 131.939 199.116 131.676C198.233 131.025 198.048 129.771 198.708 128.896C203.687 122.179 206.957 114.266 208.151 106.012C209.373 97.7686 208.49 89.2529 205.598 81.3787C202.726 73.4267 197.922 66.3399 191.711 60.8766C185.471 55.3355 177.882 51.3887 169.769 49.4639C168.702 49.2112 168.042 48.1418 168.294 47.0725C168.546 46.0032 169.624 45.3421 170.681 45.5949C179.435 47.6752 187.606 51.9331 194.331 57.9019C201.037 63.793 206.219 71.4436 209.315 80.0177C212.43 88.5043 213.381 97.6909 212.062 106.596C210.771 115.49 207.248 124.026 201.872 131.268C201.484 131.793 200.882 132.075 200.271 132.075L200.3 132.065Z" fill="#3B3B3B"/>
<path d="M139.59 197.246C136.135 197.246 132.69 196.818 129.371 195.963C128.313 195.691 127.663 194.602 127.945 193.542C128.226 192.483 129.303 191.841 130.361 192.113C135.786 193.504 141.57 193.649 147.092 192.512C152.623 191.384 157.873 188.973 162.299 185.542C164.57 183.811 166.617 181.848 168.403 179.699C170.179 177.551 171.722 175.179 172.983 172.652C175.497 167.626 176.865 161.997 176.953 156.349C176.972 155.251 177.865 154.376 178.971 154.385C180.068 154.405 180.941 155.309 180.932 156.407C180.844 162.639 179.321 168.87 176.545 174.43C175.148 177.23 173.44 179.855 171.47 182.246C169.49 184.628 167.219 186.796 164.735 188.701C159.853 192.502 154.021 195.166 147.907 196.41C145.18 196.964 142.395 197.246 139.619 197.246H139.59Z" fill="#F2C960"/>
<path d="M139.588 203.856C135.589 203.856 131.591 203.361 127.738 202.369C126.681 202.097 126.03 201.008 126.312 199.949C126.584 198.879 127.661 198.238 128.728 198.52C135.114 200.162 141.917 200.318 148.409 198.986C154.911 197.664 161.093 194.835 166.304 190.791C168.963 188.759 171.37 186.456 173.476 183.918C175.572 181.381 177.387 178.581 178.872 175.607C181.832 169.696 183.443 163.076 183.54 156.446C183.559 155.348 184.452 154.492 185.558 154.482C186.655 154.502 187.528 155.406 187.518 156.504C187.412 163.727 185.655 170.95 182.433 177.395C180.813 180.642 178.823 183.695 176.543 186.465C174.243 189.226 171.613 191.744 168.73 193.951C163.053 198.354 156.309 201.446 149.215 202.884C146.061 203.536 142.829 203.856 139.607 203.856H139.588Z" fill="#F2C960"/>
<path d="M139.591 210.467C135.04 210.467 130.498 209.903 126.111 208.775C125.054 208.503 124.403 207.414 124.675 206.355C124.947 205.295 126.024 204.644 127.092 204.916C134.438 206.802 142.26 206.987 149.723 205.46C157.195 203.944 164.309 200.687 170.306 196.04C173.363 193.707 176.129 191.053 178.545 188.137C180.962 185.211 183.048 181.993 184.766 178.571C188.162 171.776 190.016 164.165 190.132 156.543C190.152 155.445 191.045 154.56 192.151 154.579C193.248 154.599 194.121 155.503 194.111 156.601C193.995 164.816 191.986 173.03 188.327 180.35C186.483 184.044 184.222 187.515 181.612 190.674C178.992 193.824 176.012 196.682 172.732 199.19C166.269 204.197 158.593 207.716 150.528 209.358C146.937 210.097 143.269 210.467 139.601 210.467H139.591Z" fill="#3B3B3B"/>
<path d="M79.6653 197.246C76.9674 197.246 74.2598 196.984 71.6202 196.459C65.6325 195.283 59.8583 192.697 54.9089 188.973C50.0275 185.367 45.9225 180.545 43.05 175.033C40.2162 169.599 38.5956 163.465 38.3724 157.311C38.3335 156.213 39.1875 155.289 40.2842 155.251C41.3905 155.212 42.3027 156.067 42.3415 157.166C42.5453 162.736 44.001 168.277 46.5727 173.196C49.1638 178.173 52.871 182.528 57.2866 185.785C61.7701 189.158 66.9911 191.491 72.3869 192.561C77.8505 193.64 83.5762 193.484 88.9331 192.113C90.0006 191.841 91.0779 192.483 91.3496 193.542C91.6213 194.602 90.9808 195.691 89.923 195.963C86.5943 196.818 83.1298 197.246 79.675 197.246H79.6653Z" fill="#F2C960"/>
<path d="M79.6512 203.856C76.5263 203.856 73.3917 203.555 70.3251 202.942C63.3766 201.581 56.6805 198.577 50.9548 194.271C45.2873 190.081 40.5224 184.482 37.1937 178.095C33.9039 171.795 32.0309 164.689 31.7689 157.554C31.73 156.455 32.584 155.532 33.6806 155.493C34.7773 155.474 35.6992 156.31 35.738 157.408C35.9709 163.95 37.6886 170.473 40.7068 176.258C43.754 182.11 48.1113 187.233 53.313 191.082C58.5826 195.049 64.7158 197.79 71.082 199.044C77.5065 200.318 84.2317 200.133 90.5397 198.509C91.6072 198.237 92.6844 198.879 92.9561 199.938C93.2278 200.998 92.5873 202.087 91.5295 202.359C87.6671 203.351 83.6591 203.846 79.6415 203.846L79.6512 203.856Z" fill="#F2C960"/>
<path d="M79.6508 210.467C76.0892 210.467 72.5276 210.117 69.0437 209.427C61.1345 207.871 53.5164 204.459 47.0046 199.56C40.5414 194.777 35.1262 188.41 31.3512 181.148C27.6149 173.974 25.4799 165.895 25.1888 157.788C25.15 156.689 26.004 155.766 27.1006 155.727C28.1875 155.698 29.1191 156.543 29.1579 157.642C29.4297 165.166 31.4094 172.661 34.8739 179.31C38.3773 186.038 43.3945 191.938 49.3822 196.371C55.4282 200.921 62.4931 204.08 69.82 205.519C77.2052 206.987 84.9397 206.773 92.1891 204.906C93.2566 204.634 94.3338 205.276 94.6055 206.335C94.8772 207.395 94.2367 208.484 93.1789 208.756C88.7828 209.884 84.2216 210.448 79.6605 210.448L79.6508 210.467Z" fill="#3B3B3B"/>
<path d="M29.6023 124.239C29.0006 124.239 28.3989 123.967 28.0107 123.442C23.9251 117.95 21.237 111.475 20.2471 104.729C19.2475 98.0019 19.956 91.0318 22.3045 84.5866C24.6433 78.0831 28.5542 72.2796 33.6297 67.8175C38.7149 63.2874 44.9161 60.0503 51.5637 58.456C52.6312 58.2032 53.6987 58.8643 53.9607 59.9239C54.213 60.9932 53.5531 62.0626 52.4953 62.325C46.4882 63.7638 40.879 66.6898 36.2693 70.8019C31.6888 74.8362 28.1563 80.076 26.0504 85.9476C23.9251 91.7803 23.2749 98.0797 24.1871 104.155C25.08 110.26 27.5158 116.103 31.2132 121.08C31.8732 121.965 31.6888 123.209 30.8057 123.86C30.4466 124.123 30.0293 124.259 29.6217 124.259L29.6023 124.239Z" fill="#F2C960"/>
<path d="M24.3062 128.186C23.7045 128.186 23.1029 127.914 22.7147 127.389C17.9789 121.022 14.8637 113.527 13.7186 105.701C12.554 97.8951 13.3789 89.8168 16.1059 82.3314C18.8037 74.7975 23.3552 68.0704 29.2459 62.8696C35.1462 57.6201 42.3373 53.858 50.0233 52.0207C51.0908 51.7679 52.1583 52.429 52.4203 53.4886C52.6727 54.5579 52.0127 55.6272 50.955 55.8897C43.8997 57.5812 37.3006 61.0225 31.8855 65.854C26.4898 70.6174 22.3265 76.7806 19.8518 83.6924C17.3481 90.5556 16.5911 97.9632 17.6586 105.118C18.7164 112.292 21.5695 119.175 25.9172 125.017C26.5771 125.902 26.3927 127.146 25.5096 127.798C25.1505 128.06 24.7332 128.196 24.3256 128.196L24.3062 128.186Z" fill="#F2C960"/>
<path d="M19.0103 132.133C18.4086 132.133 17.8069 131.861 17.4187 131.336C12.0327 124.094 8.50022 115.568 7.1901 106.673C5.86058 97.7881 6.79222 88.5919 9.89768 80.0858C12.974 71.5214 18.1466 63.8611 24.8524 57.9408C31.5583 51.9623 39.7295 47.6947 48.483 45.5949C49.5505 45.3421 50.618 46.0032 50.8801 47.0628C51.1324 48.1321 50.4725 49.2015 49.4147 49.4639C41.3016 51.4082 33.7224 55.3647 27.4921 60.9155C21.2714 66.3983 16.4871 73.4948 13.6436 81.437C10.7614 89.3307 9.89768 97.8465 11.1302 106.08C12.3432 114.334 15.6234 122.237 20.6212 128.954C21.2811 129.839 21.0967 131.083 20.2136 131.735C19.8546 131.997 19.4373 132.133 19.0297 132.133H19.0103Z" fill="#3B3B3B"/>
</g>
<path d="M194.152 135.667L216.152 142.267" stroke="#3B3B3B" stroke-width="3.66667" stroke-linecap="round"/>
<path d="M193.598 148.68L215.621 142.738" stroke="#3B3B3B" stroke-width="3.66667" stroke-linecap="round"/>
<path d="M88.5132 105.229C87.5276 105.229 86.6182 105.035 85.7852 104.648C84.9638 104.261 84.295 103.621 83.7788 102.73L85.0988 101.92C85.486 102.483 85.9553 102.917 86.5068 103.222C87.0582 103.527 87.7446 103.68 88.566 103.68C89.3873 103.68 90.0268 103.516 90.4844 103.187C90.942 102.859 91.1708 102.378 91.1708 101.744C91.1708 101.369 91.0886 101.046 90.9244 100.776C90.7601 100.494 90.4316 100.242 89.9388 100.019C89.446 99.7963 88.7009 99.5851 87.7036 99.3856C85.439 98.8928 84.3068 97.7371 84.3068 95.9184C84.3068 95.2144 84.4769 94.5984 84.8172 94.0704C85.1574 93.5424 85.6326 93.1317 86.2428 92.8384C86.8529 92.5333 87.5628 92.3808 88.3724 92.3808C89.358 92.3808 90.2028 92.5861 90.9068 92.9968C91.6225 93.4075 92.215 93.912 92.6844 94.5104L91.4524 95.5136C91.0769 95.1029 90.6486 94.7392 90.1676 94.4224C89.6865 94.1056 89.0822 93.9472 88.3548 93.9472C87.6742 93.9472 87.1052 94.1115 86.6476 94.44C86.2017 94.7568 85.9788 95.2261 85.9788 95.848C85.9788 96.1765 86.0492 96.4757 86.19 96.7456C86.3425 97.0037 86.6182 97.2325 87.0172 97.432C87.4161 97.6315 87.9969 97.8133 88.7596 97.9776C90.2145 98.2827 91.2588 98.7403 91.8924 99.3504C92.5377 99.9605 92.8604 100.753 92.8604 101.726C92.8604 102.477 92.6726 103.117 92.2972 103.645C91.9334 104.161 91.423 104.554 90.766 104.824C90.1206 105.094 89.3697 105.229 88.5132 105.229ZM95.9965 105V92.68H97.5981L103.916 102.166V92.68H105.536V105H103.987L97.5981 95.3376V105H95.9965ZM113.373 105.229C112.388 105.229 111.478 105.035 110.645 104.648C109.824 104.261 109.155 103.621 108.639 102.73L109.959 101.92C110.346 102.483 110.815 102.917 111.367 103.222C111.918 103.527 112.605 103.68 113.426 103.68C114.247 103.68 114.887 103.516 115.344 103.187C115.802 102.859 116.031 102.378 116.031 101.744C116.031 101.369 115.949 101.046 115.784 100.776C115.62 100.494 115.292 100.242 114.799 100.019C114.306 99.7963 113.561 99.5851 112.564 99.3856C110.299 98.8928 109.167 97.7371 109.167 95.9184C109.167 95.2144 109.337 94.5984 109.677 94.0704C110.017 93.5424 110.493 93.1317 111.103 92.8384C111.713 92.5333 112.423 92.3808 113.232 92.3808C114.218 92.3808 115.063 92.5861 115.767 92.9968C116.482 93.4075 117.075 93.912 117.544 94.5104L116.312 95.5136C115.937 95.1029 115.509 94.7392 115.028 94.4224C114.546 94.1056 113.942 93.9472 113.215 93.9472C112.534 93.9472 111.965 94.1115 111.508 94.44C111.062 94.7568 110.839 95.2261 110.839 95.848C110.839 96.1765 110.909 96.4757 111.05 96.7456C111.202 97.0037 111.478 97.2325 111.877 97.432C112.276 97.6315 112.857 97.8133 113.62 97.9776C115.074 98.2827 116.119 98.7403 116.752 99.3504C117.398 99.9605 117.72 100.753 117.72 101.726C117.72 102.477 117.533 103.117 117.157 103.645C116.793 104.161 116.283 104.554 115.626 104.824C114.981 105.094 114.23 105.229 113.373 105.229ZM133.616 105.334C131.845 105.252 130.384 104.947 129.234 104.419C128.096 103.891 127.251 103.175 126.7 102.272C126.148 101.369 125.872 100.313 125.872 99.104C125.872 97.9189 126.148 96.8747 126.7 95.9712C127.251 95.0677 128.008 94.3168 128.97 93.7184C127.949 93.8475 126.923 93.9824 125.89 94.1232C124.869 94.2523 123.925 94.3755 123.056 94.4928C122.2 94.6101 121.514 94.7099 120.997 94.792C120.997 94.6747 120.98 94.5104 120.944 94.2992C120.909 94.0763 120.874 93.8533 120.839 93.6304C120.804 93.4075 120.768 93.2373 120.733 93.12C121.261 93.0848 121.912 93.032 122.687 92.9616C123.473 92.8912 124.324 92.8091 125.239 92.7152C126.166 92.6096 127.104 92.504 128.055 92.3984C129.005 92.2811 129.92 92.1637 130.8 92.0464C131.692 91.9291 132.496 91.8117 133.212 91.6944C133.927 91.5771 134.502 91.4715 134.936 91.3776C134.972 91.4949 135.019 91.6592 135.077 91.8704C135.148 92.0816 135.218 92.2928 135.288 92.504C135.371 92.7152 135.435 92.8795 135.482 92.9968C135.247 93.0085 134.995 93.0261 134.725 93.0496C134.467 93.0613 134.156 93.0907 133.792 93.1376C132.936 93.2432 132.126 93.4544 131.364 93.7712C130.613 94.0763 129.944 94.4869 129.357 95.0032C128.782 95.5077 128.325 96.1061 127.984 96.7984C127.656 97.4789 127.492 98.2475 127.492 99.104C127.492 100.535 128.02 101.644 129.076 102.43C130.143 103.217 131.833 103.662 134.144 103.768C134.027 103.956 133.916 104.214 133.81 104.542C133.716 104.859 133.652 105.123 133.616 105.334ZM135.482 96.9216C135.435 96.8512 135.318 96.7163 135.13 96.5168C134.954 96.3056 134.755 96.0768 134.532 95.8304C134.309 95.584 134.103 95.3611 133.916 95.1616C133.74 94.9621 133.622 94.8331 133.564 94.7744L134.32 94.1232C134.379 94.1936 134.496 94.3344 134.672 94.5456C134.86 94.7451 135.06 94.968 135.271 95.2144C135.494 95.4608 135.693 95.6837 135.869 95.8832C136.057 96.0827 136.18 96.2176 136.239 96.288L135.482 96.9216ZM134.004 98.1888C133.945 98.1184 133.822 97.9835 133.634 97.784C133.458 97.5728 133.259 97.344 133.036 97.0976C132.813 96.8512 132.607 96.6283 132.42 96.4288C132.244 96.2293 132.126 96.1003 132.068 96.0416L132.824 95.3904C132.883 95.4608 133 95.6016 133.176 95.8128C133.364 96.0123 133.564 96.2352 133.775 96.4816C133.998 96.728 134.197 96.9509 134.373 97.1504C134.561 97.3499 134.684 97.4789 134.743 97.5376L134.004 98.1888ZM58.6608 131.158C58.6139 131.053 58.52 130.889 58.3792 130.666C58.2501 130.443 58.1152 130.226 57.9744 130.014C57.8453 129.791 57.7397 129.639 57.6576 129.557C58.7957 129.287 59.9632 128.9 61.16 128.395C62.3568 127.891 63.536 127.292 64.6976 126.6C65.8592 125.908 66.9563 125.151 67.9888 124.33C69.0331 123.508 69.96 122.652 70.7696 121.76C70.7931 121.877 70.84 122.071 70.9104 122.341C70.9808 122.599 71.0512 122.851 71.1216 123.098C71.2037 123.344 71.2565 123.502 71.28 123.573C70.5056 124.371 69.6315 125.151 68.6576 125.914C67.6955 126.665 66.6629 127.374 65.56 128.043C64.4571 128.712 63.3189 129.31 62.1456 129.838C60.984 130.366 59.8224 130.806 58.6608 131.158ZM61.16 125.579C60.808 125.298 60.3797 124.998 59.8752 124.682C59.3707 124.353 58.8544 124.042 58.3264 123.749C57.7984 123.444 57.3056 123.191 56.848 122.992C56.9653 122.828 57.112 122.599 57.288 122.306C57.4757 122.012 57.6283 121.766 57.7456 121.566C58.0859 121.731 58.4613 121.93 58.872 122.165C59.2827 122.388 59.6933 122.622 60.104 122.869C60.5147 123.115 60.896 123.356 61.248 123.59C61.6117 123.825 61.9051 124.03 62.128 124.206C62.0576 124.3 61.9579 124.435 61.8288 124.611C61.7115 124.787 61.5883 124.963 61.4592 125.139C61.3419 125.315 61.2421 125.462 61.16 125.579ZM63.4656 121.584C63.1136 121.291 62.6912 120.98 62.1984 120.651C61.7173 120.323 61.2128 120.006 60.6848 119.701C60.1685 119.384 59.6816 119.12 59.224 118.909C59.3531 118.745 59.5056 118.522 59.6816 118.24C59.8693 117.947 60.0219 117.7 60.1392 117.501C60.5851 117.724 61.0837 118.005 61.6352 118.346C62.1984 118.674 62.7323 119.009 63.2368 119.349C63.7531 119.689 64.1637 119.982 64.4688 120.229C64.3867 120.323 64.2811 120.458 64.152 120.634C64.0347 120.798 63.9115 120.968 63.7824 121.144C63.6533 121.32 63.5477 121.467 63.4656 121.584ZM76.8064 130.349C76.8181 130.267 76.8181 130.126 76.8064 129.926C76.8064 129.727 76.8064 129.527 76.8064 129.328C76.8064 129.117 76.8005 128.976 76.7888 128.906C76.9883 128.906 77.3227 128.911 77.792 128.923C78.2731 128.923 78.8363 128.923 79.4816 128.923C80.1269 128.923 80.8075 128.923 81.5232 128.923V124.189C80.7253 124.189 79.992 124.195 79.3232 124.206C78.6544 124.206 78.1733 124.206 77.88 124.206C77.88 124.113 77.8741 123.972 77.8624 123.784C77.8624 123.585 77.8624 123.385 77.8624 123.186C77.8624 122.986 77.8565 122.845 77.8448 122.763C78.0795 122.775 78.4197 122.787 78.8656 122.798C79.3232 122.798 79.8453 122.804 80.432 122.816C81.0187 122.816 81.6229 122.816 82.2448 122.816C82.8784 122.816 83.4885 122.816 84.0752 122.816C84.6619 122.804 85.184 122.793 85.6416 122.781C86.1109 122.769 86.4629 122.757 86.6976 122.746C86.6976 122.828 86.6976 122.974 86.6976 123.186C86.6976 123.385 86.6917 123.585 86.68 123.784C86.68 123.983 86.68 124.124 86.68 124.206C86.3867 124.195 85.8939 124.189 85.2016 124.189C84.5211 124.189 83.7819 124.189 82.984 124.189V128.923C83.7467 128.911 84.4683 128.906 85.1488 128.906C85.8293 128.894 86.4101 128.888 86.8912 128.888C87.3723 128.876 87.6949 128.865 87.8592 128.853C87.8592 128.923 87.8533 129.064 87.8416 129.275C87.8416 129.475 87.8416 129.68 87.8416 129.891C87.8416 130.091 87.8416 130.226 87.8416 130.296C87.5835 130.273 87.1728 130.261 86.6096 130.261C86.0464 130.249 85.3893 130.243 84.6384 130.243C83.8992 130.231 83.1248 130.231 82.3152 130.243C81.5173 130.243 80.7429 130.249 79.992 130.261C79.2528 130.273 78.6016 130.284 78.0384 130.296C77.4752 130.308 77.0645 130.325 76.8064 130.349ZM97.1696 131.792C97.1109 131.733 96.9819 131.628 96.7824 131.475C96.5947 131.334 96.3952 131.182 96.184 131.018C95.9728 130.865 95.7968 130.754 95.656 130.683C97.1461 129.885 98.2549 128.724 98.9824 127.198C99.7099 125.673 100.009 123.778 99.88 121.514C99.9973 121.525 100.173 121.543 100.408 121.566C100.654 121.578 100.895 121.59 101.13 121.602C101.376 121.602 101.54 121.602 101.622 121.602V122.376C101.998 122.106 102.42 121.801 102.89 121.461C103.371 121.109 103.828 120.769 104.262 120.44C104.697 120.111 105.043 119.847 105.301 119.648C105.007 119.66 104.55 119.671 103.928 119.683C103.318 119.683 102.614 119.689 101.816 119.701C101.018 119.713 100.197 119.724 99.352 119.736C98.5189 119.736 97.7211 119.742 96.9584 119.754C96.1957 119.754 95.5445 119.759 95.0048 119.771C94.4651 119.771 94.1072 119.771 93.9312 119.771C93.9312 119.666 93.9253 119.513 93.9136 119.314C93.9136 119.102 93.9077 118.891 93.896 118.68C93.896 118.457 93.896 118.287 93.896 118.17C94.2011 118.193 94.6704 118.217 95.304 118.24C95.9376 118.252 96.6709 118.258 97.504 118.258C98.3371 118.258 99.2112 118.258 100.126 118.258C101.053 118.246 101.957 118.234 102.837 118.222C103.717 118.199 104.515 118.17 105.23 118.134C105.946 118.099 106.515 118.058 106.938 118.011C107.067 118.117 107.225 118.281 107.413 118.504C107.612 118.727 107.771 118.897 107.888 119.014C107.665 119.237 107.372 119.513 107.008 119.842C106.644 120.17 106.239 120.522 105.794 120.898C105.359 121.273 104.914 121.654 104.456 122.042C104.01 122.417 103.582 122.769 103.171 123.098C102.761 123.414 102.409 123.684 102.115 123.907C102.057 123.837 101.974 123.755 101.869 123.661C101.775 123.555 101.675 123.45 101.57 123.344C101.429 125.303 100.995 126.975 100.267 128.36C99.5397 129.745 98.5072 130.889 97.1696 131.792ZM117.99 131.669C117.275 131.669 116.706 131.604 116.283 131.475C115.873 131.358 115.579 131.147 115.403 130.842C115.227 130.525 115.139 130.091 115.139 129.539C115.139 129.129 115.139 128.606 115.139 127.973C115.151 127.339 115.163 126.653 115.174 125.914C115.198 125.163 115.215 124.412 115.227 123.661C115.239 122.898 115.245 122.188 115.245 121.531C115.257 120.874 115.262 120.317 115.262 119.859C115.262 119.143 115.257 118.51 115.245 117.958C115.233 117.407 115.215 116.99 115.192 116.709C115.309 116.721 115.485 116.744 115.72 116.779C115.966 116.803 116.213 116.826 116.459 116.85C116.706 116.873 116.893 116.885 117.022 116.885C116.999 117.119 116.975 117.524 116.952 118.099C116.929 118.674 116.905 119.355 116.882 120.141C116.87 120.927 116.852 121.76 116.829 122.64C116.805 123.508 116.788 124.359 116.776 125.192C116.764 126.025 116.753 126.782 116.741 127.462C116.741 128.131 116.741 128.659 116.741 129.046C116.741 129.469 116.823 129.745 116.987 129.874C117.163 130.003 117.533 130.067 118.096 130.067C118.46 130.067 118.947 130.026 119.557 129.944C120.167 129.85 120.824 129.727 121.528 129.574C122.232 129.41 122.913 129.234 123.57 129.046C124.238 128.847 124.807 128.642 125.277 128.43C125.253 128.559 125.224 128.747 125.189 128.994C125.165 129.228 125.142 129.469 125.118 129.715C125.107 129.95 125.101 130.126 125.101 130.243C124.62 130.419 124.057 130.595 123.411 130.771C122.778 130.935 122.121 131.082 121.44 131.211C120.759 131.352 120.114 131.463 119.504 131.546C118.906 131.628 118.401 131.669 117.99 131.669ZM143.035 131.334C141.263 131.252 139.803 130.947 138.653 130.419C137.515 129.891 136.67 129.175 136.118 128.272C135.567 127.369 135.291 126.313 135.291 125.104C135.291 123.919 135.567 122.875 136.118 121.971C136.67 121.068 137.427 120.317 138.389 119.718C137.368 119.847 136.341 119.982 135.309 120.123C134.288 120.252 133.343 120.375 132.475 120.493C131.619 120.61 130.932 120.71 130.416 120.792C130.416 120.675 130.398 120.51 130.363 120.299C130.328 120.076 130.293 119.853 130.258 119.63C130.222 119.407 130.187 119.237 130.152 119.12C130.68 119.085 131.331 119.032 132.106 118.962C132.892 118.891 133.742 118.809 134.658 118.715C135.585 118.61 136.523 118.504 137.474 118.398C138.424 118.281 139.339 118.164 140.219 118.046C141.111 117.929 141.915 117.812 142.63 117.694C143.346 117.577 143.921 117.471 144.355 117.378C144.39 117.495 144.437 117.659 144.496 117.87C144.566 118.082 144.637 118.293 144.707 118.504C144.789 118.715 144.854 118.879 144.901 118.997C144.666 119.009 144.414 119.026 144.144 119.05C143.886 119.061 143.575 119.091 143.211 119.138C142.355 119.243 141.545 119.454 140.782 119.771C140.031 120.076 139.363 120.487 138.776 121.003C138.201 121.508 137.743 122.106 137.403 122.798C137.075 123.479 136.91 124.247 136.91 125.104C136.91 126.535 137.438 127.644 138.494 128.43C139.562 129.217 141.252 129.662 143.563 129.768C143.446 129.956 143.334 130.214 143.229 130.542C143.135 130.859 143.07 131.123 143.035 131.334ZM151.835 132.126V125.984C151.378 126.5 150.943 127.022 150.533 127.55C150.122 128.078 149.747 128.583 149.406 129.064C149.254 128.9 149.06 128.735 148.826 128.571C148.591 128.395 148.38 128.249 148.192 128.131C148.755 127.415 149.342 126.694 149.952 125.966C150.562 125.239 151.19 124.535 151.835 123.854V121.39C151.471 121.437 151.073 121.49 150.638 121.549C150.216 121.607 149.805 121.666 149.406 121.725C149.019 121.783 148.702 121.836 148.456 121.883C148.456 121.766 148.444 121.602 148.421 121.39C148.397 121.179 148.368 120.968 148.333 120.757C148.298 120.546 148.268 120.381 148.245 120.264C148.691 120.241 149.242 120.205 149.899 120.158C150.556 120.1 151.202 120.035 151.835 119.965V118.698C151.835 118.451 151.829 118.175 151.818 117.87C151.818 117.554 151.812 117.26 151.8 116.99C151.8 116.721 151.794 116.539 151.782 116.445C151.9 116.457 152.07 116.468 152.293 116.48C152.516 116.492 152.733 116.503 152.944 116.515C153.167 116.515 153.325 116.515 153.419 116.515C153.407 116.586 153.396 116.762 153.384 117.043C153.372 117.313 153.366 117.606 153.366 117.923C153.366 118.228 153.366 118.475 153.366 118.662V119.754L153.683 119.701C153.73 119.736 153.824 119.806 153.965 119.912C154.106 120.006 154.246 120.106 154.387 120.211C154.54 120.305 154.645 120.375 154.704 120.422C154.598 120.54 154.434 120.774 154.211 121.126C153.988 121.467 153.742 121.86 153.472 122.306C154.375 121.531 155.302 120.903 156.253 120.422C157.203 119.93 158.177 119.683 159.174 119.683C159.82 119.683 160.389 119.859 160.882 120.211C161.386 120.563 161.779 121.15 162.061 121.971C162.354 122.793 162.501 123.907 162.501 125.315C162.501 125.82 162.483 126.295 162.448 126.741C162.413 127.187 162.354 127.597 162.272 127.973C162.718 128.196 163.14 128.436 163.539 128.694C163.938 128.941 164.308 129.187 164.648 129.434C164.531 129.586 164.39 129.803 164.226 130.085C164.073 130.355 163.95 130.607 163.856 130.842C163.527 130.548 163.193 130.278 162.853 130.032C162.524 129.786 162.196 129.563 161.867 129.363C161.539 130.149 161.087 130.724 160.512 131.088C159.937 131.463 159.251 131.651 158.453 131.651C157.573 131.651 156.863 131.434 156.323 131C155.795 130.578 155.531 129.991 155.531 129.24C155.531 128.794 155.654 128.395 155.901 128.043C156.159 127.679 156.511 127.392 156.957 127.181C157.414 126.97 157.942 126.864 158.541 126.864C158.893 126.864 159.257 126.905 159.632 126.987C160.019 127.069 160.401 127.175 160.776 127.304C160.823 127.022 160.858 126.717 160.882 126.389C160.905 126.049 160.917 125.679 160.917 125.28C160.917 123.966 160.741 122.969 160.389 122.288C160.049 121.596 159.562 121.25 158.928 121.25C158.33 121.25 157.714 121.39 157.08 121.672C156.446 121.942 155.819 122.311 155.197 122.781C154.575 123.238 153.965 123.761 153.366 124.347V132.126H151.835ZM158.453 130.226C158.828 130.226 159.192 130.114 159.544 129.891C159.896 129.657 160.189 129.246 160.424 128.659C159.72 128.389 159.081 128.254 158.506 128.254C158.036 128.254 157.673 128.342 157.414 128.518C157.156 128.694 157.027 128.935 157.027 129.24C157.027 129.569 157.156 129.815 157.414 129.979C157.684 130.143 158.03 130.226 158.453 130.226Z" fill="#3B3B3B"/>
<defs>
<clipPath id="clip0_31_254">
<rect width="206.067" height="201.667" fill="white" transform="translate(6.59766 8.80005)"/>
</clipPath>
</defs>
</svg>
