<svg width="115" height="45" viewBox="0 0 115 45" fill="none" xmlns="http://www.w3.org/2000/svg">
<g clip-path="url(#clip0_31_300)">
<path d="M76.7181 44.3734C76.47 44.3734 76.2346 44.3482 76.0118 44.3272C75.9193 44.3188 75.8226 44.3062 75.7301 44.2978H75.6965C75.3643 44.3062 74.9944 44.3146 74.6454 44.2557C74.637 44.2557 74.6286 44.2557 74.6202 44.2557C74.4058 44.2557 74.1536 44.2515 73.9013 44.1969C73.4935 44.2599 73.1404 44.2347 72.8629 44.1801C72.5434 44.2347 72.2071 44.2347 71.9422 44.1843C71.5975 44.2641 71.2611 44.2557 70.9963 44.2263C70.7567 44.2683 70.4834 44.2725 70.1765 44.2431C69.7267 44.344 69.3104 44.2978 68.9363 44.2515C68.6336 44.2179 68.3729 44.1885 68.1417 44.2389C68.1123 44.2473 68.0828 44.2515 68.0534 44.2515C67.7129 44.281 67.3471 44.2599 66.9435 44.1885C66.6324 44.2347 66.3339 44.2221 66.0523 44.1885C65.5352 44.2599 65.0349 44.2305 64.4925 44.1801C63.9965 44.3524 63.4079 44.3482 62.7394 44.1716C62.277 44.2852 61.7599 44.2894 61.2512 44.1843C61.1461 44.1843 61.041 44.1843 60.9359 44.1843C60.6878 44.1843 60.4314 44.1843 60.1665 44.1548C59.5737 44.1969 58.9431 44.2011 58.2453 44.1716C57.6441 44.2599 57.0807 44.2431 56.5678 44.1254C56.0423 44.281 55.4327 44.2725 54.8736 44.1002C54.5583 44.1002 54.264 44.0665 54.0117 44.0329C53.8015 44.0413 53.5745 44.0497 53.3433 44.0329C53.1541 44.1086 52.9187 44.1843 52.6412 44.2095C52.1703 44.2557 51.7541 44.1506 51.4388 44.0371C51.195 44.075 50.9343 44.075 50.6526 44.0371C50.0599 44.2137 49.4755 44.1632 49.0551 44.0834C48.8407 44.0834 48.6305 44.0876 48.4203 44.096C48.0293 44.1128 47.6257 44.1254 47.2053 44.0792C46.8101 44.1044 46.4401 44.0876 46.1164 44.0665C45.675 44.1801 45.0696 44.2515 44.4558 44.0834C44.1994 44.1086 43.9555 44.096 43.7411 44.0834H43.7159C43.3922 44.1212 43.0979 44.0834 42.8372 44.0539H42.7952C42.2276 44.1716 41.6601 44.1086 41.1598 44.0539H41.143C40.6133 44.2389 39.8986 44.323 39.2469 44.0918C38.9232 44.1212 38.5911 44.1002 38.2842 44.0329C37.91 44.1254 37.4938 44.1422 37.044 44.0876C36.6908 44.1422 36.3209 44.138 35.9593 44.0792H35.7365C35.3707 44.075 34.9882 44.0707 34.6014 44.0287C34.5467 44.0371 34.4921 44.0539 34.4374 44.0665C34.3029 44.1002 34.1389 44.1422 33.9456 44.1506C33.4747 44.1885 33.0291 44.096 32.6087 43.9741C32.0453 44.0413 31.4988 43.9656 31.0069 43.8984C30.885 43.8816 30.7631 43.8647 30.6453 43.8521C30.4646 43.8942 30.2796 43.911 30.0778 43.9152C29.6279 44.0413 29.1319 44.0329 28.6652 43.8984L28.4088 43.9783C28.291 44.0161 28.1649 44.0203 28.0472 43.9951L27.6983 43.9152C27.6983 43.9152 27.6562 43.9068 27.652 43.9068L27.589 43.8942C27.5175 43.8942 27.4628 43.8942 27.4082 43.9026L27.1307 43.9194C26.9962 43.9278 26.849 43.8984 26.7313 43.8269L26.5463 43.7218C26.4791 43.684 26.4244 43.6672 26.3656 43.6587H26.3572C26.2983 43.6629 26.2226 43.6714 26.1427 43.6672C26.1175 43.6714 26.0923 43.6798 26.0671 43.6882L25.9494 43.7302C25.7854 43.7891 25.6088 43.7849 25.4491 43.7176C25.407 43.7008 25.3692 43.6798 25.3314 43.6587C25.1506 43.6293 24.9866 43.5789 24.8353 43.5116C24.15 43.5242 23.4774 43.2972 23.0569 43.087C22.2035 42.7507 21.8209 42.2966 21.6612 41.9014C21.1777 41.5315 20.8414 40.9976 20.7321 40.4258C20.4588 40.1063 20.299 39.7111 20.2906 39.3201C20.2864 39.0216 20.3621 38.7357 20.5177 38.4835C20.4546 37.8108 20.8666 37.134 21.5939 36.7388C21.7747 36.4487 22.0353 36.1965 22.3633 36.0073C22.7206 35.6962 23.0948 35.486 23.5068 35.3683C24.0743 34.8175 25.0623 34.5611 25.9578 34.7418C26.0124 34.7292 26.0713 34.7166 26.1343 34.704C26.8574 34.4223 27.8538 34.4097 28.6021 34.4349C29.0226 34.2584 29.5102 34.1617 30.0273 34.1575C30.2207 34.1533 30.4099 34.1785 30.5739 34.2037C30.7 34.2205 30.8051 34.2289 30.9018 34.2374L30.9649 34.2247C31.6039 34.1028 32.3186 33.9641 33.0921 34.1659C33.5798 34.044 34.0969 34.0103 34.5972 34.0566L34.8116 34.044C35.2194 34.0229 35.644 33.9977 36.0812 34.0566C36.2872 33.9935 36.5185 33.9473 36.7875 33.9599C36.9052 33.9641 37.0272 33.9725 37.1491 33.9767C37.6326 33.8506 38.0992 33.8842 38.5196 33.9178C38.755 33.9347 38.9737 33.9515 39.167 33.9389C39.1923 33.9389 39.2175 33.9389 39.2385 33.9389C39.5328 33.9515 39.8229 33.9347 40.1088 33.9178C40.4619 33.8968 40.8277 33.8716 41.2102 33.901C41.6769 33.8464 42.1604 33.8548 42.6522 33.9262C42.7195 33.9178 42.7952 33.9094 42.8667 33.9052C42.9465 33.8842 43.0306 33.8716 43.1105 33.8548C43.3081 33.7287 43.5225 33.6404 43.7495 33.5941C43.884 33.5058 44.0396 33.4386 44.212 33.3965C44.2246 33.3965 44.2372 33.3881 44.254 33.3881C44.275 33.3755 44.2918 33.3629 44.3129 33.3503C44.3759 33.3082 44.4432 33.262 44.5231 33.22C44.6744 32.9929 44.9183 32.8037 45.2168 32.6902C45.2588 32.6482 45.3092 32.6062 45.3597 32.5683C45.427 32.4758 45.5026 32.3917 45.5867 32.3119C45.6918 32.1143 45.8305 31.9629 45.9525 31.8326C45.9525 31.8326 45.9609 31.8242 45.9651 31.82C45.9819 31.6813 46.0239 31.5467 46.0912 31.4206C46.0912 31.3912 46.0912 31.3575 46.0912 31.3281C46.0912 31.1936 46.1164 31.0086 46.2215 30.8068C46.2215 30.8026 46.2215 30.7984 46.2215 30.79C46.2131 30.6933 46.2047 30.5882 46.2047 30.4789C46.1164 30.3107 46.0954 30.1089 46.1501 29.9323C46.1585 29.8777 46.1753 29.823 46.2005 29.7726C46.2047 29.7432 46.2131 29.7137 46.2173 29.6885C46.1711 29.6339 46.1332 29.5708 46.1038 29.5077C46.0828 29.5077 46.0534 29.4993 46.0155 29.5035C45.8474 29.5119 45.6708 29.4531 45.5405 29.3438C45.3975 29.3564 45.2294 29.327 45.1032 29.2513C44.9687 29.1672 44.8426 29.0663 44.7375 28.957C44.7165 28.9528 44.6828 28.9402 44.6492 28.9276C44.5441 28.8897 44.4138 28.8393 44.2792 28.7636C44.1994 28.73 44.0943 28.7047 43.9807 28.6753C43.7495 28.6123 43.4762 28.5408 43.224 28.381C43.0138 28.3558 42.8246 28.3054 42.648 28.2591C42.5219 28.2255 42.4 28.1961 42.3033 28.1834C42.0174 28.1666 41.6601 28.1288 41.328 28.0027C41.2102 27.9858 41.0925 27.9606 40.9832 27.9228C40.9664 27.9228 40.9454 27.9144 40.9286 27.9102C40.4913 27.9648 40.1172 27.9732 39.764 27.9438C39.3394 27.9901 38.8896 28.0237 38.4229 27.9228C38.2758 27.8892 38.0992 27.8976 37.8974 27.9102C37.6998 27.9228 37.4728 27.9312 37.2332 27.906C36.9641 27.9186 36.7077 27.9018 36.4596 27.8849H36.4008C35.9972 27.9774 35.5431 27.9606 35.0134 27.8303C34.8158 27.8555 34.6224 27.8555 34.4543 27.8555C34.2651 27.8555 34.0927 27.8555 33.954 27.8849C33.8951 27.8976 33.8363 27.9018 33.7774 27.9018C33.5294 27.9018 33.2897 27.8849 33.0585 27.8681C32.7474 27.8429 32.4657 27.8219 32.1967 27.8345C31.6964 27.927 31.091 28.0279 30.452 27.9018C30.1955 27.9228 29.9096 27.9144 29.6111 27.8765C29.2496 27.948 28.8712 27.9648 28.5181 27.9228C28.3205 27.948 28.1229 27.9522 27.9295 27.9396C27.5007 28.0321 27.0887 27.99 26.7692 27.9396C26.6556 27.9396 26.5379 27.9396 26.4202 27.9396C26.1596 27.9396 25.9031 27.9438 25.6341 27.9144C25.5668 27.9144 25.4701 27.9396 25.365 27.969C25.2178 28.0069 25.0497 28.0489 24.8563 28.0615C24.5158 28.0994 24.1626 28.0489 23.7885 27.9102C23.2461 27.9858 22.6996 27.9564 22.1783 27.9102C21.6107 28.1036 20.9128 28.0909 20.3327 27.8807C20.1057 27.9018 19.866 27.9018 19.6138 27.8807C19.2733 27.9648 18.9495 27.9438 18.6847 27.927C18.5291 27.9186 18.4156 27.927 18.2979 27.9102C18.0583 27.8807 17.9616 27.8934 17.7346 27.9228L17.5243 27.948C17.5033 27.948 17.4823 27.948 17.4571 27.948C17.2553 27.948 17.0451 27.948 16.8391 27.948C16.4397 27.9396 16.0739 27.9354 15.7124 27.9732C15.2667 28.0321 14.8169 27.9522 14.489 27.8723C14.4259 27.8807 14.3671 27.8892 14.304 27.8976C14.0896 27.9312 13.8331 27.969 13.5431 27.9354C13.0386 28.0783 12.5383 28.0195 12.0926 27.969C12.0254 27.9606 11.9623 27.9522 11.8951 27.948C11.5167 28.0153 11.1593 27.9901 10.8398 27.9648C10.6548 27.9522 10.4699 27.9396 10.3017 27.9438C10.2807 27.9438 10.2597 27.9438 10.2344 27.9438C10.0242 27.9312 9.84346 27.8765 9.69631 27.8345C9.64586 27.8177 9.59541 27.8009 9.54076 27.7925C9.32215 27.7925 8.95639 27.784 8.68312 27.7L8.62427 27.6916C8.43508 27.6663 8.23749 27.6453 8.0441 27.6075C7.6363 27.6621 7.20749 27.5865 6.84173 27.3847C6.59789 27.3678 6.34985 27.309 6.11022 27.2039C5.82434 27.1576 5.54266 27.0694 5.26099 26.9348C4.79013 26.8718 4.41596 26.691 4.08384 26.5312L4.00396 26.4934C3.40278 26.4345 2.84363 26.1402 2.49049 25.6946C1.83885 25.5012 1.32595 25.0808 1.10734 24.5637C0.850887 24.3325 0.644886 24.0508 0.489334 23.7061C0.367416 23.5043 0.157211 23.1343 0.169823 22.6929C-0.132872 22.1001 -0.0277698 21.398 0.459906 20.8094C0.468314 20.1284 0.888724 19.502 1.5824 19.153C1.77999 18.8545 2.07008 18.6065 2.42742 18.4425C2.65865 18.2155 2.96555 18.0473 3.3271 17.9506C3.34392 17.9506 3.35653 17.9422 3.37335 17.9422C3.59616 17.896 3.81057 17.8413 4.02078 17.7825C4.30245 17.7068 4.59254 17.6311 4.90784 17.5765C5.0634 17.5429 5.21054 17.5218 5.34927 17.5008C5.51744 17.4293 5.70242 17.3873 5.89581 17.3705C5.91262 17.3705 5.92524 17.3705 5.94205 17.3705C6.19009 17.3663 6.46756 17.3116 6.75765 17.257C7.33361 17.1477 7.97684 17.0215 8.63268 17.2317C8.969 17.1603 9.33056 17.1014 9.71313 17.1308C9.73835 17.1308 9.76778 17.1351 9.79301 17.1393C9.96537 17.1729 10.1335 17.1813 10.3017 17.1645C10.3395 17.1645 10.3732 17.1603 10.411 17.1645C10.575 17.1771 10.7389 17.1687 10.9029 17.1645C11.1593 17.1561 11.399 17.1477 11.6596 17.1771C11.7479 17.1771 11.8909 17.1687 12.038 17.1561C12.2188 17.1393 12.4248 17.1224 12.6476 17.1351C12.7022 17.1351 12.7737 17.114 12.8536 17.1014C13.0428 17.0636 13.3076 17.0089 13.6061 17.0594L13.728 17.0762C13.8163 17.0888 13.913 17.0972 14.0097 17.1182C14.5773 16.9543 15.17 16.9585 15.6829 17.1266C16.2715 17.072 16.8307 17.072 17.3436 17.1266C17.5874 17.0972 17.827 17.1014 18.0625 17.1351C18.3946 17.072 18.7477 17.0678 19.0883 17.1308C19.6474 17.0426 20.1687 17.0426 20.6354 17.1308C20.7321 17.1266 20.833 17.1182 20.9297 17.1098C21.2324 17.0846 21.5729 17.0594 21.9344 17.1182C22.2161 17.0888 22.5524 17.072 22.9056 17.1519C23.1368 17.1182 23.4269 17.1014 23.7254 17.1351C23.8221 17.114 23.923 17.093 24.0323 17.0804C24.1963 17.0636 24.3476 17.072 24.4863 17.0888C24.7764 17.0215 25.0875 16.9921 25.3986 17.0089C25.5289 17.0215 25.6256 17.0426 25.7223 17.0636C25.7686 17.072 25.8316 17.0888 25.8527 17.0888C25.8779 17.0888 25.8905 17.0888 25.9157 17.0846C26.0545 17.0846 26.1932 17.0678 26.3277 17.0552C26.643 17.0257 26.9878 16.9921 27.3577 17.0552C27.7235 16.908 28.1103 16.8744 28.3961 16.8744C28.4676 16.8744 28.5391 16.8744 28.6106 16.8828C28.7997 16.8996 28.9553 16.9375 29.0856 16.9795C29.3042 16.9459 29.5481 16.9333 29.8171 16.9837L29.9264 17.0047C29.9264 17.0047 29.9348 17.0047 29.9391 17.0047C30.3048 16.9038 30.6706 16.9164 30.9564 16.9543C31.2297 16.9038 31.4988 16.9206 31.7384 16.9543C32.1714 16.8702 32.7348 16.8408 33.2393 17.0552C33.3276 17.0552 33.4116 17.0552 33.4999 17.0552C33.8363 17.0552 34.1726 17.0552 34.5089 17.114C34.7485 17.0846 34.9672 17.1056 35.1521 17.1224C35.2194 17.1266 35.2909 17.1351 35.3581 17.1393C35.6945 17.1014 36.0098 17.114 36.3125 17.1308L36.4722 17.1393C36.7875 17.0804 37.1365 17.0636 37.5064 17.0804C37.5232 17.0804 37.5401 17.0804 37.5569 17.0804C37.6998 17.0972 37.8344 17.1014 37.9731 17.1056C38.2127 17.114 38.4776 17.1224 38.7677 17.1813C38.8644 17.1813 38.9737 17.1645 39.083 17.1519C39.3688 17.1182 39.701 17.0804 40.0499 17.1435C40.0625 17.1435 40.0709 17.1477 40.0835 17.1519C40.3694 17.093 40.6511 17.1056 40.8823 17.1182C40.958 17.1182 41.0295 17.1266 41.1009 17.1266C41.1766 17.1224 41.2523 17.1098 41.3322 17.1014C41.5508 17.072 41.8114 17.0384 42.0931 17.072C42.1015 17.072 42.1057 17.0678 42.1141 17.0636C42.2739 17.0005 42.5177 16.9038 42.8288 16.9206C43.0054 16.9206 43.1693 16.9501 43.3165 16.9837C43.4132 16.9711 43.5309 16.9669 43.6612 16.9837C43.7075 16.9837 43.7537 16.9963 43.8 17.0005C43.9892 16.9627 44.1741 16.9585 44.3465 16.9669C44.5273 16.9291 44.6996 16.9248 44.8426 16.9291C45.1621 16.845 45.4984 16.845 45.8053 16.9291C45.8642 16.9291 45.9272 16.9206 45.9861 16.9164C46.2173 16.8996 46.478 16.8828 46.7554 16.9291C46.9236 16.9206 47.0918 16.9206 47.2557 16.9206C47.5668 16.9206 47.8569 16.9206 48.105 16.866C48.147 16.8576 48.1933 16.8492 48.2353 16.8492C48.332 16.8492 48.4287 16.8492 48.5254 16.8492C48.6515 16.8492 48.7734 16.8534 48.8533 16.8366C48.8701 16.8324 48.8911 16.8282 48.9122 16.8282C49.0677 16.8071 49.2022 16.8197 49.2989 16.8282C49.3242 16.8282 49.3452 16.8324 49.3704 16.8324C49.4377 16.8239 49.4839 16.8071 49.5302 16.7945C49.6353 16.7651 49.7656 16.7273 49.9253 16.7104C50.0473 16.6936 50.1692 16.7062 50.2659 16.7104C50.3962 16.6726 50.5265 16.6474 50.6569 16.639C50.8671 16.5381 51.0815 16.4876 51.2664 16.4456C51.3211 16.433 51.3758 16.4204 51.4262 16.4077C51.4514 16.3741 51.4725 16.3489 51.4935 16.3237C51.5481 16.1639 51.6322 16.0084 51.7415 15.8654C51.7709 15.6132 51.8718 15.3988 51.9475 15.2348C51.8844 14.9363 51.9223 14.6252 52.0568 14.3393C51.9559 14.0576 51.9433 13.7592 52.0232 13.4817C52.0148 13.4565 52.0106 13.4354 52.0022 13.4102C51.9811 13.3766 51.9601 13.3472 51.9433 13.3135C51.7794 13.2336 51.6406 13.1454 51.5187 13.0318C51.38 12.9057 51.2875 12.7712 51.2202 12.6367C51.1193 12.582 51.0268 12.5189 50.9343 12.4433L50.9091 12.4349C50.7451 12.376 50.5433 12.3003 50.3584 12.1742C50.1019 12.0943 49.8791 11.9892 49.6857 11.8841C49.5049 11.8841 49.2989 11.8673 49.0887 11.8042C49.0131 11.8211 48.929 11.8379 48.8407 11.8463C48.6515 11.8631 48.4707 11.8505 48.3152 11.8295C48.0545 11.8925 47.7308 11.9682 47.3524 11.9304C47.0792 11.9136 46.8521 11.8169 46.684 11.7454C46.6293 11.7202 46.5789 11.6991 46.5368 11.6865C46.52 11.6907 46.499 11.6991 46.478 11.7034C46.3308 11.7496 46.1038 11.8211 45.8221 11.8L45.6203 11.7916C45.2588 11.7748 44.9141 11.7538 44.5987 11.8042C44.5441 11.8127 44.4894 11.8169 44.4348 11.8127C43.9177 11.7706 43.451 11.7412 42.9928 11.7958C42.791 11.8211 42.5934 11.7832 42.4126 11.7538C42.3411 11.7664 42.2655 11.7706 42.194 11.779C42.0048 11.7958 41.8114 11.7286 41.6727 11.5982L41.597 11.5688C41.5213 11.5394 41.4373 11.5058 41.3868 11.4973L41.3195 11.4847C41.3195 11.4847 41.2901 11.4805 41.2733 11.4763C41.2481 11.4763 41.2018 11.4679 41.1556 11.4637C40.9958 11.4469 40.8487 11.3754 40.7352 11.2619C40.7142 11.2409 40.6931 11.2157 40.6721 11.1947L40.6049 11.1232C40.6049 11.1232 40.5838 11.1022 40.5754 11.0896C40.546 11.0769 40.5166 11.0685 40.4871 11.0601L39.9868 10.9004C39.8439 10.8583 39.7136 10.7742 39.6253 10.6565C39.6169 10.6439 39.6043 10.6313 39.5875 10.6187C39.5748 10.6103 39.5454 10.5935 39.4697 10.5598C39.2974 10.4884 39.167 10.3538 39.0956 10.1857C39.083 10.1815 39.0704 10.1773 39.0577 10.1773C38.9821 10.1646 38.9064 10.1394 38.8349 10.1058C38.7971 10.0848 38.7635 10.0638 38.7256 10.0427C38.7046 10.0301 38.6836 10.0175 38.6668 10.0049C38.6668 10.0049 38.6668 10.0049 38.6626 10.0049C38.6457 9.99648 38.6247 9.98387 38.6079 9.97126C38.3683 9.8115 38.1665 9.62652 37.9983 9.46256C37.3341 9.20611 36.9052 8.6764 36.8338 8.071C36.3755 7.60435 36.2284 6.98635 36.4596 6.45243C36.4428 6.10348 36.4722 5.67467 36.6698 5.26266C36.5731 4.67829 36.8926 4.0729 37.5611 3.62306C37.704 3.39604 37.9058 3.23629 38.0614 3.11016C38.137 3.05131 38.2127 2.98824 38.2548 2.942C38.2926 2.89996 38.3346 2.86212 38.3809 2.83269L38.5575 2.70657C38.9064 2.45853 39.3352 2.15163 39.928 2.0171C40.2559 1.85314 40.6217 1.68918 41.0463 1.61771C41.1472 1.52522 41.2775 1.46636 41.412 1.44954L41.4667 1.44113C41.5634 1.42852 41.6853 1.4117 41.7147 1.39489C41.7273 1.38648 41.7358 1.37807 41.7484 1.36546C41.8367 1.28558 41.9418 1.23093 42.0595 1.2015C42.1688 1.17207 42.2991 1.16366 42.4084 1.18468C42.4547 1.19309 42.5051 1.19309 42.585 1.18468C42.6396 1.18048 42.6775 1.16366 42.6943 1.15525C42.7994 1.00811 42.9591 0.903008 43.1357 0.873579C43.1525 0.873579 43.1693 0.865171 43.182 0.860967C43.3081 0.827334 43.4384 0.827334 43.5645 0.865171C43.6528 0.881987 43.7075 0.877783 43.7621 0.877783H44.048C44.0816 0.877783 44.1069 0.877783 44.1363 0.877783L44.3423 0.903008C44.4558 0.91562 44.5609 0.928233 44.624 0.924029L45.469 0.827334C45.5026 0.827334 45.5363 0.82313 45.5657 0.814722C45.6077 0.806314 45.654 0.797905 45.696 0.797905H45.8474C45.9272 0.797905 46.0197 0.789497 46.0828 0.772681C46.1879 0.743252 46.3014 0.739048 46.4107 0.760068C46.499 0.776885 46.5326 0.781089 46.541 0.781089L46.9446 0.755864C47.0035 0.755864 47.0623 0.755864 47.117 0.768477L47.4533 0.831538C47.5542 0.852559 47.6593 0.856763 47.7602 0.869375L47.8906 0.881987C47.9746 0.890396 48.0251 0.898804 48.0839 0.8946C48.1092 0.8946 48.1386 0.890396 48.168 0.881987L48.5001 0.818926C48.5506 0.810518 48.6347 0.797905 48.6809 0.797905C48.8239 0.797905 48.971 0.802109 49.1139 0.806314C49.1728 0.806314 49.2653 0.789497 49.3536 0.772681L49.5428 0.739048C49.5974 0.73064 49.6521 0.726436 49.7025 0.709619C49.7656 0.688599 49.8286 0.675986 49.8959 0.671782C49.938 0.671782 49.9758 0.663374 50.0094 0.650762C50.022 0.650762 50.0304 0.642354 50.0431 0.638149C50.2406 0.579292 50.4551 0.612925 50.6274 0.726436C50.6442 0.739048 50.6821 0.747456 50.7535 0.743252L51.1571 0.718027C51.1908 0.718027 51.2244 0.718027 51.2538 0.713823L51.6953 0.617129C51.7331 0.608721 51.7667 0.604517 51.8046 0.600313L52.0736 0.583496C52.0947 0.583496 52.1157 0.583496 52.1409 0.583496C52.3175 0.5877 52.494 0.596108 52.6706 0.608721H52.7589C52.8262 0.617129 52.8892 0.629741 52.9523 0.654966C52.9691 0.65917 52.9859 0.667578 53.0027 0.671782C53.0196 0.671782 53.049 0.68019 53.1078 0.671782C53.2129 0.663374 53.318 0.650762 53.4231 0.642354C53.4484 0.642354 53.4736 0.642354 53.4988 0.642354C53.6165 0.642354 53.7301 0.642354 53.8478 0.638149C53.9108 0.638149 53.9655 0.638149 54.0243 0.654966C54.0538 0.65917 54.1294 0.68019 54.1841 0.68019C54.2177 0.68019 54.2556 0.671782 54.2934 0.667578C54.3733 0.654966 54.4574 0.654966 54.5372 0.667578C54.6129 0.68019 54.6844 0.697007 54.7601 0.713823C55.0123 0.697007 55.2267 0.697007 55.4369 0.713823C55.5378 0.684395 55.6429 0.65917 55.7438 0.642354C55.9288 0.608721 56.118 0.654966 56.2651 0.768477C56.2819 0.776885 56.3618 0.797905 56.4375 0.785293C56.4669 0.781089 56.4879 0.772681 56.4964 0.768477C56.6561 0.701211 56.8327 0.697007 56.9966 0.755864C57.0051 0.755864 57.0135 0.760068 57.0177 0.764273C57.4507 0.755864 57.9089 0.764273 58.363 0.852559L58.5017 0.839946C58.9263 0.793701 59.414 0.743252 59.9017 0.860967C59.9311 0.869375 59.9563 0.877783 59.9857 0.886192C60.0488 0.911416 60.1876 0.903008 60.3137 0.903008C60.465 0.903008 60.6164 0.8946 60.7761 0.911416C60.898 0.924029 61.0494 0.911416 61.2049 0.907212C61.4278 0.8946 61.6758 0.881987 61.9449 0.91562L62.0626 0.932437C62.2644 0.957661 62.4578 0.982886 62.6427 0.991294C62.9917 0.940845 63.3616 0.96607 63.7568 1.06276C64.0091 1.01231 64.2529 1.00391 64.4925 1.03334C64.934 0.957661 65.3628 0.978682 65.7706 1.0964C65.9346 1.08799 66.0985 1.08799 66.2583 1.08799C66.5273 1.08799 66.7796 1.08799 67.0192 1.05436C67.0781 1.04595 67.1369 1.04595 67.1958 1.05436C67.3976 1.07958 67.6162 1.08799 67.8474 1.0964C68.1039 1.1048 68.3687 1.11321 68.642 1.14685C69.0456 1.03754 69.4828 1.02913 69.9789 1.11742C70.1429 1.10901 70.3068 1.11742 70.4708 1.11742C70.6558 1.11742 70.8239 1.12583 70.9921 1.11742C71.0383 1.11742 71.0888 1.11742 71.135 1.11742C71.4083 1.15525 71.5891 1.13844 71.9086 1.07958C71.9254 1.07958 71.9422 1.07538 71.959 1.07117C72.2449 1.04174 72.5098 1.08378 72.741 1.11742L72.8125 1.12583H72.9134C73.1278 1.12162 73.3506 1.11742 73.586 1.13844C73.8088 1.07538 74.0401 1.02493 74.2965 1.02493C74.553 1.02493 74.7758 1.07538 74.9776 1.13423L75.0659 1.12162C75.4989 1.06276 75.9866 0.991294 76.4995 1.12162C76.8736 1.07538 77.2352 1.08799 77.5841 1.0964H77.7018C78.1727 0.957661 78.6772 0.957661 79.1691 1.0964C79.2195 1.08799 79.2868 1.07117 79.3498 1.05856C79.5138 1.01652 79.7114 0.96607 79.9636 0.974478C80.178 0.974478 80.3924 1.01652 80.5816 1.06697C80.6489 1.05856 80.7204 1.05015 80.7876 1.04174C81.0273 1.00811 81.2963 0.974478 81.5822 0.98709C81.6116 0.98709 81.6411 0.991294 81.6705 0.999702C81.8092 1.02493 81.9732 1.01652 82.1666 0.999702C82.2423 0.995498 82.3221 0.991294 82.3978 0.98709C82.587 0.98709 82.7341 0.999702 82.8813 1.00811C83.163 1.02913 83.4278 1.04595 83.6464 0.995498C83.6717 0.991294 83.7011 0.982886 83.7263 0.982886L83.8734 0.96607C83.9827 0.953457 84.0921 0.974478 84.193 1.01231C84.2981 1.05436 84.4578 1.06276 84.5587 1.03334L84.6722 0.999702C84.7689 0.970274 84.874 0.957661 84.9749 0.974478C85.08 0.991294 85.1809 1.00811 85.2818 1.03334C85.2986 1.03334 85.3112 1.04174 85.3239 1.04595C85.3281 1.04595 85.3701 1.06276 85.3743 1.06276C85.5299 1.11742 85.6476 1.12162 85.7106 1.10901C85.9124 1.06276 86.1142 1.02072 86.316 0.970274C86.4001 0.949253 86.4884 0.945049 86.5767 0.957661L86.6944 0.974478C86.8415 0.999702 86.9382 0.999702 87.0097 0.974478C87.0139 0.974478 87.0223 0.974478 87.0265 0.970274C87.0854 0.949253 87.1484 0.936641 87.2115 0.932437H87.2535C87.3418 0.924029 87.4301 0.936641 87.5142 0.96607C87.5352 0.974478 87.5604 0.982886 87.5815 0.98709C87.6445 1.00391 87.7412 0.991294 87.8757 0.970274C87.943 0.957661 88.0061 0.957661 88.0733 0.970274C88.0986 0.970274 88.128 0.970274 88.1574 0.96607C88.3298 0.932437 88.5064 0.96607 88.6577 1.05436C88.7418 1.1048 88.9015 1.13844 89.0403 1.1048L89.385 1.01231C89.4565 0.995498 89.528 0.98709 89.5994 0.98709L89.7592 0.995498C89.7886 0.995498 89.8138 0.995498 89.8433 1.00391C89.8769 1.00811 89.8895 1.00811 89.9063 1.00811C89.9484 1.00811 89.9862 1.00811 90.0282 1.02072L90.146 1.04174C90.146 1.04174 90.1628 1.04174 90.167 1.04174C90.167 1.04174 90.1712 1.04174 90.1754 1.04174C90.1754 1.04174 90.1838 1.04174 90.188 1.04174C90.188 1.04174 90.1964 1.04174 90.2006 1.04174C90.2847 1.05856 90.3772 1.06697 90.436 1.06697C90.5243 1.06276 90.6084 1.07538 90.6925 1.1006C90.6967 1.1006 90.7051 1.1048 90.7135 1.10901C90.7556 1.12162 90.8312 1.13003 90.9237 1.12583C90.9868 1.12162 91.0625 1.1006 91.1676 1.06276C91.2222 1.04174 91.2853 1.02913 91.3441 1.02493L91.4829 1.01231C91.5459 1.00391 91.609 1.00811 91.6678 1.01231L91.7393 1.02493C91.9201 1.05436 92.1093 1.08378 92.2144 1.05856C92.3237 1.02072 92.4624 1.00391 92.5759 1.02493C92.5928 1.02493 92.6138 1.03334 92.6306 1.03754C92.6852 1.05015 92.7609 1.05015 92.8282 1.03754C92.8786 1.02913 92.9249 1.01652 92.9711 1.00391L93.093 0.970274C93.2065 0.940845 93.3411 0.932437 93.4504 0.957661C93.484 0.96607 93.5219 0.974478 93.5597 0.978682C93.5975 0.978682 93.6438 0.978682 93.6858 0.970274H93.7531L93.7951 0.961865C93.8792 0.957661 93.9927 0.949253 94.0263 0.936641C94.287 0.831538 94.5855 0.898804 94.7789 1.0964C94.9597 1.1048 95.1194 1.10901 95.2708 1.1048C95.338 1.09219 95.4095 1.07958 95.481 1.07117C95.4978 1.07117 95.5104 1.07117 95.5272 1.07117C95.5524 1.07117 95.5777 1.07117 95.6071 1.06276C95.6239 1.06276 95.6407 1.06276 95.6575 1.05856C95.9813 1.03754 96.284 1.06697 96.5782 1.09219H96.6161C96.9566 1.08378 97.3055 1.07117 97.6587 1.13423C98.2389 0.970274 98.8232 1.02493 99.1722 1.08799C99.3193 1.08799 99.4622 1.08799 99.6052 1.08799H99.6851C99.8869 1.08799 100.084 1.08799 100.286 1.08378C100.32 1.08378 100.354 1.08378 100.387 1.08799C100.795 1.13844 101.203 1.12162 101.644 1.04174C101.674 1.03754 101.707 1.03334 101.737 1.02913C102.342 1.00391 102.842 1.01652 103.305 1.07117C103.78 0.953457 104.41 0.881987 105.003 1.05856C105.546 0.945049 106.101 0.96607 106.584 1.12162C106.853 1.09219 107.11 1.11321 107.345 1.13003C107.761 1.10901 108.156 1.14685 108.472 1.18889C109.212 1.05015 110.002 1.21411 110.548 1.6135C111.465 1.74803 112.154 2.21889 112.39 2.86212C112.428 2.89575 112.478 2.93359 112.512 2.95881C112.621 3.0429 112.743 3.13539 112.852 3.2531C113.134 3.50114 113.269 3.78282 113.374 3.99302C113.432 4.11074 113.475 4.20323 113.533 4.27049C113.55 4.29152 113.567 4.31254 113.584 4.33356C113.727 4.54797 113.752 4.75397 113.769 4.88009C113.929 5.16177 113.958 5.44764 113.954 5.67046C114.105 5.93112 114.177 6.2254 114.156 6.52389C114.135 6.85602 114.004 7.16712 113.781 7.43198C113.71 7.81035 113.529 8.12566 113.369 8.41574C113.327 8.48721 113.285 8.56289 113.247 8.63435C113.117 9.06317 112.878 9.37848 112.533 9.57187C112.314 9.89979 111.965 10.1731 111.545 10.3286C111.528 10.3412 111.511 10.3538 111.49 10.3706C111.293 10.522 111.036 10.7196 110.662 10.8037C110.548 10.8793 110.422 10.9508 110.284 11.0181C110.153 11.14 109.998 11.2409 109.83 11.3082C109.666 11.4175 109.476 11.4889 109.275 11.5184C109.048 11.6235 108.77 11.6907 108.476 11.6907C108.295 11.8042 108.089 11.8757 107.862 11.9009C107.664 11.9556 107.446 11.9724 107.21 11.9514C106.983 11.9724 106.782 11.964 106.597 11.922C106.311 11.9598 106.033 11.9514 105.785 11.9009C105.55 11.9514 105.256 11.9892 104.949 11.9388C104.684 11.964 104.44 11.9598 104.217 11.9262C103.91 12.006 103.616 12.0355 103.322 12.0103L103.217 12.0187C102.96 12.0439 102.653 12.0733 102.334 12.0187C101.884 12.1406 101.426 12.1238 101.014 12.1111H100.972C100.496 12.2667 100.013 12.2877 99.58 12.1742C99.3866 12.2415 99.1638 12.2919 98.9031 12.2919C98.6424 12.2919 98.3902 12.2457 98.1674 12.1994C97.7596 12.2289 97.335 12.2457 96.9104 12.1994C96.4437 12.3466 95.8215 12.3928 95.275 12.2205C95.0353 12.2499 94.8125 12.2415 94.6233 12.2331C94.4762 12.2289 94.3248 12.2205 94.1945 12.2373C94.0348 12.2583 93.8708 12.2457 93.711 12.2499C93.278 12.2583 92.8324 12.2709 92.3699 12.1952C91.836 12.3508 91.2895 12.2583 90.8943 12.17C90.7051 12.2289 90.4865 12.2793 90.23 12.2793C89.9946 12.2667 89.8054 12.2373 89.6415 12.2078C89.4271 12.1742 89.2463 12.1406 89.0739 12.1574C89.0235 12.1616 88.9772 12.1616 88.9268 12.1574C88.5947 12.1238 88.2289 12.149 87.8715 12.17C87.4049 12.2036 86.9214 12.2331 86.4337 12.1574C85.9797 12.2961 85.4794 12.2961 84.9749 12.1574C84.6512 12.1952 84.2897 12.2373 83.9155 12.2036C83.4783 12.2751 83.0452 12.2751 82.6206 12.2036C82.2843 12.2457 81.9606 12.2415 81.6747 12.2373C81.4813 12.2373 81.2921 12.2331 81.0987 12.2415C80.4639 12.334 79.8543 12.2793 79.2826 12.1994C78.7276 12.2835 78.2021 12.2247 77.7397 12.2667C77.7102 12.2667 77.6808 12.2667 77.6472 12.2667C77.4622 12.2583 77.2814 12.2373 77.1006 12.212C76.9157 12.1868 76.7349 12.1658 76.5793 12.17C76.5583 12.17 76.5331 12.17 76.5079 12.17C76.3481 12.1574 76.1673 12.1826 75.9697 12.2078C75.7932 12.2289 75.6208 12.2499 75.4442 12.2583C75.4232 12.2583 75.398 12.2583 75.3728 12.2583C75.1626 12.2415 74.9566 12.2163 74.7463 12.1868C74.4016 12.1406 74.0779 12.0985 73.7752 12.1238C72.5266 12.1952 71.341 12.191 70.2269 12.1238C70.0882 12.128 69.9453 12.1448 69.7981 12.1616C69.3567 12.2078 68.8648 12.2583 68.3729 12.1027C68.1375 12.1322 67.8979 12.1574 67.6288 12.149C67.4648 12.149 67.2967 12.1406 67.1327 12.128C67.0444 12.1532 66.9561 12.1742 66.8637 12.191C66.6745 12.2247 66.4895 12.1742 66.3466 12.0649C66.3171 12.0607 66.2919 12.0523 66.2625 12.0439C66.2457 12.0481 66.2288 12.0523 66.212 12.0607L66.149 12.0775C66.1153 12.0859 66.0775 12.0943 66.0439 12.0943C66.0439 12.0943 66.0312 12.0943 66.0186 12.0943C66.0102 12.0943 66.0018 12.0943 65.9934 12.0943C65.8799 12.1616 65.758 12.1952 65.615 12.191C65.5562 12.191 65.5015 12.1868 65.4427 12.1826C65.4427 12.1826 65.4385 12.1826 65.4343 12.1868C65.3796 12.212 65.325 12.2331 65.2703 12.2457C65.2199 12.2709 65.1694 12.2919 65.1148 12.3045C65.1063 12.3045 65.0979 12.3087 65.0853 12.3129C65.0769 12.3129 65.0727 12.3129 65.0643 12.3129C65.0054 12.3256 64.9466 12.3298 64.8667 12.3298C64.8163 12.3508 64.7658 12.3676 64.7154 12.376C64.6985 12.3928 64.6775 12.4054 64.6565 12.418C64.6019 12.4601 64.5598 12.4853 64.501 12.5063C64.4715 12.5189 64.4421 12.5316 64.4127 12.54C64.3622 12.5652 64.3034 12.5862 64.2445 12.5988C64.2109 12.6156 64.1814 12.6241 64.1562 12.6367C64.0974 12.6619 64.0343 12.6829 63.9754 12.6997C63.925 12.7376 63.8703 12.767 63.8115 12.788C63.7989 12.7922 63.7863 12.8006 63.7736 12.8048C63.7568 12.8132 63.74 12.8216 63.7316 12.8258C63.7316 12.8258 63.7064 12.8427 63.6896 12.8469C63.6307 12.8931 63.5676 12.9267 63.4962 12.9478C63.4836 12.952 63.4752 12.9562 63.4668 12.9604C63.4037 13.0066 63.328 13.0361 63.2523 13.0571C63.2145 13.1033 63.1683 13.1496 63.1178 13.1832C63.0842 13.2673 63.0337 13.343 62.9707 13.406C62.9496 13.4354 62.9286 13.4607 62.9076 13.4859C62.8992 13.4943 62.895 13.5027 62.8866 13.5111C62.8824 13.5153 62.8782 13.5195 62.8698 13.5279C62.8614 13.5363 62.853 13.5447 62.8403 13.5532C62.8151 13.6036 62.7815 13.6541 62.7436 13.6961C62.7436 13.6961 62.7436 13.7003 62.7394 13.7045C62.6974 13.7844 62.6343 13.8601 62.5629 13.9147C62.5545 13.9357 62.5461 13.961 62.5334 13.982C62.5334 13.9904 62.525 13.9988 62.5208 14.0156C62.5082 14.0913 62.483 14.167 62.4452 14.2342C62.4452 14.2342 62.4452 14.2384 62.4452 14.2426C62.4452 14.2426 62.4452 14.251 62.4409 14.2552C62.4199 14.3057 62.3905 14.3519 62.3569 14.3982C62.3485 14.4192 62.34 14.436 62.3316 14.4528C62.3442 14.5075 62.3527 14.5663 62.3527 14.6252C62.3527 14.6841 62.3527 14.7429 62.34 14.8018C62.3611 14.8774 62.3695 14.9531 62.3653 15.033C62.3653 15.0456 62.3653 15.0624 62.3653 15.0708C62.3653 15.0961 62.3653 15.1171 62.3653 15.1381C62.3905 15.197 62.4073 15.2558 62.4157 15.3189C62.4241 15.3651 62.4283 15.4114 62.4283 15.4576C62.4704 15.5039 62.504 15.5585 62.5292 15.6132C62.5671 15.693 62.5881 15.7771 62.5923 15.8612C62.5923 15.8696 62.6007 15.878 62.6007 15.8864C62.668 15.9369 62.731 15.9915 62.7815 16.0546C62.7941 16.063 62.8109 16.0672 62.8235 16.0756C62.9202 16.105 63.0211 16.1555 63.0926 16.2186C63.0884 16.2144 63.0758 16.2017 63.0632 16.1933C63.1472 16.2564 63.2103 16.3321 63.2565 16.4204C63.265 16.4204 63.2692 16.4288 63.2776 16.433C63.2902 16.4414 63.3028 16.4498 63.3196 16.4582C63.3869 16.5044 63.4415 16.5591 63.4878 16.6222C63.5803 16.6432 63.6685 16.681 63.7484 16.7357C63.7989 16.7441 63.8535 16.7609 63.8998 16.7861C63.925 16.7987 63.9502 16.8113 63.9754 16.8239C64.0343 16.8366 64.089 16.8618 64.1436 16.8912C64.1983 16.8912 64.2571 16.8996 64.3118 16.9122C64.3118 16.9122 64.3496 16.9206 64.3622 16.9248C64.4043 16.9375 64.4463 16.9543 64.4841 16.9711C64.5346 16.9711 64.585 16.9753 64.6229 16.9837C64.6313 16.9837 64.6355 16.9837 64.6355 16.9837C64.6943 16.9837 64.7532 16.9921 64.8079 17.0089C64.934 16.9753 65.0685 16.9711 65.1904 17.0089C65.2787 17.0089 65.3712 17.0173 65.4553 17.051L65.5015 17.0636C65.5352 17.072 65.5688 17.0846 65.6024 17.1014L65.6319 17.114C65.6613 17.114 65.6907 17.1224 65.7201 17.1308L65.7622 17.1224C65.8967 17.1014 66.0691 17.114 66.2036 17.1729C66.2751 17.1561 66.3508 17.1477 66.4264 17.1519C66.5484 17.0888 66.6955 17.0762 66.8216 17.0804C66.8931 17.0804 67.0318 17.1014 67.0991 17.1266L67.1369 17.1393C67.2336 17.0888 67.3471 17.0594 67.4564 17.0594C67.4817 17.0594 67.5279 17.0594 67.5531 17.0636C67.5615 17.0636 67.5994 17.0678 67.6036 17.0678L67.6877 17.0804C67.8768 17.1098 68.0618 17.1477 68.2384 17.2191C68.5705 17.2275 68.9237 17.2948 69.2306 17.4041C69.7267 17.3663 70.2311 17.3957 70.7062 17.442C71.2317 17.3242 71.8455 17.3873 72.35 17.6059C72.6317 17.5807 72.8881 17.5807 73.1194 17.6059C73.38 17.5681 73.6491 17.5849 73.9181 17.6606C74.1998 17.7446 74.4689 17.8161 74.7379 17.8876C75.3139 18.0389 75.9067 18.1987 76.4532 18.4383C76.9157 18.4972 77.4538 18.6864 77.8027 19.0605C78.3829 19.3044 78.6225 19.8005 78.7739 20.1116L78.8033 20.1746C79.0555 20.5278 79.2027 20.9356 79.2321 21.3434C79.4718 21.789 79.4717 22.3061 79.2405 22.7559C79.3204 23.21 79.2069 23.6598 78.9168 24.0256C78.8327 24.5301 78.5216 24.8958 78.2652 25.1985C78.2021 25.27 78.1391 25.3457 78.076 25.4255C78.0424 25.4676 78.0045 25.5096 77.9583 25.5433C77.8826 25.6021 77.8069 25.6694 77.7271 25.7367C77.5379 25.9048 77.3403 26.073 77.1259 26.1991C76.8106 26.6952 76.1841 26.9643 75.6082 27.0231C75.2298 27.2375 74.7926 27.3636 74.4016 27.4729C73.956 27.7883 73.338 27.9228 72.7494 27.8345C72.1861 28.1246 71.5596 28.2171 71.0047 28.0867C70.9585 28.0952 70.9122 28.0994 70.8618 28.1078C70.4456 28.1708 69.9789 28.2381 69.4912 28.1624C69.1086 28.2633 68.7219 28.2549 68.3729 28.2255C68.0702 28.2633 67.6708 28.2885 67.2715 28.2045C66.9393 28.2717 66.624 28.2381 66.3634 28.2045H66.3466C66.0775 28.2381 65.6613 28.2549 65.2493 28.1204C65.0307 28.1792 64.8121 28.2003 64.6397 28.2045C64.4169 28.2633 64.1983 28.2801 63.9881 28.2549C63.9544 28.2549 63.9082 28.2549 63.8745 28.2465H63.7148C63.6097 28.2843 63.4962 28.2969 63.3827 28.2843H63.3406C63.2481 28.2927 63.1599 28.2843 63.0716 28.2549C63.0043 28.2549 62.9328 28.2549 62.8656 28.2339C62.6932 28.2843 62.504 28.2633 62.3442 28.175C62.277 28.1961 62.2307 28.2003 62.1551 28.2045C62.134 28.2045 62.113 28.2045 62.092 28.2045C61.9911 28.2423 61.8818 28.2633 61.7725 28.2591C61.6632 28.2759 61.5413 28.2675 61.432 28.2339C61.3605 28.2591 61.2806 28.2675 61.2049 28.2675C61.1419 28.2759 61.0788 28.2759 61.0158 28.2675C60.8728 28.2675 60.7425 28.2213 60.629 28.1372C60.629 28.1372 60.6248 28.1372 60.6206 28.1372L60.5996 28.1456C60.4818 28.2087 60.3431 28.2381 60.2128 28.2213C60.0824 28.2423 59.9521 28.2255 59.8302 28.1792C59.6284 28.2591 59.3972 28.2381 59.2122 28.1246C59.0566 28.2297 58.8843 28.2633 58.6993 28.2213C58.5984 28.2633 58.4975 28.2759 58.3882 28.2675C58.2789 28.3012 58.157 28.3012 58.0435 28.2759C57.972 28.2633 57.9005 28.2423 57.8333 28.2087C57.7029 28.2927 57.5474 28.3348 57.3876 28.318C57.3582 28.318 57.3288 28.318 57.2993 28.3096C57.2951 28.3096 57.2909 28.318 57.2825 28.318C57.2615 28.3348 57.2405 28.3516 57.2152 28.3684C57.1354 28.4231 57.0219 28.4735 56.9252 28.4903C56.8915 28.503 56.8537 28.5156 56.8201 28.524C56.6981 28.6459 56.5384 28.7174 56.366 28.7258L56.3324 28.7468C56.3324 28.7468 56.2904 28.772 56.2651 28.7846C56.1979 28.9023 56.1012 28.9948 55.9835 29.0579C55.9835 29.1125 55.9708 29.1672 55.9582 29.2176C55.9246 29.3774 55.8363 29.5203 55.706 29.6212C55.6303 29.6969 55.5588 29.7306 55.4579 29.7642C55.4369 29.7726 55.4243 29.7768 55.4117 29.7852C55.4033 29.8903 55.3739 29.9954 55.3192 30.0879C55.3318 30.2266 55.3024 30.3654 55.2309 30.4873C55.336 30.6555 55.3697 30.8572 55.315 31.0464C55.3991 31.1852 55.4369 31.3491 55.4117 31.5089C55.4495 31.5593 55.4832 31.6182 55.5042 31.677C55.7018 31.7822 55.8363 31.9797 55.8657 32.1942C55.8826 32.2026 55.8994 32.211 55.9162 32.2236L55.9582 32.2488C56.0003 32.274 56.0423 32.3035 56.0801 32.3371C56.1264 32.3791 56.1684 32.4296 56.2021 32.48C56.2063 32.48 56.2105 32.4884 56.2189 32.4926C56.3408 32.5725 56.4333 32.6902 56.4837 32.829C56.6183 32.892 56.7444 33.0055 56.8201 33.1359C56.9588 33.1737 57.0933 33.2578 57.1858 33.3671C57.1732 33.3545 57.2068 33.3671 57.2699 33.3671C57.3372 33.3671 57.4002 33.3839 57.4633 33.4049C57.5936 33.4386 57.7324 33.5142 57.8248 33.6151C57.8248 33.6151 57.8627 33.6404 57.9384 33.6446C57.972 33.6446 58.0014 33.6446 58.035 33.6404C58.1948 33.6109 58.363 33.6404 58.5017 33.716C58.5816 33.7623 58.6867 33.7833 58.775 33.7707C58.9221 33.7539 59.0651 33.7329 59.2038 33.7118L59.3762 33.674C59.4771 33.653 59.578 33.653 59.6789 33.674C59.7924 33.6992 59.9017 33.7371 60.011 33.7833C60.1497 33.7833 60.2716 33.7959 60.3809 33.8085C60.4188 33.8127 60.4566 33.8169 60.4944 33.8211C60.8013 33.7623 61.1251 33.8043 61.3983 33.9389C61.5287 33.9389 61.6632 33.9473 61.8061 33.9599C62.2139 33.8968 62.5965 33.9347 62.937 33.9683L63.0632 33.9809C63.4205 33.9136 63.7694 33.9136 64.1016 33.9094H64.2025C64.5178 33.8253 64.8625 33.7917 65.2283 33.8169C65.4469 33.8169 65.7412 33.8296 66.0439 33.922C66.2961 33.9094 66.5988 33.9052 66.9057 33.9431C67.2336 33.9052 67.5868 33.922 67.9735 34.0019C68.5831 33.88 69.1843 33.9431 69.7224 34.0019C69.836 34.0145 69.9495 34.0271 70.063 34.0355C70.4876 33.9557 71.0762 33.9052 71.6521 34.0524C71.7783 34.0566 71.9086 34.0608 72.0389 34.0608C72.3248 34.0608 72.6191 34.065 72.926 34.1112C73.5188 33.8968 74.3049 33.8085 74.9986 34.0944C75.3097 34.0734 75.604 34.1154 75.8436 34.1617C76.3733 34.1112 76.9661 34.0776 77.5463 34.1743C78.1222 33.9767 78.7865 33.9683 79.5769 34.1575C80.0687 34.1028 80.5522 34.1028 81.0189 34.0986C81.5107 34.0187 81.969 34.0103 82.4062 34.0734C82.7972 34.0229 83.2344 33.9935 83.6674 34.1028C83.8903 34.0566 84.1131 34.044 84.3065 34.0355C84.9035 33.8211 85.6308 33.8085 86.2151 33.9977C86.7575 33.9094 87.3586 33.838 87.9598 33.9136C88.3508 33.8211 88.7418 33.8296 89.0865 33.8464H89.1958C89.5111 33.8338 89.8643 33.8253 90.2258 33.88C91.0036 33.7244 91.7183 33.9599 92.2648 34.1491C92.8912 34.2247 93.5135 34.4097 94.0768 34.6788C94.2786 34.7376 94.5266 34.8217 94.7537 34.9689C95.338 35.0782 95.8299 35.4187 96.0948 35.898C96.1116 35.9148 96.1326 35.9358 96.1494 35.9526C96.4353 36.1334 96.6371 36.3772 96.7296 36.6589C96.9398 37.0541 96.965 37.4493 96.9818 37.7772C97.0743 38.1724 97.0533 38.5255 96.9188 38.8324C96.9398 39.1225 96.8641 39.421 96.6875 39.7321C96.6455 40.1399 96.4185 40.5183 96.0359 40.8252C95.8467 41.439 95.2876 41.8636 94.8251 42.2167C94.6906 42.3218 94.5561 42.4185 94.4426 42.5194C94.0516 42.9146 93.5639 43.1837 93.0258 43.2972C92.618 43.5158 92.2312 43.6251 91.8528 43.6335C91.2937 43.9488 90.6378 44.0539 90.0493 43.932C89.6583 44.0455 89.2337 44.0497 88.7586 43.9446C88.6157 43.9698 88.4811 43.9825 88.3592 43.9951C88.2415 44.0077 88.128 44.0161 88.0145 44.0413C87.9766 44.0497 87.943 44.0539 87.9052 44.0539L87.5773 44.0707C87.1358 44.096 86.6818 44.1254 86.2067 44.075C85.7359 44.2431 85.1851 44.2683 84.5587 44.1464C84.0584 44.3146 83.4825 44.3272 82.978 44.1758L82.8434 44.1843C82.3894 44.2053 81.8891 44.2305 81.4435 44.1885C80.939 44.3608 80.3504 44.3734 79.7955 44.2263C79.2826 44.3903 78.715 44.4029 78.2063 44.2641C77.8952 44.3314 77.5967 44.3524 77.315 44.323C77.1048 44.3692 76.8946 44.3861 76.697 44.3861L76.7181 44.3734ZM75.7469 42.9188C75.7469 42.9188 75.7805 42.9188 75.7974 42.9188C75.9151 42.9272 76.0328 42.9398 76.1547 42.9525C76.5205 42.9903 76.8358 43.0239 77.1048 42.944C77.2057 42.9146 77.3066 42.9104 77.4075 42.9272C77.5967 42.9609 77.8111 42.9398 78.055 42.8684C78.1979 42.8263 78.3493 42.8347 78.488 42.8852C78.7949 43.0029 79.2027 42.9861 79.5222 42.8474C79.6862 42.7759 79.8711 42.7717 80.0351 42.8347C80.384 42.9651 80.7961 42.9651 81.0903 42.8347C81.208 42.7801 81.3426 42.7633 81.4729 42.7843C81.826 42.8347 82.3642 42.8095 82.793 42.7885L83.0621 42.7759C83.1545 42.7759 83.247 42.7885 83.3353 42.8179C83.596 42.9146 83.9743 42.902 84.2308 42.7843C84.3737 42.7212 84.5335 42.7044 84.6806 42.738C85.1767 42.8558 85.5677 42.8516 85.8368 42.7254C85.9587 42.6666 86.0974 42.6456 86.2319 42.6666C86.6355 42.7254 87.0602 42.7002 87.51 42.675L87.8001 42.6582C87.943 42.6329 88.0944 42.6161 88.2415 42.5993C88.3844 42.5867 88.5148 42.5741 88.6199 42.5447C88.7334 42.5152 88.8553 42.5152 88.9688 42.5447C89.3009 42.6329 89.5658 42.6371 89.7676 42.5447C89.9231 42.4774 90.0997 42.469 90.2595 42.5236C90.6378 42.6498 91.054 42.5026 91.2937 42.3345C91.4282 42.242 91.5922 42.1999 91.7519 42.2167C91.9579 42.2378 92.1765 42.1747 92.4624 42.0107C92.5339 41.9687 92.6096 41.9435 92.6894 41.9309C93.0005 41.8804 93.2696 41.7375 93.4882 41.5104C93.5008 41.4978 93.5135 41.4852 93.5261 41.4768C93.669 41.3465 93.8372 41.2204 94.0095 41.0858C94.2786 40.8798 94.7326 40.5351 94.7452 40.3501C94.7579 40.1231 94.8798 39.9171 95.0774 39.7994C95.2708 39.6817 95.3296 39.5766 95.3338 39.5555C95.3296 39.442 95.3506 39.3411 95.3969 39.236L95.4431 39.1351C95.4557 39.1099 95.4684 39.0805 95.4852 39.0553C95.5566 38.9417 95.5608 38.8955 95.5608 38.8913C95.4726 38.6643 95.5146 38.4457 95.6659 38.2565C95.687 38.2312 95.6786 38.1388 95.6491 38.0294C95.6365 37.979 95.6281 37.9286 95.6239 37.8781C95.6113 37.6132 95.6029 37.3988 95.5146 37.2475C95.4852 37.2012 95.4641 37.1508 95.4473 37.0961C95.4389 37.0877 95.4263 37.0793 95.4095 37.0709C95.338 37.0331 95.275 36.9826 95.2203 36.9238C95.1867 36.8859 95.1488 36.8523 95.111 36.8187C95.0311 36.7514 94.9681 36.6631 94.926 36.5664C94.884 36.4739 94.7368 36.3058 94.4383 36.2805C94.2828 36.2679 94.1399 36.2007 94.0263 36.0956C93.9759 36.0493 93.7573 35.9821 93.648 35.9526C93.6101 35.94 93.5723 35.9274 93.5345 35.9106C93.0804 35.6836 92.5675 35.5322 92.0504 35.4776C91.9958 35.4734 91.9453 35.4607 91.8949 35.4439C91.3105 35.2379 90.8691 35.1034 90.436 35.2169C90.3309 35.2463 90.2216 35.2463 90.1123 35.2253C89.8559 35.1707 89.5616 35.1791 89.2505 35.1875H89.1118C89.1118 35.1875 89.0781 35.1875 89.0613 35.1875C88.767 35.1707 88.4601 35.1623 88.2247 35.2379C88.1196 35.2716 88.0103 35.28 87.901 35.2589C87.3965 35.1707 86.8247 35.2589 86.2824 35.3472C86.1479 35.3683 86.0133 35.3514 85.8914 35.301C85.5761 35.1623 85.08 35.1707 84.7353 35.3178C84.6596 35.3514 84.5797 35.3683 84.4957 35.3725H84.4452C84.2476 35.3809 84.0206 35.3893 83.8903 35.4355C83.7389 35.486 83.5792 35.4818 83.432 35.4271C83.1924 35.3388 82.8308 35.3767 82.5071 35.4187C82.4398 35.4271 82.3684 35.4271 82.3011 35.4187C81.969 35.364 81.6158 35.3683 81.2122 35.4355C81.1744 35.4439 81.1324 35.4271 81.0945 35.4439C80.6237 35.4439 80.1192 35.4439 79.6399 35.507C79.5516 35.5154 79.4676 35.5112 79.3835 35.4902C78.7571 35.3304 78.2652 35.3262 77.9204 35.486C77.7817 35.549 77.6219 35.5658 77.4748 35.528C76.9955 35.4145 76.4364 35.4565 75.8983 35.507C75.8268 35.5154 75.7553 35.507 75.6839 35.4944C75.4737 35.4481 75.2298 35.4061 75.0154 35.4439C74.8641 35.4692 74.7127 35.4439 74.5782 35.3725C74.2629 35.2001 73.7458 35.2211 73.2959 35.4229C73.1614 35.4818 73.0101 35.4986 72.8629 35.4649C72.6233 35.4103 72.3458 35.4061 72.0515 35.4061C71.8749 35.4061 71.7026 35.4061 71.526 35.3935C71.4756 35.3935 71.4293 35.3809 71.3831 35.3683C71.0846 35.2842 70.6894 35.2884 70.269 35.3767C70.2059 35.3893 70.1386 35.3935 70.0756 35.3893C69.92 35.3767 69.7645 35.3598 69.6089 35.343C69.0918 35.2884 68.6042 35.2379 68.1753 35.3472C68.066 35.3767 67.9525 35.3767 67.839 35.3472C67.5237 35.2674 67.2715 35.2505 67.0528 35.2884C66.9814 35.301 66.9099 35.301 66.8426 35.2884C66.5736 35.2463 66.2793 35.2589 66.0312 35.2758C65.9388 35.28 65.8463 35.2674 65.758 35.2379L65.6823 35.2127C65.5604 35.1749 65.4174 35.1665 65.2114 35.1623C64.9382 35.1454 64.728 35.1665 64.5472 35.2253C64.4841 35.2463 64.4169 35.2547 64.3496 35.2589H64.1436C63.8325 35.2589 63.5382 35.2632 63.2818 35.322C63.2145 35.3388 63.143 35.343 63.0716 35.3346L62.8319 35.3094C62.5208 35.2758 62.2476 35.2505 62.0037 35.301C61.9365 35.3136 61.8692 35.3178 61.8019 35.3094C61.6043 35.2884 61.4278 35.2842 61.2554 35.2842C61.0956 35.2884 60.9401 35.2337 60.8182 35.137C60.7551 35.1538 60.6584 35.1707 60.5953 35.1707C60.4818 35.1707 60.3641 35.158 60.2506 35.1454C60.1707 35.137 60.0782 35.1244 60.0362 35.1328C59.8764 35.1623 59.7125 35.1328 59.5737 35.0529C59.5569 35.0445 59.5443 35.0361 59.5317 35.0319H59.5275C59.5275 35.0319 59.4939 35.0403 59.4813 35.0403C59.3215 35.0656 59.1618 35.0866 58.9978 35.1076C58.6909 35.1496 58.3756 35.1076 58.0897 34.9941C58.0182 34.9941 57.9468 34.9941 57.8753 34.9941C57.5642 34.9689 57.2783 34.8638 57.0513 34.6998C56.8747 34.6746 56.7108 34.6199 56.5678 34.5442C56.4795 34.498 56.3997 34.4433 56.3282 34.3803C56.1054 34.2878 55.912 34.1407 55.7732 33.9557C55.7018 33.9094 55.6345 33.8632 55.5757 33.8085C55.4663 33.7076 55.3739 33.5941 55.3108 33.468C55.2688 33.4302 55.2309 33.3923 55.1931 33.3503C55.088 33.2872 54.9661 33.2073 54.861 33.1022C54.7474 32.9845 54.655 32.8374 54.5961 32.6692C54.4826 32.5683 54.3943 32.4548 54.327 32.3245C54.3102 32.2908 54.2934 32.2572 54.2808 32.2236C54.2135 32.1311 54.1463 32.0176 54.1042 31.8831C54.0664 31.7695 54.0538 31.6602 54.0538 31.5593C54.0538 31.5509 54.0454 31.5425 54.0454 31.5383C54.0117 31.4668 53.915 31.2524 53.9319 30.975C53.9024 30.9203 53.8772 30.8615 53.8604 30.7984C53.7637 30.4999 53.8057 30.1804 53.9655 29.9071C53.9781 29.7684 54.0159 29.6339 54.079 29.5077C54.1168 29.2387 54.2514 28.9864 54.4784 28.7762C54.5162 28.7384 54.5541 28.709 54.5961 28.6753C54.6129 28.524 54.6634 28.3768 54.7559 28.2465C54.8778 28.0657 55.0543 27.9228 55.2688 27.8345C55.2772 27.8219 55.2898 27.8135 55.2982 27.8009C55.4117 27.6916 55.542 27.6117 55.6723 27.536L55.7228 27.5066C55.8363 27.4351 55.9498 27.3889 56.0633 27.3636C56.1895 27.2711 56.3408 27.2039 56.5048 27.166C56.5174 27.1618 56.53 27.1576 56.5426 27.1534C56.7654 26.9769 57.0681 26.8802 57.3624 26.8928C57.4423 26.8591 57.5264 26.8339 57.6146 26.8171C57.8459 26.7751 58.0813 26.7919 58.2915 26.8633C58.3293 26.8633 58.363 26.8591 58.4008 26.8591C58.4891 26.8381 58.5816 26.8255 58.6783 26.8213V26.8549C58.6783 26.8549 58.7119 26.8423 58.7245 26.8381V26.8255C58.7245 26.8255 58.7497 26.8255 58.7624 26.8255C58.8296 26.8003 58.9011 26.7793 58.9768 26.7667C59.1996 26.7204 59.435 26.733 59.6536 26.7961C59.8344 26.7667 60.0236 26.7751 60.2002 26.8213C60.2506 26.8045 60.3011 26.7919 60.3515 26.7793C60.7005 26.691 60.9611 26.733 61.2218 26.8465C61.2596 26.8381 61.2974 26.8339 61.3353 26.8297C61.4824 26.8129 61.6254 26.8213 61.7683 26.8549C61.886 26.8213 62.0037 26.8087 62.1088 26.8087C62.2307 26.7793 62.3653 26.7667 62.4914 26.7751C62.5965 26.7793 62.7016 26.8003 62.8025 26.8297C62.9244 26.8213 63.0463 26.8297 63.1641 26.8507C63.2523 26.8507 63.3364 26.8634 63.4163 26.8802C63.4163 26.8802 63.4247 26.8802 63.4289 26.8802C63.5382 26.8507 63.6517 26.8381 63.7694 26.8423H63.9796V26.8465C64.0049 26.8465 64.0301 26.8465 64.0595 26.8507C64.1058 26.8507 64.1478 26.8507 64.1898 26.8591C64.2361 26.8676 64.2992 26.8591 64.3748 26.8381C64.4421 26.8171 64.5178 26.8045 64.5892 26.8045C64.5934 26.8045 64.5976 26.8045 64.6019 26.8045C64.7448 26.8045 64.8751 26.7877 64.9676 26.7582C65.0223 26.7414 65.0811 26.7288 65.14 26.7246C65.1862 26.7246 65.2283 26.7162 65.2745 26.7078C65.4132 26.6826 65.5604 26.7078 65.6907 26.7667C65.821 26.8297 66.0397 26.8423 66.2667 26.8045C66.3297 26.7919 66.3928 26.7919 66.4559 26.7961L66.5694 26.8087C66.7838 26.8339 66.9814 26.8549 67.1075 26.8087C67.2462 26.7582 67.4018 26.7582 67.5405 26.8087C67.7171 26.8676 67.9735 26.8718 68.3225 26.8213C68.3729 26.8129 68.4276 26.8129 68.4822 26.8213C68.7345 26.8465 69.054 26.8633 69.2684 26.7835C69.3945 26.7372 69.5333 26.7288 69.6636 26.7582C69.9663 26.8297 70.3362 26.7751 70.723 26.7204C70.8239 26.7036 70.9248 26.691 71.0215 26.6784C71.1224 26.6658 71.2233 26.6784 71.32 26.7078C71.6563 26.8171 72.0515 26.6742 72.3122 26.506C72.4803 26.3967 72.6905 26.3631 72.8839 26.4219C73.1866 26.5102 73.544 26.4303 73.6911 26.3042C73.7668 26.2369 73.8551 26.1907 73.9518 26.1613L74.0611 26.1318C74.4394 26.0225 74.8262 25.9132 75.0701 25.7493C75.1794 25.6778 75.3097 25.6358 75.44 25.6315C75.7385 25.6273 75.9781 25.497 76.0244 25.4298C76.0917 25.2027 76.2556 25.0514 76.4826 24.9883C76.5583 24.9589 76.7601 24.7781 76.882 24.673C76.9535 24.61 77.0292 24.5469 77.0964 24.488C77.1553 24.4166 77.2141 24.3493 77.2688 24.282C77.4832 24.0298 77.6177 23.8658 77.6135 23.7313C77.6093 23.5295 77.6934 23.3319 77.8448 23.1974C77.9162 23.1343 77.9793 23.0502 77.912 22.8905C77.8069 22.6424 77.8532 22.3608 78.0297 22.159C78.1306 22.0454 78.076 21.974 78.0508 21.9445C77.9541 21.8184 77.9036 21.6587 77.912 21.4989C77.9204 21.3139 77.849 21.1079 77.7186 20.9314C77.6934 20.8977 77.6724 20.8641 77.6556 20.8263L77.5883 20.6917C77.4412 20.389 77.3907 20.326 77.2772 20.2965C77.1006 20.2503 76.9451 20.1368 76.8526 19.9812C76.8064 19.9224 76.5751 19.8005 76.2766 19.7794C76.1926 19.771 76.1127 19.75 76.0412 19.7164C75.5788 19.502 75.028 19.3548 74.4479 19.1993C74.162 19.1236 73.8719 19.0479 73.5986 18.9638C73.4977 18.9344 73.4136 18.9428 73.3632 18.9554C73.2791 18.9765 73.195 18.9765 73.1109 18.968C72.9134 18.9428 72.6695 18.947 72.3752 18.9849C72.2281 19.0017 72.0767 18.9722 71.9506 18.9008C71.6942 18.7536 71.2906 18.7074 71.0131 18.7873C70.929 18.8125 70.8407 18.8209 70.7524 18.8125C70.2732 18.7662 69.7687 18.7284 69.3146 18.7747C69.281 18.7747 69.2516 18.7789 69.218 18.7747L69.1801 18.081L69.1549 18.7705C69.0666 18.7705 68.9741 18.7494 68.8942 18.7116C68.6882 18.6233 68.415 18.5687 68.1795 18.5813C68.0492 18.5855 67.9189 18.556 67.8054 18.4888C67.7802 18.472 67.7255 18.4593 67.6498 18.4425C67.4102 18.5392 67.1327 18.5476 66.8763 18.4678C66.7586 18.5056 66.6324 18.5266 66.5063 18.5182C66.2919 18.5687 66.0607 18.556 65.8589 18.4846C65.7243 18.493 65.594 18.4846 65.4679 18.4509C65.3796 18.4383 65.2955 18.4173 65.2157 18.3837L65.1736 18.3669C65.1736 18.3669 65.1358 18.3669 65.1148 18.3627C65.1148 18.3627 65.1063 18.3627 65.1021 18.3627C64.9088 18.4047 64.7112 18.3963 64.5262 18.3374C64.5094 18.3374 64.4967 18.3332 64.4841 18.329C64.4001 18.329 64.2865 18.3248 64.1604 18.287C64.1226 18.2744 64.0848 18.2618 64.0511 18.2491C64.0007 18.2491 63.9544 18.2407 63.9082 18.2323C63.7947 18.2113 63.698 18.1735 63.6055 18.123C63.5508 18.1062 63.5004 18.0852 63.4457 18.06C63.349 18.0389 63.2481 18.0011 63.1514 17.9464C63.1514 17.9464 63.1514 17.9464 63.1472 17.9464C63.0716 17.9296 63.0001 17.9086 62.9286 17.8792C62.8824 17.8624 62.7773 17.8245 62.6722 17.7362C62.6385 17.7068 62.5713 17.6522 62.504 17.5681C62.4283 17.526 62.3569 17.4756 62.2938 17.4167C62.2434 17.3705 62.2013 17.3158 62.1635 17.2612C61.9995 17.1897 61.8608 17.0804 61.7599 16.9459C61.5833 16.8366 61.4446 16.6684 61.3731 16.4666C61.3563 16.4204 61.3479 16.3783 61.3395 16.3405C61.3142 16.2942 61.2974 16.2396 61.2806 16.1765C61.2218 16.1093 61.1503 16.0168 61.1082 15.8864C61.0704 15.7813 61.0578 15.6678 61.0662 15.5585C61.041 15.4997 61.02 15.4366 61.0116 15.3609C60.9863 15.2054 61.0158 15.075 61.0326 15.012C61.0158 14.9531 61.0074 14.9027 61.0074 14.8774C60.9989 14.8186 60.9989 14.7639 61.0031 14.7093C60.9569 14.5916 60.9359 14.4654 60.9443 14.3351C60.9569 14.1796 61.0074 14.0324 61.0956 13.9063C61.1167 13.8643 61.1419 13.8222 61.1713 13.7802C61.1923 13.7297 61.226 13.6793 61.2596 13.633C61.268 13.5994 61.2764 13.57 61.289 13.5363C61.2974 13.3976 61.3395 13.2589 61.4151 13.1327C61.474 13.0276 61.5707 12.9394 61.6884 12.8721C61.6926 12.8721 61.6968 12.8637 61.7052 12.8595C61.722 12.8343 61.7431 12.809 61.7641 12.7838C61.8019 12.7207 61.8566 12.6367 61.9365 12.561C61.9491 12.5484 61.9575 12.54 61.9701 12.5316C61.9701 12.5316 61.9701 12.5274 61.9743 12.5232C61.9911 12.4853 62.0037 12.4559 62.0163 12.4265C62.0752 12.3003 62.1761 12.1868 62.3022 12.0943C62.3148 12.0775 62.3274 12.0649 62.3358 12.0523C62.4998 11.8673 62.7058 11.7454 62.9328 11.7076C62.9581 11.6949 62.9833 11.6781 63.0169 11.6613C63.0674 11.6277 63.1178 11.6025 63.1725 11.5814C63.1977 11.5688 63.2229 11.5562 63.2397 11.552C63.2523 11.5478 63.2607 11.5394 63.2734 11.5352C63.2776 11.5352 63.286 11.531 63.2902 11.5268C63.3238 11.5058 63.349 11.4889 63.3701 11.4805C63.4836 11.4133 63.6013 11.367 63.719 11.3418C63.7274 11.3418 63.7358 11.3334 63.7484 11.3292C63.7989 11.304 63.8661 11.2745 63.946 11.2493C64.0007 11.1989 64.0637 11.1568 64.1268 11.119C64.2403 11.0559 64.3664 11.0181 64.4925 11.0013C64.5934 10.9592 64.7154 10.934 64.8457 10.9298C64.8793 10.9172 64.9172 10.9046 64.9508 10.8962C65.1358 10.7995 65.3502 10.7574 65.5562 10.7827C65.6823 10.7322 65.8 10.7196 65.8841 10.7112C65.8925 10.7112 65.9009 10.7112 65.9051 10.7112H65.9135H65.9219C66.027 10.6818 66.1658 10.6439 66.3466 10.6397C66.3634 10.6397 66.3886 10.6397 66.4096 10.6397C66.4853 10.6397 66.561 10.6523 66.6324 10.6691C66.7459 10.6733 66.8552 10.6944 66.9561 10.7364C67.0192 10.7238 67.0907 10.7154 67.1537 10.7196C67.3429 10.7322 67.5363 10.7448 67.7297 10.7448C67.9399 10.749 68.1543 10.7238 68.3855 10.6944L68.457 10.686C68.5789 10.6733 68.7009 10.6902 68.8144 10.7406C69.0288 10.8373 69.3693 10.7995 69.7309 10.7616C69.92 10.7406 70.1092 10.7238 70.2942 10.7154C70.3152 10.7154 70.3363 10.7154 70.3573 10.7154C71.4293 10.7827 72.5686 10.7827 73.75 10.7154C74.183 10.6733 74.6244 10.7322 75.0112 10.7869C75.1794 10.8079 75.3475 10.8331 75.5115 10.8457C75.6292 10.8415 75.7511 10.8247 75.8688 10.8079C76.1043 10.7784 76.3733 10.7406 76.6634 10.7616C76.9073 10.7574 77.1427 10.7911 77.3487 10.8163C77.4748 10.8331 77.6009 10.8499 77.7313 10.8583C78.2778 10.8121 78.7907 10.8751 79.2153 10.7911C79.291 10.7784 79.3667 10.7742 79.4423 10.7869C79.9468 10.8625 80.4849 10.9172 80.9894 10.8415C81.0105 10.8415 81.0273 10.8373 81.0483 10.8331C81.2963 10.8163 81.536 10.8205 81.763 10.8247C82.0447 10.8289 82.3305 10.8331 82.5912 10.7911C82.6711 10.7784 82.751 10.7784 82.8308 10.7911C83.1588 10.8541 83.4867 10.8541 83.8314 10.7911C83.8987 10.7784 83.9701 10.7784 84.0374 10.7827C84.3107 10.8163 84.6176 10.7784 84.9455 10.7364L85.0212 10.728C85.1221 10.7154 85.2272 10.728 85.3197 10.7574C85.5425 10.8331 85.8704 10.892 86.1815 10.7658C86.3118 10.7112 86.4548 10.6986 86.5935 10.728C86.9593 10.8079 87.3881 10.7784 87.8421 10.749C88.2205 10.7238 88.6451 10.6944 89.0697 10.7322C89.3976 10.707 89.6793 10.7574 89.9358 10.7995C90.0661 10.8205 90.1964 10.8457 90.3309 10.8499C90.4108 10.8499 90.5243 10.8121 90.7135 10.749C90.8354 10.707 90.9658 10.7028 91.0919 10.7322C91.4745 10.8247 91.8654 10.9004 92.1135 10.7953C92.2438 10.7406 92.3867 10.728 92.5255 10.7574C92.9039 10.8373 93.3116 10.8289 93.7447 10.8205C93.875 10.8205 94.0011 10.8163 94.1314 10.8163C94.3585 10.7911 94.5687 10.7995 94.7452 10.8079C94.9302 10.8163 95.1026 10.8247 95.2371 10.7911C95.3885 10.7532 95.5482 10.77 95.687 10.8331C95.9266 10.9424 96.3428 10.9298 96.6413 10.8079C96.7632 10.7574 96.8935 10.7448 97.0239 10.7658C97.3896 10.8289 97.8016 10.8037 98.2304 10.7742C98.3019 10.77 98.3692 10.7742 98.4364 10.7911C98.6172 10.8331 98.8064 10.8751 98.962 10.8751C99.0755 10.8751 99.1806 10.8415 99.3487 10.7658C99.5211 10.6944 99.7145 10.6944 99.8869 10.7658C100.164 10.8836 100.467 10.8121 100.673 10.7322C100.757 10.6986 100.845 10.6818 100.942 10.686H101.119C101.497 10.707 101.854 10.7196 102.111 10.6187C102.254 10.564 102.409 10.5598 102.556 10.6019C102.699 10.6439 102.914 10.6229 103.141 10.6019L103.326 10.5851C103.372 10.5851 103.414 10.5851 103.46 10.5851C103.633 10.6061 103.813 10.5851 104.019 10.5136C104.141 10.4758 104.268 10.4673 104.394 10.4968C104.495 10.522 104.671 10.543 104.965 10.5052C105.049 10.4968 105.134 10.5052 105.213 10.522C105.34 10.5556 105.529 10.5094 105.659 10.4758C105.789 10.4379 105.928 10.4421 106.054 10.4842C106.18 10.5262 106.365 10.5262 106.567 10.4884C106.689 10.4673 106.819 10.4758 106.937 10.522C106.937 10.522 107 10.5472 107.177 10.522C107.236 10.5136 107.299 10.5136 107.358 10.522C107.488 10.5388 107.547 10.522 107.551 10.522C107.618 10.4968 107.685 10.4842 107.753 10.48C107.782 10.48 107.795 10.4715 107.795 10.4715C107.976 10.2445 108.261 10.1689 108.539 10.2655C108.573 10.2655 108.711 10.2445 108.762 10.2109C108.867 10.1478 108.993 10.1058 109.115 10.1058C109.182 10.0511 109.254 10.0217 109.338 9.99228C109.371 9.97967 109.397 9.95865 109.405 9.95024C109.476 9.86616 109.565 9.8031 109.661 9.76105C109.804 9.7022 109.914 9.63914 109.994 9.57187C110.103 9.48358 110.233 9.42893 110.376 9.41632C110.46 9.40791 110.536 9.35746 110.704 9.23134C110.759 9.1893 110.818 9.14726 110.872 9.10522C110.927 9.06738 110.99 9.03374 111.057 9.01272C111.288 8.93705 111.423 8.80252 111.452 8.72684C111.528 8.54607 111.679 8.40733 111.864 8.34007C111.915 8.32325 111.944 8.31484 111.982 8.15929C111.995 8.11305 112.011 8.0668 112.033 8.02476C112.087 7.91125 112.15 7.80194 112.213 7.69264C112.348 7.4488 112.478 7.22178 112.482 7.05361C112.487 6.86022 112.575 6.67524 112.726 6.54912C112.785 6.49867 112.823 6.43981 112.827 6.38936C112.827 6.37675 112.827 6.33891 112.781 6.28426C112.646 6.13712 112.583 5.93532 112.608 5.73773C112.629 5.56956 112.621 5.52752 112.617 5.51911C112.579 5.46866 112.545 5.40981 112.524 5.35095C112.474 5.21642 112.457 5.0987 112.449 5.01883C112.327 4.85487 112.251 4.69511 112.184 4.56058C112.104 4.39662 112.058 4.30833 111.982 4.24527C111.957 4.22425 111.932 4.19903 111.911 4.1738C111.873 4.13176 111.789 4.0687 111.717 4.00984C111.57 3.89633 111.406 3.766 111.272 3.58943C111.209 3.50535 111.166 3.40865 111.145 3.30776C111.124 3.19845 110.801 2.96722 110.254 2.92098C110.099 2.90837 109.951 2.8411 109.838 2.73179C109.636 2.5384 109.157 2.40808 108.703 2.51738C108.615 2.5384 108.526 2.54261 108.438 2.53C108.139 2.48796 107.786 2.44171 107.425 2.46693C107.391 2.46693 107.353 2.46693 107.32 2.46693C107.08 2.44591 106.866 2.4291 106.702 2.46273C106.563 2.49216 106.42 2.47955 106.29 2.42489C105.987 2.29877 105.579 2.29036 105.197 2.39967C105.037 2.44591 104.869 2.4333 104.717 2.36183C104.44 2.25253 104.028 2.26514 103.578 2.39126C103.486 2.41649 103.393 2.42069 103.296 2.40808C102.893 2.34922 102.443 2.3324 101.884 2.35763C101.35 2.45012 100.824 2.47114 100.316 2.41649C100.118 2.42069 99.9205 2.42069 99.7229 2.41649H99.643C99.4833 2.41649 99.3277 2.41649 99.168 2.41649C99.1175 2.41649 99.0671 2.41649 99.0208 2.40387C98.634 2.3282 98.2473 2.34081 97.9782 2.44171C97.8437 2.49216 97.6923 2.50057 97.5494 2.46273C97.3182 2.39967 97.0028 2.41228 96.7001 2.42489C96.6707 2.42489 96.6035 2.42489 96.574 2.42489L96.4857 2.41649C96.2419 2.39546 96.0149 2.37024 95.8089 2.38285C95.7626 2.38706 95.7164 2.39126 95.6702 2.39546C95.6323 2.39967 95.5945 2.40808 95.5566 2.41649C95.5188 2.42489 95.4768 2.4333 95.4347 2.4333C95.2161 2.44591 95.0143 2.4333 94.7831 2.4291C94.6275 2.42489 94.4972 2.41649 94.3711 2.42069H94.3627C94.2155 2.42069 94.0768 2.37444 93.9633 2.29457C93.9507 2.29457 93.9381 2.29457 93.9255 2.29457L93.833 2.30297C93.7321 2.31138 93.6312 2.31559 93.5303 2.31138C93.4672 2.31138 93.4083 2.30297 93.3537 2.29457C93.2696 2.31559 93.1855 2.33661 93.1014 2.35342C92.9165 2.38706 92.7231 2.39126 92.5339 2.36604C92.1807 2.44171 91.8528 2.39126 91.5838 2.34922C91.4408 2.39547 91.2643 2.44591 91.0583 2.46273C90.9237 2.47114 90.6715 2.47955 90.4108 2.40808C90.2679 2.40808 90.1376 2.38706 90.0156 2.36604C89.9988 2.36604 89.9862 2.36183 89.9694 2.35763C89.9694 2.35763 89.9694 2.35763 89.9652 2.35763C89.961 2.35763 89.9526 2.35763 89.9484 2.35763L89.8727 2.34502C89.8349 2.34502 89.7928 2.34502 89.755 2.33661C89.734 2.33661 89.7171 2.3324 89.7003 2.3282H89.6835L89.4313 2.39546C89.0361 2.49636 88.5904 2.46273 88.2163 2.30718C88.1616 2.30718 88.1112 2.30718 88.0565 2.30718C87.8295 2.34081 87.5815 2.35342 87.3082 2.29457C87.0097 2.36183 86.7322 2.33661 86.5388 2.30718C86.3749 2.34502 86.2109 2.38285 86.047 2.41649C85.6266 2.50898 85.223 2.41649 84.9623 2.3282C84.9623 2.3282 84.9623 2.3282 84.9539 2.3282C84.6218 2.42069 84.2434 2.41649 83.9029 2.31979C83.5161 2.39546 83.1503 2.37024 82.8224 2.34922C82.6963 2.34081 82.5744 2.3324 82.4483 2.3324C82.423 2.3324 82.3558 2.34081 82.2927 2.34502C82.0573 2.36183 81.7924 2.37865 81.5023 2.3324C81.3552 2.3282 81.187 2.35342 81.0062 2.37444C80.8717 2.39126 80.7414 2.41228 80.6069 2.42069C80.527 2.4291 80.4471 2.42069 80.3672 2.39546C80.2243 2.35342 80.0687 2.31979 79.9594 2.31979C79.8838 2.31979 79.7997 2.34081 79.703 2.36604C79.5348 2.40808 79.3204 2.45853 79.0724 2.44591C79.0093 2.44591 78.9462 2.4333 78.8832 2.41228C78.6015 2.31979 78.3156 2.31979 78.0592 2.41228C77.9793 2.44171 77.8994 2.45853 77.8153 2.45432H77.5715C77.2184 2.43751 76.8862 2.4291 76.5793 2.47955C76.47 2.49636 76.3523 2.48796 76.2472 2.45012C75.9866 2.36183 75.6586 2.40808 75.2761 2.45853L75.0238 2.49216C74.9229 2.50477 74.8262 2.49216 74.7295 2.46273C74.5824 2.41649 74.4394 2.37444 74.3175 2.37444C74.1956 2.37444 74.0527 2.41649 73.8761 2.47114C73.7836 2.50057 73.6869 2.50898 73.5902 2.49636C73.3926 2.47114 73.1824 2.47534 72.9596 2.47955H72.7999C72.7662 2.47955 72.7326 2.47955 72.7031 2.47955L72.5686 2.46273C72.4089 2.43751 72.2533 2.41649 72.1398 2.42489C71.7488 2.49216 71.4461 2.51738 71.0509 2.47114C70.8533 2.48375 70.6684 2.47955 70.4876 2.47114C70.311 2.47114 70.1597 2.46273 70.0041 2.47114C69.9411 2.47114 69.8822 2.47114 69.8233 2.45853C69.4702 2.38706 69.1843 2.39126 68.9489 2.47534C68.8396 2.51318 68.7177 2.52579 68.6 2.50477C68.3645 2.46273 68.1039 2.45432 67.8306 2.44591C67.6078 2.43751 67.3766 2.4333 67.1369 2.40387C66.8426 2.43751 66.561 2.43751 66.2877 2.43751C66.1069 2.43751 65.9261 2.43751 65.7454 2.45012C65.6529 2.45853 65.5604 2.44171 65.4721 2.41228C65.2283 2.324 64.9634 2.31559 64.6775 2.37444C64.585 2.39547 64.4841 2.39547 64.3916 2.37444C64.2655 2.34922 64.1226 2.35763 63.9628 2.40387C63.8367 2.44171 63.7022 2.43751 63.5761 2.40387C63.2944 2.31979 63.0421 2.29457 62.8361 2.3324C62.7941 2.34081 62.752 2.34081 62.7058 2.34081C62.4241 2.34081 62.1635 2.30297 61.9112 2.26934L61.7893 2.25253C61.6464 2.2315 61.4824 2.23991 61.3058 2.25253C61.1082 2.26093 60.8896 2.27355 60.6584 2.25253C60.5701 2.24412 60.4818 2.24832 60.3935 2.25253C60.1665 2.26093 59.8722 2.26934 59.5653 2.16424C59.3131 2.10959 59.002 2.14322 58.6741 2.18106L58.4134 2.20628C58.3419 2.21469 58.2747 2.20628 58.2032 2.19367C57.7996 2.10538 57.354 2.10538 56.9294 2.11799C56.8705 2.11799 56.8159 2.11799 56.7612 2.10118C56.7318 2.10959 56.6981 2.11379 56.6645 2.11799C56.366 2.16424 56.0591 2.13061 55.7943 2.0255C55.6808 2.07175 55.563 2.08436 55.4411 2.06754C55.2561 2.04232 55.0543 2.04232 54.7853 2.06334C54.718 2.07175 54.6465 2.06334 54.5751 2.05073L54.5162 2.03812C54.4826 2.02971 54.449 2.0213 54.4153 2.0171C54.3607 2.0255 54.306 2.02971 54.2514 2.02971C54.1 2.03391 53.9571 2.0171 53.8436 1.99187C53.7469 1.99187 53.6502 1.99608 53.5493 1.99187C53.4484 2.00028 53.3475 2.01289 53.2466 2.0213C53.0406 2.03812 52.8472 2.0213 52.6664 1.97505C52.6496 1.97085 52.6328 1.96665 52.616 1.96244C52.4646 1.95403 52.3049 1.94563 52.1493 1.94142L51.9643 1.95403L51.5733 2.04232C51.4472 2.07175 51.3211 2.07595 51.2328 2.08016L50.8629 2.10118C50.619 2.11799 50.3878 2.08436 50.1776 2.00448C50.1482 2.00869 50.1187 2.01289 50.0893 2.0171C49.9758 2.05073 49.8707 2.06754 49.7824 2.08016L49.6395 2.10538C49.4965 2.13481 49.3326 2.16844 49.1182 2.16424C49.0004 2.16424 48.8743 2.16424 48.7524 2.16004L48.4833 2.21048C48.4161 2.2273 48.311 2.24412 48.2059 2.25253C48.0461 2.26093 47.9116 2.24832 47.8065 2.23571L47.6719 2.2231C47.5248 2.21048 47.3735 2.19787 47.2305 2.16844L46.9699 2.11799L46.6503 2.13901C46.5284 2.14742 46.4107 2.13901 46.3056 2.11799C46.1501 2.14322 46.0113 2.14742 45.8936 2.15163H45.8221C45.7591 2.16424 45.696 2.17265 45.633 2.17685L44.809 2.27355C44.5777 2.29877 44.3675 2.27355 44.1994 2.25253L44.048 2.23571H43.8126C43.7369 2.23571 43.6486 2.23991 43.5519 2.23571C43.3333 2.39967 43.0558 2.50477 42.7447 2.5384C42.6607 2.54681 42.564 2.55522 42.4547 2.55102C42.4378 2.56363 42.4168 2.57204 42.3958 2.58465C42.2991 2.6393 42.1982 2.67714 42.1057 2.70236C41.9712 2.85792 41.7694 2.93779 41.5592 2.93359C41.185 2.93359 40.8277 3.09335 40.4913 3.26571C40.4283 3.29514 40.3652 3.32037 40.298 3.32878C39.9574 3.38763 39.6884 3.58102 39.3815 3.79964L39.2511 3.89213C39.146 3.99723 39.0409 4.08131 38.9442 4.16119C38.877 4.21584 38.7719 4.29572 38.7508 4.33356C38.6962 4.48911 38.6037 4.59001 38.4608 4.67409C38.1581 4.85066 38.0656 5.00621 38.0572 5.03985C38.1791 5.27528 38.1581 5.52752 37.9983 5.73773C37.8806 5.89328 37.8428 6.13291 37.8764 6.51549C37.889 6.67104 37.8512 6.83079 37.7629 6.96112C37.7629 6.97794 37.8175 7.07043 37.9521 7.16712C38.1707 7.31847 38.2842 7.58753 38.2379 7.84819C38.2169 7.97011 38.3683 8.10884 38.5995 8.18031C38.7088 8.21394 38.8055 8.2728 38.8896 8.35268C39.0451 8.50823 39.2091 8.66799 39.3815 8.7857C39.4067 8.79832 39.4277 8.81093 39.4529 8.82774C39.579 8.85717 39.6968 8.90342 39.8103 8.96228C39.8607 8.9917 39.9112 9.02113 39.9574 9.05477C39.9742 9.06738 39.9953 9.07999 40.0121 9.0926C40.0751 9.13464 40.1256 9.18509 40.1676 9.24395C40.2055 9.28599 40.2433 9.33224 40.2727 9.38269C40.319 9.40791 40.3652 9.43734 40.4031 9.46256C40.4703 9.50881 40.5334 9.55926 40.588 9.61391L40.8739 9.7064L40.7268 10.3833L40.9286 9.72322C41.0379 9.75685 41.1724 9.79889 41.3069 9.87877C41.349 9.89979 41.3952 9.93342 41.4373 9.96706C41.4625 9.98387 41.4835 10.0049 41.5087 10.0217C41.5466 10.0553 41.576 10.0848 41.6012 10.11C41.6349 10.1142 41.6685 10.1226 41.7021 10.1268C41.8661 10.1604 42.0174 10.2193 42.1351 10.2655L42.2276 10.2992C42.2276 10.2992 42.2444 10.3034 42.2529 10.3076C42.2865 10.3202 42.3201 10.337 42.3496 10.3496C42.4294 10.337 42.5093 10.337 42.5892 10.3496C42.6985 10.3707 42.812 10.3917 42.9087 10.3959C43.451 10.3328 43.9765 10.3622 44.5063 10.4043C44.9393 10.3454 45.3429 10.3664 45.7339 10.3875L45.9525 10.4001C46.0029 10.4043 46.0618 10.3791 46.108 10.3664C46.2131 10.3328 46.3603 10.2866 46.5368 10.274C46.5873 10.274 46.6335 10.274 46.684 10.274C46.9278 10.3076 47.1128 10.3833 47.2641 10.4463C47.3861 10.4968 47.4491 10.522 47.5122 10.5262C47.6888 10.543 47.8443 10.5052 48.0419 10.4547L48.1764 10.4211C48.2689 10.4001 48.3656 10.3959 48.4581 10.4127C48.5548 10.4295 48.6641 10.4463 48.7524 10.4379C48.8113 10.4337 48.8785 10.4127 48.9626 10.3875C49.135 10.3328 49.32 10.3496 49.4797 10.4295C49.5175 10.4505 49.6226 10.48 49.8623 10.4631C50.001 10.4505 50.1397 10.4884 50.2575 10.5598C50.4719 10.6902 50.6611 10.7827 50.8797 10.8373C50.9848 10.8625 51.0857 10.9172 51.1655 10.9887C51.2034 11.0181 51.3379 11.0685 51.4262 11.1022L51.586 11.161C51.6658 11.1905 51.7373 11.2367 51.8004 11.2956C51.8718 11.3628 51.9349 11.4007 52.0106 11.4217C52.225 11.4889 52.3889 11.6571 52.4562 11.8715C52.4814 11.9514 52.494 11.9724 52.4982 11.9766C52.5193 11.9934 52.5697 12.0313 52.7043 12.0733C52.906 12.1406 53.07 12.2961 53.1415 12.4937C53.1583 12.54 53.1919 12.5988 53.2466 12.6703C53.2928 12.7334 53.3307 12.809 53.3517 12.8847L53.3769 12.9856C53.3895 13.0318 53.4063 13.0907 53.4147 13.1117C53.5241 13.3303 53.524 13.6246 53.3895 13.8306C53.3979 13.8264 53.4063 13.8516 53.4358 13.8895C53.6628 14.1585 53.646 14.5579 53.4021 14.8102C53.3517 14.8606 53.3391 14.8985 53.3391 14.9069C53.4232 15.075 53.44 15.281 53.3769 15.4576C53.3391 15.5585 53.2928 15.6636 53.2466 15.7645C53.2172 15.8318 53.1709 15.9285 53.1583 15.9747C53.1961 16.2059 53.1162 16.4414 52.9397 16.5969C52.8682 16.6642 52.843 16.7146 52.8388 16.7273C52.822 16.7987 52.7967 16.8744 52.7589 16.9375C52.7169 17.0089 52.6622 17.0804 52.6034 17.1519L52.5949 17.1603C52.5319 17.3242 52.41 17.4588 52.2502 17.5386C52.0358 17.6438 51.8172 17.6942 51.6238 17.7404C51.4935 17.7699 51.3253 17.8119 51.2706 17.8498C51.1403 17.938 50.9848 17.9801 50.8334 17.9675C50.7788 17.9675 50.7157 17.9759 50.64 18.0053C50.5602 18.0347 50.4761 18.0515 50.3878 18.0515C50.3163 18.0515 50.2491 18.0431 50.1818 18.0389C50.1566 18.0389 50.1355 18.0305 50.1103 18.0305C50.0473 18.0389 50.0052 18.0558 49.9548 18.0684C49.8623 18.0936 49.7488 18.1272 49.6184 18.144C49.4503 18.1735 49.2989 18.1567 49.2022 18.144C49.1812 18.144 49.1644 18.1398 49.1434 18.1398C48.9248 18.1819 48.7188 18.1777 48.5422 18.1735C48.4917 18.1735 48.4413 18.1735 48.3908 18.1735C48.0125 18.2533 47.6467 18.2491 47.2936 18.2491C47.1254 18.2491 46.9572 18.2491 46.7933 18.2575C46.7302 18.2575 46.6672 18.2575 46.6083 18.2449C46.4822 18.2197 46.3098 18.2323 46.1248 18.2449C46.0029 18.2533 45.8768 18.2618 45.7549 18.2618C45.6666 18.2618 45.5867 18.2449 45.5068 18.2155C45.427 18.1861 45.3008 18.1903 45.1999 18.2239C45.1032 18.2576 45.0023 18.2702 44.9014 18.2618C44.7585 18.2491 44.6912 18.2575 44.6618 18.266C44.5819 18.2912 44.4978 18.2996 44.418 18.2954C44.3549 18.2954 44.1657 18.2828 44.1111 18.3038C43.9807 18.35 43.8336 18.3627 43.7033 18.329C43.6612 18.3164 43.615 18.308 43.5729 18.3038C43.5435 18.3038 43.5099 18.3038 43.4594 18.3122C43.3585 18.3332 43.2534 18.329 43.1567 18.3038C43.0348 18.2744 42.9045 18.2575 42.7952 18.2491C42.7784 18.2491 42.7111 18.2786 42.6607 18.2954C42.5556 18.3374 42.4505 18.3753 42.3369 18.4005C42.2276 18.4257 42.1141 18.4257 42.009 18.3963C41.9081 18.3711 41.74 18.3963 41.5592 18.4173C41.4415 18.4341 41.328 18.4467 41.2144 18.4551C41.1976 18.4551 41.1766 18.4551 41.1682 18.4551C41.0673 18.4551 40.9622 18.4509 40.8571 18.4425C40.6679 18.4341 40.4745 18.4215 40.3694 18.4593C40.2517 18.5014 40.1214 18.5098 39.9995 18.4846C39.928 18.472 39.8733 18.4593 39.8187 18.4467C39.6715 18.4299 39.4908 18.4467 39.3016 18.472C39.1166 18.493 38.9316 18.514 38.734 18.5098C38.6836 18.5098 38.6289 18.5014 38.5785 18.4888C38.3935 18.4425 38.2001 18.4383 37.9773 18.4299C37.8091 18.4257 37.6368 18.4173 37.4644 18.4005C37.1827 18.3879 36.9263 18.4047 36.7076 18.4509C36.653 18.4636 36.5983 18.4678 36.5437 18.4636L36.2872 18.4509C36.0182 18.4383 35.7617 18.4257 35.5305 18.4551C35.4969 18.4593 35.4632 18.4593 35.4296 18.4636C35.3119 18.4636 35.19 18.4509 35.0723 18.4425C34.9125 18.4299 34.778 18.4173 34.6771 18.4341C34.5804 18.4551 34.4837 18.4509 34.387 18.4341C34.1516 18.3795 33.8783 18.3837 33.5882 18.3837H33.5462C33.3948 18.3837 33.2351 18.3837 33.0795 18.3753C32.9744 18.3711 32.8735 18.3416 32.7852 18.2912C32.6213 18.1987 32.3102 18.1945 31.957 18.2744C31.8729 18.2954 31.7804 18.2954 31.6964 18.2828C31.5366 18.2575 31.3348 18.2323 31.2045 18.266C31.1162 18.2912 31.0195 18.2954 30.927 18.2828C30.6369 18.2407 30.4309 18.2449 30.3048 18.2996C30.1703 18.3584 30.0147 18.3711 29.8676 18.3374C29.8213 18.3248 29.7751 18.3164 29.7246 18.308L29.5985 18.2828C29.4934 18.266 29.3673 18.2786 29.2033 18.3122C29.0772 18.3374 28.9469 18.3248 28.825 18.2786C28.7241 18.2407 28.64 18.2155 28.5517 18.2029C28.5349 18.2029 28.4886 18.2029 28.4382 18.2029C28.1775 18.2029 27.9589 18.2449 27.837 18.3206C27.6688 18.4215 27.467 18.4467 27.2821 18.3879C27.0676 18.3248 26.8028 18.3458 26.5001 18.3753C26.3403 18.3921 26.1806 18.4047 26.0166 18.4089C25.7938 18.4299 25.6046 18.3879 25.4659 18.3584C25.4238 18.35 25.3818 18.3374 25.3398 18.3332C25.159 18.3248 24.9446 18.3458 24.7596 18.4005C24.6629 18.4299 24.5662 18.4341 24.4653 18.4215C24.3728 18.4089 24.2803 18.3963 24.2047 18.4047C24.1458 18.4089 24.0659 18.4299 23.9818 18.4551C23.8809 18.4846 23.7716 18.4888 23.6665 18.4678C23.4984 18.4341 23.2756 18.4425 23.0359 18.4846C22.9266 18.5056 22.8131 18.4972 22.708 18.4636C22.544 18.4131 22.3464 18.4089 22.0395 18.4467C21.9597 18.4593 21.884 18.4551 21.8041 18.4383C21.5939 18.3921 21.3543 18.4131 21.0768 18.4341C20.9297 18.4467 20.7867 18.4551 20.6396 18.4593C20.5891 18.4593 20.5345 18.4593 20.484 18.4467C20.1309 18.3753 19.7105 18.3795 19.2354 18.4636C19.1471 18.4804 19.0504 18.4762 18.9621 18.4551C18.7351 18.4047 18.4997 18.4047 18.2895 18.4551C18.1844 18.4804 18.0793 18.4846 17.9742 18.4593C17.8228 18.4257 17.6673 18.4257 17.4991 18.4509C17.4361 18.4593 17.373 18.4636 17.3099 18.4509C16.8265 18.3921 16.2883 18.3921 15.7082 18.4551C15.5905 18.4678 15.4727 18.4509 15.3634 18.4047C15.0776 18.2828 14.6782 18.2912 14.3166 18.4215C14.1779 18.472 14.0265 18.4762 13.8836 18.4341C13.8121 18.4131 13.707 18.4005 13.5935 18.3837L13.4296 18.3627C13.3707 18.3542 13.2656 18.3753 13.1647 18.3921C13.0344 18.4173 12.8746 18.4509 12.6938 18.4551C12.6728 18.4551 12.656 18.4551 12.635 18.4551C12.5004 18.4467 12.3533 18.4551 12.1935 18.472C12.0128 18.4888 11.811 18.5014 11.5966 18.493C11.3864 18.472 11.2014 18.4804 11.0038 18.4846C10.8272 18.4888 10.6254 18.4972 10.4152 18.4846C10.1504 18.5056 9.8855 18.493 9.61644 18.4467C9.35578 18.4383 9.05729 18.5014 8.76721 18.5644C8.62427 18.5939 8.46872 18.5813 8.33418 18.5224C7.99786 18.3753 7.55643 18.4593 7.05193 18.556C6.72401 18.6191 6.38769 18.6822 6.03034 18.6948C5.96307 18.7032 5.91683 18.72 5.8874 18.7326C5.81172 18.7747 5.72764 18.7957 5.63936 18.8083C5.48801 18.8251 5.34087 18.8503 5.18952 18.8798C4.91625 18.926 4.66821 18.9933 4.40335 19.0647C4.16792 19.1278 3.9367 19.1909 3.69286 19.2413C3.56253 19.2791 3.45322 19.338 3.40278 19.4011C3.3271 19.4978 3.222 19.5734 3.10849 19.6155C2.90669 19.6911 2.77636 19.8215 2.73432 19.9182C2.65865 20.0905 2.51991 20.2251 2.34334 20.2923C2.01122 20.4185 1.82624 20.6413 1.87669 20.8599C1.93134 21.0995 1.85146 21.3518 1.67069 21.5199C1.53195 21.6461 1.32175 21.8899 1.46048 22.0707C1.59922 22.2472 1.64126 22.4785 1.5782 22.6929C1.5824 22.7223 1.60762 22.798 1.71693 22.983C1.73375 23.0124 1.75056 23.0376 1.76318 23.0712C1.85987 23.2941 1.96918 23.437 2.12893 23.5547C2.26767 23.6556 2.36436 23.807 2.398 23.9751C2.41902 24.076 2.65865 24.2988 3.05384 24.3703C3.25984 24.4082 3.44061 24.5343 3.54151 24.7193C3.634 24.8916 3.88625 25.0766 4.21837 25.085C4.31086 25.085 4.40335 25.1102 4.48743 25.1481L4.70184 25.249C5.00033 25.3919 5.25678 25.5138 5.54266 25.5391C5.63515 25.5475 5.72764 25.5727 5.81172 25.6189C6.01773 25.7282 6.21111 25.7913 6.4045 25.8123C6.48438 25.8207 6.56005 25.846 6.63573 25.8796C6.72822 25.9258 6.87116 25.9805 7.03091 25.9721C7.18646 25.9637 7.34202 26.0099 7.46814 26.1024C7.56904 26.1739 7.75822 26.2369 7.92218 26.1991C8.02308 26.1739 8.13239 26.1739 8.23329 26.1991C8.40565 26.2369 8.61586 26.2664 8.81766 26.2916L8.94798 26.3084C9.00264 26.3168 9.06149 26.3294 9.11194 26.3505C9.19602 26.3673 9.42725 26.3799 9.60382 26.3799C9.64166 26.3799 9.6837 26.3799 9.72154 26.3883C9.86868 26.4093 9.99901 26.4471 10.1083 26.4808C10.1882 26.506 10.2597 26.527 10.3143 26.5354C10.5413 26.5312 10.7599 26.5438 10.9533 26.5607C11.2518 26.5817 11.5041 26.6027 11.7269 26.548C11.7984 26.5312 11.8698 26.527 11.9413 26.5354C12.0506 26.5438 12.1599 26.5607 12.2734 26.5733C12.6476 26.6195 13.0007 26.6616 13.253 26.5607C13.3833 26.5102 13.5304 26.4976 13.6692 26.5312C13.7827 26.5607 13.9382 26.5354 14.119 26.5102C14.2536 26.4892 14.3881 26.4724 14.5226 26.464C14.5941 26.464 14.6656 26.464 14.737 26.485C14.9598 26.5438 15.2836 26.6153 15.5652 26.5775C16.0277 26.5312 16.4565 26.5354 16.8727 26.5438C17.0577 26.5438 17.2385 26.5522 17.4192 26.548L17.579 26.5312C17.8439 26.4976 18.0499 26.4724 18.4324 26.5144C18.5375 26.5144 18.6468 26.5228 18.7519 26.527C19.0126 26.5438 19.206 26.5564 19.3489 26.506C19.4456 26.4724 19.5507 26.4598 19.6558 26.4724C19.9123 26.5018 20.1351 26.5018 20.3327 26.4724C20.4672 26.4513 20.6102 26.4724 20.7363 26.527C21.0474 26.67 21.5351 26.6868 21.8251 26.5565C21.9344 26.5102 22.048 26.4892 22.1657 26.5018C22.7038 26.5522 23.2713 26.5943 23.7632 26.5018C23.8978 26.4766 24.0365 26.4934 24.1626 26.548C24.3938 26.6489 24.583 26.6868 24.7428 26.67C24.7596 26.67 24.7722 26.67 24.789 26.67C24.8563 26.67 24.953 26.6405 25.0539 26.6153C25.2347 26.5691 25.4617 26.5144 25.7265 26.5228C25.7476 26.5228 25.7686 26.5228 25.7938 26.527C25.983 26.5522 26.1932 26.548 26.4118 26.548C26.5758 26.548 26.7271 26.548 26.8743 26.548C26.9037 26.548 26.9373 26.548 26.9668 26.5565C27.2989 26.6111 27.5301 26.6153 27.7193 26.5607C27.8034 26.5354 27.8959 26.5312 27.9799 26.5396C28.1271 26.5565 28.2742 26.5522 28.4214 26.527C28.4928 26.5144 28.5685 26.5144 28.64 26.527C28.8838 26.5649 29.1823 26.548 29.4388 26.485C29.527 26.464 29.6195 26.4598 29.7078 26.4724C29.9811 26.5144 30.2207 26.5228 30.4225 26.4976C30.5066 26.4892 30.5949 26.4934 30.6748 26.5102C31.0952 26.6111 31.5618 26.527 32.0117 26.4429C32.0411 26.4387 32.0705 26.4345 32.0958 26.4345C32.4699 26.4135 32.8273 26.4429 33.1426 26.464C33.3654 26.4808 33.563 26.4934 33.7564 26.4976C34.017 26.4513 34.2609 26.4513 34.4669 26.4513C34.6434 26.4513 34.8074 26.4513 34.9335 26.4261C35.0386 26.4051 35.1479 26.4093 35.253 26.4387C35.644 26.548 35.9341 26.5691 36.1401 26.506C36.22 26.4808 36.3041 26.4724 36.3881 26.4766L36.5689 26.4892C36.8043 26.506 37.0272 26.5186 37.2332 26.506C37.2836 26.506 37.3299 26.506 37.3761 26.5102C37.5106 26.5312 37.6704 26.5228 37.8428 26.5102C38.1118 26.4976 38.4103 26.4808 38.734 26.5522C39.0157 26.6111 39.352 26.5817 39.6968 26.5438C39.7472 26.5396 39.7977 26.5396 39.8481 26.5438C40.1424 26.5775 40.4745 26.5649 40.8949 26.506C40.9916 26.4934 41.0883 26.5018 41.1766 26.527C41.2102 26.5354 41.2481 26.5438 41.2817 26.5522C41.3238 26.5607 41.3616 26.5691 41.4036 26.5817C41.4541 26.5985 41.5129 26.6111 41.5802 26.6195C41.6559 26.6279 41.7315 26.6447 41.803 26.6784C41.9712 26.754 42.2318 26.7751 42.4168 26.7835C42.4336 26.7835 42.4462 26.7835 42.4631 26.7835C42.6565 26.8045 42.833 26.8507 43.0096 26.897C43.1946 26.9432 43.3711 26.9895 43.5141 26.9937C43.6907 26.9937 43.8588 27.0651 43.9849 27.1913C44.0312 27.2333 44.233 27.288 44.3549 27.3174C44.5231 27.3636 44.7123 27.4141 44.9014 27.4982C44.9393 27.515 44.9729 27.536 45.0065 27.557C45.0444 27.578 45.0906 27.5907 45.1369 27.6075C45.284 27.6621 45.4858 27.7336 45.6666 27.8892C45.6918 27.9102 45.717 27.9354 45.7381 27.9606C45.7717 27.9648 45.8053 27.969 45.8432 27.9774C45.9693 28.0027 46.0954 28.0447 46.2131 28.1078C46.4443 28.1288 46.663 28.1918 46.8521 28.3012C47.0581 28.4231 47.2263 28.5912 47.3314 28.7846C47.5332 28.9612 47.6677 29.1882 47.7056 29.4405C47.7392 29.6717 47.693 29.9029 47.5752 30.1089C47.5837 30.1341 47.5921 30.1636 47.5963 30.1972C47.6089 30.2561 47.6131 30.3149 47.6089 30.378C47.6047 30.4747 47.6131 30.5714 47.6215 30.6681C47.6299 30.7648 47.6341 30.8615 47.6383 30.9539C47.6383 31.0927 47.6047 31.2272 47.529 31.3449C47.6047 31.5804 47.55 31.8368 47.3819 32.0218C47.3861 32.1731 47.344 32.3203 47.2515 32.4464C47.1801 32.5473 47.0918 32.6482 47.0035 32.7449C46.9446 32.8122 46.8521 32.9089 46.8353 32.9509C46.7933 33.077 46.7134 33.1863 46.6041 33.2704C46.5536 33.3082 46.5074 33.3587 46.4738 33.4133C46.4149 33.51 46.335 33.5899 46.2383 33.6446C46.2299 33.6488 46.2257 33.653 46.2257 33.653C46.129 33.7959 45.9819 33.901 45.8137 33.9389C45.7675 33.9515 45.7339 33.9641 45.7128 33.9767C45.6414 34.1575 45.4942 34.3046 45.305 34.3719C45.2546 34.3887 45.1957 34.4307 45.1201 34.4812C45.0402 34.5358 44.9603 34.5863 44.872 34.6367C44.8005 34.6746 44.7249 34.6998 44.6408 34.7124C44.6198 34.7124 44.5945 34.7208 44.5735 34.7292C44.5567 34.7334 44.5525 34.7334 44.5525 34.7292C44.4348 34.8469 44.275 34.9184 44.1027 34.9268C44.0186 34.931 43.9219 34.9689 43.8462 35.0277C43.7579 35.095 43.657 35.1454 43.5477 35.1665L43.4174 35.1917C43.3417 35.2043 43.2618 35.2169 43.1904 35.2379C43.1357 35.2547 43.0769 35.2631 43.018 35.2631C42.9507 35.2631 42.8877 35.2716 42.8204 35.2842C42.7363 35.301 42.6522 35.301 42.5682 35.2884C42.1393 35.2169 41.74 35.2085 41.349 35.2631C41.2985 35.2716 41.2481 35.2716 41.1934 35.2631C40.8823 35.2337 40.5586 35.2547 40.2181 35.2758C39.9238 35.2926 39.5875 35.3136 39.2385 35.301C38.9568 35.3136 38.6962 35.2968 38.4397 35.2758C38.0572 35.2463 37.7335 35.2211 37.4644 35.3094C37.3803 35.3388 37.292 35.3472 37.2079 35.343C37.0524 35.3346 36.901 35.3262 36.7455 35.3178C36.6278 35.3136 36.5101 35.3514 36.3881 35.3935C36.2746 35.4313 36.1569 35.4439 36.0392 35.4229C35.6945 35.3598 35.3119 35.3809 34.9083 35.4061L34.6308 35.4187C34.593 35.4187 34.5594 35.4187 34.5215 35.4187C34.1137 35.3725 33.6933 35.4103 33.3023 35.528C33.1636 35.57 33.0165 35.5658 32.8819 35.5196C32.3774 35.3472 31.8813 35.4397 31.2507 35.5616L31.1372 35.5827C31.1078 35.5869 31.0826 35.5911 31.0531 35.5953C30.8219 35.6121 30.6075 35.5827 30.4225 35.5574C30.288 35.5406 30.1619 35.5196 30.0736 35.5238C29.6868 35.5238 29.3463 35.5995 29.073 35.734C28.9679 35.7845 28.846 35.8097 28.7367 35.8055C27.7193 35.7634 27.0088 35.8265 26.622 35.9905C26.5674 36.0115 26.5127 36.0283 26.4581 36.0367C26.3698 36.0493 26.3025 36.0661 26.2563 36.083C26.1175 36.1376 25.962 36.146 25.819 36.104C25.2935 35.9526 24.6461 36.1334 24.4611 36.3814C24.3602 36.5202 24.2089 36.6169 24.0407 36.6463C23.7632 36.701 23.5152 36.8355 23.2587 37.0625C23.2167 37.1003 23.1747 37.1298 23.1242 37.1592C22.9434 37.2601 22.8131 37.382 22.7542 37.5165C22.6828 37.6805 22.5524 37.8108 22.3885 37.8781C22.0606 38.0168 21.8756 38.2481 21.9218 38.3658C22.0311 38.6264 21.9681 38.9291 21.7621 39.1267C21.699 39.1898 21.6906 39.236 21.6906 39.2739C21.6906 39.3453 21.7369 39.4673 21.863 39.5766C21.9975 39.6985 22.0816 39.8666 22.0942 40.0474C22.1068 40.2829 22.2582 40.636 22.6281 40.8588C22.8005 40.9639 22.9182 41.1363 22.9476 41.3339C22.9602 41.4095 23.1158 41.6029 23.6077 41.7921C23.6329 41.8005 23.6581 41.8131 23.6791 41.8258C23.9945 41.9939 24.5326 42.1411 24.9488 42.1074C25.0959 42.0948 25.2431 42.1327 25.3692 42.2083C25.4028 42.2294 25.4911 42.2714 25.6509 42.284C25.7013 42.2882 25.7518 42.3008 25.798 42.3134C25.8737 42.2924 25.9452 42.2798 26.0208 42.2672C26.0755 42.2588 26.1301 42.2588 26.1806 42.2672C26.2058 42.2672 26.231 42.2672 26.2605 42.263L26.3445 42.2546C26.374 42.2546 26.4034 42.2546 26.4286 42.2546C26.7145 42.2714 26.9752 42.3513 27.2106 42.4816L27.2568 42.5068H27.3073C27.4124 42.4942 27.5217 42.4858 27.6268 42.49C27.7067 42.49 27.7908 42.5026 27.879 42.5194L28.1817 42.5867L28.3457 42.5363C28.413 42.5152 28.476 42.4984 28.5349 42.4816C28.6736 42.448 28.8208 42.4606 28.9553 42.5152C29.2159 42.6203 29.5313 42.6329 29.7751 42.5489C29.8592 42.5194 29.9517 42.5068 30.0399 42.5152C30.1661 42.5236 30.2922 42.511 30.3973 42.4774C30.4856 42.448 30.5823 42.4396 30.6748 42.448C30.8513 42.4648 31.0279 42.49 31.2087 42.5152C31.688 42.5825 32.142 42.6456 32.5498 42.5699C32.6549 42.5531 32.7642 42.5573 32.8693 42.5909C33.1804 42.6834 33.5336 42.7843 33.8573 42.7549C33.9414 42.7507 34.0212 42.7296 34.1179 42.7044C34.2398 42.675 34.3828 42.6371 34.5467 42.6245C34.5972 42.6203 34.6434 42.6245 34.6939 42.6245C35.0344 42.6666 35.3876 42.6708 35.7617 42.6708H36.0476C36.0854 42.6708 36.1275 42.6792 36.1653 42.6834C36.4092 42.7296 36.6782 42.7296 36.9137 42.6834C36.9893 42.6666 37.0734 42.6666 37.1533 42.6792C37.5106 42.7338 37.8259 42.7212 38.0656 42.6371C38.2043 42.5909 38.3515 42.5867 38.4944 42.6287C38.7172 42.696 39.0031 42.717 39.2553 42.675C39.3941 42.654 39.5328 42.675 39.6589 42.7338C39.9448 42.8726 40.4115 42.8516 40.794 42.6876C40.9033 42.6414 41.0211 42.6245 41.1346 42.6329L41.3238 42.654C41.7904 42.7044 42.2276 42.7507 42.5976 42.654C42.6775 42.6329 42.7616 42.6245 42.8456 42.6371L43.018 42.6582C43.2408 42.6834 43.43 42.7086 43.594 42.6792C43.6402 42.6708 43.6865 42.6666 43.7369 42.6708H43.8294C44.0522 42.6876 44.2456 42.696 44.418 42.6708C44.5315 42.6498 44.6492 42.6624 44.7585 42.7002C45.0612 42.8053 45.4606 42.7969 45.8768 42.675C45.9567 42.654 46.0407 42.6414 46.1206 42.6498C46.4359 42.675 46.8101 42.696 47.1843 42.6666C47.2347 42.6666 47.2852 42.6666 47.3314 42.6666C47.6593 42.7128 48.0083 42.696 48.3824 42.6834C48.6431 42.675 48.9079 42.6624 49.1728 42.6708C49.2148 42.6708 49.2569 42.6792 49.2989 42.6876C49.7025 42.7759 50.0851 42.7633 50.3752 42.654C50.4929 42.6077 50.619 42.5993 50.7451 42.6203C50.9848 42.6666 51.1782 42.6666 51.3295 42.6203C51.4809 42.5783 51.6448 42.5867 51.7878 42.6456C52.0862 42.7717 52.3133 42.8179 52.5319 42.7969C52.6622 42.7843 52.8009 42.7423 52.9733 42.6582C53.1036 42.5993 53.2466 42.5783 53.3853 42.6035C53.5661 42.6371 53.7889 42.6245 54.0243 42.6161C54.0664 42.6161 54.1168 42.6161 54.1589 42.6203C54.4069 42.654 54.7012 42.6918 54.9871 42.6792C55.067 42.6792 55.1594 42.6918 55.2393 42.7212C55.5883 42.8474 56.0045 42.8516 56.2946 42.7296C56.4417 42.6666 56.6099 42.6582 56.7612 42.7044C57.1564 42.8221 57.6146 42.8431 58.1233 42.7591C58.1696 42.7507 58.22 42.7507 58.2663 42.7507C58.9599 42.7843 59.578 42.7801 60.1581 42.7338C60.2086 42.7338 60.259 42.7338 60.3095 42.738C60.5071 42.7675 60.7257 42.7633 60.9569 42.7633C61.0998 42.7633 61.2428 42.7633 61.3815 42.7675C61.4236 42.7675 61.4656 42.7759 61.5034 42.7843C61.8692 42.8642 62.256 42.8558 62.5461 42.7591C62.6806 42.7128 62.8277 42.7128 62.9665 42.7591C63.4667 42.9146 63.8703 42.9356 64.131 42.8137C64.2403 42.7633 64.3622 42.7423 64.4841 42.7549C65.0433 42.8095 65.5057 42.8474 65.9472 42.7759C66.0102 42.7675 66.0733 42.7633 66.1364 42.7717C66.3718 42.7969 66.6198 42.8137 66.8342 42.7717C66.9267 42.7549 67.0234 42.7507 67.1117 42.7717C67.4186 42.8347 67.6835 42.86 67.9189 42.8432C68.3561 42.7549 68.7597 42.8053 69.1213 42.8432C69.445 42.881 69.7225 42.9146 69.9537 42.8432C70.042 42.8179 70.1387 42.8095 70.2311 42.8179C70.4918 42.8474 70.6936 42.8474 70.8407 42.8137C70.9248 42.7927 71.0131 42.7885 71.0972 42.8011C71.3368 42.8389 71.568 42.8263 71.7278 42.7759C71.8455 42.738 71.9674 42.7296 72.0894 42.7591C72.3374 42.8137 72.5392 42.8011 72.7578 42.7591C72.8629 42.738 72.9638 42.738 73.0689 42.7633C73.401 42.8474 73.5356 42.8305 73.8214 42.7759C73.935 42.7549 74.0527 42.7591 74.162 42.7969C74.2713 42.8305 74.4436 42.8389 74.595 42.8389C74.616 42.8389 74.6455 42.8347 74.6539 42.8305C74.7211 42.8305 74.7884 42.8305 74.8557 42.8474C75.0701 42.8978 75.398 42.8894 75.6881 42.881H75.7595C75.7595 42.881 75.7721 42.881 75.7764 42.881L75.7469 42.9188ZM56.4585 28.6795L56.4417 28.6879C56.4417 28.6879 56.4501 28.6837 56.4585 28.6795ZM63.9292 28.2339C63.9292 28.2339 63.9418 28.2339 63.946 28.2339H63.9292ZM59.826 28.154C59.826 28.154 59.826 28.154 59.8302 28.154C59.8302 28.154 59.8302 28.154 59.826 28.154ZM65.1946 17.3032L65.1736 17.6774L65.2283 17.2233L65.1904 17.3032H65.1946ZM66.1195 17.1939C66.1195 17.1939 66.1111 17.1939 66.1111 17.1981C66.1111 17.1981 66.1195 17.1981 66.1195 17.1939ZM65.2114 16.9879L65.203 17.1603L65.2577 16.9963C65.2577 16.9963 65.2367 16.9921 65.2283 16.9879C65.2241 16.9879 65.2199 16.9879 65.2114 16.9879ZM65.2409 16.9837C65.2409 16.9837 65.2535 16.9837 65.2577 16.9879C65.2577 16.9879 65.2451 16.9837 65.2409 16.9837ZM63.6601 16.9543C63.6601 16.9543 63.6601 16.9543 63.6601 16.9585C63.6601 16.9585 63.6601 16.9585 63.6601 16.9543ZM64.4001 16.8912C64.4001 16.8912 64.4085 16.8912 64.4127 16.8912H64.4001ZM64.1058 16.8576C64.1058 16.8576 64.1058 16.8576 64.11 16.8618C64.11 16.8618 64.11 16.8618 64.1058 16.8576ZM64.0932 16.8492C64.0932 16.8492 64.0974 16.8492 64.1016 16.8534C64.1016 16.8534 64.0974 16.8534 64.0932 16.8492ZM62.937 16.4792C62.937 16.4792 62.937 16.4834 62.937 16.4876C62.937 16.4876 62.937 16.4834 62.937 16.4792ZM62.6638 16.2732H62.6722C62.6722 16.2732 62.6722 16.248 62.6764 16.2312C62.6764 16.2312 62.6722 16.2606 62.668 16.2732H62.6638ZM61.9911 16.1597L62.2307 16.2017L62.1761 16.1807L61.9911 16.1597ZM64.7616 12.2877C64.7616 12.2877 64.7826 12.2877 64.7952 12.2877C64.7826 12.2877 64.77 12.2877 64.7616 12.2877ZM40.5796 11.0349C40.5796 11.0349 40.5796 11.0349 40.588 11.0433C40.588 11.0433 40.5838 11.0391 40.5796 11.0349Z" fill="#EDB371"/>
</g>
<defs>
<clipPath id="clip0_31_300">
<rect width="114.159" height="43.8026" fill="white" transform="translate(0 0.583496)"/>
</clipPath>
</defs>
</svg>
