<svg xmlns="http://www.w3.org/2000/svg" xmlns:xlink="http://www.w3.org/1999/xlink" width="211.837" height="201.667" viewBox="0 0 211.837 201.667">
  <defs>
    <clipPath id="clip-path">
      <rect id="長方形_1" data-name="長方形 1" width="206.067" height="201.667" transform="translate(6.598 8.8)" fill="#fff"/>
    </clipPath>
  </defs>
  <g id="グループ_2" data-name="グループ 2" transform="translate(-749 -1473)">
    <g id="fukidashi" transform="translate(742.402 1464.2)">
      <g id="グループ_1" data-name="グループ 1" clip-path="url(#clip-path)">
        <path id="パス_1" data-name="パス 1" d="M75.265,46.237a1.956,1.956,0,0,1-.97-.253,1.986,1.986,0,0,1-.767-2.7A41.527,41.527,0,0,1,88.521,27.834,41.177,41.177,0,0,1,130,27.416a41.419,41.419,0,0,1,15.294,15.136,1.987,1.987,0,1,1-3.426,2.012,37.332,37.332,0,0,0-32.626-18.558A36.848,36.848,0,0,0,90.55,31.256,37.571,37.571,0,0,0,76.992,45.226a1.982,1.982,0,0,1-1.737,1.021Z" fill="#f2c960"/>
        <path id="パス_2" data-name="パス 2" d="M69.511,43.009a1.956,1.956,0,0,1-.971-.253,1.986,1.986,0,0,1-.767-2.7,48.069,48.069,0,0,1,17.371-17.9,47.8,47.8,0,0,1,48.125-.476,48.052,48.052,0,0,1,17.72,17.547,1.986,1.986,0,1,1-3.425,2.012,43.954,43.954,0,0,0-38.392-21.824,43.272,43.272,0,0,0-22,6.183A44.108,44.108,0,0,0,71.238,42.018,1.982,1.982,0,0,1,69.5,43.038Z" fill="#f2c960"/>
        <path id="パス_3" data-name="パス 3" d="M63.757,39.792a1.956,1.956,0,0,1-.971-.253,1.986,1.986,0,0,1-.767-2.7A54.633,54.633,0,0,1,81.779,16.49a54.315,54.315,0,0,1,54.763-.564A54.692,54.692,0,0,1,156.7,35.874a1.987,1.987,0,1,1-3.426,2.012,50.734,50.734,0,0,0-18.691-18.5,50.4,50.4,0,0,0-50.764.515A50.748,50.748,0,0,0,65.494,38.771,1.982,1.982,0,0,1,63.757,39.792Z" fill="#3b3b3b"/>
        <path id="パス_4" data-name="パス 4" d="M189.7,124.191a2.008,2.008,0,0,1-1.184-.389,1.98,1.98,0,0,1-.408-2.78,37.341,37.341,0,0,0,5.1-35.123,36.746,36.746,0,0,0-10.238-15.126,37.664,37.664,0,0,0-16.246-8.448,1.988,1.988,0,0,1,.913-3.869,41.82,41.82,0,0,1,17.953,9.332,40.721,40.721,0,0,1,11.345,16.75,41.331,41.331,0,0,1-5.648,38.856,1.989,1.989,0,0,1-1.6.807Z" fill="#f2c960"/>
        <path id="パス_5" data-name="パス 5" d="M195.005,128.128a2,2,0,0,1-1.184-.389,1.981,1.981,0,0,1-.408-2.78,43.933,43.933,0,0,0,6-41.315,43.27,43.27,0,0,0-12.063-17.809,44.328,44.328,0,0,0-19.1-9.935,1.988,1.988,0,0,1,.912-3.869,48.273,48.273,0,0,1,20.806,10.82,48.155,48.155,0,0,1,15.586,42.783,48.218,48.218,0,0,1-8.957,21.7,1.986,1.986,0,0,1-1.592.807Z" fill="#f2c960"/>
        <path id="パス_6" data-name="パス 6" d="M200.3,132.065a2,2,0,0,1-1.184-.389,1.98,1.98,0,0,1-.408-2.78,50.572,50.572,0,0,0,6.89-47.517,49.91,49.91,0,0,0-13.887-20.5,50.831,50.831,0,0,0-21.942-11.413,1.988,1.988,0,0,1,.912-3.869A54.841,54.841,0,0,1,194.331,57.9,54.8,54.8,0,0,1,212.062,106.6a54.73,54.73,0,0,1-10.19,24.672,1.989,1.989,0,0,1-1.6.807Z" fill="#3b3b3b"/>
        <path id="パス_7" data-name="パス 7" d="M139.59,197.246a41.025,41.025,0,0,1-10.219-1.283,1.988,1.988,0,0,1,.99-3.85,37.382,37.382,0,0,0,16.731.4,37,37,0,0,0,15.207-6.97,37.461,37.461,0,0,0,6.1-5.843,37,37,0,0,0,4.58-7.047,37.945,37.945,0,0,0,3.97-16.3,1.99,1.99,0,1,1,3.979.058,41.914,41.914,0,0,1-4.387,18.023,41.292,41.292,0,0,1-5.075,7.816,41.983,41.983,0,0,1-6.735,6.455,40.776,40.776,0,0,1-16.828,7.709,41.7,41.7,0,0,1-8.288.836Z" fill="#f2c960"/>
        <path id="パス_8" data-name="パス 8" d="M139.588,203.856a47.616,47.616,0,0,1-11.85-1.487,1.987,1.987,0,0,1,.99-3.849,43.972,43.972,0,0,0,19.681.466,43.431,43.431,0,0,0,17.9-8.195,43.95,43.95,0,0,0,17.236-34.345,1.989,1.989,0,1,1,3.978.058,48.584,48.584,0,0,1-5.085,20.891,48.086,48.086,0,0,1-5.89,9.07,48.731,48.731,0,0,1-7.813,7.486,47.68,47.68,0,0,1-29.123,9.9Z" fill="#f2c960"/>
        <path id="パス_9" data-name="パス 9" d="M139.591,210.467a54.2,54.2,0,0,1-13.48-1.692,1.991,1.991,0,0,1,.981-3.859,50.663,50.663,0,0,0,22.631.544,51.085,51.085,0,0,0,28.822-17.323,50.791,50.791,0,0,0,11.587-31.594,1.99,1.99,0,1,1,3.979.058,55.186,55.186,0,0,1-5.784,23.749,54.316,54.316,0,0,1-6.715,10.324,55.007,55.007,0,0,1-8.88,8.516A54.273,54.273,0,0,1,139.6,210.467Z" fill="#3b3b3b"/>
        <path id="パス_10" data-name="パス 10" d="M79.665,197.246a41.038,41.038,0,0,1-24.756-8.273,40.9,40.9,0,0,1-11.859-13.94,41.862,41.862,0,0,1-4.678-17.722,1.986,1.986,0,1,1,3.969-.145,37.771,37.771,0,0,0,4.231,16.03,36.843,36.843,0,0,0,10.714,12.589,37.185,37.185,0,0,0,31.646,6.328,1.988,1.988,0,0,1,.99,3.85,41.313,41.313,0,0,1-10.248,1.283Z" fill="#f2c960"/>
        <path id="パス_11" data-name="パス 11" d="M79.651,203.856A48.014,48.014,0,0,1,37.194,178.1a48.494,48.494,0,0,1-5.425-20.541,1.986,1.986,0,1,1,3.969-.146,44.429,44.429,0,0,0,4.969,18.85,44.123,44.123,0,0,0,30.375,22.786,44.093,44.093,0,0,0,19.458-.535,1.988,1.988,0,0,1,.99,3.85,47.862,47.862,0,0,1-11.888,1.487Z" fill="#f2c960"/>
        <path id="パス_12" data-name="パス 12" d="M79.651,210.467A54.186,54.186,0,0,1,47,199.56a53.965,53.965,0,0,1-15.653-18.412,55.178,55.178,0,0,1-6.162-23.36,1.986,1.986,0,1,1,3.969-.146,51.188,51.188,0,0,0,5.716,21.668A50.715,50.715,0,0,0,69.82,205.519a50.639,50.639,0,0,0,22.369-.613,1.988,1.988,0,0,1,.99,3.85,54.5,54.5,0,0,1-13.518,1.692Z" fill="#3b3b3b"/>
        <path id="パス_13" data-name="パス 13" d="M29.6,124.239a1.975,1.975,0,0,1-1.592-.8A41.332,41.332,0,0,1,22.3,84.587,40.658,40.658,0,0,1,33.63,67.817a41.646,41.646,0,0,1,17.934-9.361,1.99,1.99,0,0,1,.932,3.869A37.6,37.6,0,0,0,36.269,70.8,36.716,36.716,0,0,0,26.05,85.948a37.224,37.224,0,0,0-1.863,18.207,37.6,37.6,0,0,0,7.026,16.925,1.979,1.979,0,0,1-.407,2.78,2.014,2.014,0,0,1-1.184.4Z" fill="#f2c960"/>
        <path id="パス_14" data-name="パス 14" d="M24.306,128.186a1.974,1.974,0,0,1-1.591-.8,47.934,47.934,0,0,1-6.609-45.058A47.253,47.253,0,0,1,29.246,62.87,48.274,48.274,0,0,1,50.023,52.021a1.99,1.99,0,0,1,.932,3.869,44.223,44.223,0,0,0-19.07,9.964A43.278,43.278,0,0,0,19.852,83.692a43.93,43.93,0,0,0,6.065,41.325,1.98,1.98,0,0,1-.408,2.781,2.02,2.02,0,0,1-1.184.4Z" fill="#f2c960"/>
        <path id="パス_15" data-name="パス 15" d="M19.01,132.133a1.975,1.975,0,0,1-1.592-.8A54.559,54.559,0,0,1,9.9,80.086,53.878,53.878,0,0,1,24.852,57.941,54.845,54.845,0,0,1,48.483,45.595a1.99,1.99,0,0,1,.932,3.869A50.884,50.884,0,0,0,27.492,60.916,49.715,49.715,0,0,0,13.644,81.437a50.556,50.556,0,0,0,6.978,47.517,1.98,1.98,0,0,1-.408,2.781,2.02,2.02,0,0,1-1.184.4Z" fill="#3b3b3b"/>
      </g>
      <path id="パス_16" data-name="パス 16" d="M194.152,135.667l22,6.6" fill="none" stroke="#3b3b3b" stroke-linecap="round" stroke-width="3.667"/>
      <path id="パス_17" data-name="パス 17" d="M193.6,148.68l22.023-5.942" fill="none" stroke="#3b3b3b" stroke-linecap="round" stroke-width="3.667"/>
      <path id="パス_18" data-name="パス 18" d="M48.607,105l4.1-6.459L48.942,92.68H50.86l2.728,4.4,2.71-4.4h1.918l-3.749,5.861,4.1,6.459H56.633l-3.045-4.981L50.526,105Zm15.546,2.763a16.442,16.442,0,0,1-2.077-4.065,13.676,13.676,0,0,1-.722-4.383,13.844,13.844,0,0,1,.739-4.47,14.216,14.216,0,0,1,2.042-3.96l1.25.686a14.429,14.429,0,0,0-1.9,3.626,12.333,12.333,0,0,0-.686,4.118,11.924,11.924,0,0,0,.686,4.048,17.06,17.06,0,0,0,1.918,3.731Zm9.334-2.464V91.624h8.976V105.3Zm1.742-1.531H80.7V99.192H75.23Zm0-6.072H80.7V93.138H75.23Zm-5.984,8.078V91.166h1.619v14.608ZM90,105V94.194H86.124V92.68H95.47v1.514H91.615V105Zm9.886,0-2.534-8.448h1.514l1.725,6.125,1.725-6.125H103.6l1.725,6.125,1.742-6.125h1.514L106.025,105h-1.32l-1.743-6.16L101.22,105Zm11.433,0V96.552h1.566V105Zm.774-10.032a1.023,1.023,0,0,1-1.056-1.056,1.006,1.006,0,0,1,.3-.739,1.034,1.034,0,0,1,.757-.317.958.958,0,0,1,.722.317.976.976,0,0,1,.316.739,1.033,1.033,0,0,1-.316.757A.984.984,0,0,1,112.089,94.968Zm7.672,10.226a3.017,3.017,0,0,1-1.813-.458,2.161,2.161,0,0,1-.616-1.795V97.925h-1.707V96.552h1.707V93.525H118.9v3.027h2.447v1.373H118.9v4.681a1.165,1.165,0,0,0,.3.933,1.58,1.58,0,0,0,.932.229,2.541,2.541,0,0,0,.652-.088,3.655,3.655,0,0,0,.563-.211v1.461a3.028,3.028,0,0,1-.722.193A5.446,5.446,0,0,1,119.761,105.194Zm7.583,0a3.017,3.017,0,0,1-1.813-.458,2.164,2.164,0,0,1-.616-1.795V97.925h-1.707V96.552h1.707V93.525h1.567v3.027h2.446v1.373h-2.446v4.681a1.165,1.165,0,0,0,.3.933,1.582,1.582,0,0,0,.933.229,2.539,2.539,0,0,0,.651-.088,3.654,3.654,0,0,0,.563-.211v1.461a3.028,3.028,0,0,1-.722.193A5.436,5.436,0,0,1,127.344,105.194Zm7.794,0a4.266,4.266,0,0,1-2.112-.511,3.513,3.513,0,0,1-1.425-1.5,5.253,5.253,0,0,1-.511-2.411,5.02,5.02,0,0,1,.511-2.341,3.8,3.8,0,0,1,1.39-1.549,3.887,3.887,0,0,1,2.059-.546,3.294,3.294,0,0,1,1.972.581,3.515,3.515,0,0,1,1.249,1.514,4.888,4.888,0,0,1,.44,2.077v.422h-6.072a3.228,3.228,0,0,0,.7,2.148,2.667,2.667,0,0,0,3.291.281,3.3,3.3,0,0,0,1-1.32l1.2.792a4.107,4.107,0,0,1-1.531,1.795A4.044,4.044,0,0,1,135.138,105.194Zm-2.411-5.527h4.435a2.577,2.577,0,0,0-.7-1.478,1.93,1.93,0,0,0-1.425-.563,2.2,2.2,0,0,0-1.514.528A2.545,2.545,0,0,0,132.727,99.667Zm8.9,5.333V96.552h1.443l.088,1.32a2.741,2.741,0,0,1,1.056-1.109,3.019,3.019,0,0,1,1.549-.422,3.728,3.728,0,0,1,.528.035c.165.023.3.047.423.07v1.531a3.479,3.479,0,0,0-.493-.088,5.6,5.6,0,0,0-.651-.035,2.339,2.339,0,0,0-1.672.651,2.167,2.167,0,0,0-.687,1.672V105Zm8.411,2.763-1.249-.669a16.1,16.1,0,0,0,1.918-3.731,11.914,11.914,0,0,0,.687-4.048,12.063,12.063,0,0,0-.7-4.118,14.019,14.019,0,0,0-1.884-3.626l1.25-.686a14.231,14.231,0,0,1,2.042,3.96,13.866,13.866,0,0,1,.739,4.47,13.679,13.679,0,0,1-.722,4.383A15.661,15.661,0,0,1,150.034,107.763Zm19.3-2.429a11.868,11.868,0,0,1-4.382-.915,5.646,5.646,0,0,1-2.535-2.147,5.961,5.961,0,0,1-.827-3.168,5.9,5.9,0,0,1,.827-3.133,6.842,6.842,0,0,1,2.271-2.253q-1.532.194-3.08.4-1.532.194-2.834.37-1.284.176-2.059.3a3.242,3.242,0,0,0-.053-.493l-.105-.669a4.327,4.327,0,0,0-.106-.51q.792-.053,1.954-.158,1.179-.106,2.552-.246,1.391-.158,2.816-.317,1.425-.176,2.745-.352,1.338-.176,2.411-.352t1.725-.317q.053.176.141.493c.07.211.141.422.211.634s.147.376.194.493q-.353.018-.757.053-.387.018-.933.088a9.261,9.261,0,0,0-2.429.634A7,7,0,0,0,165.071,95a5.718,5.718,0,0,0-1.373,1.8,5.244,5.244,0,0,0-.493,2.306,3.9,3.9,0,0,0,1.584,3.326,9.378,9.378,0,0,0,5.069,1.338,3.532,3.532,0,0,0-.334.774A6.832,6.832,0,0,0,169.33,105.334Zm1.866-8.412a4.115,4.115,0,0,0-.352-.4q-.264-.317-.6-.686t-.616-.669q-.264-.3-.352-.387l.757-.651.352.422q.282.3.6.669.334.37.6.669.282.3.37.4Zm-1.479,1.267q-.087-.106-.369-.4-.264-.317-.6-.686t-.616-.669q-.264-.3-.352-.387l.757-.651.352.422q.282.3.6.669.335.37.6.669.282.3.37.387Zm-119.8,32.969a4.5,4.5,0,0,0-.282-.492q-.194-.335-.4-.652a2.388,2.388,0,0,0-.317-.457,22.214,22.214,0,0,0,3.5-1.162,28.606,28.606,0,0,0,3.538-1.8,29.718,29.718,0,0,0,3.291-2.27,22.708,22.708,0,0,0,2.781-2.57q.035.175.141.581.106.387.211.757l.158.475a25.923,25.923,0,0,1-2.622,2.341,31.985,31.985,0,0,1-3.1,2.129,31.508,31.508,0,0,1-3.414,1.795A28.151,28.151,0,0,1,49.921,131.158Zm2.5-5.579a13.909,13.909,0,0,0-1.285-.9q-.757-.494-1.549-.933a14.745,14.745,0,0,0-1.478-.757q.176-.246.44-.686.282-.441.458-.74.51.248,1.126.6.616.334,1.232.7t1.144.721q.546.353.88.616-.106.141-.3.4-.176.264-.37.528Q52.543,125.4,52.42,125.579Zm2.306-4a15.1,15.1,0,0,0-1.267-.933q-.722-.492-1.514-.95a14.1,14.1,0,0,0-1.461-.792,7.748,7.748,0,0,0,.458-.669c.188-.293.34-.54.458-.739q.669.334,1.5.845.845.492,1.6,1,.774.51,1.232.88-.123.141-.317.405-.176.246-.37.51T54.726,121.584Zm13.341,8.765a2.441,2.441,0,0,0,0-.423v-.6a3.178,3.178,0,0,0-.018-.422c.2,0,.534,0,1,.017h3.731v-4.734q-1.2,0-2.2.017H69.14c0-.093-.006-.234-.018-.422v-.6a3.447,3.447,0,0,0-.018-.423q.352.018,1.021.035.686,0,1.566.018h3.643q.88-.018,1.566-.035.7-.018,1.056-.035v.44c0,.2-.006.4-.018.6v.422q-.44-.017-1.478-.017H74.244v4.734q1.144-.018,2.165-.017,1.021-.018,1.742-.018c.481-.012.8-.023.968-.035,0,.07-.006.211-.018.422V130.3q-.387-.035-1.232-.035-.845-.018-1.971-.018-1.109-.018-2.323,0-1.2,0-2.323.018-1.109.018-1.954.035T68.066,130.349Zm20.363,1.443a4.75,4.75,0,0,0-.387-.317q-.282-.212-.6-.457a4.077,4.077,0,0,0-.528-.335,7.536,7.536,0,0,0,3.326-3.485,11.594,11.594,0,0,0,.9-5.684l.528.052.722.036h.493v.774q.563-.4,1.267-.915.722-.528,1.373-1.021t1.038-.792q-.44.018-1.373.035-.915,0-2.112.018l-2.464.035q-1.25,0-2.394.018-1.144,0-1.954.017H85.191c0-.105-.006-.258-.018-.457s-.006-.423-.018-.634v-.51q.458.035,1.408.07.95.018,2.2.018h2.622l2.71-.036q1.32-.035,2.394-.088t1.707-.123a3.939,3.939,0,0,1,.475.493q.3.334.475.51-.334.334-.88.828T97.054,120.9q-.651.563-1.338,1.144-.669.563-1.285,1.056-.616.474-1.056.809a2.475,2.475,0,0,0-.246-.246c-.094-.106-.194-.211-.3-.317a12.662,12.662,0,0,1-1.3,5.016A9.328,9.328,0,0,1,88.43,131.792Zm20.82-.123a6.048,6.048,0,0,1-1.707-.194,1.4,1.4,0,0,1-.88-.633,2.7,2.7,0,0,1-.264-1.3v-1.566q.018-.951.035-2.059.036-1.126.053-2.253.018-1.145.018-2.13.018-.985.017-1.672,0-1.074-.017-1.9t-.053-1.249q.175.018.528.07l.739.071c.247.023.434.035.563.035q-.034.351-.07,1.214t-.07,2.042q-.018,1.179-.053,2.5-.036,1.3-.053,2.552t-.035,2.27v1.584a1.038,1.038,0,0,0,.246.828,2.1,2.1,0,0,0,1.109.193,11.549,11.549,0,0,0,1.461-.123q.915-.141,1.971-.37,1.056-.246,2.042-.528a13.756,13.756,0,0,0,1.707-.616q-.036.194-.088.564c-.024.234-.047.475-.071.721s-.017.411-.017.528q-.722.264-1.69.528-.949.246-1.971.44-1.021.212-1.936.335A11.458,11.458,0,0,1,109.25,131.669Zm25.045-.335a11.868,11.868,0,0,1-4.382-.915,5.646,5.646,0,0,1-2.535-2.147,5.961,5.961,0,0,1-.827-3.168,5.9,5.9,0,0,1,.827-3.133,6.853,6.853,0,0,1,2.271-2.253q-1.531.193-3.08.4-1.532.193-2.834.37-1.284.176-2.059.3a3.245,3.245,0,0,0-.053-.493l-.105-.669a4.3,4.3,0,0,0-.106-.51q.792-.053,1.954-.158,1.179-.106,2.552-.247,1.391-.157,2.816-.317,1.425-.176,2.745-.352,1.338-.175,2.411-.352t1.725-.316q.052.176.141.492c.07.212.141.423.211.634s.147.375.194.493c-.235.012-.487.029-.757.053s-.569.041-.933.088a9.229,9.229,0,0,0-2.429.633A7,7,0,0,0,130.036,121a5.726,5.726,0,0,0-1.373,1.795,5.246,5.246,0,0,0-.493,2.306,3.9,3.9,0,0,0,1.584,3.326,9.378,9.378,0,0,0,5.069,1.338,3.532,3.532,0,0,0-.334.774A6.835,6.835,0,0,0,134.295,131.334Zm8.8.792v-6.142q-.686.774-1.3,1.566t-1.127,1.514a3.633,3.633,0,0,0-.58-.493c-.235-.176-.446-.322-.634-.44q.845-1.074,1.76-2.165t1.883-2.112V121.39c-.364.047-.762.1-1.2.159s-.833.117-1.232.176-.7.111-.95.158a4.919,4.919,0,0,0-.035-.493q-.036-.316-.088-.633c-.035-.211-.065-.376-.088-.493q.669-.035,1.654-.106.985-.087,1.936-.193V118.7q0-.371-.017-.828c0-.316-.006-.61-.018-.88a5.263,5.263,0,0,0-.018-.545c.118.012.288.023.511.035l.651.035h.475c-.012.071-.023.247-.035.528s-.018.563-.018.88v1.831l.317-.053.282.211c.141.094.281.194.422.3a3.577,3.577,0,0,1,.317.211,6.1,6.1,0,0,0-.493.7q-.334.512-.739,1.18a13.953,13.953,0,0,1,2.781-1.884,6.284,6.284,0,0,1,2.921-.739,2.863,2.863,0,0,1,1.708.528,3.413,3.413,0,0,1,1.179,1.76,10.254,10.254,0,0,1,.44,3.344q0,.757-.053,1.426a9.145,9.145,0,0,1-.176,1.232,13.209,13.209,0,0,1,1.267.721q.6.37,1.109.74a6.718,6.718,0,0,0-.792,1.408,12.528,12.528,0,0,0-1-.81q-.494-.369-.986-.669a3.6,3.6,0,0,1-1.355,1.725,3.685,3.685,0,0,1-2.059.563,3.3,3.3,0,0,1-2.13-.651,2.128,2.128,0,0,1-.792-1.76,2.033,2.033,0,0,1,.37-1.2,2.652,2.652,0,0,1,1.056-.862,3.742,3.742,0,0,1,1.584-.317,5.1,5.1,0,0,1,1.091.123,9.7,9.7,0,0,1,1.144.317q.07-.423.106-.915.034-.51.035-1.109a6.7,6.7,0,0,0-.528-2.992,1.59,1.59,0,0,0-1.461-1.038,4.531,4.531,0,0,0-1.848.422,8.947,8.947,0,0,0-1.883,1.109,17.141,17.141,0,0,0-1.831,1.566v7.779Zm6.618-1.9a2.014,2.014,0,0,0,1.091-.335,2.571,2.571,0,0,0,.88-1.232,5.412,5.412,0,0,0-1.918-.4,1.926,1.926,0,0,0-1.092.264.83.83,0,0,0-.387.722.817.817,0,0,0,.387.739A1.975,1.975,0,0,0,149.713,130.226Zm12.725,2.041a1.4,1.4,0,0,1-1.039-.387,1.277,1.277,0,0,1-.387-.968,1.779,1.779,0,0,1,.528-1.338,3.459,3.459,0,0,1,1.355-.809,7.664,7.664,0,0,1,1.69-.4V116.374h.669a3.064,3.064,0,0,0,.563,1.32,5.8,5.8,0,0,0,1.073,1.074q.635.494,1.32.968a15.92,15.92,0,0,1,1.285.986,4.556,4.556,0,0,1,.968,1.126,2.555,2.555,0,0,1,.37,1.373,4.889,4.889,0,0,1-.511,2.253,6.808,6.808,0,0,1-1.249,1.742,10.989,10.989,0,0,1-1.443,1.232l-.44-.44a9.793,9.793,0,0,0,.95-.986,6.616,6.616,0,0,0,.933-1.425,3.805,3.805,0,0,0,.4-1.725,1.712,1.712,0,0,0-.3-.986,3.421,3.421,0,0,0-.774-.827,10.127,10.127,0,0,0-1-.686q-.528-.316-1.021-.616a4.412,4.412,0,0,1-.774-.6v8.29a4.817,4.817,0,0,1-.37,1.883,3.341,3.341,0,0,1-1.074,1.391A2.733,2.733,0,0,1,162.438,132.267Z" fill="#3b3b3b"/>
    </g>
    <path id="octicon_share-24" d="M7.1,12.594V26.156a.323.323,0,0,0,.323.323H23.573a.323.323,0,0,0,.323-.323V12.594a.323.323,0,0,0-.323-.323H20.344a.969.969,0,1,1,0-1.937h3.229a2.261,2.261,0,0,1,2.26,2.26V26.156a2.26,2.26,0,0,1-2.26,2.26H7.427a2.26,2.26,0,0,1-2.26-2.26V12.594a2.261,2.261,0,0,1,2.26-2.26h3.229a.969.969,0,1,1,0,1.938H7.427a.323.323,0,0,0-.323.323Zm9.08-11.018,4.2,4.2a.969.969,0,1,1-1.369,1.369L16.469,4.6V18.406a.969.969,0,0,1-1.937,0V4.6L11.987,7.143a.969.969,0,0,1-1.369-1.369l4.2-4.2a.969.969,0,0,1,1.369,0Z" transform="translate(838.277 1609.708)" fill="#3b3b3b"/>
  </g>
</svg>
