<svg width="269" height="101" viewBox="0 0 269 101" fill="none" xmlns="http://www.w3.org/2000/svg">
<path d="M0.482851 50.47C0.262851 51.16 0.602851 51.86 0.992851 52.48C1.28285 53.16 1.70285 53.8 2.41285 54.31C2.63285 55.38 3.83285 56.27 5.29285 56.53C5.78285 57.43 6.90285 58.23 8.31285 58.26C9.27285 58.7 10.1929 59.23 11.3729 59.33C11.9729 59.65 12.6329 59.89 13.3729 59.98C13.8829 60.23 14.4929 60.4 15.1229 60.37C15.7529 60.82 16.6729 61.06 17.5329 60.86C18.1129 60.99 18.7729 61.06 19.3929 61.14C19.7029 61.29 20.7229 61.33 21.2029 61.32C21.7429 61.4 22.2529 61.66 22.8129 61.69C23.3029 61.67 23.7829 61.71 24.2629 61.74C25.0429 61.8 25.8129 61.85 26.5829 61.68C27.8629 61.8 29.2429 62.11 30.4529 61.63C31.3129 61.84 32.1228 61.56 32.9628 61.51C33.7929 61.73 34.6929 61.89 35.5629 61.77C36.5229 61.67 37.4828 61.69 38.4428 61.7C38.9128 61.7 39.3928 61.72 39.8629 61.7C40.7729 61.6 41.1129 61.5 42.0629 61.61C42.3428 61.61 42.6229 61.63 42.9029 61.64C43.5629 61.68 44.2229 61.72 44.8629 61.5C45.5429 61.58 46.2328 61.6 46.9328 61.49C48.0528 62.01 49.7129 62.09 50.8829 61.58C52.2829 61.71 53.7528 61.81 55.1329 61.56C55.8028 61.85 56.5628 62.06 57.3528 61.97C58.0628 61.94 58.7228 61.6 59.4428 61.62C60.0229 61.7 60.6028 61.69 61.1828 61.68C61.5129 61.68 61.8528 61.68 62.1828 61.68C63.0129 61.82 63.8629 61.88 64.6729 61.66C65.1829 61.72 65.6829 61.71 66.1829 61.62C67.0029 61.75 67.9329 61.69 68.7229 61.5C69.4229 61.61 70.1729 61.65 70.8829 61.56C72.1829 61.88 73.4629 61.66 74.7529 61.42C75.5129 61.38 76.2729 61.43 77.0329 61.49C77.6129 61.53 78.2029 61.58 78.7829 61.57C79.2829 61.46 79.7929 61.46 80.3029 61.46C80.7829 61.46 81.2729 61.46 81.7429 61.37C82.7029 61.64 83.8029 61.82 84.7929 61.51C85.5329 61.55 86.2629 61.62 87.0029 61.58C87.4829 61.65 87.9629 61.62 88.4329 61.6C88.9929 61.57 89.5529 61.54 90.1129 61.67C91.0429 61.87 92.0029 61.78 92.9529 61.67C93.9128 61.77 94.8829 61.7 95.8329 61.58C95.9729 61.62 96.1228 61.66 96.2729 61.68C96.5329 61.77 96.8129 61.83 97.0928 61.85C97.7029 62.13 98.4429 62.21 99.1429 62.25C99.9729 62.35 100.883 62.74 101.803 62.76C102.453 63.39 103.583 63.42 104.453 63.82C104.883 64.12 105.503 64.18 105.873 64.5C106.043 64.7 106.253 64.89 106.503 65.04C106.673 65.03 106.853 65.04 107.023 65.07C107.293 65.12 107.553 65.24 107.733 65.4C108.163 65.38 108.573 65.45 108.933 65.66C109.253 65.85 109.503 66.14 109.543 66.44C109.873 66.62 110.103 66.88 110.153 67.19C110.193 67.46 110.083 67.72 109.873 67.94C109.883 68.09 109.843 68.23 109.753 68.36C109.753 68.39 109.753 68.42 109.743 68.45C109.743 68.49 109.723 68.53 109.703 68.57C109.783 68.7 109.853 68.83 109.893 68.96C109.903 69 109.913 69.04 109.913 69.08C109.893 69.58 109.963 70.07 109.983 70.57C109.783 70.82 109.643 71.09 109.643 71.38C109.643 71.58 109.693 71.78 109.793 71.96C109.513 72.21 109.333 72.51 109.333 72.83C109.333 72.92 109.343 73.02 109.373 73.12C108.983 73.66 108.373 74.12 108.163 74.73C107.863 74.96 107.623 75.23 107.453 75.51C107.213 75.65 107.003 75.82 106.893 76.03C106.213 76.19 105.613 76.59 105.503 77.11C105.013 77.29 104.673 77.61 104.243 77.84C104.133 77.86 104.033 77.88 103.923 77.91C103.593 77.99 103.303 78.14 103.113 78.34C102.503 78.37 101.963 78.63 101.573 78.94C101.253 79 100.903 79.05 100.583 79.14C100.333 79.14 100.083 79.17 99.8329 79.22C98.7129 79.03 97.5729 78.99 96.4329 79.15C95.5729 79.07 94.7329 79.13 93.8729 79.18C93.1429 79.22 92.4128 79.27 91.6329 79.24C91.0528 79.28 90.4529 79.24 89.8629 79.19C88.8529 79.11 87.8529 79.04 86.9029 79.35C86.5329 79.33 86.1529 79.31 85.7829 79.29C85.2629 79.26 84.7729 79.4 84.3229 79.56C83.1129 79.34 81.8429 79.47 80.6129 79.53C79.4129 79.39 78.1729 79.51 77.0529 79.85C75.3529 79.26 73.7529 79.62 72.0629 79.95C71.6628 79.98 71.2629 79.92 70.8729 79.86C70.5229 79.81 70.1628 79.76 69.8129 79.77C68.7129 79.77 67.6429 79.99 66.7329 80.45C65.0929 80.38 62.5429 80.35 60.9828 81.02C60.7029 81.06 60.4228 81.12 60.1628 81.23C58.3728 80.71 56.0728 81.26 55.1628 82.49C54.0528 82.71 53.2128 83.25 52.5229 83.88C51.7528 84.3 51.2128 84.87 50.9228 85.52C49.3628 86.18 48.4029 87.54 48.9328 88.82C47.8728 89.84 48.1428 91.34 49.2229 92.3C49.2929 93.48 49.9929 94.76 51.2729 95.53C51.4529 96.62 52.5828 97.38 53.8728 97.88C54.8728 98.4 56.4628 98.84 57.7929 98.73C58.1929 98.98 58.6728 99.11 59.1728 99.15C59.3028 99.21 59.3928 99.3 59.5229 99.36C59.6228 99.33 59.7229 99.29 59.8228 99.26C60.0229 99.19 60.2229 99.14 60.4328 99.11C60.6428 99.13 60.8629 99.1 61.0829 99.09C61.4929 99.12 61.8929 99.22 62.2429 99.42C62.4229 99.52 62.5928 99.62 62.7729 99.72C62.9229 99.72 63.0628 99.7 63.2128 99.69C63.4728 99.67 63.7329 99.64 63.9929 99.65C64.1029 99.65 64.2129 99.67 64.3229 99.69C64.4128 99.71 64.5029 99.73 64.5928 99.75C64.8728 99.81 65.1529 99.87 65.4329 99.94C65.7029 99.85 65.9729 99.77 66.2429 99.68C66.3629 99.64 66.4729 99.61 66.5829 99.59C67.5229 99.97 68.6829 100.05 69.6829 99.71C70.1729 99.74 70.6729 99.69 71.1229 99.55C72.7329 99.72 74.4029 100.12 76.0329 99.83C76.9529 100.11 77.9729 100.37 79.0029 100.29C79.5829 100.26 80.0829 100.03 80.6529 99.98C81.7829 100.12 82.9129 100.09 84.0529 100.11C84.8329 100.26 85.6729 100.26 86.4529 100.11C87.4329 100.26 88.4829 100.26 89.4029 99.94C90.1929 100.18 91.1129 100.24 91.9429 100.11C93.1629 100.69 94.7929 100.55 95.9929 100.03C97.3328 100.16 98.7429 100.37 100.053 100.03C100.783 100.11 101.513 100.24 102.263 100.12C102.923 100.15 103.573 100.2 104.233 100.09C105.403 100.49 106.713 100.4 107.883 100.06C108.813 100.13 109.733 100.17 110.673 100.1C112.173 100.31 113.703 100.08 115.223 100.12C116.373 100.37 117.623 100.37 118.703 99.97C119.413 100.1 120.153 100.14 120.843 99.94C121.623 100.27 122.483 100.51 123.403 100.42C123.983 100.36 124.503 100.18 124.993 99.95C125.613 100.06 126.263 100.03 126.893 100C127.633 100.1 128.373 100.18 129.133 100.16C130.283 100.58 131.693 100.63 132.833 100.16C134.113 100.55 135.473 100.56 136.803 100.34C138.373 100.42 139.943 100.42 141.503 100.3C142.403 100.43 143.323 100.36 144.233 100.39C145.313 100.63 146.543 100.63 147.583 100.29C148.823 100.67 150.303 100.9 151.513 100.35C152.803 100.48 154.133 100.59 155.413 100.38C156.143 100.46 156.873 100.51 157.583 100.36C158.393 100.53 159.223 100.62 160.063 100.55C161.773 100.17 163.453 101 165.133 100.5C165.793 100.58 166.513 100.61 167.153 100.46C167.893 100.57 168.713 100.56 169.403 100.34C169.723 100.41 170.053 100.47 170.393 100.47C170.833 100.47 171.263 100.42 171.673 100.33C172.083 100.43 172.503 100.51 172.933 100.51C173.363 100.51 173.773 100.45 174.173 100.37C174.673 100.53 175.233 100.54 175.773 100.55C175.833 100.55 175.893 100.53 175.953 100.53C176.713 100.7 177.653 100.67 178.503 100.65C179.733 100.74 180.983 101 182.193 100.65C182.963 100.78 183.743 100.68 184.463 100.47C185.623 100.9 187.033 100.83 188.143 100.35C189.313 100.79 190.743 100.83 191.893 100.32C193.083 100.5 194.743 100.37 195.993 100.32C197.043 100.72 198.393 100.65 199.383 100.19C200.653 100.5 202.053 100.6 203.223 100.05C204.623 100.26 206.013 100.1 207.403 100.04C208.103 99.89 208.863 99.91 209.553 99.74C210.523 100 211.563 100.09 212.523 99.67C213.903 100.13 215.403 99.73 216.443 99.02C217.453 99.12 218.343 98.76 219.113 98.32C220.313 98.12 221.233 97.55 221.913 96.84C223.163 95.72 225.273 94.63 225.363 93.03C226.213 92.52 226.813 91.79 226.763 90.98C226.803 90.9 226.843 90.82 226.873 90.73C227.213 90.18 227.433 89.56 227.203 88.97C227.673 88.37 227.633 87.65 227.453 86.98C227.423 86.21 227.393 85.43 226.963 84.71C226.873 84.3 226.543 83.94 226.073 83.69C225.943 83.55 225.803 83.41 225.643 83.28C225.283 82.45 224.363 81.73 223.123 81.62C222.733 81.25 222.143 81.07 221.573 80.9C220.353 80.29 218.943 79.87 217.493 79.71C216.113 79.22 214.613 78.72 213.053 79.13C212.143 78.94 211.223 78.99 210.293 79.02C209.433 78.98 208.543 78.96 207.733 79.21C206.283 78.96 204.743 79.18 203.323 79.42C202.133 78.9 200.473 78.95 199.283 79.45C198.663 79.48 197.963 79.49 197.393 79.68C196.473 79.34 195.393 79.44 194.413 79.57C193.363 79.39 192.313 79.44 191.273 79.61C190.043 79.61 188.823 79.62 187.603 79.77C186.123 79.39 184.443 79.21 183.033 79.85C181.653 79.52 180.153 79.63 178.743 79.77C178.023 79.61 177.283 79.51 176.543 79.63C175.203 78.91 173.413 79.08 172.053 79.69C170.933 79.43 169.763 79.55 168.613 79.48C167.523 79.17 166.293 79.24 165.183 79.48C163.493 79.35 161.773 79.01 160.123 79.43C159.303 79.23 158.453 79.12 157.593 79.26C156.843 79.15 156.073 79.16 155.323 79.21C155.243 79.18 155.153 79.15 155.073 79.13C154.563 78.97 154.043 78.95 153.493 78.94C152.773 78.9 152.063 78.96 151.393 79.16C150.433 79.17 149.453 79.14 148.523 79.35C147.513 79.26 146.523 79.09 145.523 79.3C145.033 79.25 144.533 79.23 144.033 79.24C143.663 78.95 143.073 78.8 142.493 78.97C141.953 78.97 141.423 78.8 140.873 78.9C140.623 78.76 140.343 78.64 140.043 78.57C139.893 78.6 139.733 78.64 139.583 78.67C139.213 78.73 138.843 78.78 138.473 78.83C137.873 78.91 137.263 78.77 136.793 78.5C136.583 78.54 136.353 78.55 136.123 78.54C135.553 78.49 135.063 78.26 134.763 77.93C134.703 77.91 134.643 77.9 134.593 77.88C134.253 77.86 133.933 77.8 133.653 77.65C133.473 77.55 133.313 77.42 133.203 77.28C132.693 77.15 132.313 76.82 132.163 76.47C131.963 76.38 131.783 76.27 131.643 76.14C131.443 75.96 131.313 75.74 131.273 75.52C131.183 75.46 131.103 75.4 131.023 75.33C130.913 75.24 130.823 75.13 130.763 75.02C130.763 75.02 130.763 75.02 130.753 75.01C130.503 74.87 130.203 74.72 130.023 74.53C129.883 74.39 129.793 74.22 129.743 74.05C129.703 73.93 129.693 73.81 129.713 73.68C129.403 73.54 129.163 73.33 129.033 73.08C128.993 73 128.963 72.91 128.943 72.82C128.803 72.65 128.663 72.47 128.603 72.28C128.533 72.05 128.563 71.83 128.623 71.6C128.523 71.51 128.443 71.41 128.393 71.29C128.293 71.07 128.233 70.86 128.283 70.63C128.313 70.51 128.363 70.4 128.443 70.29C128.233 70.12 128.093 69.92 128.023 69.7C127.893 69.3 128.043 68.9 128.393 68.59C128.373 68.53 128.353 68.47 128.343 68.41C128.313 68.19 128.363 67.98 128.493 67.78C128.523 67.73 128.563 67.68 128.603 67.62C128.553 67.25 128.703 66.89 129.043 66.57C129.233 66.4 129.443 66.25 129.723 66.15C129.773 66.13 129.813 66.12 129.863 66.11C129.883 66.09 129.913 66.07 129.933 66.04C129.933 66 129.953 65.96 129.963 65.92C129.923 65.78 129.893 65.65 129.853 65.51C129.733 65.04 130.223 64.62 130.843 64.53C130.843 64.48 130.863 64.44 130.893 64.39C130.933 64.33 130.973 64.27 131.033 64.21C131.213 64.04 131.593 63.84 131.763 63.73C131.943 63.61 132.193 63.56 132.443 63.55C132.603 63.32 132.873 63.17 133.213 63.12C133.323 63.07 133.443 63.03 133.563 63.02C133.583 63 133.613 62.99 133.633 62.98C133.673 62.94 133.723 62.9 133.773 62.87C134.023 62.6 134.543 62.46 134.973 62.59C135.013 62.59 135.053 62.59 135.093 62.59C135.243 62.47 135.453 62.37 135.683 62.33C136.063 62.26 136.453 62.33 136.743 62.51C136.783 62.51 136.813 62.52 136.843 62.53C137.023 62.46 137.243 62.44 137.443 62.47C137.593 62.41 137.763 62.37 137.953 62.37C137.993 62.37 138.033 62.37 138.063 62.37C138.173 62.37 138.293 62.37 138.393 62.4C138.533 62.3 138.703 62.23 138.913 62.19C139.313 62.11 139.803 62.18 140.123 62.38C140.493 62.2 140.993 62.22 141.363 62.39C141.503 62.36 141.653 62.36 141.793 62.37C141.843 62.34 141.903 62.32 141.953 62.29C142.073 62.24 142.203 62.21 142.333 62.18C142.443 62.15 142.553 62.14 142.663 62.14C143.013 62.14 143.363 62.27 143.593 62.46C143.633 62.46 143.673 62.46 143.713 62.46C143.743 62.46 143.773 62.46 143.793 62.46C143.873 62.45 143.953 62.44 144.033 62.45C144.143 62.39 144.273 62.36 144.403 62.34C144.653 62.31 144.883 62.36 145.073 62.45C145.143 62.43 145.223 62.42 145.303 62.42C145.363 62.42 145.423 62.42 145.473 62.43C145.523 62.4 145.573 62.38 145.633 62.36C145.833 62.3 146.063 62.29 146.283 62.29C146.463 62.23 146.663 62.2 146.853 62.21C147.103 62.22 147.333 62.3 147.503 62.42C147.753 62.31 148.103 62.3 148.363 62.41C148.563 62.38 148.783 62.41 148.953 62.49C149.023 62.49 149.093 62.48 149.163 62.47C149.243 62.47 149.313 62.47 149.393 62.49C149.553 62.41 149.743 62.38 149.953 62.38C150.123 62.38 150.283 62.38 150.453 62.39C150.513 62.39 150.583 62.39 150.633 62.41C150.653 62.41 150.673 62.41 150.693 62.39C151.123 62.47 151.553 62.41 151.943 62.28C152.433 62.28 152.933 62.23 153.343 62.09C153.513 62.09 153.683 62.06 153.843 62.03C154.523 62.36 155.413 62.39 156.203 62.26C156.943 62.34 157.723 62.46 158.453 62.22C159.263 62.48 160.193 62.43 161.043 62.31C161.913 62.39 162.833 62.42 163.633 62.12C164.883 62.41 166.193 62.12 167.443 61.96C168.773 62.39 170.203 61.95 171.203 61.29C172.393 61.64 173.843 61.39 174.653 60.67C175.723 60.36 176.913 60.05 177.773 59.48C179.063 59.45 180.403 58.82 180.673 57.88C181.353 57.68 182.153 56.84 182.853 56.28C183.633 55.28 184.583 54.49 184.553 53.27C185.373 52.54 185.503 51.55 185.123 50.67C185.803 49.9 185.863 48.87 185.263 48.08C185.303 47.26 185.023 46.39 184.473 45.67C184.073 44.89 183.723 43.87 182.503 43.56C182.073 42.83 180.913 42.37 179.853 42.28C178.033 41.43 175.823 41.02 173.823 40.4C173.303 40.26 172.823 40.25 172.413 40.35C171.703 40.25 170.933 40.29 170.233 40.38C169.283 39.85 167.873 39.64 166.743 39.96C165.523 39.84 164.223 39.74 162.993 39.87C162.933 39.87 162.873 39.87 162.823 39.87C162.133 39.57 161.213 39.39 160.393 39.42C160.063 39.23 159.673 39.14 159.263 39.07C159.223 39.07 159.183 39.07 159.143 39.06C159.093 39.06 159.043 39.04 158.993 39.03C158.973 39.03 158.953 39.03 158.943 39.03C158.923 39.03 158.903 39.03 158.893 39.03C158.853 39.06 158.813 39.08 158.773 39.11C158.513 39.3 158.123 39.33 157.803 39.21C157.693 39.17 157.573 39.13 157.463 39.08C157.413 39.08 157.353 39.08 157.293 39.08C157.253 39.08 157.213 39.08 157.173 39.08C157.123 39.11 157.073 39.14 157.023 39.17C156.873 39.26 156.673 39.29 156.483 39.28C156.433 39.28 156.373 39.27 156.323 39.25C156.043 39.39 155.633 39.39 155.373 39.23C155.343 39.21 155.283 39.18 155.213 39.14C155.133 39.15 155.043 39.17 154.953 39.18C154.743 39.22 154.533 39.2 154.343 39.13C154.243 39.13 154.133 39.11 154.043 39.07C153.973 39.04 153.893 39.01 153.823 38.97C153.743 38.95 153.663 38.93 153.583 38.9C153.513 38.9 153.453 38.91 153.393 38.9C153.313 38.9 153.223 38.88 153.143 38.86C153.113 38.86 153.093 38.84 153.063 38.83C153.023 38.85 152.983 38.86 152.943 38.88C152.703 38.98 152.383 38.96 152.173 38.84C152.053 38.84 151.933 38.82 151.823 38.8C151.673 38.8 151.533 38.82 151.383 38.77C151.273 38.74 151.183 38.68 151.093 38.62C151.083 38.62 151.063 38.62 151.053 38.61C151.043 38.61 151.033 38.61 151.013 38.6C150.883 38.62 150.743 38.62 150.603 38.6C150.433 38.57 150.333 38.5 150.233 38.41C150.223 38.41 150.203 38.41 150.193 38.41C150.023 38.39 149.893 38.32 149.793 38.23C149.793 38.23 149.773 38.23 149.763 38.22H149.743C149.593 38.22 149.453 38.18 149.343 38.12C149.263 38.07 149.183 38.01 149.133 37.94C148.953 37.96 148.783 37.92 148.623 37.86C148.553 37.83 148.483 37.81 148.433 37.77C148.353 37.7 148.283 37.64 148.233 37.56C148.203 37.5 148.183 37.44 148.183 37.38C148.183 37.37 148.183 37.35 148.173 37.34C148.173 37.33 148.173 37.32 148.163 37.31C148.163 37.31 148.163 37.31 148.153 37.31C147.943 37.29 147.763 37.22 147.633 37.1C147.493 36.97 147.463 36.81 147.503 36.65C147.503 36.65 147.483 36.64 147.483 36.63C147.453 36.63 147.423 36.63 147.403 36.62C147.303 36.6 147.203 36.56 147.133 36.5C146.773 36.46 146.463 36.23 146.493 35.96C146.493 35.96 146.493 35.96 146.493 35.95C146.433 35.93 146.383 35.91 146.323 35.89C146.103 35.81 145.943 35.68 145.883 35.51C145.863 35.45 145.883 35.39 145.883 35.33C145.883 35.3 145.883 35.27 145.883 35.24C145.863 35.22 145.863 35.2 145.843 35.18C145.783 35.12 145.723 35.06 145.713 34.98C145.693 34.88 145.713 34.78 145.753 34.69C145.673 34.65 145.603 34.59 145.553 34.52C145.543 34.5 145.523 34.48 145.513 34.45C145.513 34.44 145.503 34.43 145.493 34.42C145.463 34.4 145.463 34.37 145.433 34.36C145.363 34.3 145.293 34.24 145.273 34.17C145.233 34.07 145.253 33.95 145.313 33.85C145.293 33.77 145.293 33.68 145.353 33.6C145.353 33.6 145.353 33.6 145.353 33.59C145.353 33.56 145.343 33.54 145.343 33.51C145.313 33.49 145.313 33.46 145.283 33.43C145.203 33.36 145.113 33.29 145.103 33.19C145.093 33.1 145.113 33.02 145.133 32.94C145.143 32.88 145.173 32.82 145.193 32.76C145.193 32.74 145.203 32.72 145.213 32.7C145.213 32.67 145.213 32.65 145.213 32.63C145.213 32.59 145.213 32.54 145.213 32.5C145.173 32.44 145.143 32.39 145.133 32.33C145.133 32.3 145.133 32.27 145.133 32.25C145.133 32.25 145.133 32.25 145.123 32.24C145.083 32.19 145.083 32.12 145.073 32.06C145.063 31.95 145.073 31.83 145.183 31.74C145.183 31.74 145.183 31.73 145.183 31.72C145.183 31.7 145.183 31.68 145.183 31.66C145.183 31.65 145.183 31.64 145.183 31.63C145.143 31.6 145.143 31.55 145.113 31.52C144.913 31.31 144.863 31.04 145.113 30.84C145.113 30.72 145.183 30.62 145.313 30.52C145.313 30.47 145.323 30.42 145.343 30.37C145.363 30.33 145.393 30.31 145.423 30.28C145.453 30.25 145.473 30.21 145.503 30.18C145.533 30.11 145.573 30.04 145.603 29.97C145.603 29.97 145.603 29.97 145.603 29.96C145.603 29.96 145.603 29.95 145.603 29.94C145.603 29.88 145.613 29.82 145.623 29.77C145.633 29.72 145.653 29.67 145.683 29.63C145.713 29.57 145.743 29.51 145.763 29.45C145.763 29.43 145.783 29.42 145.783 29.4C145.723 29.27 145.733 29.13 145.803 29.01C145.833 28.96 145.923 28.95 145.973 28.9C146.073 28.82 146.153 28.73 146.293 28.7C146.313 28.65 146.353 28.6 146.383 28.56C146.413 28.51 146.423 28.46 146.473 28.42C146.473 28.42 146.493 28.4 146.503 28.4C146.513 28.39 146.523 28.38 146.543 28.37C146.543 28.37 146.543 28.36 146.543 28.35C146.543 28.35 146.543 28.34 146.543 28.33C146.603 28.24 146.683 28.07 146.783 27.98C146.813 27.95 146.853 27.93 146.883 27.9C146.883 27.9 146.893 27.89 146.903 27.88C146.983 27.79 147.013 27.7 147.113 27.62C147.113 27.56 147.163 27.5 147.193 27.45C147.233 27.37 147.263 27.3 147.303 27.21C147.343 27.12 147.433 27.04 147.533 26.98C147.543 26.98 147.563 26.97 147.583 26.96C147.613 26.94 147.643 26.93 147.683 26.92C147.693 26.82 147.783 26.74 147.853 26.66C147.993 26.5 148.193 26.37 148.463 26.37C148.483 26.37 148.513 26.37 148.533 26.37C148.533 26.37 148.633 26.3 148.683 26.27C148.703 26.25 148.753 26.24 148.783 26.23C148.853 26.19 148.913 26.14 149.003 26.13L149.023 26.11C149.023 26.11 149.033 26.1 149.043 26.09C149.113 26.04 149.193 26 149.273 25.98C149.313 25.94 149.373 25.93 149.433 25.9C149.473 25.88 149.503 25.85 149.553 25.84C149.573 25.83 149.593 25.82 149.613 25.81C149.613 25.81 149.623 25.81 149.633 25.8C149.653 25.8 149.683 25.78 149.703 25.78C149.753 25.72 149.823 25.69 149.893 25.65C150.033 25.57 150.193 25.51 150.383 25.5C150.413 25.48 150.453 25.46 150.483 25.44C150.513 25.42 150.563 25.42 150.603 25.4C150.713 25.34 150.833 25.27 150.983 25.27C150.993 25.27 151.003 25.25 151.023 25.25C151.023 25.25 151.033 25.25 151.043 25.24C151.043 25.24 151.063 25.24 151.073 25.23C151.133 25.2 151.203 25.18 151.273 25.17C151.293 25.17 151.313 25.15 151.333 25.14C151.353 25.13 151.363 25.12 151.383 25.1C151.383 25.1 151.403 25.09 151.413 25.08C151.453 24.99 151.533 24.91 151.643 24.85C151.783 24.77 151.963 24.74 152.133 24.75C152.173 24.73 152.223 24.71 152.263 24.68C152.283 24.68 152.303 24.66 152.323 24.65C152.413 24.61 152.523 24.59 152.633 24.59C152.663 24.59 152.683 24.59 152.713 24.59C152.763 24.59 152.803 24.59 152.853 24.61C152.883 24.61 152.923 24.59 152.953 24.59C152.953 24.59 152.963 24.59 152.973 24.59C153.043 24.52 153.153 24.47 153.273 24.45C153.323 24.45 153.363 24.44 153.403 24.44C153.553 24.3 153.803 24.21 154.043 24.24C154.243 24.27 154.433 24.28 154.623 24.28C154.663 24.24 154.703 24.2 154.763 24.17C154.903 24.09 155.053 24.08 155.223 24.07C155.223 24.07 155.233 24.07 155.243 24.07C155.263 24.07 155.273 24.07 155.293 24.07C155.333 24.07 155.373 24.06 155.423 24.05C155.683 23.98 155.893 23.91 156.163 23.91H156.183C156.183 23.91 156.183 23.91 156.193 23.91C156.343 23.91 156.473 23.94 156.583 24C156.623 24 156.653 23.99 156.693 23.99C156.963 23.99 157.203 24.11 157.263 24.3C157.493 24.26 157.723 24.2 157.943 24.11C158.423 24.14 158.903 24.17 159.393 24.18C160.053 24.19 160.683 24.11 161.333 24.03C162.603 24.59 164.173 24.15 165.563 24.11C168.313 24.28 171.073 24.27 173.823 24.11C175.213 23.98 176.543 24.33 177.893 24.42C178.793 24.39 179.693 24.14 180.613 24.22C181.503 24.2 182.353 24.42 183.233 24.45C183.773 24.4 184.303 24.4 184.843 24.4C185.583 24.4 186.313 24.4 187.043 24.26C188.413 24.46 189.823 24.6 191.213 24.39C191.743 24.36 192.263 24.36 192.783 24.37C193.543 24.38 194.293 24.39 195.043 24.27C196.043 24.46 197.033 24.46 198.033 24.27C198.943 24.38 199.863 24.25 200.753 24.14C201.793 24.49 202.913 24.54 203.943 24.12C205.043 24.36 206.213 24.28 207.383 24.21C208.313 24.15 209.253 24.09 210.173 24.18C211.203 24.07 212.103 24.4 213.093 24.45C213.643 24.45 214.113 24.29 214.603 24.13C215.713 24.4 216.973 24.66 218.063 24.2C219.473 24.5 220.893 24.37 222.323 24.37C222.753 24.32 223.183 24.33 223.613 24.35C224.163 24.37 224.703 24.39 225.243 24.26C226.283 24.74 227.773 24.65 228.813 24.22C229.873 24.41 231.023 24.34 232.093 24.26C232.623 24.38 233.173 24.5 233.713 24.5C234.313 24.5 234.793 24.32 235.273 24.11C236.273 24.53 237.383 24.43 238.373 24.05C239.523 24.08 240.743 24.19 241.793 23.79C242.573 24.02 243.413 23.88 244.223 23.82C244.933 23.9 245.603 23.79 246.253 23.58C246.863 23.72 247.553 23.71 248.173 23.64C248.813 23.8 249.463 23.69 250.083 23.52C250.723 23.73 251.453 23.71 252.113 23.58C252.533 23.74 253.023 23.73 253.473 23.67C253.883 23.72 254.323 23.72 254.703 23.58C255.253 23.55 255.713 23.31 255.973 22.98C256.563 23.18 257.433 22.98 257.903 22.69C258.293 22.69 258.653 22.55 258.913 22.34C259.293 22.22 259.613 21.99 259.823 21.73C260.263 21.54 260.673 21.32 261.023 21.03C261.893 20.96 262.413 20.41 263.003 20C263.923 19.7 264.663 19.09 264.953 18.4C265.813 18.11 266.123 17.46 266.293 16.83C266.793 15.84 267.503 14.9 267.533 13.83C268.503 13.01 268.633 11.76 267.823 10.86C267.893 10.28 267.923 9.68 267.533 9.15C267.403 8.81 267.483 8.45 267.263 8.12C266.643 7.38 266.563 6.49 265.763 5.83C265.353 5.37 264.673 5.01 264.333 4.56C264.083 3.28 262.473 2.46 260.743 2.31C259.793 1.4 258.033 1.03 256.533 1.39C255.613 1.25 254.713 1.17 253.773 1.23C253.123 1.17 252.463 1.11 251.823 1.25C250.693 0.78 249.333 0.78 248.143 1.13C248.103 1.11 248.063 1.1 248.023 1.08C246.883 0.64 245.463 0.79 244.303 1.11C243.073 0.94 241.793 0.92 240.533 0.98C239.383 1.19 238.233 1.25 237.053 1.11C236.563 1.12 236.073 1.12 235.583 1.12C235.133 1.12 234.673 1.12 234.223 1.12C233.123 0.9 231.863 0.9 230.843 1.29C230.023 1.06 229.103 1.11 228.243 1.14C227.533 1.07 226.823 0.99 226.113 1.04C226.003 1.06 225.893 1.07 225.783 1.07C225.623 1.09 225.463 1.12 225.303 1.16C224.843 1.18 224.373 1.16 223.913 1.15C223.563 1.14 223.203 1.12 222.843 1.12C222.913 0.96 222.863 0.79 222.743 0.65C222.393 0.79 222.003 0.81 221.593 0.83C221.373 0.85 221.153 0.87 220.933 0.86C220.743 0.86 220.563 0.81 220.383 0.77C220.323 0.79 220.273 0.8 220.213 0.82C220.003 0.88 219.783 0.94 219.563 0.98C219.193 1.04 218.813 1.04 218.443 0.96C218.433 0.96 218.423 0.96 218.403 0.96C218.333 0.98 218.263 1 218.193 1.02C217.563 1.17 216.883 1.04 216.243 0.94C216.123 0.95 216.003 0.97 215.883 0.98C215.553 1.1 215.223 1.2 214.853 1.23C214.473 1.26 214.033 1.23 213.683 1.1C213.683 1.1 213.673 1.1 213.663 1.1C213.343 1.12 213.043 1.08 212.723 1.02C212.703 1.02 212.673 1.02 212.653 1.01C212.653 1.01 212.653 1.01 212.663 1.01C212.663 1.01 212.663 1.01 212.653 1.01C212.643 1.01 212.623 1.01 212.613 1.01C212.513 0.99 212.423 0.97 212.323 0.96C212.233 0.96 212.143 0.96 212.043 0.95C211.993 0.95 211.943 0.94 211.903 0.93C211.773 0.93 211.653 0.93 211.523 0.91C211.243 0.99 210.963 1.06 210.683 1.13C209.943 1.32 209.093 1.18 208.513 0.82C208.273 0.87 208.023 0.88 207.783 0.85C207.323 0.93 206.893 0.97 206.423 0.87C206.323 0.84 206.223 0.81 206.123 0.78C206.083 0.78 206.053 0.78 206.013 0.78C206.013 0.78 206.003 0.78 205.993 0.78C205.483 0.95 204.983 0.94 204.443 0.86C204.353 0.85 204.263 0.83 204.173 0.82C203.693 0.93 203.203 1.04 202.713 1.15C202.153 1.27 201.533 1.17 201.023 0.99C200.993 0.99 200.963 0.97 200.933 0.96C200.753 0.91 200.563 0.88 200.373 0.85C200.273 0.88 200.173 0.91 200.083 0.94C199.483 1.12 198.723 1.08 198.133 0.84C198.023 0.84 197.913 0.86 197.803 0.87C196.733 1.12 195.623 0.91 194.533 0.89C193.833 0.92 193.133 1.02 192.433 0.89C191.613 0.84 190.813 1.04 190.003 1.1C189.553 0.97 189.093 0.86 188.613 0.86C188.263 0.85 187.933 0.93 187.593 1.01C187.253 1.09 186.913 1.17 186.553 1.16C185.573 0.83 184.513 0.81 183.523 1.16C182.443 1.14 181.353 1.07 180.293 1.24C179.113 0.84 177.873 1.12 176.653 1.27C176.183 1.12 175.693 0.98 175.173 0.98C174.653 0.98 174.133 1.13 173.643 1.28C172.943 1.19 172.243 1.22 171.533 1.23C170.963 1.15 170.353 1.03 169.773 1.09C168.913 1.24 168.313 1.3 167.433 1.19C166.983 1.22 166.533 1.22 166.083 1.21C165.653 1.21 165.223 1.19 164.793 1.21C163.803 1.01 162.793 0.97 161.843 1.31C160.603 1.09 159.323 1.2 158.083 1.04C156.943 1.19 155.823 1.09 154.673 1.17C153.773 0.85 152.823 0.82 151.873 1.03C151.273 0.91 150.663 0.96 150.073 1.13C149.283 0.9 148.403 0.77 147.563 0.91C146.883 0.91 146.233 0.8 145.573 0.72C145.093 0.65 144.613 0.68 144.133 0.71C143.703 0.73 143.273 0.76 142.843 0.71C142.553 0.68 142.263 0.69 141.973 0.7C141.483 0.72 141.003 0.73 140.553 0.55C139.473 0.28 138.293 0.49 137.193 0.59C136.083 0.35 134.923 0.34 133.773 0.37C133.673 0.33 133.573 0.28 133.473 0.25C133.313 0.32 133.143 0.37 132.953 0.4C132.383 0.49 131.733 0.36 131.323 0.06C131.043 0.11 130.773 0.18 130.513 0.29C129.873 0.2 129.243 0.21 128.593 0.27C128.363 0.22 128.133 0.16 127.893 0.12C127.723 0.15 127.563 0.17 127.393 0.18C127.133 0.18 126.873 0.14 126.613 0.09C126.313 0.1 126.003 0.11 125.703 0.11C125.443 0.14 125.183 0.16 124.913 0.19C124.633 0.21 124.363 0.19 124.103 0.13C124.023 0.11 123.933 0.08 123.853 0.05C123.783 0.05 123.713 0.05 123.653 0.05C123.243 0.03 122.833 0.01 122.423 0C122.213 0.01 121.993 0.03 121.773 0.04C121.423 0.12 121.073 0.2 120.723 0.27C120.503 0.32 120.253 0.32 120.033 0.33C119.783 0.35 119.533 0.36 119.283 0.38C118.863 0.41 118.453 0.34 118.113 0.15C118.063 0.12 118.003 0.09 117.953 0.05C117.953 0.05 117.943 0.05 117.933 0.05C117.703 0.13 117.463 0.17 117.223 0.18C116.973 0.27 116.683 0.31 116.413 0.35C116.043 0.42 115.653 0.51 115.263 0.51C114.913 0.51 114.563 0.51 114.213 0.49C113.943 0.54 113.673 0.59 113.403 0.65C113.253 0.69 113.083 0.71 112.923 0.72C112.683 0.74 112.443 0.71 112.203 0.68C111.813 0.64 111.403 0.62 111.023 0.55C110.753 0.5 110.483 0.45 110.203 0.4C109.883 0.42 109.563 0.44 109.243 0.46C109.003 0.48 108.743 0.43 108.493 0.38C108.193 0.47 107.863 0.49 107.533 0.49C107.423 0.49 107.303 0.49 107.193 0.49C107.003 0.53 106.793 0.55 106.593 0.57C106.363 0.6 106.143 0.62 105.913 0.65C105.533 0.7 105.153 0.74 104.773 0.78C104.343 0.83 103.903 0.75 103.473 0.7C103.393 0.7 103.313 0.68 103.223 0.67C103.053 0.67 102.883 0.67 102.713 0.67C102.433 0.67 102.143 0.69 101.873 0.64C101.773 0.62 101.673 0.6 101.573 0.57C101.493 0.59 101.403 0.61 101.313 0.63C101.053 1.05 100.503 1.32 99.8729 1.39C99.5829 1.42 99.3029 1.43 99.0129 1.37C98.9929 1.37 98.9728 1.37 98.9529 1.36C98.9128 1.37 98.8729 1.38 98.8229 1.39C98.7029 1.5 98.5829 1.6 98.4229 1.68C98.1029 1.86 97.7429 1.91 97.3529 1.96C97.2829 1.96 97.2129 1.98 97.1429 1.99C97.1628 2.1 97.1928 2.21 97.2429 2.32C95.9929 2.29 94.9229 2.78 93.9229 3.29C92.5329 3.54 91.6129 4.33 90.6329 5.01C90.1129 5.6 89.2529 5.99 89.0029 6.69C87.7929 7.4 86.8229 8.51 87.4129 9.65C86.7529 10.53 86.7129 11.65 86.8029 12.63C86.1629 13.57 86.6729 14.68 87.6729 15.38C87.4929 16.47 88.2229 17.58 89.6829 18.01C90.1229 18.45 90.5929 18.91 91.1529 19.28C91.1529 19.28 91.1729 19.28 91.1729 19.29C91.2429 19.32 91.3029 19.37 91.3629 19.41C91.4229 19.45 91.4829 19.48 91.5529 19.52C91.8029 19.56 92.0329 19.63 92.2429 19.75C92.3229 19.79 92.3929 19.84 92.4629 19.89C92.4929 19.92 92.5229 19.94 92.5529 19.96C92.5529 19.96 92.5429 19.96 92.5329 19.96C92.6628 20.08 92.7629 20.21 92.8229 20.35C92.8629 20.41 92.8929 20.48 92.9129 20.55C93.1229 20.64 93.3229 20.73 93.4929 20.85C93.6829 20.98 93.8328 21.13 93.9529 21.29C94.0729 21.32 94.1928 21.37 94.3129 21.4C94.5928 21.49 94.8629 21.57 95.1329 21.66C95.3529 21.73 95.5729 21.79 95.7529 21.9C95.8029 21.93 95.8428 21.96 95.8829 21.99C95.9229 22.02 95.9629 22.05 95.9929 22.08C96.0629 22.15 96.1329 22.22 96.1929 22.29C96.2629 22.36 96.3229 22.43 96.3929 22.5C96.4128 22.53 96.4429 22.55 96.4629 22.58C96.5928 22.59 96.7229 22.61 96.8529 22.63C96.8728 22.63 96.8829 22.63 96.9029 22.63C96.9829 22.64 97.0729 22.66 97.1529 22.67C97.5029 22.74 97.8529 22.9 98.1729 23.02C98.1729 23.02 98.1829 23.02 98.1929 23.02C98.3729 23.09 98.5129 23.19 98.6229 23.31C98.8429 23.29 99.0729 23.26 99.2929 23.22C99.6729 23.29 100.063 23.36 100.443 23.36C101.703 23.2 102.953 23.28 104.213 23.39C105.313 23.21 106.393 23.31 107.523 23.36C108.133 23.41 108.563 23.1 109.113 23.05C109.893 23.15 110.383 23.62 111.203 23.67C111.943 23.75 112.573 23.55 113.253 23.39C113.623 23.46 114.013 23.51 114.413 23.47C114.703 23.44 114.973 23.37 115.243 23.29C115.763 23.55 116.383 23.58 116.993 23.54C117.583 23.89 118.183 24.2 118.913 24.39C119.303 24.73 119.863 24.88 120.393 25.09C120.693 25.37 121.043 25.6 121.493 25.75C121.603 26.09 121.733 26.43 122.043 26.72C122.333 26.99 122.723 27.17 123.133 27.3C123.233 27.59 123.403 27.86 123.593 28.12C123.673 28.42 123.733 28.74 123.893 29.02C123.453 29.67 123.613 30.5 124.123 31.11C123.523 31.74 123.333 32.51 123.693 33.24C123.453 33.91 122.943 34.58 123.093 35.29C122.713 35.64 122.433 36.05 122.353 36.49C122.193 36.76 121.893 36.98 121.843 37.28C121.063 37.66 120.003 37.66 119.303 38.14C118.893 38.11 118.503 38.2 118.143 38.33C117.863 38.33 117.583 38.25 117.293 38.29C116.863 38.33 116.493 38.52 116.053 38.57C115.683 38.64 115.323 38.5 114.953 38.55C114.373 38.68 113.783 38.6 113.193 38.62C112.003 38.9 110.733 38.74 109.493 38.82C108.713 38.65 107.903 38.82 107.113 38.82C106.533 38.6 105.833 38.62 105.243 38.83C104.833 38.79 104.413 38.79 104.033 38.91C103.553 38.88 103.053 38.87 102.623 39.03C102.443 38.99 102.253 38.95 102.073 38.93C101.813 38.9 101.573 38.93 101.343 38.98C100.973 38.88 100.583 38.8 100.193 38.8C99.5729 38.75 99.1429 39.08 98.6129 39.21C97.8329 39 96.9929 39.25 96.2029 39.3C95.3929 39.3 94.5029 39.14 93.7529 39.41C93.6229 39.38 93.4828 39.37 93.3529 39.32C92.7629 39.22 92.1628 39.28 91.5629 39.35C91.1829 39.39 90.7929 39.44 90.4129 39.43C89.4129 39.19 88.4929 39.3 87.5129 39.18C86.7529 39.15 85.9828 39.18 85.2429 39.33C84.3428 39.3 83.4529 39.2 82.5529 39.33C81.8429 39.33 81.1329 39.15 80.4129 39.29C79.6729 39.12 78.9029 39.13 78.1429 39.13C77.7729 39.13 77.4029 39.13 77.0329 39.11C76.1329 38.62 74.9329 38.68 73.9129 38.91C73.3029 38.81 72.6628 38.75 72.0629 38.91C71.2529 38.79 70.4129 38.75 69.6929 39.07C69.4629 39.02 69.2329 38.98 69.0029 38.93C68.4529 38.83 67.9428 38.89 67.4229 38.99C67.0829 38.86 66.7429 38.75 66.3428 38.71C66.2029 38.71 66.0629 38.7 65.9129 38.7C65.0929 38.7 64.2628 38.84 63.6329 39.21C62.4629 38.86 61.2528 39.17 60.0429 39.19C59.5728 39.25 59.1528 39.06 58.6928 39.01C58.0229 38.98 57.3329 39.04 56.7029 39.23C56.3728 39.18 56.0328 39.14 55.6828 39.18C55.4029 39.21 55.1328 39.28 54.8728 39.35C54.2029 39.22 53.4428 39.26 52.7628 39.39C52.0328 39.16 51.2528 39.19 50.4828 39.29C49.4328 39.06 48.3829 39.28 47.3129 39.3C46.1229 39.06 44.8829 39.13 43.7328 39.33C42.9529 39.15 42.1228 39.15 41.3528 39.35C40.7828 39.23 40.2029 39.22 39.6228 39.31C38.2528 39.14 36.8228 39.17 35.4428 39.32C34.3028 38.84 32.9029 38.9 31.7529 39.32C31.3429 39.2 30.8829 39.17 30.4429 39.1C29.7429 38.98 29.1129 39.29 28.4229 39.31C27.9829 39.28 27.5529 39.31 27.1229 39.35C26.7229 39.38 26.3229 39.42 25.9229 39.4C25.3929 39.35 24.8729 39.36 24.3429 39.38C23.8929 39.4 23.4529 39.41 23.0129 39.38C22.4429 39.43 21.8929 39.41 21.3329 39.3C20.4629 39.24 19.5729 39.43 18.7529 39.61C16.7929 38.74 14.5929 39.84 12.5129 39.88C12.1329 39.91 11.8029 40.01 11.5229 40.16C11.1129 40.2 10.7029 40.27 10.3029 40.35C9.06285 40.56 7.92285 40.97 6.69285 41.22C6.02285 41.4 5.46285 41.73 5.10285 42.18C4.23285 42.51 3.57285 43.12 3.29285 43.79C1.64285 44.41 0.872851 45.76 1.15285 47.04C0.0628507 48.04 -0.437149 49.41 0.472851 50.57L0.482851 50.47Z" fill="#EDB371"/>
</svg>
