<svg width="225" height="604" viewBox="0 0 225 604" fill="none" xmlns="http://www.w3.org/2000/svg">
<mask id="mask0_92_109" style="mask-type:alpha" maskUnits="userSpaceOnUse" x="106" y="0" width="119" height="604">
<rect x="106" width="119" height="604" fill="#D9D9D9"/>
</mask>
<g mask="url(#mask0_92_109)">
<path fill-rule="evenodd" clip-rule="evenodd" d="M-654.847 436.145C-620.909 425.446 -581.947 429.418 -547.096 434.964C-509.001 441.011 -471.82 449.993 -434.822 459.26C-321.588 487.636 -200.271 504.06 -81.0537 499.837C-48.486 498.692 -15.0961 494.291 15.8272 485.954C44.7864 478.153 69.863 466.417 89.9609 448.275C91.4225 446.951 92.9755 445.699 94.4829 444.446C136.734 408.771 144.636 355.992 142.535 309.368C141.804 293.659 139.201 277.951 134.907 262.6C132.303 253.368 128.101 243.743 127.644 234.225C127.507 231.076 130.431 220.949 135.09 229.108C135.09 229.108 149.615 249.289 156.512 257.197C163.729 265.463 170.352 274.086 176.473 282.889C209.497 330.408 228.682 376.603 216.121 431.207C211.873 449.635 203.833 467.24 193.556 484.093C160.76 537.695 102.431 572.547 29.3932 586.681C5.32147 591.333 -19.4811 594.661 -44.0553 597.023C-85.3016 601.03 -126.959 603.857 -168.525 604.823C-225.667 606.111 -283.996 600.279 -339.585 590.117C-382.384 582.316 -425.686 576.412 -467.389 565.14C-478.946 562.027 -489.268 556.409 -501.738 555.372C-505.758 550.935 -510.006 546.641 -513.706 542.061C-521.699 532.077 -531.702 523.418 -541.797 514.759C-557.053 501.698 -576.283 492.717 -593.732 481.946C-594.28 482.197 -635.572 456.648 -655.259 443.516C-658.593 441.297 -659.415 438.399 -654.71 436.181L-654.847 436.145Z" fill="#C5D59B"/>
</g>
<path fill-rule="evenodd" clip-rule="evenodd" d="M20.0169 132.132C58.2288 173.371 101.389 210.691 131.995 257.724C140.151 263.774 145.74 256.02 152.521 254.486C173.231 234.463 180.47 208.902 186.793 182.999C187.984 178.228 187.984 173.201 188.625 168.344C190.458 161.783 190.458 155.308 188.625 148.747C187.526 135.199 183.219 122.504 176.988 110.234C175.43 107.252 173.689 103.247 170.024 103.929C167.549 104.355 165.533 108.189 164.067 110.916C162.235 114.324 160.86 117.988 159.76 121.566C158.936 124.378 157.928 127.616 154.812 127.531C151.147 127.446 149.314 124.293 148.673 120.8C141.525 81.1792 118.066 50.5906 87.552 23.5805C74.5398 12.0778 58.5037 5.77263 42.3759 0.915938C31.1048 -2.49227 26.8896 3.89814 31.1964 15.3156C42.2843 44.541 52.4558 73.9368 58.7786 104.525C59.6949 108.871 60.6113 113.046 59.5117 118.584C46.0413 107.167 30.2801 100.862 13.969 95.5788C9.11238 93.9599 4.25571 92.2559 0.0404929 96.9422C-0.692588 106.656 8.74585 112.535 10.7618 121.226C11.9531 126.253 16.5348 128.809 20.0169 132.132Z" fill="#82A189"/>
</svg>
