<svg width="132" height="73" viewBox="0 0 132 73" fill="none" xmlns="http://www.w3.org/2000/svg">
<path d="M68.8426 72.9736C68.4293 72.9736 68.037 72.9315 67.6657 72.8965C67.5116 72.8825 67.3504 72.8615 67.1963 72.8475H67.1403C66.5869 72.8615 65.9704 72.8755 65.3889 72.7774C65.3749 72.7774 65.3609 72.7774 65.3469 72.7774C64.9896 72.7774 64.5693 72.7704 64.149 72.6793C63.4695 72.7844 62.881 72.7424 62.4186 72.6513C61.8862 72.7424 61.3258 72.7424 60.8845 72.6583C60.31 72.7914 59.7496 72.7774 59.3082 72.7284C58.9089 72.7984 58.4536 72.8054 57.9422 72.7564C57.1926 72.9245 56.4991 72.8475 55.8756 72.7704C55.3712 72.7144 54.9369 72.6653 54.5516 72.7494C54.5025 72.7634 54.4535 72.7704 54.4045 72.7704C53.837 72.8194 53.2276 72.7844 52.555 72.6653C52.0366 72.7424 51.5393 72.7214 51.0699 72.6653C50.2082 72.7844 49.3746 72.7354 48.4709 72.6513C47.6443 72.9385 46.6635 72.9315 45.5497 72.6373C44.7791 72.8264 43.9174 72.8335 43.0697 72.6583C42.8946 72.6583 42.7195 72.6583 42.5443 72.6583C42.131 72.6583 41.7037 72.6583 41.2624 72.6093C40.2746 72.6793 39.2238 72.6863 38.0609 72.6373C37.0591 72.7844 36.1204 72.7564 35.2657 72.5602C34.3901 72.8194 33.3743 72.8054 32.4426 72.5182C31.9172 72.5182 31.4268 72.4622 31.0065 72.4061C30.6562 72.4201 30.2779 72.4341 29.8926 72.4061C29.5773 72.5322 29.185 72.6583 28.7227 72.7004C27.9381 72.7774 27.2446 72.6023 26.7191 72.4131C26.3128 72.4762 25.8785 72.4762 25.4091 72.4131C24.4214 72.7074 23.4476 72.6233 22.7471 72.4902C22.3898 72.4902 22.0395 72.4972 21.6893 72.5112C21.0378 72.5392 20.3652 72.5602 19.6647 72.4832C19.0062 72.5252 18.3897 72.4972 17.8503 72.4622C17.1148 72.6513 16.106 72.7704 15.0832 72.4902C14.6559 72.5322 14.2495 72.5112 13.8923 72.4902H13.8502C13.3108 72.5532 12.8204 72.4902 12.3861 72.4412H12.3161C11.3703 72.6373 10.4246 72.5322 9.59096 72.4412H9.56293C8.68025 72.7494 7.48933 72.8895 6.4035 72.5042C5.86408 72.5532 5.31065 72.5182 4.79926 72.4061C4.17578 72.5602 3.48225 72.5883 2.73267 72.4972C2.14422 72.5883 1.52774 72.5813 0.925278 72.4832H0.553993C-0.0554733 72.4762 -0.692963 72.4692 -1.33746 72.3991C-1.42853 72.4131 -1.5196 72.4412 -1.61067 72.4622C-1.83484 72.5182 -2.10806 72.5883 -2.43031 72.6023C-3.21491 72.6653 -3.95748 72.5112 -4.65802 72.3081C-5.59674 72.4201 -6.50744 72.294 -7.32708 72.182C-7.53023 72.1539 -7.73339 72.1259 -7.92954 72.1049C-8.23077 72.1749 -8.53901 72.203 -8.87527 72.21C-9.62484 72.4201 -10.4515 72.4061 -11.2291 72.182L-11.6564 72.3151C-11.8526 72.3781 -12.0627 72.3851 -12.2589 72.3431L-12.8403 72.21C-12.8403 72.21 -12.9104 72.196 -12.9174 72.196L-13.0225 72.1749C-13.1416 72.1749 -13.2326 72.1749 -13.3237 72.189L-13.786 72.217C-14.0102 72.231 -14.2554 72.182 -14.4516 72.0629L-14.7598 71.8877C-14.8719 71.8247 -14.963 71.7967 -15.061 71.7826H-15.075C-15.1731 71.7896 -15.2992 71.8037 -15.4323 71.7967C-15.4743 71.8037 -15.5164 71.8177 -15.5584 71.8317L-15.7546 71.9017C-16.0278 71.9998 -16.322 71.9928 -16.5882 71.8807C-16.6583 71.8527 -16.7213 71.8177 -16.7844 71.7826C-17.0856 71.7336 -17.3588 71.6495 -17.611 71.5375C-18.7529 71.5585 -19.8737 71.1802 -20.5743 70.8299C-21.9964 70.2695 -22.6339 69.5129 -22.9001 68.8544C-23.7057 68.2379 -24.2661 67.3482 -24.4483 66.3955C-24.9036 65.8631 -25.1698 65.2046 -25.1838 64.5531C-25.1908 64.0557 -25.0647 63.5793 -24.8055 63.159C-24.9106 62.0381 -24.2241 60.9103 -23.0122 60.2518C-22.7109 59.7684 -22.2766 59.3481 -21.7302 59.0328C-21.1347 58.5144 -20.5112 58.1642 -19.8247 57.968C-18.879 57.0503 -17.2327 56.623 -15.7406 56.9242C-15.6495 56.9032 -15.5514 56.8822 -15.4463 56.8612C-14.2414 56.3918 -12.5811 56.3708 -11.3342 56.4128C-10.6336 56.1186 -9.821 55.9575 -8.95934 55.9505C-8.63708 55.9434 -8.32184 55.9855 -8.04863 56.0275C-7.83847 56.0555 -7.66333 56.0695 -7.50221 56.0836L-7.39713 56.0625C-6.33231 55.8594 -5.14139 55.6282 -3.8524 55.9645C-3.03978 55.7613 -2.17811 55.7053 -1.34447 55.7823L-0.98719 55.7613C-0.307667 55.7263 0.399876 55.6842 1.12844 55.7823C1.4717 55.6772 1.857 55.6002 2.30534 55.6212C2.5015 55.6282 2.70465 55.6422 2.90781 55.6492C3.71343 55.4391 4.49103 55.4951 5.19157 55.5511C5.58387 55.5792 5.94815 55.6072 6.2704 55.5862C6.31243 55.5862 6.35446 55.5862 6.38949 55.5862C6.87987 55.6072 7.36324 55.5792 7.83961 55.5511C8.42806 55.5161 9.03753 55.4741 9.67502 55.5231C10.4526 55.4321 11.2582 55.4461 12.0779 55.5652C12.19 55.5511 12.3161 55.5371 12.4351 55.5301C12.5682 55.4951 12.7084 55.4741 12.8415 55.4461C13.1707 55.2359 13.528 55.0888 13.9063 55.0117C14.1304 54.8646 14.3897 54.7525 14.6769 54.6825C14.6979 54.6825 14.7189 54.6685 14.7469 54.6685C14.782 54.6474 14.81 54.6264 14.845 54.6054C14.9501 54.5354 15.0622 54.4583 15.1953 54.3883C15.4475 54.01 15.8538 53.6947 16.3512 53.5056C16.4212 53.4355 16.5053 53.3655 16.5893 53.3024C16.7014 53.1483 16.8275 53.0082 16.9676 52.8751C17.1428 52.5458 17.3739 52.2936 17.5771 52.0765C17.5771 52.0765 17.5911 52.0625 17.5981 52.0555C17.6261 51.8243 17.6962 51.6001 17.8083 51.3899C17.8083 51.3409 17.8083 51.2849 17.8083 51.2358C17.8083 51.0117 17.8503 50.7034 18.0255 50.3672C18.0255 50.3601 18.0255 50.3531 18.0255 50.3391C18.0114 50.178 17.9974 50.0029 17.9974 49.8207C17.8503 49.5405 17.8153 49.2043 17.9064 48.91C17.9204 48.819 17.9484 48.7279 17.9904 48.6438C17.9974 48.5948 18.0114 48.5458 18.0184 48.5037C17.9414 48.4127 17.8783 48.3076 17.8293 48.2025C17.7943 48.2025 17.7452 48.1885 17.6822 48.1955C17.402 48.2095 17.1077 48.1114 16.8906 47.9293C16.6524 47.9503 16.3722 47.9013 16.162 47.7752C15.9378 47.6351 15.7277 47.4669 15.5526 47.2848C15.5175 47.2778 15.4615 47.2568 15.4054 47.2357C15.2303 47.1727 15.0131 47.0886 14.789 46.9625C14.6559 46.9065 14.4807 46.8645 14.2916 46.8154C13.9063 46.7103 13.4509 46.5912 13.0306 46.325C12.6803 46.283 12.3651 46.1989 12.0709 46.1219C11.8607 46.0658 11.6575 46.0168 11.4964 45.9958C11.0201 45.9678 10.4246 45.9047 9.87117 45.6946C9.67502 45.6665 9.47887 45.6245 9.29673 45.5615C9.26871 45.5615 9.23368 45.5474 9.20566 45.5404C8.4771 45.6315 7.85361 45.6455 7.26517 45.5965C6.55762 45.6735 5.80804 45.7296 5.03044 45.5615C4.78525 45.5054 4.49103 45.5194 4.15477 45.5404C3.82551 45.5615 3.44722 45.5755 3.04791 45.5334C2.59957 45.5544 2.17224 45.5264 1.75892 45.4984H1.66085C0.988331 45.6525 0.231747 45.6245 -0.650936 45.4073C-0.980186 45.4494 -1.30244 45.4494 -1.58265 45.4494C-1.8979 45.4494 -2.18511 45.4494 -2.41629 45.4984C-2.51437 45.5194 -2.61245 45.5264 -2.71052 45.5264C-3.12384 45.5264 -3.52315 45.4984 -3.90844 45.4704C-4.42685 45.4284 -4.8962 45.3933 -5.34455 45.4143C-6.17819 45.5685 -7.18697 45.7366 -8.25179 45.5264C-8.67912 45.5615 -9.15548 45.5474 -9.65287 45.4844C-10.2553 45.6035 -10.8858 45.6315 -11.4743 45.5615C-11.8035 45.6035 -12.1328 45.6105 -12.455 45.5895C-13.1696 45.7436 -13.8561 45.6735 -14.3885 45.5895C-14.5777 45.5895 -14.7738 45.5895 -14.97 45.5895C-15.4043 45.5895 -15.8316 45.5965 -16.28 45.5474C-16.3921 45.5474 -16.5532 45.5895 -16.7283 45.6385C-16.9735 45.7016 -17.2537 45.7716 -17.576 45.7926C-18.1434 45.8557 -18.7319 45.7716 -19.3553 45.5404C-20.259 45.6665 -21.1697 45.6175 -22.0384 45.5404C-22.9841 45.8627 -24.147 45.8417 -25.1138 45.4914C-25.4921 45.5264 -25.8914 45.5264 -26.3117 45.4914C-26.8791 45.6315 -27.4186 45.5965 -27.8599 45.5685C-28.1191 45.5544 -28.3082 45.5685 -28.5044 45.5404C-28.9037 45.4914 -29.0648 45.5124 -29.4431 45.5615L-29.7934 45.6035C-29.8284 45.6035 -29.8634 45.6035 -29.9055 45.6035C-30.2417 45.6035 -30.592 45.6035 -30.9353 45.6035C-31.6008 45.5895 -32.2102 45.5825 -32.8127 45.6455C-33.5553 45.7436 -34.3049 45.6105 -34.8513 45.4774C-34.9564 45.4914 -35.0544 45.5054 -35.1595 45.5194C-35.5168 45.5755 -35.9441 45.6385 -36.4275 45.5825C-37.2681 45.8207 -38.1018 45.7226 -38.8443 45.6385C-38.9564 45.6245 -39.0615 45.6105 -39.1736 45.6035C-39.8041 45.7156 -40.3995 45.6735 -40.932 45.6315C-41.2402 45.6105 -41.5484 45.5895 -41.8286 45.5965C-41.8637 45.5965 -41.8987 45.5965 -41.9407 45.5965C-42.291 45.5755 -42.5922 45.4844 -42.8374 45.4143C-42.9215 45.3863 -43.0056 45.3583 -43.0966 45.3443C-43.4609 45.3443 -44.0704 45.3303 -44.5257 45.1902L-44.6238 45.1762C-44.939 45.1341 -45.2683 45.0991 -45.5905 45.036C-46.2701 45.1271 -46.9846 45.001 -47.5941 44.6648C-48.0004 44.6367 -48.4137 44.5387 -48.813 44.3635C-49.2894 44.2865 -49.7588 44.1394 -50.2281 43.9152C-51.0127 43.8101 -51.6362 43.5089 -52.1896 43.2427L-52.3227 43.1796C-53.3245 43.0815 -54.2562 42.5912 -54.8447 41.8486C-55.9305 41.5263 -56.7852 40.8258 -57.1494 39.9641C-57.5768 39.5788 -57.92 39.1095 -58.1792 38.535C-58.3824 38.1988 -58.7327 37.5823 -58.7116 36.8467C-59.216 35.859 -59.0409 34.6891 -58.2283 33.7083C-58.2143 32.5735 -57.5137 31.5296 -56.3578 30.9482C-56.0286 30.4508 -55.5452 30.0375 -54.9498 29.7643C-54.5645 29.386 -54.0531 29.1058 -53.4506 28.9447C-53.4226 28.9447 -53.4016 28.9306 -53.3735 28.9306C-53.0023 28.8536 -52.645 28.7625 -52.2947 28.6644C-51.8253 28.5383 -51.342 28.4122 -50.8166 28.3212C-50.5574 28.2651 -50.3122 28.2301 -50.081 28.1951C-49.8008 28.076 -49.4925 28.0059 -49.1703 27.9779C-49.1423 27.9779 -49.1213 27.9779 -49.0932 27.9779C-48.6799 27.9709 -48.2176 27.8798 -47.7342 27.7888C-46.7745 27.6066 -45.7026 27.3965 -44.6098 27.7467C-44.0494 27.6276 -43.4469 27.5296 -42.8094 27.5786C-42.7674 27.5786 -42.7183 27.5856 -42.6763 27.5926C-42.3891 27.6487 -42.1089 27.6627 -41.8286 27.6346C-41.7656 27.6346 -41.7096 27.6276 -41.6465 27.6346C-41.3733 27.6557 -41.1001 27.6417 -40.8269 27.6346C-40.3995 27.6206 -40.0002 27.6066 -39.5659 27.6557C-39.4188 27.6557 -39.1806 27.6417 -38.9354 27.6206C-38.6342 27.5926 -38.2909 27.5646 -37.9196 27.5856C-37.8286 27.5856 -37.7095 27.5506 -37.5764 27.5296C-37.2611 27.4665 -36.8198 27.3755 -36.3224 27.4595L-36.1192 27.4875C-35.9721 27.5086 -35.811 27.5226 -35.6499 27.5576C-34.7042 27.2844 -33.7164 27.2914 -32.8617 27.5716C-31.881 27.4805 -30.9493 27.4805 -30.0946 27.5716C-29.6883 27.5226 -29.289 27.5296 -28.8967 27.5856C-28.3433 27.4805 -27.7548 27.4735 -27.1874 27.5786C-26.2557 27.4315 -25.387 27.4315 -24.6094 27.5786C-24.4483 27.5716 -24.2801 27.5576 -24.119 27.5436C-23.6146 27.5015 -23.0472 27.4595 -22.4447 27.5576C-21.9754 27.5086 -21.4149 27.4805 -20.8265 27.6136C-20.4412 27.5576 -19.9578 27.5296 -19.4604 27.5856C-19.2993 27.5506 -19.1312 27.5156 -18.949 27.4945C-18.6758 27.4665 -18.4236 27.4805 -18.1924 27.5086C-17.7091 27.3965 -17.1907 27.3474 -16.6723 27.3754C-16.4551 27.3965 -16.294 27.4315 -16.1329 27.4665C-16.0558 27.4805 -15.9507 27.5086 -15.9157 27.5086C-15.8737 27.5086 -15.8526 27.5086 -15.8106 27.5015C-15.5794 27.5015 -15.3483 27.4735 -15.1241 27.4525C-14.5987 27.4035 -14.0242 27.3474 -13.4078 27.4525C-12.7983 27.2073 -12.1538 27.1513 -11.6774 27.1513C-11.5583 27.1513 -11.4392 27.1513 -11.3201 27.1653C-11.0049 27.1933 -10.7457 27.2564 -10.5285 27.3264C-10.1643 27.2704 -9.75795 27.2494 -9.3096 27.3334L-9.12746 27.3684C-9.12746 27.3684 -9.11345 27.3684 -9.10645 27.3684C-8.49698 27.2003 -7.88751 27.2213 -7.41114 27.2844C-6.95579 27.2003 -6.50745 27.2283 -6.10814 27.2844C-5.38658 27.1443 -4.44786 27.0952 -3.60721 27.4525C-3.4601 27.4525 -3.31999 27.4525 -3.17287 27.4525C-2.61245 27.4525 -2.05201 27.4525 -1.49158 27.5506C-1.09227 27.5015 -0.727993 27.5366 -0.419754 27.5646C-0.307671 27.5716 -0.18858 27.5856 -0.0764923 27.5926C0.48394 27.5296 1.00935 27.5506 1.51374 27.5786L1.77994 27.5926C2.30534 27.4945 2.88679 27.4665 3.50327 27.4945C3.53129 27.4945 3.55931 27.4945 3.58733 27.4945C3.82552 27.5226 4.04969 27.5296 4.28086 27.5366C4.68017 27.5506 5.12151 27.5646 5.60488 27.6627C5.76601 27.6627 5.94815 27.6346 6.13029 27.6136C6.60666 27.5576 7.16008 27.4945 7.74153 27.5996C7.76255 27.5996 7.77656 27.6066 7.79757 27.6136C8.27394 27.5156 8.7433 27.5366 9.12859 27.5576C9.25469 27.5576 9.37379 27.5716 9.49288 27.5716C9.61898 27.5646 9.74507 27.5436 9.87817 27.5296C10.2425 27.4805 10.6768 27.4245 11.1462 27.4805C11.1602 27.4805 11.1672 27.4735 11.1812 27.4665C11.4474 27.3614 11.8537 27.2003 12.3721 27.2283C12.6663 27.2283 12.9395 27.2774 13.1847 27.3334C13.3458 27.3124 13.542 27.3054 13.7592 27.3334C13.8362 27.3334 13.9133 27.3544 13.9903 27.3614C14.3056 27.2984 14.6138 27.2914 14.901 27.3054C15.2023 27.2423 15.4895 27.2353 15.7277 27.2423C16.2601 27.1022 16.8205 27.1022 17.3319 27.2423C17.43 27.2423 17.5351 27.2283 17.6331 27.2213C18.0184 27.1933 18.4528 27.1653 18.9151 27.2423C19.1954 27.2283 19.4756 27.2283 19.7488 27.2283C20.2672 27.2283 20.7505 27.2283 21.1639 27.1373C21.2339 27.1233 21.311 27.1092 21.381 27.1092C21.5422 27.1092 21.7033 27.1092 21.8644 27.1092C22.0746 27.1092 22.2777 27.1162 22.4108 27.0882C22.4389 27.0812 22.4739 27.0742 22.5089 27.0742C22.7681 27.0392 22.9923 27.0602 23.1534 27.0742C23.1954 27.0742 23.2305 27.0812 23.2725 27.0812C23.3846 27.0672 23.4616 27.0392 23.5387 27.0182C23.7138 26.9691 23.931 26.9061 24.1972 26.8781C24.4004 26.85 24.6035 26.8711 24.7646 26.8781C24.9818 26.815 25.199 26.773 25.4161 26.759C25.7664 26.5908 26.1237 26.5068 26.4319 26.4367C26.523 26.4157 26.6141 26.3947 26.6981 26.3737C26.7402 26.3176 26.7752 26.2756 26.8102 26.2336C26.9013 25.9674 27.0414 25.7082 27.2235 25.47C27.2726 25.0497 27.4407 24.6924 27.5668 24.4192C27.4617 23.9218 27.5248 23.4034 27.7489 22.927C27.5808 22.4577 27.5598 21.9603 27.6929 21.4979C27.6789 21.4559 27.6719 21.4209 27.6579 21.3788C27.6228 21.3228 27.5878 21.2737 27.5598 21.2177C27.2866 21.0846 27.0554 20.9375 26.8522 20.7483C26.6211 20.5382 26.4669 20.314 26.3549 20.0898C26.1867 19.9988 26.0326 19.8937 25.8785 19.7676L25.8365 19.7536C25.5633 19.6555 25.227 19.5294 24.9188 19.3192C24.4914 19.1861 24.1201 19.011 23.7979 18.8359C23.4967 18.8359 23.1534 18.8079 22.8031 18.7028C22.677 18.7308 22.5369 18.7588 22.3898 18.7728C22.0746 18.8008 21.7733 18.7798 21.5141 18.7448C21.0798 18.8499 20.5404 18.976 19.9099 18.9129C19.4546 18.8849 19.0763 18.7238 18.796 18.6047C18.705 18.5627 18.6209 18.5276 18.5509 18.5066C18.5228 18.5136 18.4878 18.5276 18.4528 18.5346C18.2076 18.6117 17.8293 18.7308 17.3599 18.6958L17.0237 18.6818C16.4212 18.6537 15.8468 18.6187 15.3214 18.7028C15.2303 18.7168 15.1392 18.7238 15.0482 18.7168C14.1865 18.6467 13.4089 18.5977 12.6453 18.6888C12.3091 18.7308 11.9798 18.6677 11.6786 18.6187C11.5595 18.6397 11.4334 18.6467 11.3143 18.6607C10.999 18.6888 10.6768 18.5767 10.4456 18.3595L10.3195 18.3105C10.1934 18.2614 10.0533 18.2054 9.96925 18.1914L9.85715 18.1704C9.85715 18.1704 9.80812 18.1634 9.7801 18.1563C9.73807 18.1563 9.66101 18.1423 9.58395 18.1353C9.31774 18.1073 9.07256 17.9882 8.88341 17.7991C8.84838 17.764 8.81335 17.722 8.77833 17.687L8.66624 17.5679C8.66624 17.5679 8.63122 17.5329 8.6172 17.5119C8.56817 17.4908 8.51913 17.4768 8.47009 17.4628L7.63645 17.1966C7.39827 17.1266 7.1811 16.9864 7.03398 16.7903C7.01997 16.7693 6.99896 16.7483 6.97094 16.7272C6.94992 16.7132 6.90088 16.6852 6.77478 16.6292C6.48756 16.5101 6.27039 16.2859 6.15131 16.0057C6.13029 15.9987 6.10928 15.9917 6.08826 15.9917C5.96216 15.9707 5.83607 15.9286 5.71697 15.8726C5.65392 15.8376 5.59788 15.8025 5.53483 15.7675C5.4998 15.7465 5.46478 15.7255 5.43675 15.7045C5.43675 15.7045 5.43675 15.7045 5.42975 15.7045C5.40173 15.6904 5.3667 15.6694 5.33868 15.6484C4.93937 15.3822 4.60311 15.074 4.3229 14.8008C3.21604 14.3734 2.5015 13.4908 2.3824 12.482C1.61882 11.7044 1.37363 10.6746 1.75892 9.7849C1.7309 9.20345 1.77994 8.4889 2.10919 7.80237C1.94807 6.82862 2.48048 5.81985 3.59433 5.07027C3.83252 4.69198 4.16878 4.42578 4.42798 4.21561C4.55407 4.11754 4.68017 4.01246 4.75023 3.9354C4.81327 3.86534 4.88333 3.80229 4.96039 3.75326L5.25462 3.5431C5.83606 3.12978 6.55061 2.61838 7.53838 2.39421C8.08479 2.121 8.69426 1.84779 9.40181 1.7287C9.56994 1.57458 9.7871 1.4765 10.0113 1.44848L10.1023 1.43447C10.2635 1.41346 10.4666 1.38543 10.5157 1.35741C10.5367 1.3434 10.5507 1.32939 10.5717 1.30837C10.7188 1.17527 10.894 1.0842 11.0901 1.03516C11.2722 0.986126 11.4894 0.972116 11.6716 1.00714C11.7486 1.02115 11.8327 1.02115 11.9658 1.00714C12.0569 1.00014 12.1199 0.972116 12.1479 0.958105C12.3231 0.712916 12.5893 0.537781 12.8835 0.488743C12.9115 0.488743 12.9395 0.474733 12.9605 0.467727C13.1707 0.411684 13.3879 0.411684 13.598 0.474733C13.7452 0.502754 13.8362 0.495749 13.9273 0.495749H14.4037C14.4597 0.495749 14.5017 0.495749 14.5508 0.495749L14.894 0.537781C15.0832 0.558797 15.2583 0.579813 15.3634 0.572808L16.7715 0.411684C16.8275 0.411684 16.8836 0.404679 16.9326 0.390668C17.0027 0.376657 17.0797 0.362646 17.1498 0.362646H17.402C17.5351 0.362646 17.6892 0.348635 17.7943 0.320614C17.9694 0.271576 18.1586 0.264571 18.3407 0.299598C18.4878 0.327619 18.5438 0.334625 18.5579 0.334625L19.2304 0.292592C19.3285 0.292592 19.4265 0.292592 19.5176 0.313608L20.078 0.418689C20.2462 0.453716 20.4213 0.460722 20.5894 0.481738L20.8066 0.502754C20.9467 0.516765 21.0308 0.530776 21.1288 0.52377C21.1709 0.52377 21.2199 0.516765 21.269 0.502754L21.8224 0.397673C21.9064 0.383662 22.0465 0.362646 22.1236 0.362646C22.3618 0.362646 22.607 0.369652 22.8452 0.376657C22.9432 0.376657 23.0974 0.348635 23.2445 0.320614L23.5597 0.264571C23.6508 0.25056 23.7419 0.243555 23.8259 0.215533C23.931 0.180506 24.0361 0.15949 24.1482 0.152484C24.2182 0.152484 24.2813 0.138474 24.3373 0.117457C24.3583 0.117457 24.3723 0.103447 24.3934 0.0964412C24.7226 -0.0016343 25.0799 0.0544089 25.3671 0.243555C25.3951 0.264571 25.4582 0.278581 25.5773 0.271576L26.2498 0.229544C26.3058 0.229544 26.3619 0.229544 26.4109 0.222538L27.1465 0.0614143C27.2095 0.0474035 27.2656 0.0403981 27.3286 0.0333927L27.777 0.00537109C27.812 0.00537109 27.847 0.00537109 27.889 0.00537109C28.1833 0.0123765 28.4775 0.0263873 28.7717 0.0474035H28.9188C29.0309 0.0614142 29.136 0.0824304 29.2411 0.124463C29.2691 0.131468 29.2971 0.145479 29.3251 0.152484C29.3532 0.152484 29.4022 0.166495 29.5003 0.152484C29.6754 0.138474 29.8506 0.117457 30.0257 0.103447C30.0677 0.103447 30.1098 0.103447 30.1518 0.103447C30.3479 0.103447 30.5371 0.103447 30.7332 0.0964412C30.8383 0.0964412 30.9294 0.0964412 31.0275 0.124463C31.0765 0.131468 31.2026 0.166495 31.2937 0.166495C31.3497 0.166495 31.4128 0.152484 31.4758 0.145479C31.6089 0.124463 31.749 0.124463 31.8821 0.145479C32.0082 0.166495 32.1273 0.194517 32.2534 0.222538C32.6737 0.194517 33.031 0.194517 33.3813 0.222538C33.5494 0.173501 33.7245 0.131468 33.8927 0.103447C34.2009 0.0474035 34.5162 0.124463 34.7613 0.313608C34.7894 0.327619 34.9225 0.362646 35.0486 0.34163C35.0976 0.334625 35.1326 0.320614 35.1466 0.313608C35.4128 0.201522 35.7071 0.194517 35.9803 0.292592C35.9943 0.292592 36.0083 0.299598 36.0153 0.306603C36.7369 0.292592 37.5005 0.306603 38.257 0.453716L38.4882 0.4327C39.1958 0.355641 40.0084 0.271576 40.821 0.467727C40.87 0.481738 40.9121 0.495749 40.9611 0.509759C41.0662 0.551792 41.2974 0.537781 41.5075 0.537781C41.7597 0.537781 42.0119 0.52377 42.2781 0.551792C42.4813 0.572808 42.7335 0.551792 42.9927 0.544786C43.364 0.52377 43.7773 0.502754 44.2256 0.558797L44.4218 0.586819C44.758 0.628851 45.0803 0.670884 45.3885 0.684894C45.97 0.60083 46.5864 0.642862 47.245 0.803986C47.6653 0.719921 48.0716 0.705911 48.4709 0.754948C49.2065 0.628851 49.921 0.663878 50.6005 0.860029C50.8738 0.846018 51.147 0.846018 51.4132 0.846018C51.8615 0.846018 52.2818 0.846018 52.6812 0.789975C52.7792 0.775964 52.8773 0.775964 52.9754 0.789975C53.3116 0.832008 53.6759 0.846018 54.0612 0.860029C54.4885 0.87404 54.9299 0.888051 55.3852 0.944094C56.0577 0.761954 56.7863 0.747943 57.6129 0.895056C57.8862 0.881045 58.1594 0.895056 58.4326 0.895056C58.7408 0.895056 59.021 0.909067 59.3012 0.895056C59.3783 0.895056 59.4624 0.895056 59.5394 0.895056C59.9948 0.958105 60.296 0.930083 60.8284 0.832008C60.8564 0.832008 60.8845 0.825002 60.9125 0.817997C61.3889 0.768959 61.8302 0.839013 62.2155 0.895056L62.3346 0.909067H62.5027C62.86 0.902062 63.2313 0.895056 63.6236 0.930083C63.9949 0.825002 64.3802 0.740938 64.8075 0.740938C65.2348 0.740938 65.6061 0.825002 65.9424 0.923078L66.0895 0.902062C66.811 0.803986 67.6237 0.684894 68.4783 0.902062C69.1018 0.825002 69.7043 0.846018 70.2857 0.860029H70.4819C71.2665 0.628851 72.1071 0.628851 72.9267 0.860029C73.0108 0.846018 73.1229 0.817997 73.228 0.796981C73.5012 0.726927 73.8304 0.642862 74.2508 0.656873C74.608 0.656873 74.9653 0.726927 75.2805 0.810991C75.3926 0.796981 75.5117 0.78297 75.6238 0.768959C76.0231 0.712916 76.4715 0.656873 76.9478 0.677889C76.9969 0.677889 77.0459 0.684894 77.0949 0.698905C77.3261 0.740938 77.5993 0.726927 77.9216 0.698905C78.0477 0.6919 78.1808 0.684894 78.3069 0.677889C78.6221 0.677889 78.8673 0.698905 79.1125 0.712916C79.5819 0.747943 80.0232 0.775964 80.3875 0.6919C80.4295 0.684894 80.4785 0.670884 80.5206 0.670884L80.7658 0.642862C80.9479 0.621846 81.1301 0.656873 81.2982 0.719921C81.4733 0.789975 81.7395 0.803986 81.9077 0.754948L82.0968 0.698905C82.2579 0.649867 82.4331 0.628851 82.6012 0.656873C82.7763 0.684894 82.9445 0.712916 83.1126 0.754948C83.1406 0.754948 83.1616 0.768959 83.1826 0.775964C83.1896 0.775964 83.2597 0.803986 83.2667 0.803986C83.5259 0.895056 83.722 0.902062 83.8271 0.881045C84.1634 0.803986 84.4996 0.733932 84.8359 0.649867C84.976 0.61484 85.1231 0.607835 85.2702 0.628851L85.4664 0.656873C85.7116 0.698905 85.8727 0.698905 85.9918 0.656873C85.9988 0.656873 86.0128 0.656873 86.0198 0.649867C86.1179 0.61484 86.223 0.593824 86.3281 0.586819H86.3981C86.5452 0.572808 86.6923 0.593824 86.8324 0.642862C86.8675 0.656873 86.9095 0.670884 86.9445 0.677889C87.0496 0.705911 87.2107 0.684894 87.4349 0.649867C87.547 0.628851 87.6521 0.628851 87.7642 0.649867C87.8062 0.649867 87.8552 0.649867 87.9043 0.642862C88.1915 0.586819 88.4857 0.642862 88.7379 0.789975C88.878 0.87404 89.1442 0.930083 89.3754 0.87404L89.9498 0.719921C90.0689 0.6919 90.188 0.677889 90.3071 0.677889L90.5733 0.6919C90.6224 0.6919 90.6644 0.6919 90.7134 0.705911C90.7695 0.712916 90.7905 0.712916 90.8185 0.712916C90.8886 0.712916 90.9516 0.712916 91.0217 0.733932L91.2178 0.768959C91.2178 0.768959 91.2458 0.768959 91.2529 0.768959C91.2529 0.768959 91.2599 0.768959 91.2669 0.768959C91.2669 0.768959 91.2809 0.768959 91.2879 0.768959C91.2879 0.768959 91.3019 0.768959 91.3089 0.768959C91.449 0.796981 91.6031 0.810991 91.7012 0.810991C91.8483 0.803986 91.9884 0.825002 92.1285 0.867035C92.1355 0.867035 92.1496 0.87404 92.1636 0.881045C92.2336 0.902062 92.3597 0.916072 92.5138 0.909067C92.6189 0.902062 92.745 0.867035 92.9201 0.803986C93.0112 0.768959 93.1163 0.747943 93.2144 0.740938L93.4455 0.719921C93.5506 0.705911 93.6557 0.712916 93.7538 0.719921L93.8729 0.740938C94.1741 0.789975 94.4893 0.839013 94.6645 0.796981C94.8466 0.733932 95.0778 0.705911 95.2669 0.740938C95.295 0.740938 95.33 0.754948 95.358 0.761954C95.4491 0.78297 95.5752 0.78297 95.6873 0.761954C95.7713 0.747943 95.8484 0.726927 95.9254 0.705911L96.1286 0.649867C96.3177 0.60083 96.5419 0.586819 96.7241 0.628851C96.7801 0.642862 96.8432 0.656873 96.9062 0.663878C96.9693 0.663878 97.0463 0.663878 97.1164 0.649867H97.2285L97.2985 0.635857C97.4386 0.628851 97.6278 0.61484 97.6838 0.593824C98.1181 0.418689 98.6155 0.530776 98.9378 0.860029C99.239 0.87404 99.5052 0.881045 99.7574 0.87404C99.8695 0.853024 99.9886 0.832008 100.108 0.817997C100.136 0.817997 100.157 0.817997 100.185 0.817997C100.227 0.817997 100.269 0.817997 100.318 0.803986C100.346 0.803986 100.374 0.803986 100.402 0.796981C100.941 0.761954 101.446 0.810991 101.936 0.853024H101.999C102.567 0.839013 103.148 0.817997 103.736 0.923078C104.703 0.649867 105.677 0.740937 106.258 0.846018C106.504 0.846018 106.742 0.846018 106.98 0.846018H107.113C107.449 0.846018 107.779 0.846018 108.115 0.839013C108.171 0.839013 108.227 0.839013 108.283 0.846018C108.962 0.930083 109.642 0.902062 110.378 0.768959C110.427 0.761954 110.483 0.754948 110.532 0.747943C111.54 0.705911 112.374 0.726927 113.145 0.817997C113.936 0.621846 114.987 0.502754 115.975 0.796981C116.879 0.607835 117.803 0.642862 118.609 0.902062C119.057 0.853024 119.485 0.888051 119.877 0.916072C120.57 0.881045 121.229 0.944094 121.754 1.01415C122.987 0.78297 124.304 1.05618 125.215 1.72169C126.742 1.94587 127.891 2.73047 128.283 3.80229C128.346 3.85834 128.43 3.92139 128.487 3.96342C128.669 4.10353 128.872 4.25765 129.054 4.4538C129.523 4.86712 129.747 5.33648 129.923 5.68675C130.021 5.8829 130.091 6.03702 130.189 6.1491C130.217 6.18413 130.245 6.21916 130.273 6.25418C130.511 6.61146 130.553 6.95472 130.581 7.16488C130.847 7.63425 130.896 8.11061 130.889 8.4819C131.142 8.91623 131.261 9.40661 131.226 9.90399C131.191 10.4574 130.973 10.9758 130.602 11.4172C130.483 12.0476 130.182 12.573 129.916 13.0564C129.846 13.1755 129.776 13.3016 129.712 13.4207C129.495 14.1353 129.096 14.6607 128.522 14.9829C128.157 15.5293 127.576 15.9847 126.875 16.2439C126.847 16.2649 126.819 16.2859 126.784 16.3139C126.455 16.5661 126.028 16.8954 125.404 17.0355C125.215 17.1616 125.005 17.2807 124.774 17.3928C124.557 17.5959 124.297 17.764 124.017 17.8761C123.744 18.0583 123.429 18.1774 123.092 18.2264C122.714 18.4015 122.252 18.5136 121.761 18.5136C121.46 18.7028 121.117 18.8219 120.739 18.8639C120.409 18.955 120.045 18.983 119.653 18.948C119.274 18.983 118.938 18.969 118.63 18.8989C118.154 18.962 117.691 18.948 117.278 18.8639C116.886 18.948 116.395 19.011 115.884 18.9269C115.442 18.969 115.036 18.962 114.665 18.9059C114.153 19.039 113.663 19.0881 113.173 19.046L112.998 19.06C112.57 19.1021 112.059 19.1511 111.526 19.06C110.777 19.2632 110.013 19.2352 109.327 19.2142H109.257C108.465 19.4734 107.659 19.5084 106.938 19.3192C106.616 19.4313 106.244 19.5154 105.81 19.5154C105.376 19.5154 104.955 19.4383 104.584 19.3613C103.905 19.4103 103.197 19.4383 102.49 19.3613C101.712 19.6065 100.675 19.6835 99.7644 19.3963C99.3651 19.4453 98.9938 19.4313 98.6786 19.4173C98.4334 19.4103 98.1812 19.3963 97.964 19.4243C97.6978 19.4594 97.4246 19.4383 97.1584 19.4453C96.4368 19.4594 95.6943 19.4804 94.9237 19.3543C94.034 19.6135 93.1233 19.4594 92.4648 19.3122C92.1495 19.4103 91.7853 19.4944 91.3579 19.4944C90.9656 19.4734 90.6504 19.4243 90.3772 19.3753C90.0199 19.3192 89.7187 19.2632 89.4314 19.2912C89.3474 19.2982 89.2703 19.2982 89.1863 19.2912C88.6328 19.2352 88.0234 19.2772 87.4279 19.3122C86.6503 19.3683 85.8447 19.4173 85.0321 19.2912C84.2755 19.5224 83.4418 19.5224 82.6012 19.2912C82.0618 19.3543 81.4593 19.4243 80.8358 19.3683C80.1073 19.4874 79.3857 19.4874 78.6782 19.3683C78.1177 19.4383 77.5783 19.4313 77.102 19.4243C76.7797 19.4243 76.4645 19.4173 76.1422 19.4313C75.0844 19.5854 74.0686 19.4944 73.1159 19.3613C72.1912 19.5014 71.3155 19.4033 70.5449 19.4734C70.4959 19.4734 70.4468 19.4734 70.3908 19.4734C70.0826 19.4594 69.7813 19.4243 69.4801 19.3823C69.1718 19.3403 68.8706 19.3052 68.6114 19.3122C68.5764 19.3122 68.5344 19.3122 68.4923 19.3122C68.2261 19.2912 67.9249 19.3333 67.5956 19.3753C67.3014 19.4103 67.0142 19.4453 66.72 19.4594C66.6849 19.4594 66.6429 19.4594 66.6009 19.4594C66.2506 19.4313 65.9073 19.3893 65.5571 19.3403C64.9826 19.2632 64.4432 19.1931 63.9388 19.2352C61.8582 19.3543 59.8827 19.3473 58.0263 19.2352C57.7951 19.2422 57.5569 19.2702 57.3117 19.2982C56.5761 19.3753 55.7565 19.4594 54.9369 19.2002C54.5446 19.2492 54.1453 19.2912 53.6969 19.2772C53.4237 19.2772 53.1435 19.2632 52.8703 19.2422C52.7232 19.2842 52.5761 19.3192 52.4219 19.3473C52.1067 19.4033 51.7985 19.3192 51.5603 19.1371C51.5112 19.1301 51.4692 19.1161 51.4202 19.1021C51.3922 19.1091 51.3641 19.1161 51.3361 19.1301L51.231 19.1581C51.175 19.1721 51.1119 19.1861 51.0559 19.1861C51.0559 19.1861 51.0349 19.1861 51.0139 19.1861C50.9998 19.1861 50.9858 19.1861 50.9718 19.1861C50.7827 19.2982 50.5795 19.3543 50.3413 19.3473C50.2433 19.3473 50.1522 19.3403 50.0541 19.3333C50.0541 19.3333 50.0471 19.3333 50.0401 19.3403C49.949 19.3823 49.858 19.4173 49.7669 19.4383C49.6828 19.4804 49.5988 19.5154 49.5077 19.5364C49.4937 19.5364 49.4797 19.5434 49.4587 19.5504C49.4446 19.5504 49.4376 19.5504 49.4236 19.5504C49.3256 19.5714 49.2275 19.5784 49.0944 19.5784C49.0103 19.6135 48.9262 19.6415 48.8422 19.6555C48.8142 19.6835 48.7791 19.7045 48.7441 19.7256C48.653 19.7956 48.583 19.8376 48.4849 19.8727C48.4359 19.8937 48.3868 19.9147 48.3378 19.9287C48.2537 19.9707 48.1557 20.0058 48.0576 20.0268C48.0015 20.0548 47.9525 20.0688 47.9105 20.0898C47.8124 20.1319 47.7073 20.1669 47.6092 20.1949C47.5252 20.258 47.4341 20.307 47.336 20.342C47.315 20.349 47.294 20.363 47.273 20.3701C47.245 20.3841 47.2169 20.3981 47.2029 20.4051C47.2029 20.4051 47.1609 20.4331 47.1329 20.4401C47.0348 20.5172 46.9297 20.5732 46.8106 20.6082C46.7896 20.6152 46.7756 20.6222 46.7616 20.6293C46.6565 20.7063 46.5304 20.7554 46.4043 20.7904C46.3413 20.8674 46.2642 20.9445 46.1801 21.0005C46.1241 21.1406 46.04 21.2667 45.935 21.3718C45.8999 21.4209 45.8649 21.4629 45.8299 21.5049C45.8159 21.5189 45.8089 21.5329 45.7948 21.547C45.7878 21.554 45.7808 21.561 45.7668 21.575C45.7528 21.589 45.7388 21.603 45.7178 21.617C45.6758 21.7011 45.6197 21.7851 45.5567 21.8552C45.5567 21.8552 45.5567 21.8622 45.5497 21.8692C45.4796 22.0023 45.3745 22.1284 45.2554 22.2195C45.2414 22.2545 45.2274 22.2965 45.2064 22.3316C45.2064 22.3456 45.1924 22.3596 45.1854 22.3876C45.1644 22.5137 45.1223 22.6398 45.0593 22.7519C45.0593 22.7519 45.0593 22.7589 45.0593 22.7659C45.0593 22.7659 45.0593 22.7799 45.0523 22.7869C45.0173 22.871 44.9682 22.948 44.9122 23.0251C44.8982 23.0601 44.8841 23.0881 44.8701 23.1162C44.8911 23.2072 44.9052 23.3053 44.9052 23.4034C44.9052 23.5015 44.9052 23.5995 44.8841 23.6976C44.9192 23.8237 44.9332 23.9498 44.9262 24.0829C44.9262 24.1039 44.9262 24.132 44.9262 24.146C44.9262 24.188 44.9262 24.223 44.9262 24.258C44.9682 24.3561 44.9962 24.4542 45.0102 24.5593C45.0243 24.6363 45.0313 24.7134 45.0313 24.7905C45.1013 24.8675 45.1573 24.9586 45.1994 25.0497C45.2624 25.1828 45.2975 25.3229 45.3045 25.463C45.3045 25.477 45.3185 25.491 45.3185 25.505C45.4306 25.5891 45.5356 25.6801 45.6197 25.7852C45.6407 25.7992 45.6687 25.8062 45.6898 25.8203C45.8509 25.8693 46.019 25.9534 46.1381 26.0584C46.1311 26.0514 46.1101 26.0304 46.0891 26.0164C46.2292 26.1215 46.3343 26.2476 46.4113 26.3947C46.4253 26.3947 46.4323 26.4087 46.4463 26.4157C46.4674 26.4297 46.4884 26.4437 46.5164 26.4577C46.6285 26.5348 46.7196 26.6259 46.7966 26.731C46.9507 26.766 47.0978 26.829 47.2309 26.9201C47.315 26.9341 47.4061 26.9621 47.4831 27.0042C47.5252 27.0252 47.5672 27.0462 47.6092 27.0672C47.7073 27.0882 47.7984 27.1303 47.8895 27.1793C47.9805 27.1793 48.0786 27.1933 48.1697 27.2143C48.1697 27.2143 48.2327 27.2283 48.2537 27.2353C48.3238 27.2564 48.3938 27.2844 48.4569 27.3124C48.541 27.3124 48.625 27.3194 48.6881 27.3334C48.7021 27.3334 48.7091 27.3334 48.7091 27.3334C48.8072 27.3334 48.9052 27.3474 48.9963 27.3754C49.2065 27.3194 49.4306 27.3124 49.6338 27.3754C49.7809 27.3754 49.935 27.3895 50.0751 27.4455L50.1522 27.4665C50.2082 27.4805 50.2643 27.5015 50.3203 27.5296L50.3694 27.5506C50.4184 27.5506 50.4674 27.5646 50.5165 27.5786L50.5865 27.5646C50.8107 27.5296 51.0979 27.5506 51.3221 27.6487C51.4412 27.6206 51.5673 27.6066 51.6934 27.6136C51.8965 27.5086 52.1417 27.4875 52.3519 27.4945C52.471 27.4945 52.7022 27.5296 52.8143 27.5716L52.8773 27.5926C53.0384 27.5086 53.2276 27.4595 53.4097 27.4595C53.4517 27.4595 53.5288 27.4595 53.5708 27.4665C53.5848 27.4665 53.6479 27.4735 53.6549 27.4735L53.795 27.4945C54.1102 27.5436 54.4185 27.6066 54.7127 27.7257C55.2661 27.7397 55.8546 27.8518 56.366 28.034C57.1926 27.9709 58.0333 28.0199 58.8249 28.097C59.7005 27.9009 60.7233 28.0059 61.564 28.3702C62.0333 28.3282 62.4607 28.3282 62.846 28.3702C63.2803 28.3072 63.7287 28.3352 64.177 28.4613C64.6464 28.6014 65.0947 28.7205 65.5431 28.8396C66.5028 29.0918 67.4906 29.358 68.4013 29.7573C69.1718 29.8554 70.0685 30.1706 70.65 30.7941C71.6167 31.2004 72.016 32.027 72.2682 32.5454L72.3173 32.6505C72.7376 33.239 72.9828 33.9185 73.0318 34.598C73.4311 35.3406 73.4311 36.2022 73.0458 36.9518C73.1789 37.7084 72.9898 38.458 72.5064 39.0675C72.3663 39.9081 71.8479 40.5176 71.4206 41.022C71.3155 41.1411 71.2104 41.2671 71.1053 41.4002C71.0493 41.4703 70.9862 41.5404 70.9092 41.5964C70.7831 41.6945 70.657 41.8066 70.5239 41.9186C70.2086 42.1989 69.8794 42.4791 69.5221 42.6892C68.9967 43.5159 67.9529 43.9642 66.9932 44.0623C66.3627 44.4196 65.6341 44.6297 64.9826 44.8119C64.2401 45.3373 63.2103 45.5615 62.2295 45.4143C61.2908 45.8977 60.247 46.0518 59.3223 45.8347C59.2452 45.8487 59.1681 45.8557 59.0841 45.8697C58.3905 45.9748 57.6129 46.0869 56.8003 45.9608C56.1628 46.1289 55.5183 46.1149 54.9369 46.0658C54.4325 46.1289 53.767 46.1709 53.1015 46.0308C52.548 46.1429 52.0226 46.0869 51.5883 46.0308H51.5603C51.1119 46.0869 50.4184 46.1149 49.7319 45.8907C49.3676 45.9888 49.0033 46.0238 48.7161 46.0308C48.3448 46.1289 47.9805 46.1569 47.6303 46.1149C47.5742 46.1149 47.4971 46.1149 47.4411 46.1009H47.1749C46.9998 46.1639 46.8106 46.1849 46.6215 46.1639H46.5514C46.3973 46.1779 46.2502 46.1639 46.1031 46.1149C45.991 46.1149 45.8719 46.1149 45.7598 46.0799C45.4726 46.1639 45.1573 46.1289 44.8911 45.9818C44.7791 46.0168 44.702 46.0238 44.5759 46.0308C44.5409 46.0308 44.5059 46.0308 44.4708 46.0308C44.3027 46.0939 44.1205 46.1289 43.9384 46.1219C43.7563 46.1499 43.5531 46.1359 43.371 46.0799C43.2519 46.1219 43.1188 46.1359 42.9927 46.1359C42.8876 46.1499 42.7825 46.1499 42.6774 46.1359C42.4393 46.1359 42.2221 46.0588 42.033 45.9187C42.033 45.9187 42.0259 45.9187 42.0189 45.9187L41.9839 45.9327C41.7878 46.0378 41.5566 46.0869 41.3394 46.0588C41.1222 46.0939 40.9051 46.0658 40.7019 45.9888C40.3657 46.1219 39.9804 46.0869 39.6721 45.8977C39.4129 46.0728 39.1257 46.1289 38.8175 46.0588C38.6493 46.1289 38.4812 46.1499 38.2991 46.1359C38.1169 46.1919 37.9138 46.1919 37.7246 46.1499C37.6055 46.1289 37.4864 46.0939 37.3744 46.0378C37.1572 46.1779 36.898 46.248 36.6318 46.22C36.5827 46.22 36.5337 46.22 36.4847 46.206C36.4777 46.206 36.4707 46.22 36.4566 46.22C36.4216 46.248 36.3866 46.276 36.3446 46.304C36.2115 46.3951 36.0223 46.4792 35.8612 46.5072C35.8051 46.5282 35.7421 46.5492 35.6861 46.5632C35.4829 46.7664 35.2167 46.8855 34.9295 46.8995L34.8734 46.9345C34.8734 46.9345 34.8034 46.9765 34.7613 46.9976C34.6493 47.1937 34.4881 47.3478 34.292 47.4529C34.292 47.544 34.271 47.6351 34.25 47.7191C34.1939 47.9853 34.0468 48.2235 33.8296 48.3916C33.7035 48.5177 33.5844 48.5738 33.4163 48.6298C33.3813 48.6438 33.3603 48.6508 33.3392 48.6648C33.3252 48.84 33.2762 49.0151 33.1851 49.1692C33.2061 49.4004 33.1571 49.6316 33.038 49.8347C33.2132 50.115 33.2692 50.4512 33.1781 50.7665C33.3182 50.9976 33.3813 51.2709 33.3392 51.5371C33.4023 51.6211 33.4583 51.7192 33.4934 51.8173C33.8226 51.9924 34.0468 52.3217 34.0958 52.6789C34.1239 52.6929 34.1519 52.707 34.1799 52.728L34.25 52.77C34.32 52.812 34.3901 52.8611 34.4531 52.9171C34.5302 52.9872 34.6002 53.0712 34.6563 53.1553C34.6633 53.1553 34.6703 53.1693 34.6843 53.1763C34.8874 53.3094 35.0416 53.5056 35.1256 53.7368C35.3498 53.8418 35.56 54.031 35.6861 54.2481C35.9172 54.3112 36.1414 54.4513 36.2955 54.6334C36.2745 54.6124 36.3306 54.6334 36.4356 54.6334C36.5477 54.6334 36.6528 54.6615 36.7579 54.6965C36.975 54.7525 37.2062 54.8786 37.3603 55.0468C37.3603 55.0468 37.4234 55.0888 37.5495 55.0958C37.6055 55.0958 37.6546 55.0958 37.7106 55.0888C37.9768 55.0398 38.257 55.0888 38.4882 55.2149C38.6213 55.292 38.7965 55.327 38.9436 55.306C39.1888 55.2779 39.4269 55.2429 39.6581 55.2079L39.9453 55.1448C40.1135 55.1098 40.2816 55.1098 40.4497 55.1448C40.6389 55.1869 40.821 55.2499 41.0032 55.327C41.2343 55.327 41.4375 55.348 41.6196 55.369C41.6827 55.376 41.7457 55.383 41.8088 55.39C42.3202 55.292 42.8596 55.362 43.3149 55.5862C43.5321 55.5862 43.7563 55.6002 43.9945 55.6212C44.674 55.5161 45.3115 55.5792 45.8789 55.6352L46.0891 55.6562C46.6845 55.5441 47.266 55.5441 47.8194 55.5371H47.9875C48.5129 55.397 49.0874 55.341 49.6968 55.383C50.0611 55.383 50.5515 55.404 51.0559 55.5582C51.4762 55.5371 51.9806 55.5301 52.492 55.5932C53.0384 55.5301 53.6269 55.5582 54.2714 55.6913C55.2871 55.4881 56.2889 55.5932 57.1856 55.6913C57.3748 55.7123 57.5639 55.7333 57.753 55.7473C58.4606 55.6142 59.4413 55.5301 60.4011 55.7753C60.6113 55.7823 60.8284 55.7893 61.0456 55.7893C61.522 55.7893 62.0123 55.7963 62.5237 55.8734C63.5115 55.5161 64.8215 55.369 65.9774 55.8454C66.4958 55.8103 66.9862 55.8804 67.3855 55.9575C68.2681 55.8734 69.2559 55.8174 70.2227 55.9785C71.1824 55.6492 72.2892 55.6352 73.6063 55.9505C74.4259 55.8594 75.2315 55.8594 76.0091 55.8524C76.8288 55.7193 77.5923 55.7053 78.3209 55.8103C78.9724 55.7263 79.701 55.6772 80.4225 55.8594C80.7938 55.7823 81.1651 55.7613 81.4873 55.7473C82.4821 55.39 83.694 55.369 84.6678 55.6842C85.5715 55.5371 86.5732 55.418 87.575 55.5441C88.2265 55.39 88.878 55.404 89.4525 55.4321H89.6346C90.16 55.411 90.7485 55.397 91.3509 55.4881C92.6469 55.2289 93.8378 55.6212 94.7486 55.9364C95.7924 56.0625 96.8291 56.3708 97.7679 56.8191C98.1041 56.9172 98.5175 57.0573 98.8957 57.3025C99.8695 57.4846 100.689 58.0521 101.13 58.8507C101.158 58.8787 101.194 58.9137 101.222 58.9418C101.698 59.243 102.034 59.6493 102.188 60.1187C102.539 60.7772 102.581 61.4357 102.609 61.9821C102.763 62.6406 102.728 63.2291 102.504 63.7405C102.539 64.2238 102.412 64.7212 102.118 65.2396C102.048 65.9191 101.67 66.5496 101.032 67.061C100.717 68.0838 99.7854 68.7913 99.0148 69.3798C98.7907 69.5549 98.5665 69.7161 98.3773 69.8842C97.7258 70.5427 96.9132 70.991 96.0165 71.1802C95.337 71.5445 94.6925 71.7266 94.062 71.7406C93.1303 72.266 92.0375 72.4412 91.0567 72.238C90.4052 72.4271 89.6976 72.4341 88.906 72.259C88.6679 72.301 88.4437 72.3221 88.2405 72.3431C88.0444 72.3641 87.8552 72.3781 87.6661 72.4201C87.603 72.4342 87.547 72.4412 87.4839 72.4412L86.9375 72.4692C86.202 72.5112 85.4454 72.5602 84.6538 72.4762C83.8692 72.7564 82.9515 72.7984 81.9077 72.5953C81.074 72.8755 80.1143 72.8965 79.2736 72.6443L79.0495 72.6583C78.2929 72.6933 77.4592 72.7354 76.7167 72.6653C75.876 72.9525 74.8953 72.9736 73.9706 72.7284C73.1159 73.0016 72.1702 73.0226 71.3225 72.7914C70.8041 72.9035 70.3067 72.9385 69.8374 72.8895C69.4871 72.9666 69.1368 72.9946 68.8076 72.9946L68.8426 72.9736ZM67.2243 70.5497C67.2243 70.5497 67.2804 70.5497 67.3084 70.5497C67.5046 70.5637 67.7007 70.5847 67.9039 70.6057C68.5133 70.6688 69.0387 70.7248 69.4871 70.5917C69.6552 70.5427 69.8233 70.5357 69.9915 70.5637C70.3067 70.6198 70.664 70.5847 71.0703 70.4656C71.3085 70.3956 71.5607 70.4096 71.7919 70.4937C72.3033 70.6898 72.9828 70.6618 73.5152 70.4306C73.7884 70.3115 74.0966 70.3045 74.3698 70.4096C74.9513 70.6268 75.6378 70.6268 76.1282 70.4096C76.3244 70.3185 76.5485 70.2905 76.7657 70.3255C77.3541 70.4096 78.2508 70.3676 78.9654 70.3325L79.4137 70.3115C79.5679 70.3115 79.722 70.3325 79.8691 70.3816C80.3034 70.5427 80.9339 70.5217 81.3612 70.3255C81.5994 70.2204 81.8656 70.1924 82.1108 70.2485C82.9375 70.4446 83.5889 70.4376 84.0373 70.2274C84.2404 70.1294 84.4716 70.0943 84.6958 70.1294C85.3683 70.2274 86.0759 70.1854 86.8254 70.1434L87.3088 70.1154C87.547 70.0733 87.7992 70.0453 88.0444 70.0173C88.2826 69.9963 88.4997 69.9753 88.6749 69.9262C88.864 69.8772 89.0672 69.8772 89.2563 69.9262C89.8097 70.0733 90.2511 70.0803 90.5873 69.9262C90.8465 69.8141 91.1408 69.8001 91.407 69.8912C92.0375 70.1013 92.731 69.8562 93.1303 69.576C93.3545 69.4218 93.6277 69.3518 93.8939 69.3798C94.2372 69.4148 94.6014 69.3097 95.0778 69.0365C95.1969 68.9665 95.323 68.9244 95.4561 68.9034C95.9745 68.8194 96.4228 68.5812 96.7871 68.2029C96.8081 68.1819 96.8291 68.1609 96.8502 68.1469C97.0883 67.9297 97.3686 67.7195 97.6558 67.4953C98.1041 67.1521 98.8607 66.5776 98.8817 66.2694C98.9027 65.8911 99.1059 65.5478 99.4352 65.3517C99.7574 65.1555 99.8555 64.9804 99.8625 64.9454C99.8555 64.7562 99.8905 64.5881 99.9676 64.413L100.045 64.2448C100.066 64.2028 100.087 64.1538 100.115 64.1117C100.234 63.9226 100.241 63.8455 100.241 63.8385C100.094 63.4602 100.164 63.096 100.416 62.7807C100.451 62.7387 100.437 62.5846 100.388 62.4024C100.367 62.3184 100.353 62.2343 100.346 62.1502C100.325 61.7089 100.311 61.3516 100.164 61.0994C100.115 61.0224 100.08 60.9383 100.052 60.8472C100.038 60.8332 100.017 60.8192 99.9886 60.8052C99.8695 60.7421 99.7644 60.6581 99.6733 60.56C99.6173 60.497 99.5542 60.4409 99.4912 60.3849C99.3581 60.2728 99.253 60.1257 99.183 59.9645C99.1129 59.8104 98.8677 59.5302 98.3703 59.4882C98.1111 59.4672 97.8729 59.3551 97.6838 59.1799C97.5997 59.1029 97.2355 58.9908 97.0533 58.9418C96.9903 58.9207 96.9272 58.8997 96.8642 58.8717C96.1076 58.4934 95.2529 58.2412 94.3913 58.1501C94.3002 58.1431 94.2161 58.1221 94.1321 58.0941C93.1583 57.7508 92.4228 57.5267 91.7012 57.7158C91.5261 57.7649 91.3439 57.7649 91.1618 57.7298C90.7345 57.6388 90.2441 57.6528 89.7257 57.6668H89.4945C89.4945 57.6668 89.4384 57.6668 89.4104 57.6668C88.9201 57.6388 88.4087 57.6247 88.0164 57.7508C87.8412 57.8069 87.6591 57.8209 87.4769 57.7859C86.6363 57.6388 85.6836 57.7859 84.7799 57.933C84.5557 57.968 84.3315 57.94 84.1284 57.8559C83.603 57.6247 82.7763 57.6388 82.2019 57.8839C82.0758 57.94 81.9427 57.968 81.8026 57.975H81.7185C81.3893 57.989 81.011 58.003 80.7938 58.0801C80.5416 58.1642 80.2754 58.1572 80.0302 58.0661C79.6309 57.919 79.0284 57.982 78.489 58.0521C78.3769 58.0661 78.2578 58.0661 78.1458 58.0521C77.5923 57.961 77.0039 57.968 76.3314 58.0801C76.2683 58.0941 76.1983 58.0661 76.1352 58.0941C75.3506 58.0941 74.5099 58.0941 73.7113 58.1992C73.5642 58.2132 73.4241 58.2062 73.284 58.1712C72.2402 57.905 71.4206 57.898 70.8461 58.1642C70.615 58.2692 70.3488 58.2973 70.1036 58.2342C69.3049 58.0451 68.3732 58.1151 67.4765 58.1992C67.3574 58.2132 67.2384 58.1992 67.1193 58.1782C66.769 58.1011 66.3627 58.0311 66.0054 58.0941C65.7532 58.1361 65.501 58.0941 65.2768 57.975C64.7514 57.6878 63.8898 57.7228 63.1402 58.0591C62.916 58.1572 62.6638 58.1852 62.4186 58.1291C62.0193 58.0381 61.557 58.0311 61.0666 58.0311C60.7724 58.0311 60.4852 58.0311 60.1909 58.01C60.1069 58.01 60.0298 57.989 59.9527 57.968C59.4554 57.8279 58.7969 57.8349 58.0963 57.982C57.9912 58.003 57.8791 58.01 57.7741 58.003C57.5149 57.982 57.2557 57.954 56.9965 57.926C56.1348 57.8349 55.3222 57.7508 54.6076 57.933C54.4255 57.982 54.2363 57.982 54.0472 57.933C53.5218 57.7999 53.1015 57.7719 52.7372 57.8349C52.6181 57.8559 52.499 57.8559 52.3869 57.8349C51.9386 57.7649 51.4482 57.7859 51.0349 57.8139C50.8808 57.8209 50.7266 57.7999 50.5795 57.7508L50.4534 57.7088C50.2503 57.6458 50.0121 57.6317 49.6688 57.6247C49.2135 57.5967 48.8632 57.6317 48.562 57.7298C48.4569 57.7649 48.3448 57.7789 48.2327 57.7859H47.8895C47.3711 57.7859 46.8807 57.7929 46.4534 57.8909C46.3413 57.919 46.2222 57.926 46.1031 57.912L45.7038 57.8699C45.1854 57.8139 44.73 57.7719 44.3237 57.8559C44.2116 57.8769 44.0995 57.8839 43.9874 57.8699C43.6582 57.8349 43.364 57.8279 43.0767 57.8279C42.8105 57.8349 42.5513 57.7438 42.3482 57.5827C42.2431 57.6107 42.082 57.6388 41.9769 57.6388C41.7878 57.6388 41.5916 57.6177 41.4025 57.5967C41.2694 57.5827 41.1152 57.5617 41.0452 57.5757C40.779 57.6247 40.5058 57.5757 40.2746 57.4426C40.2466 57.4286 40.2256 57.4146 40.2045 57.4076H40.1975C40.1975 57.4076 40.1415 57.4216 40.1205 57.4216C39.8543 57.4636 39.5881 57.4986 39.3148 57.5337C38.8035 57.6037 38.2781 57.5337 37.8017 57.3445C37.6826 57.3445 37.5635 57.3445 37.4444 57.3445C36.926 57.3025 36.4496 57.1274 36.0714 56.8541C35.7771 56.8121 35.5039 56.721 35.2657 56.5949C35.1186 56.5179 34.9855 56.4268 34.8664 56.3217C34.4951 56.1676 34.1729 55.9224 33.9417 55.6142C33.8226 55.5371 33.7105 55.4601 33.6125 55.369C33.4303 55.2009 33.2762 55.0117 33.1711 54.8016C33.1011 54.7385 33.038 54.6755 32.975 54.6054C32.7998 54.5003 32.5967 54.3672 32.4215 54.1921C32.2324 53.9959 32.0783 53.7508 31.9802 53.4705C31.7911 53.3024 31.6439 53.1133 31.5319 52.8961C31.5038 52.8401 31.4758 52.784 31.4548 52.728C31.3427 52.5739 31.2306 52.3847 31.1606 52.1605C31.0975 51.9714 31.0765 51.7892 31.0765 51.6211C31.0765 51.6071 31.0625 51.5931 31.0625 51.5861C31.0065 51.467 30.8453 51.1097 30.8734 50.6474C30.8243 50.5563 30.7823 50.4582 30.7543 50.3531C30.5931 49.8558 30.6632 49.3233 30.9294 48.868C30.9504 48.6368 31.0135 48.4127 31.1185 48.2025C31.1816 47.7541 31.4058 47.3338 31.784 46.9836C31.8471 46.9205 31.9101 46.8715 31.9802 46.8154C32.0082 46.5632 32.0923 46.318 32.2464 46.1009C32.4496 45.7996 32.7438 45.5615 33.1011 45.4143C33.1151 45.3933 33.1361 45.3793 33.1501 45.3583C33.3392 45.1762 33.5564 45.0431 33.7736 44.917L33.8576 44.8679C34.0468 44.7488 34.2359 44.6718 34.4251 44.6297C34.6353 44.4756 34.8874 44.3635 35.1606 44.3005C35.1817 44.2935 35.2027 44.2865 35.2237 44.2795C35.595 43.9852 36.0994 43.8241 36.5898 43.8451C36.7229 43.7891 36.863 43.7471 37.0101 43.719C37.3954 43.649 37.7877 43.677 38.1379 43.7961C38.201 43.7961 38.257 43.7891 38.3201 43.7891C38.4672 43.7541 38.6213 43.733 38.7824 43.726V43.7821C38.7824 43.7821 38.8385 43.7611 38.8595 43.7541V43.733C38.8595 43.733 38.9015 43.733 38.9226 43.733C39.0346 43.691 39.1537 43.656 39.2798 43.635C39.6511 43.5579 40.0434 43.5789 40.4077 43.684C40.7089 43.635 41.0242 43.649 41.3184 43.726C41.4025 43.698 41.4865 43.677 41.5706 43.656C42.152 43.5089 42.5864 43.5789 43.0207 43.7681C43.0837 43.7541 43.1468 43.7471 43.2099 43.7401C43.455 43.712 43.6932 43.726 43.9314 43.7821C44.1276 43.726 44.3237 43.705 44.4988 43.705C44.702 43.656 44.9262 43.635 45.1363 43.649C45.3115 43.656 45.4866 43.691 45.6547 43.7401C45.8579 43.726 46.0611 43.7401 46.2572 43.7751C46.4043 43.7751 46.5444 43.7961 46.6775 43.8241C46.6775 43.8241 46.6915 43.8241 46.6985 43.8241C46.8807 43.7751 47.0698 43.7541 47.266 43.7611H47.6162V43.7681C47.6583 43.7681 47.7003 43.7681 47.7493 43.7751C47.8264 43.7751 47.8965 43.7751 47.9665 43.7891C48.0436 43.8031 48.1487 43.7891 48.2747 43.7541C48.3868 43.719 48.5129 43.698 48.632 43.698C48.639 43.698 48.646 43.698 48.653 43.698C48.8912 43.698 49.1084 43.67 49.2625 43.621C49.3536 43.5929 49.4517 43.5719 49.5497 43.5649C49.6268 43.5649 49.6968 43.5509 49.7739 43.5369C50.0051 43.4949 50.2503 43.5369 50.4674 43.635C50.6846 43.7401 51.0489 43.7611 51.4272 43.698C51.5323 43.677 51.6373 43.677 51.7424 43.684L51.9316 43.705C52.2888 43.7471 52.6181 43.7821 52.8283 43.705C53.0594 43.621 53.3186 43.621 53.5498 43.705C53.844 43.8031 54.2714 43.8101 54.8528 43.726C54.9369 43.712 55.028 43.712 55.119 43.726C55.5393 43.7681 56.0718 43.7961 56.429 43.663C56.6392 43.5859 56.8704 43.5719 57.0875 43.621C57.5919 43.7401 58.2084 43.649 58.8529 43.5579C59.021 43.5299 59.1892 43.5089 59.3503 43.4879C59.5184 43.4668 59.6865 43.4879 59.8477 43.5369C60.4081 43.719 61.0666 43.4809 61.5009 43.2006C61.7812 43.0185 62.1314 42.9625 62.4537 43.0605C62.9581 43.2076 63.5535 43.0745 63.7987 42.8644C63.9248 42.7523 64.0719 42.6752 64.233 42.6262L64.4152 42.5772C65.0457 42.395 65.6902 42.2129 66.0965 41.9397C66.2786 41.8206 66.4958 41.7505 66.713 41.7435C67.2103 41.7365 67.6096 41.5193 67.6867 41.4073C67.7988 41.029 68.072 40.7768 68.4503 40.6717C68.5764 40.6227 68.9126 40.3214 69.1158 40.1463C69.2349 40.0412 69.361 39.9361 69.4731 39.838C69.5712 39.719 69.6692 39.6069 69.7603 39.4948C70.1176 39.0745 70.3418 38.8012 70.3347 38.5771C70.3277 38.2408 70.4678 37.9116 70.72 37.6874C70.8391 37.5823 70.9442 37.4422 70.8321 37.176C70.657 36.7627 70.7341 36.2933 71.0283 35.9571C71.1964 35.7679 71.1053 35.6488 71.0633 35.5998C70.9022 35.3896 70.8181 35.1234 70.8321 34.8572C70.8461 34.549 70.7271 34.2057 70.5099 33.9115C70.4678 33.8554 70.4328 33.7994 70.4048 33.7363L70.2927 33.5122C70.0475 33.0078 69.9635 32.9027 69.7743 32.8537C69.4801 32.7766 69.2209 32.5875 69.0668 32.3283C68.9897 32.2302 68.6044 32.027 68.107 31.992C67.9669 31.978 67.8338 31.943 67.7147 31.8869C66.9441 31.5296 66.0264 31.2845 65.0597 31.0253C64.5833 30.8992 64.0999 30.7731 63.6446 30.633C63.4765 30.5839 63.3363 30.5979 63.2523 30.6189C63.1122 30.654 62.9721 30.654 62.832 30.64C62.5027 30.5979 62.0964 30.6049 61.606 30.668C61.3608 30.696 61.1086 30.647 60.8985 30.5279C60.4711 30.2827 59.7986 30.2056 59.3363 30.3387C59.1962 30.3808 59.049 30.3948 58.9019 30.3808C58.1033 30.3037 57.2627 30.2407 56.5061 30.3177C56.45 30.3177 56.401 30.3247 56.345 30.3177L56.2819 29.1618L56.2399 30.3107C56.0928 30.3107 55.9387 30.2757 55.8055 30.2126C55.4623 30.0655 55.0069 29.9745 54.6146 29.9955C54.3975 30.0025 54.1803 29.9534 53.9912 29.8413C53.9491 29.8133 53.8581 29.7923 53.732 29.7643C53.3326 29.9254 52.8703 29.9394 52.443 29.8063C52.2468 29.8694 52.0367 29.9044 51.8265 29.8904C51.4692 29.9744 51.0839 29.9534 50.7477 29.8343C50.5235 29.8484 50.3063 29.8343 50.0962 29.7783C49.949 29.7573 49.8089 29.7223 49.6758 29.6662L49.6058 29.6382C49.6058 29.6382 49.5427 29.6382 49.5077 29.6312C49.5077 29.6312 49.4937 29.6312 49.4867 29.6312C49.1644 29.7012 48.8352 29.6872 48.5269 29.5892C48.4989 29.5892 48.4779 29.5821 48.4569 29.5751C48.3168 29.5751 48.1276 29.5681 47.9175 29.5051C47.8544 29.4841 47.7914 29.4631 47.7353 29.442C47.6513 29.442 47.5742 29.428 47.4971 29.414C47.308 29.379 47.1469 29.3159 46.9928 29.2319C46.9017 29.2039 46.8176 29.1688 46.7266 29.1268C46.5654 29.0918 46.3973 29.0287 46.2362 28.9377C46.2362 28.9377 46.2362 28.9377 46.2292 28.9377C46.1031 28.9096 45.984 28.8746 45.8649 28.8256C45.7878 28.7975 45.6127 28.7345 45.4376 28.5874C45.3815 28.5383 45.2694 28.4473 45.1573 28.3072C45.0312 28.2371 44.9122 28.153 44.8071 28.055C44.723 27.9779 44.653 27.8868 44.5899 27.7958C44.3167 27.6767 44.0855 27.4945 43.9174 27.2704C43.6232 27.0882 43.392 26.808 43.2729 26.4718C43.2449 26.3947 43.2309 26.3246 43.2169 26.2616C43.1748 26.1845 43.1468 26.0935 43.1188 25.9884C43.0207 25.8763 42.9016 25.7222 42.8316 25.505C42.7685 25.3299 42.7475 25.1407 42.7615 24.9586C42.7195 24.8605 42.6844 24.7554 42.6704 24.6293C42.6284 24.3701 42.6774 24.153 42.7055 24.0479C42.6774 23.9498 42.6634 23.8657 42.6634 23.8237C42.6494 23.7256 42.6494 23.6346 42.6564 23.5435C42.5794 23.3473 42.5443 23.1372 42.5584 22.92C42.5794 22.6608 42.6634 22.4156 42.8105 22.2055C42.8456 22.1354 42.8876 22.0654 42.9366 21.9953C42.9717 21.9112 43.0277 21.8272 43.0838 21.7501C43.0978 21.6941 43.1118 21.645 43.1328 21.589C43.1468 21.3578 43.2169 21.1266 43.343 20.9165C43.441 20.7413 43.6021 20.5942 43.7983 20.4821C43.8053 20.4821 43.8123 20.4681 43.8263 20.4611C43.8543 20.4191 43.8894 20.3771 43.9244 20.335C43.9874 20.2299 44.0785 20.0898 44.2116 19.9637C44.2326 19.9427 44.2466 19.9287 44.2677 19.9147C44.2677 19.9147 44.2677 19.9077 44.2747 19.9007C44.3027 19.8376 44.3237 19.7886 44.3447 19.7396C44.4428 19.5294 44.6109 19.3403 44.8211 19.1861C44.8421 19.1581 44.8631 19.1371 44.8771 19.1161C45.1504 18.8078 45.4936 18.6047 45.8719 18.5416C45.9139 18.5206 45.956 18.4926 46.012 18.4646C46.0961 18.4085 46.1801 18.3665 46.2712 18.3315C46.3132 18.3105 46.3553 18.2895 46.3833 18.2824C46.4043 18.2754 46.4183 18.2614 46.4393 18.2544C46.4463 18.2544 46.4604 18.2474 46.4674 18.2404C46.5234 18.2054 46.5654 18.1774 46.6005 18.1634C46.7896 18.0513 46.9858 17.9742 47.1819 17.9322C47.1959 17.9322 47.2099 17.9182 47.2309 17.9112C47.315 17.8691 47.4271 17.8201 47.5602 17.7781C47.6513 17.694 47.7564 17.6239 47.8614 17.5609C48.0506 17.4558 48.2607 17.3928 48.4709 17.3647C48.639 17.2947 48.8422 17.2527 49.0594 17.2456C49.1154 17.2246 49.1785 17.2036 49.2345 17.1896C49.5427 17.0285 49.9 16.9584 50.2433 17.0005C50.4534 16.9164 50.6496 16.8954 50.7897 16.8814C50.8037 16.8814 50.8177 16.8814 50.8247 16.8814H50.8387H50.8527C51.0279 16.8323 51.259 16.7693 51.5603 16.7623C51.5883 16.7623 51.6303 16.7623 51.6654 16.7623C51.7915 16.7623 51.9176 16.7833 52.0367 16.8113C52.2258 16.8183 52.4079 16.8533 52.5761 16.9234C52.6811 16.9024 52.8002 16.8884 52.9053 16.8954C53.2206 16.9164 53.5428 16.9374 53.8651 16.9374C54.2153 16.9444 54.5726 16.9024 54.9579 16.8533L55.077 16.8393C55.2802 16.8183 55.4833 16.8463 55.6724 16.9304C56.0297 17.0915 56.5972 17.0285 57.1996 16.9654C57.5149 16.9304 57.8301 16.9024 58.1383 16.8884C58.1734 16.8884 58.2084 16.8884 58.2434 16.8884C60.0298 17.0005 61.9283 17.0005 63.8968 16.8884C64.6183 16.8183 65.3539 16.9164 65.9984 17.0075C66.2786 17.0425 66.5588 17.0845 66.832 17.1055C67.0282 17.0985 67.2314 17.0705 67.4275 17.0425C67.8198 16.9935 68.2682 16.9304 68.7515 16.9654C69.1578 16.9584 69.5501 17.0145 69.8934 17.0565C70.1036 17.0845 70.3137 17.1125 70.5309 17.1266C71.4416 17.0495 72.2962 17.1546 73.0038 17.0145C73.1299 16.9935 73.256 16.9864 73.3821 17.0075C74.2227 17.1336 75.1194 17.2246 75.9601 17.0985C75.9951 17.0985 76.0231 17.0915 76.0582 17.0845C76.4715 17.0565 76.8708 17.0635 77.2491 17.0705C77.7184 17.0775 78.1948 17.0845 78.6291 17.0145C78.7622 16.9935 78.8953 16.9935 79.0284 17.0145C79.5749 17.1195 80.1213 17.1195 80.6957 17.0145C80.8078 16.9935 80.9269 16.9935 81.039 17.0005C81.4943 17.0565 82.0057 16.9935 82.5522 16.9234L82.6783 16.9094C82.8464 16.8884 83.0215 16.9094 83.1756 16.9584C83.5469 17.0845 84.0933 17.1826 84.6117 16.9724C84.8289 16.8814 85.0671 16.8603 85.2983 16.9094C85.9077 17.0425 86.6223 16.9935 87.3789 16.9444C88.0094 16.9024 88.7169 16.8533 89.4244 16.9164C89.9709 16.8744 90.4402 16.9584 90.8676 17.0285C91.0847 17.0635 91.3019 17.1055 91.5261 17.1125C91.6592 17.1125 91.8483 17.0495 92.1636 16.9444C92.3667 16.8744 92.5839 16.8674 92.794 16.9164C93.4315 17.0705 94.083 17.1966 94.4964 17.0215C94.7135 16.9304 94.9517 16.9094 95.1829 16.9584C95.8134 17.0915 96.4929 17.0775 97.2144 17.0635C97.4316 17.0635 97.6418 17.0565 97.8589 17.0565C98.2372 17.0145 98.5875 17.0285 98.8817 17.0425C99.19 17.0565 99.4772 17.0705 99.7014 17.0145C99.9536 16.9514 100.22 16.9794 100.451 17.0845C100.85 17.2667 101.544 17.2456 102.041 17.0425C102.244 16.9584 102.461 16.9374 102.679 16.9724C103.288 17.0775 103.975 17.0355 104.689 16.9864C104.808 16.9794 104.92 16.9864 105.032 17.0145C105.334 17.0845 105.649 17.1546 105.908 17.1546C106.097 17.1546 106.272 17.0985 106.553 16.9724C106.84 16.8533 107.162 16.8533 107.449 16.9724C107.912 17.1686 108.416 17.0495 108.759 16.9164C108.899 16.8603 109.047 16.8323 109.208 16.8393H109.502C110.132 16.8744 110.728 16.8954 111.155 16.7272C111.393 16.6362 111.653 16.6292 111.898 16.6992C112.136 16.7693 112.493 16.7343 112.872 16.6992L113.18 16.6712C113.257 16.6712 113.327 16.6712 113.404 16.6712C113.691 16.7062 113.992 16.6712 114.336 16.5521C114.539 16.4891 114.749 16.4751 114.959 16.5241C115.127 16.5661 115.421 16.6012 115.912 16.5381C116.052 16.5241 116.192 16.5381 116.325 16.5661C116.535 16.6222 116.851 16.5451 117.068 16.4891C117.285 16.426 117.516 16.433 117.726 16.5031C117.936 16.5731 118.245 16.5731 118.581 16.5101C118.784 16.4751 119.001 16.4891 119.197 16.5661C119.197 16.5661 119.302 16.6082 119.597 16.5661C119.695 16.5521 119.8 16.5521 119.898 16.5661C120.115 16.5941 120.213 16.5661 120.22 16.5661C120.332 16.5241 120.444 16.5031 120.556 16.4961C120.605 16.4961 120.626 16.4821 120.626 16.4821C120.928 16.1038 121.404 15.9777 121.866 16.1388C121.922 16.1388 122.154 16.1038 122.238 16.0477C122.413 15.9426 122.623 15.8726 122.826 15.8726C122.938 15.7815 123.057 15.7325 123.197 15.6834C123.253 15.6624 123.296 15.6274 123.31 15.6134C123.429 15.4733 123.576 15.3682 123.737 15.2981C123.975 15.2001 124.157 15.095 124.29 14.9829C124.472 14.8358 124.69 14.7447 124.928 14.7237C125.068 14.7097 125.194 14.6256 125.474 14.4155C125.565 14.3454 125.663 14.2754 125.754 14.2053C125.845 14.1423 125.951 14.0862 126.063 14.0512C126.448 13.9251 126.672 13.7009 126.721 13.5748C126.847 13.2736 127.099 13.0424 127.408 12.9303C127.492 12.9023 127.541 12.8883 127.604 12.6291C127.625 12.552 127.653 12.475 127.688 12.4049C127.779 12.2158 127.884 12.0336 127.989 11.8515C128.213 11.4452 128.43 11.0669 128.437 10.7867C128.444 10.4644 128.592 10.1562 128.844 9.94603C128.942 9.86196 129.005 9.76389 129.012 9.67982C129.012 9.6588 129.012 9.59576 128.935 9.50469C128.711 9.2595 128.606 8.92324 128.648 8.59398C128.683 8.31377 128.669 8.24372 128.662 8.2297C128.599 8.14564 128.543 8.04756 128.508 7.94949C128.423 7.72532 128.395 7.52916 128.381 7.39606C128.178 7.12285 128.052 6.85665 127.94 6.63247C127.807 6.35926 127.73 6.21215 127.604 6.10707C127.562 6.07204 127.52 6.03001 127.485 5.98798C127.422 5.91792 127.282 5.81284 127.163 5.71477C126.917 5.52562 126.644 5.30845 126.42 5.01423C126.315 4.87412 126.245 4.713 126.21 4.54487C126.175 4.36273 125.635 3.97743 124.725 3.90037C124.465 3.87935 124.22 3.76727 124.031 3.58513C123.695 3.26288 122.896 3.04571 122.14 3.22785C121.993 3.26288 121.845 3.26989 121.698 3.24887C121.201 3.17881 120.612 3.10176 120.01 3.14379C119.954 3.14379 119.891 3.14379 119.835 3.14379C119.436 3.10876 119.078 3.08074 118.805 3.13678C118.574 3.18582 118.336 3.1648 118.119 3.07373C117.614 2.86357 116.935 2.84956 116.297 3.0317C116.031 3.10876 115.751 3.08774 115.499 2.96865C115.036 2.78651 114.35 2.80753 113.6 3.01769C113.446 3.05972 113.292 3.06673 113.131 3.04571C112.458 2.94764 111.709 2.91962 110.777 2.96165C109.887 3.11577 109.012 3.15079 108.164 3.05972C107.835 3.06673 107.505 3.06673 107.176 3.05972H107.043C106.777 3.05972 106.518 3.05972 106.251 3.05972C106.167 3.05972 106.083 3.05972 106.006 3.03871C105.362 2.91261 104.717 2.93363 104.269 3.10176C104.045 3.18582 103.793 3.19983 103.554 3.13678C103.169 3.0317 102.644 3.05272 102.139 3.07373C102.09 3.07373 101.978 3.07373 101.929 3.07373L101.782 3.05972C101.376 3.0247 100.997 2.98266 100.654 3.00368C100.577 3.01069 100.5 3.01769 100.423 3.0247C100.36 3.0317 100.297 3.04571 100.234 3.05972C100.171 3.07373 100.101 3.08774 100.031 3.08774C99.6663 3.10876 99.3301 3.08774 98.9448 3.08074C98.6856 3.07373 98.4684 3.05972 98.2583 3.06673H98.2442C97.999 3.06673 97.7679 2.98967 97.5787 2.85657C97.5577 2.85657 97.5367 2.85657 97.5157 2.85657L97.3616 2.87058C97.1934 2.88459 97.0253 2.89159 96.8572 2.88459C96.7521 2.88459 96.654 2.87058 96.5629 2.85657C96.4228 2.89159 96.2827 2.92662 96.1426 2.95464C95.8344 3.01069 95.5121 3.01769 95.1969 2.97566C94.6084 3.10176 94.062 3.01769 93.6137 2.94764C93.3755 3.0247 93.0813 3.10876 92.738 3.13678C92.5138 3.15079 92.0935 3.1648 91.6592 3.04571C91.421 3.04571 91.2038 3.01069 91.0007 2.97566C90.9726 2.97566 90.9516 2.96865 90.9236 2.96165C90.9236 2.96165 90.9236 2.96165 90.9166 2.96165C90.9096 2.96165 90.8956 2.96165 90.8886 2.96165L90.7625 2.94063C90.6994 2.94063 90.6294 2.94063 90.5663 2.92662C90.5313 2.92662 90.5033 2.91962 90.4753 2.91261H90.4472L90.0269 3.0247C89.3684 3.19283 88.6258 3.13678 88.0023 2.87758C87.9113 2.87758 87.8272 2.87758 87.7361 2.87758C87.3578 2.93363 86.9445 2.95464 86.4892 2.85657C85.9918 2.96865 85.5294 2.92662 85.2072 2.87758C84.934 2.94063 84.6608 3.00368 84.3876 3.05972C83.687 3.21384 83.0145 3.05972 82.5802 2.91261C82.5802 2.91261 82.5802 2.91261 82.5662 2.91261C82.0127 3.06673 81.3823 3.05972 80.8148 2.8986C80.1703 3.0247 79.5609 2.98266 79.0144 2.94764C78.8043 2.93363 78.6011 2.91962 78.3909 2.91962C78.3489 2.91962 78.2368 2.93363 78.1317 2.94063C77.7395 2.96865 77.2981 2.99667 76.8147 2.91962C76.5695 2.91261 76.2893 2.95464 75.9881 2.98967C75.7639 3.01769 75.5468 3.05272 75.3226 3.06673C75.1895 3.08074 75.0564 3.06673 74.9233 3.0247C74.6851 2.95464 74.4259 2.8986 74.2438 2.8986C74.1177 2.8986 73.9776 2.93363 73.8164 2.97566C73.5362 3.04571 73.1789 3.12978 72.7656 3.10876C72.6605 3.10876 72.5555 3.08774 72.4504 3.05272C71.981 2.8986 71.5046 2.8986 71.0773 3.05272C70.9442 3.10176 70.8111 3.12978 70.671 3.12277H70.2647C69.6762 3.09475 69.1228 3.08074 68.6114 3.1648C68.4293 3.19283 68.2331 3.17881 68.058 3.11577C67.6237 2.96865 67.0772 3.04571 66.4397 3.12978L66.0194 3.18582C65.8513 3.20684 65.6902 3.18582 65.529 3.13678C65.2839 3.05972 65.0457 2.98967 64.8425 2.98967C64.6394 2.98967 64.4012 3.05972 64.1069 3.15079C63.9528 3.19983 63.7917 3.21384 63.6306 3.19283C63.3013 3.15079 62.951 3.1578 62.5798 3.1648H62.3136C62.2575 3.1648 62.2015 3.1648 62.1524 3.1648L61.9283 3.13678C61.6621 3.09475 61.4029 3.05972 61.2137 3.07373C60.5622 3.18582 60.0578 3.22785 59.3993 3.15079C59.0701 3.17181 58.7618 3.1648 58.4606 3.15079C58.1664 3.15079 57.9142 3.13678 57.655 3.15079C57.5499 3.15079 57.4518 3.15079 57.3537 3.12978C56.7653 3.01069 56.2889 3.01769 55.8966 3.1578C55.7145 3.22085 55.5113 3.24186 55.3152 3.20684C54.9229 3.13678 54.4885 3.12277 54.0332 3.10876C53.6619 3.09475 53.2766 3.08774 52.8773 3.03871C52.3869 3.09475 51.9176 3.09475 51.4622 3.09475C51.161 3.09475 50.8597 3.09475 50.5585 3.11577C50.4044 3.12978 50.2503 3.10176 50.1032 3.05272C49.6968 2.9056 49.2555 2.89159 48.7791 2.98967C48.625 3.0247 48.4569 3.0247 48.3028 2.98967C48.0926 2.94764 47.8544 2.96165 47.5882 3.03871C47.3781 3.10176 47.1539 3.09475 46.9437 3.03871C46.4744 2.8986 46.054 2.85657 45.7108 2.91962C45.6407 2.93363 45.5707 2.93363 45.4936 2.93363C45.0242 2.93363 44.5899 2.87058 44.1696 2.81453L43.9664 2.78651C43.7282 2.75149 43.455 2.7655 43.1608 2.78651C42.8316 2.80052 42.4673 2.82154 42.082 2.78651C41.9349 2.7725 41.7878 2.77951 41.6406 2.78651C41.2623 2.80052 40.772 2.81453 40.2606 2.6394C39.8402 2.54833 39.3219 2.60437 38.7754 2.66742L38.3411 2.70945C38.222 2.72346 38.1099 2.70945 37.9908 2.68844C37.3183 2.54132 36.5757 2.54132 35.8682 2.56234C35.7701 2.56234 35.679 2.56234 35.588 2.53432C35.5389 2.54833 35.4829 2.55533 35.4269 2.56234C34.9295 2.6394 34.4181 2.58336 33.9767 2.40822C33.7876 2.48528 33.5914 2.5063 33.3883 2.47828C33.08 2.43624 32.7438 2.43624 32.2954 2.47127C32.1834 2.48528 32.0643 2.47127 31.9452 2.45025L31.8471 2.42924C31.7911 2.41523 31.735 2.40122 31.679 2.39421C31.5879 2.40822 31.4968 2.41523 31.4058 2.41523C31.1536 2.42223 30.9154 2.39421 30.7262 2.35218C30.5651 2.35218 30.404 2.35918 30.2359 2.35218C30.0677 2.36619 29.8996 2.38721 29.7315 2.40122C29.3882 2.42924 29.0659 2.40122 28.7647 2.32416C28.7367 2.31715 28.7087 2.31015 28.6807 2.30314C28.4285 2.28913 28.1623 2.27512 27.9031 2.26811L27.5948 2.28913L26.9433 2.43624C26.7332 2.48528 26.523 2.49229 26.3759 2.49929L25.7594 2.53432C25.3531 2.56234 24.9678 2.5063 24.6175 2.37319C24.5685 2.3802 24.5195 2.38721 24.4704 2.39421C24.2813 2.45025 24.1061 2.47828 23.959 2.49929L23.7208 2.54132C23.4827 2.59036 23.2094 2.6464 22.8522 2.6394C22.656 2.6394 22.4459 2.6394 22.2427 2.63239L21.7943 2.71646C21.6823 2.74448 21.5071 2.7725 21.332 2.78651C21.0658 2.80052 20.8416 2.77951 20.6665 2.75849L20.4423 2.73748C20.1971 2.71646 19.9449 2.69544 19.7067 2.6464L19.2724 2.56234L18.74 2.59737C18.5368 2.61138 18.3407 2.59737 18.1656 2.56234C17.9064 2.60437 17.6752 2.61138 17.479 2.61838H17.3599C17.2549 2.6394 17.1498 2.65341 17.0447 2.66042L15.6716 2.82154C15.2863 2.86357 14.9361 2.82154 14.6559 2.78651L14.4037 2.75849H14.0114C13.8853 2.75849 13.7381 2.7655 13.577 2.75849C13.2127 3.0317 12.7504 3.20684 12.232 3.26288C12.0919 3.27689 11.9308 3.2909 11.7486 3.2839C11.7206 3.30491 11.6856 3.31892 11.6505 3.33994C11.4894 3.43101 11.3213 3.49406 11.1672 3.53609C10.943 3.79529 10.6067 3.92839 10.2565 3.92139C9.63299 3.92139 9.03753 4.18759 8.4771 4.47481C8.37202 4.52385 8.26693 4.56588 8.15485 4.57989C7.58741 4.67797 7.13906 5.00022 6.62767 5.3645L6.41051 5.51862C6.23537 5.69375 6.06023 5.83386 5.89911 5.96696C5.78703 6.05803 5.61189 6.19113 5.57686 6.25418C5.48579 6.51338 5.33167 6.68151 5.09349 6.82162C4.5891 7.11585 4.43498 7.37505 4.42097 7.43109C4.62413 7.82339 4.5891 8.24371 4.3229 8.59398C4.12674 8.85318 4.06369 9.25249 4.11974 9.88998C4.14075 10.1492 4.07771 10.4154 3.9306 10.6326C3.9306 10.6606 4.02166 10.8147 4.24583 10.9758C4.61012 11.228 4.79926 11.6764 4.7222 12.1107C4.68718 12.3138 4.93937 12.545 5.32467 12.6641C5.50681 12.7202 5.66793 12.8182 5.80804 12.9513C6.06724 13.2105 6.34045 13.4767 6.62767 13.6729C6.6697 13.6939 6.70473 13.7149 6.74676 13.7429C6.95692 13.792 7.15308 13.869 7.34222 13.9671C7.42629 14.0162 7.51035 14.0652 7.58741 14.1212C7.61543 14.1423 7.65046 14.1633 7.67848 14.1843C7.78356 14.2543 7.86763 14.3384 7.93768 14.4365C8.00073 14.5065 8.06378 14.5836 8.11282 14.6677C8.18987 14.7097 8.26693 14.7587 8.32998 14.8008C8.44207 14.8778 8.54715 14.9619 8.63822 15.053L9.11459 15.2071L8.8694 16.3349L9.20566 15.2351C9.38779 15.2911 9.61197 15.3612 9.83614 15.4943C9.9062 15.5293 9.98325 15.5854 10.0533 15.6414C10.0953 15.6694 10.1304 15.7045 10.1724 15.7325C10.2355 15.7885 10.2845 15.8376 10.3265 15.8796C10.3826 15.8866 10.4386 15.9006 10.4947 15.9076C10.7679 15.9637 11.0201 16.0617 11.2162 16.1388L11.3703 16.1948C11.3703 16.1948 11.3983 16.2018 11.4124 16.2088C11.4684 16.2299 11.5244 16.2579 11.5735 16.2789C11.7066 16.2579 11.8397 16.2579 11.9728 16.2789C12.1549 16.3139 12.3441 16.349 12.5052 16.356C13.4089 16.2509 14.2846 16.2999 15.1673 16.37C15.8888 16.2719 16.5613 16.3069 17.2128 16.342L17.5771 16.363C17.6612 16.37 17.7592 16.3279 17.8363 16.3069C18.0114 16.2509 18.2566 16.1738 18.5509 16.1528C18.6349 16.1528 18.712 16.1528 18.796 16.1528C19.2024 16.2088 19.5106 16.3349 19.7628 16.44C19.9659 16.5241 20.071 16.5661 20.1761 16.5731C20.4703 16.6012 20.7295 16.5381 21.0588 16.454L21.283 16.398C21.4371 16.363 21.5982 16.356 21.7523 16.384C21.9134 16.412 22.0956 16.44 22.2427 16.426C22.3408 16.419 22.4529 16.384 22.593 16.342C22.8802 16.2509 23.1884 16.2789 23.4546 16.412C23.5177 16.447 23.6928 16.4961 24.0921 16.468C24.3233 16.447 24.5545 16.5101 24.7506 16.6292C25.1079 16.8463 25.4231 17.0005 25.7874 17.0915C25.9626 17.1336 26.1307 17.2246 26.2638 17.3437C26.3268 17.3928 26.551 17.4768 26.6981 17.5329L26.9643 17.6309C27.0974 17.68 27.2165 17.757 27.3216 17.8551C27.4407 17.9672 27.5458 18.0303 27.6719 18.0653C28.0292 18.1774 28.3024 18.4576 28.4145 18.8149C28.4565 18.948 28.4775 18.983 28.4845 18.99C28.5195 19.018 28.6036 19.0811 28.8278 19.1511C29.164 19.2632 29.4372 19.5224 29.5563 19.8517C29.5844 19.9287 29.6404 20.0268 29.7315 20.1459C29.8085 20.251 29.8716 20.3771 29.9066 20.5032L29.9486 20.6713C29.9697 20.7483 29.9977 20.8464 30.0117 20.8814C30.1938 21.2457 30.1938 21.7361 29.9697 22.0794C29.9837 22.0724 29.9977 22.1144 30.0467 22.1774C30.425 22.6258 30.397 23.2913 29.9907 23.7116C29.9066 23.7957 29.8856 23.8587 29.8856 23.8728C30.0257 24.153 30.0537 24.4962 29.9486 24.7905C29.8856 24.9586 29.8085 25.1337 29.7315 25.3019C29.6824 25.4139 29.6054 25.5751 29.5844 25.6521C29.6474 26.0374 29.5143 26.4297 29.2201 26.6889C29.101 26.801 29.0589 26.8851 29.0519 26.9061C29.0239 27.0252 28.9819 27.1513 28.9188 27.2564C28.8488 27.3755 28.7577 27.4945 28.6596 27.6136L28.6456 27.6276C28.5406 27.9009 28.3374 28.125 28.0712 28.2581C27.7139 28.4333 27.3496 28.5173 27.0274 28.5944C26.8102 28.6434 26.53 28.7135 26.4389 28.7765C26.2218 28.9236 25.9626 28.9937 25.7104 28.9727C25.6193 28.9727 25.5142 28.9867 25.3881 29.0357C25.255 29.0848 25.1149 29.1128 24.9678 29.1128C24.8487 29.1128 24.7366 29.0988 24.6245 29.0918C24.5825 29.0918 24.5475 29.0778 24.5054 29.0778C24.4004 29.0918 24.3303 29.1198 24.2462 29.1408C24.0921 29.1828 23.903 29.2389 23.6858 29.2669C23.4056 29.3159 23.1534 29.2879 22.9923 29.2669C22.9572 29.2669 22.9292 29.2599 22.8942 29.2599C22.5299 29.33 22.1867 29.3229 21.8924 29.3159C21.8084 29.3159 21.7243 29.3159 21.6402 29.3159C21.0098 29.449 20.4003 29.442 19.8118 29.442C19.5316 29.442 19.2514 29.442 18.9782 29.4561C18.8731 29.4561 18.768 29.4561 18.6699 29.435C18.4598 29.393 18.1726 29.414 17.8643 29.435C17.6612 29.449 17.451 29.4631 17.2479 29.4631C17.1007 29.4631 16.9676 29.435 16.8345 29.386C16.7014 29.337 16.4913 29.344 16.3231 29.4C16.162 29.4561 15.9939 29.4771 15.8258 29.4631C15.5876 29.442 15.4755 29.4561 15.4265 29.4701C15.2934 29.5121 15.1532 29.5261 15.0201 29.5191C14.9151 29.5191 14.5998 29.4981 14.5087 29.5331C14.2916 29.6102 14.0464 29.6312 13.8292 29.5751C13.7592 29.5541 13.6821 29.5401 13.6121 29.5331C13.563 29.5331 13.507 29.5331 13.4229 29.5471C13.2548 29.5821 13.0796 29.5751 12.9185 29.5331C12.7154 29.4841 12.4982 29.4561 12.3161 29.442C12.288 29.442 12.1759 29.4911 12.0919 29.5191C11.9167 29.5892 11.7416 29.6522 11.5525 29.6942C11.3703 29.7363 11.1812 29.7363 11.006 29.6872C10.8379 29.6452 10.5577 29.6872 10.2565 29.7223C10.0603 29.7503 9.87117 29.7713 9.68202 29.7853C9.654 29.7853 9.61897 29.7853 9.60497 29.7853C9.43684 29.7853 9.2617 29.7783 9.08656 29.7643C8.77132 29.7503 8.44907 29.7293 8.27394 29.7923C8.07779 29.8624 7.86062 29.8764 7.65746 29.8343C7.53838 29.8133 7.4473 29.7923 7.35623 29.7713C7.11105 29.7433 6.80981 29.7713 6.49458 29.8133C6.18633 29.8484 5.87809 29.8834 5.54884 29.8764C5.46478 29.8764 5.37371 29.8624 5.28964 29.8413C4.98141 29.7643 4.65916 29.7573 4.28787 29.7433C4.00766 29.7363 3.72043 29.7223 3.43321 29.6942C2.96385 29.6732 2.53652 29.7012 2.17224 29.7783C2.08117 29.7993 1.9901 29.8063 1.89903 29.7993L1.4717 29.7783C1.02335 29.7573 0.596027 29.7363 0.210732 29.7853C0.15469 29.7923 0.0986404 29.7923 0.0425987 29.7993C-0.153553 29.7993 -0.356709 29.7783 -0.55286 29.7643C-0.819065 29.7433 -1.04323 29.7223 -1.21136 29.7503C-1.37249 29.7853 -1.53361 29.7783 -1.69474 29.7503C-2.08704 29.6592 -2.54239 29.6662 -3.02576 29.6662H-3.09582C-3.34801 29.6662 -3.61422 29.6662 -3.87342 29.6522C-4.04855 29.6452 -4.21668 29.5962 -4.36379 29.5121C-4.637 29.358 -5.1554 29.351 -5.74385 29.4841C-5.88396 29.5191 -6.03808 29.5191 -6.17819 29.4981C-6.4444 29.4561 -6.78065 29.414 -6.99782 29.4701C-7.14494 29.5121 -7.30606 29.5191 -7.46018 29.4981C-7.94355 29.428 -8.28681 29.435 -8.49697 29.5261C-8.72115 29.6242 -8.98035 29.6452 -9.22554 29.5892C-9.3026 29.5681 -9.37966 29.5541 -9.46372 29.5401L-9.67388 29.4981C-9.84902 29.4701 -10.0592 29.4911 -10.3324 29.5471C-10.5426 29.5892 -10.7597 29.5681 -10.9629 29.4911C-11.131 29.428 -11.2711 29.386 -11.4182 29.365C-11.4462 29.365 -11.5233 29.365 -11.6074 29.365C-12.0417 29.365 -12.406 29.435 -12.6091 29.5611C-12.8894 29.7293 -13.2256 29.7713 -13.5339 29.6732C-13.8911 29.5681 -14.3325 29.6032 -14.8369 29.6522C-15.1031 29.6802 -15.3693 29.7012 -15.6425 29.7082C-16.0138 29.7433 -16.329 29.6732 -16.5602 29.6242C-16.6302 29.6102 -16.7003 29.5892 -16.7703 29.5821C-17.0716 29.5681 -17.4289 29.6032 -17.7371 29.6942C-17.8982 29.7433 -18.0593 29.7503 -18.2275 29.7293C-18.3816 29.7082 -18.5357 29.6872 -18.6618 29.7012C-18.7599 29.7082 -18.893 29.7433 -19.0331 29.7853C-19.2012 29.8343 -19.3834 29.8413 -19.5585 29.8063C-19.8387 29.7503 -20.21 29.7643 -20.6093 29.8343C-20.7914 29.8694 -20.9806 29.8554 -21.1557 29.7993C-21.4289 29.7153 -21.7582 29.7082 -22.2696 29.7713C-22.4027 29.7923 -22.5288 29.7853 -22.6619 29.7573C-23.0122 29.6802 -23.4115 29.7153 -23.8738 29.7503C-24.119 29.7713 -24.3572 29.7853 -24.6024 29.7923C-24.6864 29.7923 -24.7775 29.7923 -24.8616 29.7713C-25.45 29.6522 -26.1506 29.6592 -26.9422 29.7993C-27.0893 29.8273 -27.2504 29.8203 -27.3975 29.7853C-27.7758 29.7012 -28.1681 29.7012 -28.5184 29.7853C-28.6935 29.8273 -28.8687 29.8343 -29.0438 29.7923C-29.296 29.7363 -29.5552 29.7363 -29.8354 29.7783C-29.9405 29.7923 -30.0456 29.7993 -30.1507 29.7783C-30.9563 29.6802 -31.853 29.6802 -32.8197 29.7853C-33.0159 29.8063 -33.212 29.7783 -33.3941 29.7012C-33.8705 29.4981 -34.536 29.5121 -35.1385 29.7293C-35.3697 29.8133 -35.6219 29.8203 -35.8601 29.7503C-35.9791 29.7153 -36.1543 29.6942 -36.3434 29.6662L-36.6166 29.6312C-36.7147 29.6172 -36.8898 29.6522 -37.058 29.6802C-37.2751 29.7223 -37.5413 29.7783 -37.8426 29.7853C-37.8776 29.7853 -37.9056 29.7853 -37.9407 29.7853C-38.1648 29.7713 -38.41 29.7853 -38.6762 29.8133C-38.9774 29.8413 -39.3137 29.8624 -39.671 29.8484C-40.0213 29.8133 -40.3295 29.8273 -40.6587 29.8343C-40.953 29.8413 -41.2892 29.8554 -41.6395 29.8343C-42.0808 29.8694 -42.5222 29.8484 -42.9705 29.7713C-43.4049 29.7573 -43.9022 29.8624 -44.3856 29.9674C-44.6238 30.0165 -44.883 29.9955 -45.1072 29.8974C-45.6676 29.6522 -46.4032 29.7923 -47.2438 29.9534C-47.7902 30.0585 -48.3507 30.1636 -48.9461 30.1846C-49.0582 30.1986 -49.1353 30.2266 -49.1843 30.2477C-49.3104 30.3177 -49.4505 30.3527 -49.5976 30.3738C-49.8498 30.4018 -50.095 30.4438 -50.3472 30.4928C-50.8026 30.5699 -51.2159 30.682 -51.6572 30.8011C-52.0495 30.9062 -52.4348 31.0112 -52.8411 31.0953C-53.0583 31.1584 -53.2404 31.2564 -53.3245 31.3615C-53.4506 31.5226 -53.6257 31.6487 -53.8149 31.7188C-54.1511 31.8449 -54.3683 32.0621 -54.4384 32.2232C-54.5645 32.5104 -54.7956 32.7346 -55.0899 32.8467C-55.6433 33.0568 -55.9515 33.4281 -55.8675 33.7924C-55.7764 34.1917 -55.9095 34.612 -56.2107 34.8922C-56.4419 35.1024 -56.7922 35.5087 -56.561 35.8099C-56.3298 36.1042 -56.2598 36.4895 -56.3648 36.8467C-56.3578 36.8958 -56.3158 37.0219 -56.1337 37.3301C-56.1056 37.3792 -56.0776 37.4212 -56.0566 37.4772C-55.8955 37.8485 -55.7133 38.0867 -55.4471 38.2828C-55.216 38.451 -55.0548 38.7032 -54.9988 38.9834C-54.9638 39.1515 -54.5645 39.5228 -53.9059 39.6419C-53.5627 39.7049 -53.2615 39.9151 -53.0933 40.2233C-52.9392 40.5106 -52.5189 40.8188 -51.9655 40.8328C-51.8113 40.8328 -51.6572 40.8748 -51.5171 40.9379L-51.1598 41.106C-50.6624 41.3442 -50.2351 41.5474 -49.7588 41.5894C-49.6046 41.6034 -49.4505 41.6454 -49.3104 41.7225C-48.9671 41.9046 -48.6449 42.0097 -48.3226 42.0447C-48.1895 42.0588 -48.0634 42.1008 -47.9374 42.1568C-47.7832 42.2339 -47.545 42.325 -47.2788 42.311C-47.0196 42.2969 -46.7604 42.374 -46.5503 42.5281C-46.3822 42.6472 -46.0669 42.7523 -45.7937 42.6892C-45.6256 42.6472 -45.4434 42.6472 -45.2753 42.6892C-44.9881 42.7523 -44.6378 42.8013 -44.3016 42.8434L-44.0844 42.8714C-43.9933 42.8854 -43.8952 42.9064 -43.8112 42.9414C-43.6711 42.9695 -43.2858 42.9905 -42.9915 42.9905C-42.9285 42.9905 -42.8584 42.9905 -42.7954 43.0045C-42.5502 43.0395 -42.333 43.1026 -42.1509 43.1586C-42.0178 43.2006 -41.8987 43.2357 -41.8076 43.2497C-41.4293 43.2427 -41.0651 43.2637 -40.7428 43.2917C-40.2454 43.3267 -39.8251 43.3618 -39.4538 43.2707C-39.3347 43.2427 -39.2156 43.2357 -39.0965 43.2497C-38.9144 43.2637 -38.7323 43.2917 -38.5431 43.3127C-37.9196 43.3898 -37.3312 43.4598 -36.9109 43.2917C-36.6937 43.2076 -36.4485 43.1866 -36.2173 43.2427C-36.0282 43.2917 -35.769 43.2497 -35.4677 43.2076C-35.2436 43.1726 -35.0194 43.1446 -34.7952 43.1306C-34.6761 43.1306 -34.557 43.1306 -34.438 43.1656C-34.0667 43.2637 -33.5273 43.3828 -33.0579 43.3197C-32.2873 43.2427 -31.5727 43.2497 -30.8792 43.2637C-30.571 43.2637 -30.2697 43.2777 -29.9685 43.2707L-29.7023 43.2427C-29.261 43.1866 -28.9177 43.1446 -28.2802 43.2146C-28.1051 43.2146 -27.9229 43.2287 -27.7478 43.2357C-27.3135 43.2637 -26.9912 43.2847 -26.753 43.2006C-26.5919 43.1446 -26.4168 43.1236 -26.2416 43.1446C-25.8143 43.1936 -25.443 43.1936 -25.1138 43.1446C-24.8896 43.1096 -24.6514 43.1446 -24.4413 43.2357C-23.9229 43.4738 -23.1102 43.5019 -22.6269 43.2847C-22.4447 43.2076 -22.2556 43.1726 -22.0594 43.1936C-21.1627 43.2777 -20.217 43.3477 -19.3974 43.1936C-19.1732 43.1516 -18.942 43.1796 -18.7319 43.2707C-18.3466 43.4388 -18.0313 43.5019 -17.7651 43.4738C-17.7371 43.4738 -17.7161 43.4738 -17.6881 43.4738C-17.576 43.4738 -17.4148 43.4248 -17.2467 43.3828C-16.9455 43.3057 -16.5672 43.2146 -16.1259 43.2287C-16.0908 43.2287 -16.0558 43.2287 -16.0138 43.2357C-15.6985 43.2777 -15.3483 43.2707 -14.984 43.2707C-14.7108 43.2707 -14.4586 43.2707 -14.2134 43.2707C-14.1643 43.2707 -14.1083 43.2707 -14.0593 43.2847C-13.5058 43.3758 -13.1205 43.3828 -12.8053 43.2917C-12.6652 43.2497 -12.5111 43.2427 -12.371 43.2567C-12.1258 43.2847 -11.8806 43.2777 -11.6354 43.2357C-11.5163 43.2146 -11.3902 43.2146 -11.2711 43.2357C-10.8648 43.2987 -10.3674 43.2707 -9.94009 43.1656C-9.79298 43.1306 -9.63885 43.1236 -9.49174 43.1446C-9.03639 43.2146 -8.63708 43.2287 -8.30082 43.1866C-8.16072 43.1726 -8.0136 43.1796 -7.8805 43.2076C-7.17996 43.3758 -6.40236 43.2357 -5.65279 43.0956C-5.60375 43.0886 -5.55471 43.0815 -5.51268 43.0815C-4.8892 43.0465 -4.29374 43.0956 -3.76833 43.1306C-3.39705 43.1586 -3.06779 43.1796 -2.74554 43.1866C-2.31121 43.1096 -1.9049 43.1096 -1.56163 43.1096C-1.26741 43.1096 -0.994202 43.1096 -0.784039 43.0675C-0.608906 43.0325 -0.426762 43.0395 -0.251629 43.0885C0.399876 43.2707 0.883247 43.3057 1.22651 43.2006C1.35962 43.1586 1.49973 43.1446 1.63983 43.1516L1.94107 43.1726C2.33337 43.2006 2.70465 43.2216 3.04791 43.2006C3.13198 43.2006 3.20904 43.2006 3.2861 43.2076C3.51027 43.2427 3.77648 43.2287 4.0637 43.2076C4.51204 43.1866 5.00942 43.1586 5.54884 43.2777C6.0182 43.3758 6.57864 43.3267 7.15308 43.2637C7.23714 43.2567 7.32121 43.2567 7.40527 43.2637C7.89565 43.3197 8.44907 43.2987 9.14961 43.2006C9.31074 43.1796 9.47186 43.1936 9.61898 43.2357C9.67502 43.2497 9.73807 43.2637 9.79411 43.2777C9.86417 43.2917 9.92722 43.3057 9.99727 43.3267C10.0813 43.3548 10.1794 43.3758 10.2915 43.3898C10.4176 43.4038 10.5437 43.4318 10.6628 43.4879C10.943 43.614 11.3773 43.649 11.6856 43.663C11.7136 43.663 11.7346 43.663 11.7626 43.663C12.0849 43.698 12.3791 43.7751 12.6733 43.8521C12.9816 43.9292 13.2758 44.0063 13.514 44.0133C13.8082 44.0133 14.0884 44.1324 14.2986 44.3425C14.3756 44.4126 14.7119 44.5036 14.9151 44.5527C15.1953 44.6297 15.5105 44.7138 15.8258 44.8539C15.8888 44.8819 15.9448 44.917 16.0009 44.952C16.0639 44.987 16.141 45.008 16.2181 45.036C16.4632 45.1271 16.7995 45.2462 17.1007 45.5054C17.1428 45.5404 17.1848 45.5825 17.2198 45.6245C17.2759 45.6315 17.3319 45.6385 17.395 45.6525C17.6051 45.6946 17.8153 45.7646 18.0114 45.8697C18.3967 45.9047 18.761 46.0098 19.0763 46.1919C19.4195 46.3951 19.6997 46.6753 19.8749 46.9976C20.2111 47.2918 20.4353 47.6701 20.4984 48.0904C20.5544 48.4757 20.4773 48.861 20.2812 49.2043C20.2952 49.2463 20.3092 49.2953 20.3162 49.3514C20.3372 49.4494 20.3442 49.5475 20.3372 49.6526C20.3302 49.8137 20.3442 49.9749 20.3582 50.136C20.3723 50.2971 20.3793 50.4582 20.3863 50.6123C20.3863 50.8435 20.3302 51.0677 20.2041 51.2638C20.3302 51.6561 20.2392 52.0835 19.9589 52.3917C19.9659 52.6439 19.8959 52.8891 19.7418 53.0993C19.6227 53.2674 19.4756 53.4355 19.3285 53.5966C19.2304 53.7087 19.0763 53.8699 19.0482 53.9399C18.9782 54.1501 18.8451 54.3322 18.6629 54.4723C18.5789 54.5354 18.5018 54.6194 18.4458 54.7105C18.3477 54.8716 18.2146 55.0047 18.0535 55.0958C18.0395 55.1028 18.0325 55.1098 18.0325 55.1098C17.8713 55.348 17.6261 55.5231 17.3459 55.5862C17.2689 55.6072 17.2128 55.6282 17.1778 55.6492C17.0587 55.9505 16.8135 56.1956 16.4983 56.3077C16.4142 56.3358 16.3161 56.4058 16.19 56.4899C16.0569 56.5809 15.9238 56.665 15.7767 56.7491C15.6576 56.8121 15.5315 56.8541 15.3914 56.8752C15.3564 56.8752 15.3144 56.8892 15.2793 56.9032C15.2513 56.9102 15.2443 56.9102 15.2443 56.9032C15.0482 57.0993 14.782 57.2184 14.4947 57.2324C14.3546 57.2394 14.1935 57.3025 14.0674 57.4006C13.9203 57.5127 13.7522 57.5967 13.57 57.6317L13.3529 57.6738C13.2268 57.6948 13.0937 57.7158 12.9746 57.7508C12.8835 57.7789 12.7854 57.7929 12.6873 57.7929C12.5752 57.7929 12.4702 57.8069 12.3581 57.8279C12.218 57.8559 12.0779 57.8559 11.9378 57.8349C11.2232 57.7158 10.5577 57.7018 9.9062 57.7929C9.82213 57.8069 9.73807 57.8069 9.647 57.7929C9.1286 57.7438 8.58919 57.7789 8.02175 57.8139C7.53137 57.8419 6.97094 57.8769 6.38949 57.8559C5.92013 57.8769 5.48579 57.8489 5.05846 57.8139C4.42097 57.7649 3.88156 57.7228 3.43321 57.8699C3.29311 57.919 3.14599 57.933 3.00588 57.926C2.74668 57.912 2.49449 57.898 2.23529 57.8839C2.03914 57.8769 1.84299 57.94 1.63983 58.01C1.45069 58.0731 1.25454 58.0941 1.05838 58.0591C0.48394 57.954 -0.153553 57.989 -0.826069 58.0311L-1.28842 58.0521C-1.35147 58.0521 -1.40752 58.0521 -1.47057 58.0521C-2.15009 57.975 -2.85063 58.0381 -3.50213 58.2342C-3.73331 58.3043 -3.9785 58.2973 -4.20267 58.2202C-5.04332 57.933 -5.86995 58.0871 -6.92076 58.2903L-7.10991 58.3253C-7.15895 58.3323 -7.20098 58.3393 -7.25002 58.3463C-7.63531 58.3743 -7.99259 58.3253 -8.30082 58.2833C-8.525 58.2552 -8.73516 58.2202 -8.88227 58.2272C-9.52677 58.2272 -10.0942 58.3533 -10.5496 58.5775C-10.7247 58.6615 -10.9278 58.7036 -11.11 58.6966C-12.8053 58.6265 -13.9892 58.7316 -14.6337 59.0048C-14.7248 59.0398 -14.8158 59.0679 -14.9069 59.0819C-15.054 59.1029 -15.1661 59.1309 -15.2432 59.1589C-15.4743 59.25 -15.7336 59.264 -15.9717 59.194C-16.8474 58.9418 -17.9262 59.243 -18.2345 59.6563C-18.4026 59.8875 -18.6548 60.0486 -18.935 60.0976C-19.3974 60.1887 -19.8107 60.4129 -20.238 60.7912C-20.3081 60.8542 -20.3781 60.9033 -20.4622 60.9523C-20.7634 61.1204 -20.9806 61.3236 -21.0787 61.5478C-21.1978 61.821 -21.4149 62.0381 -21.6881 62.1502C-22.2346 62.3814 -22.5428 62.7667 -22.4657 62.9629C-22.2836 63.3972 -22.3887 63.9016 -22.7319 64.2308C-22.837 64.3359 -22.851 64.413 -22.851 64.476C-22.851 64.5951 -22.774 64.7983 -22.5638 64.9804C-22.3396 65.1836 -22.1995 65.4638 -22.1785 65.765C-22.1575 66.1573 -21.9053 66.7458 -21.2888 67.1171C-21.0016 67.2922 -20.8055 67.5794 -20.7564 67.9087C-20.7354 68.0348 -20.4762 68.357 -19.6566 68.6723C-19.6145 68.6863 -19.5725 68.7073 -19.5375 68.7283C-19.0121 69.0085 -18.1154 69.2537 -17.4218 69.1977C-17.1767 69.1766 -16.9315 69.2397 -16.7213 69.3658C-16.6653 69.4008 -16.5182 69.4709 -16.2519 69.4919C-16.1679 69.4989 -16.0838 69.5199 -16.0068 69.5409C-15.8807 69.5059 -15.7616 69.4849 -15.6355 69.4639C-15.5444 69.4499 -15.4533 69.4499 -15.3693 69.4639C-15.3272 69.4639 -15.2852 69.4639 -15.2362 69.4569L-15.0961 69.4428C-15.047 69.4428 -14.998 69.4428 -14.956 69.4428C-14.4796 69.4709 -14.0452 69.604 -13.6529 69.8211L-13.5759 69.8632H-13.4918C-13.3167 69.8422 -13.1345 69.8281 -12.9594 69.8351C-12.8263 69.8351 -12.6862 69.8562 -12.5391 69.8842L-12.0347 69.9963L-11.7615 69.9122C-11.6494 69.8772 -11.5443 69.8492 -11.4462 69.8211C-11.2151 69.7651 -10.9699 69.7861 -10.7457 69.8772C-10.3114 70.0523 -9.78597 70.0733 -9.37966 69.9332C-9.23955 69.8842 -9.08543 69.8632 -8.93832 69.8772C-8.72816 69.8912 -8.51799 69.8702 -8.34286 69.8141C-8.19574 69.7651 -8.03462 69.7511 -7.8805 69.7651C-7.58628 69.7931 -7.29205 69.8351 -6.99081 69.8772C-6.1922 69.9893 -5.43562 70.0943 -4.7561 69.9682C-4.58096 69.9402 -4.39882 69.9472 -4.22369 70.0033C-3.70528 70.1574 -3.11683 70.3255 -2.57742 70.2765C-2.43731 70.2695 -2.30421 70.2345 -2.14308 70.1924C-1.93993 70.1434 -1.70174 70.0803 -1.42854 70.0593C-1.34447 70.0523 -1.26741 70.0593 -1.18335 70.0593C-0.61591 70.1294 -0.0274544 70.1364 0.596024 70.1364H1.07239C1.13544 70.1364 1.20549 70.1504 1.26854 70.1574C1.67485 70.2345 2.1232 70.2345 2.51551 70.1574C2.64161 70.1294 2.78171 70.1294 2.91481 70.1504C3.51027 70.2415 4.03568 70.2204 4.43498 70.0803C4.66616 70.0033 4.91135 69.9963 5.14953 70.0663C5.52082 70.1784 5.99718 70.2134 6.41751 70.1434C6.64869 70.1084 6.87987 70.1434 7.09003 70.2415C7.5664 70.4726 8.34399 70.4376 8.98148 70.1644C9.16363 70.0873 9.35977 70.0593 9.54892 70.0733L9.86417 70.1084C10.6418 70.1924 11.3703 70.2695 11.9868 70.1084C12.1199 70.0733 12.26 70.0593 12.4001 70.0803L12.6873 70.1154C13.0586 70.1574 13.3739 70.1994 13.6471 70.1504C13.7241 70.1364 13.8012 70.1294 13.8853 70.1364H14.0394C14.4107 70.1644 14.7329 70.1784 15.0201 70.1364C15.2093 70.1013 15.4054 70.1224 15.5876 70.1854C16.092 70.3605 16.7575 70.3465 17.451 70.1434C17.5841 70.1084 17.7242 70.0873 17.8573 70.1014C18.3827 70.1434 19.0062 70.1784 19.6297 70.1294C19.7138 70.1294 19.7978 70.1294 19.8749 70.1294C20.4213 70.2064 21.0027 70.1784 21.6262 70.1574C22.0606 70.1434 22.5019 70.1224 22.9432 70.1364C23.0133 70.1364 23.0833 70.1504 23.1534 70.1644C23.8259 70.3115 24.4634 70.2905 24.9468 70.1084C25.1429 70.0313 25.3531 70.0173 25.5633 70.0523C25.9626 70.1294 26.2848 70.1294 26.537 70.0523C26.7892 69.9823 27.0624 69.9963 27.3006 70.0943C27.798 70.3045 28.1763 70.3816 28.5405 70.3465C28.7577 70.3255 28.9889 70.2555 29.2761 70.1154C29.4933 70.0173 29.7315 69.9823 29.9626 70.0243C30.2639 70.0803 30.6352 70.0593 31.0275 70.0453C31.0975 70.0453 31.1816 70.0453 31.2516 70.0523C31.665 70.1084 32.1553 70.1714 32.6317 70.1504C32.7648 70.1504 32.9189 70.1714 33.052 70.2204C33.6335 70.4306 34.327 70.4376 34.8104 70.2345C35.0556 70.1294 35.3358 70.1154 35.588 70.1924C36.2465 70.3886 37.0101 70.4236 37.8577 70.2835C37.9348 70.2695 38.0189 70.2695 38.0959 70.2695C39.2518 70.3255 40.2816 70.3185 41.2483 70.2415C41.3324 70.2415 41.4165 70.2415 41.5005 70.2485C41.8298 70.2975 42.1941 70.2905 42.5794 70.2905C42.8176 70.2905 43.0557 70.2905 43.2869 70.2975C43.357 70.2975 43.427 70.3115 43.4901 70.3255C44.0995 70.4586 44.744 70.4446 45.2274 70.2835C45.4516 70.2064 45.6968 70.2064 45.9279 70.2835C46.7616 70.5427 47.4341 70.5777 47.8684 70.3746C48.0506 70.2905 48.2537 70.2555 48.4569 70.2765C49.3886 70.3676 50.1592 70.4306 50.8948 70.3115C50.9999 70.2975 51.1049 70.2905 51.21 70.3045C51.6023 70.3465 52.0156 70.3746 52.3729 70.3045C52.527 70.2765 52.6882 70.2695 52.8353 70.3045C53.3467 70.4096 53.788 70.4516 54.1803 70.4236C54.9089 70.2765 55.5814 70.3605 56.1838 70.4236C56.7233 70.4866 57.1856 70.5427 57.5709 70.4236C57.718 70.3816 57.8792 70.3676 58.0333 70.3816C58.4676 70.4306 58.8039 70.4306 59.049 70.3746C59.1892 70.3395 59.3363 70.3325 59.4764 70.3535C59.8757 70.4166 60.261 70.3956 60.5272 70.3115C60.7233 70.2485 60.9265 70.2345 61.1297 70.2835C61.543 70.3746 61.8792 70.3535 62.2435 70.2835C62.4186 70.2485 62.5868 70.2485 62.7619 70.2905C63.3153 70.4306 63.5395 70.4026 64.0159 70.3115C64.205 70.2765 64.4012 70.2835 64.5833 70.3465C64.7654 70.4026 65.0527 70.4166 65.3049 70.4166C65.3399 70.4166 65.3889 70.4096 65.4029 70.4026C65.515 70.4026 65.6271 70.4026 65.7392 70.4306C66.0965 70.5147 66.6429 70.5007 67.1263 70.4866H67.2454C67.2454 70.4866 67.2664 70.4866 67.2734 70.4866L67.2243 70.5497ZM35.0836 46.8224L35.0556 46.8364C35.0556 46.8364 35.0696 46.8294 35.0836 46.8224ZM47.5322 46.0799C47.5322 46.0799 47.5532 46.0799 47.5602 46.0799H47.5322ZM40.6949 45.9468C40.6949 45.9468 40.6949 45.9468 40.7019 45.9468C40.7019 45.9468 40.7019 45.9468 40.6949 45.9468ZM49.6408 27.8658L49.6058 28.4893L49.6968 27.7327L49.6338 27.8658H49.6408ZM51.182 27.6837C51.182 27.6837 51.168 27.6837 51.168 27.6907C51.168 27.6907 51.182 27.6907 51.182 27.6837ZM49.6688 27.3404L49.6548 27.6276L49.7459 27.3544C49.7459 27.3544 49.7109 27.3474 49.6968 27.3404C49.6898 27.3404 49.6828 27.3404 49.6688 27.3404ZM49.7179 27.3334C49.7179 27.3334 49.7389 27.3334 49.7459 27.3404C49.7459 27.3404 49.7249 27.3334 49.7179 27.3334ZM47.0838 27.2844C47.0838 27.2844 47.0838 27.2844 47.0838 27.2914C47.0838 27.2914 47.0838 27.2914 47.0838 27.2844ZM48.3168 27.1793C48.3168 27.1793 48.3308 27.1793 48.3378 27.1793H48.3168ZM47.8264 27.1233C47.8264 27.1233 47.8264 27.1233 47.8334 27.1303C47.8334 27.1303 47.8334 27.1303 47.8264 27.1233ZM47.8054 27.1092C47.8054 27.1092 47.8124 27.1092 47.8194 27.1162C47.8194 27.1162 47.8124 27.1163 47.8054 27.1092ZM45.8789 26.4928C45.8789 26.4928 45.8789 26.4998 45.8789 26.5068C45.8789 26.5068 45.8789 26.4998 45.8789 26.4928ZM45.4236 26.1495H45.4376C45.4376 26.1495 45.4376 26.1075 45.4446 26.0795C45.4446 26.0795 45.4376 26.1285 45.4306 26.1495H45.4236ZM44.3027 25.9604L44.702 26.0304L44.6109 25.9954L44.3027 25.9604ZM48.9192 19.5084C48.9192 19.5084 48.9543 19.5084 48.9753 19.5084C48.9543 19.5084 48.9333 19.5084 48.9192 19.5084ZM8.62421 17.4208C8.62421 17.4208 8.62421 17.4208 8.63822 17.4348C8.63822 17.4348 8.63121 17.4278 8.62421 17.4208Z" fill="#EDB371"/>
</svg>
