<svg width="269" height="101" viewBox="0 0 269 101" fill="none" xmlns="http://www.w3.org/2000/svg">
<path d="M267.873 50.3576C268.093 49.6676 267.753 48.9676 267.363 48.3476C267.073 47.6676 266.653 47.0276 265.943 46.5176C265.723 45.4476 264.523 44.5576 263.063 44.2976C262.573 43.3976 261.453 42.5976 260.043 42.5676C259.083 42.1276 258.163 41.5976 256.983 41.4976C256.383 41.1776 255.723 40.9376 254.983 40.8476C254.473 40.5976 253.863 40.4276 253.233 40.4576C252.603 40.0076 251.683 39.7676 250.823 39.9676C250.243 39.8376 249.583 39.7676 248.963 39.6876C248.653 39.5376 247.633 39.4976 247.153 39.5076C246.613 39.4276 246.103 39.1676 245.543 39.1376C245.053 39.1576 244.573 39.1176 244.093 39.0876C243.313 39.0276 242.543 38.9776 241.773 39.1476C240.493 39.0276 239.113 38.7176 237.903 39.1976C237.043 38.9876 236.233 39.2676 235.393 39.3176C234.563 39.0976 233.663 38.9376 232.793 39.0576C231.833 39.1576 230.873 39.1376 229.913 39.1276C229.443 39.1276 228.963 39.1076 228.493 39.1276C227.583 39.2276 227.243 39.3276 226.293 39.2176C226.013 39.2176 225.733 39.1976 225.453 39.1876C224.793 39.1476 224.133 39.1076 223.493 39.3276C222.813 39.2476 222.123 39.2276 221.423 39.3376C220.303 38.8176 218.643 38.7376 217.473 39.2476C216.073 39.1176 214.603 39.0176 213.223 39.2676C212.553 38.9776 211.793 38.7676 211.003 38.8576C210.293 38.8876 209.633 39.2276 208.913 39.2076C208.333 39.1276 207.753 39.1376 207.173 39.1476C206.843 39.1476 206.503 39.1476 206.173 39.1476C205.343 39.0076 204.493 38.9476 203.683 39.1676C203.173 39.1076 202.673 39.1176 202.173 39.2076C201.353 39.0776 200.423 39.1376 199.633 39.3276C198.933 39.2176 198.183 39.1776 197.473 39.2676C196.173 38.9476 194.893 39.1676 193.603 39.4076C192.843 39.4476 192.083 39.3976 191.323 39.3376C190.743 39.2976 190.153 39.2476 189.573 39.2576C189.073 39.3676 188.563 39.3676 188.053 39.3676C187.573 39.3676 187.083 39.3676 186.613 39.4576C185.653 39.1876 184.553 39.0076 183.563 39.3176C182.823 39.2776 182.093 39.2076 181.353 39.2476C180.873 39.1776 180.393 39.2076 179.923 39.2276C179.363 39.2576 178.803 39.2876 178.243 39.1576C177.313 38.9576 176.353 39.0476 175.403 39.1576C174.443 39.0576 173.473 39.1276 172.523 39.2476C172.383 39.2076 172.233 39.1676 172.083 39.1476C171.823 39.0576 171.543 38.9976 171.263 38.9776C170.653 38.6976 169.913 38.6176 169.213 38.5776C168.383 38.4776 167.473 38.0876 166.553 38.0676C165.903 37.4376 164.773 37.4076 163.903 37.0076C163.473 36.7076 162.853 36.6476 162.483 36.3276C162.313 36.1276 162.103 35.9376 161.853 35.7876C161.683 35.7976 161.503 35.7876 161.333 35.7576C161.063 35.7076 160.803 35.5876 160.623 35.4276C160.193 35.4476 159.783 35.3776 159.423 35.1676C159.103 34.9776 158.853 34.6876 158.813 34.3876C158.483 34.2076 158.253 33.9476 158.203 33.6376C158.163 33.3676 158.273 33.1076 158.483 32.8876C158.473 32.7376 158.513 32.5976 158.603 32.4676C158.603 32.4376 158.603 32.4076 158.613 32.3776C158.613 32.3376 158.633 32.2976 158.653 32.2576C158.573 32.1276 158.503 31.9976 158.463 31.8676C158.453 31.8276 158.443 31.7876 158.443 31.7476C158.463 31.2476 158.393 30.7576 158.373 30.2576C158.573 30.0076 158.713 29.7376 158.713 29.4476C158.713 29.2476 158.663 29.0476 158.563 28.8676C158.843 28.6176 159.023 28.3176 159.023 27.9976C159.023 27.9076 159.013 27.8076 158.983 27.7076C159.373 27.1676 159.983 26.7076 160.193 26.0976C160.493 25.8676 160.733 25.5976 160.903 25.3176C161.143 25.1776 161.353 25.0076 161.463 24.7976C162.143 24.6376 162.743 24.2376 162.853 23.7176C163.343 23.5376 163.683 23.2176 164.113 22.9876C164.223 22.9676 164.323 22.9476 164.433 22.9176C164.763 22.8376 165.053 22.6876 165.243 22.4876C165.853 22.4576 166.393 22.1976 166.783 21.8876C167.103 21.8276 167.453 21.7776 167.773 21.6876C168.023 21.6876 168.273 21.6576 168.523 21.6076C169.643 21.7976 170.783 21.8376 171.923 21.6776C172.783 21.7576 173.623 21.6976 174.483 21.6476C175.213 21.6076 175.943 21.5576 176.723 21.5876C177.303 21.5476 177.903 21.5876 178.493 21.6376C179.503 21.7176 180.503 21.7876 181.453 21.4776C181.823 21.4976 182.203 21.5176 182.573 21.5376C183.093 21.5676 183.583 21.4276 184.033 21.2676C185.243 21.4876 186.513 21.3576 187.743 21.2976C188.943 21.4376 190.183 21.3176 191.303 20.9776C193.003 21.5676 194.603 21.2076 196.293 20.8776C196.693 20.8476 197.093 20.9076 197.483 20.9676C197.833 21.0176 198.193 21.0676 198.543 21.0576C199.643 21.0576 200.713 20.8376 201.623 20.3776C203.263 20.4476 205.813 20.4776 207.373 19.8076C207.653 19.7676 207.933 19.7076 208.193 19.5976C209.983 20.1176 212.283 19.5676 213.193 18.3376C214.303 18.1176 215.143 17.5776 215.833 16.9476C216.603 16.5276 217.143 15.9576 217.433 15.3076C218.993 14.6476 219.953 13.2876 219.423 12.0076C220.483 10.9876 220.213 9.48757 219.133 8.52757C219.063 7.34757 218.363 6.06757 217.083 5.29757C216.903 4.20758 215.773 3.44757 214.483 2.94757C213.483 2.42758 211.893 1.98757 210.563 2.09757C210.163 1.84757 209.683 1.71757 209.183 1.67757C209.053 1.61757 208.963 1.52757 208.833 1.46757C208.733 1.49757 208.633 1.53757 208.533 1.56757C208.333 1.63757 208.133 1.68757 207.923 1.71757C207.713 1.69757 207.493 1.72756 207.273 1.73757C206.863 1.70757 206.463 1.60757 206.113 1.40757C205.933 1.30757 205.763 1.20757 205.583 1.10757C205.433 1.10757 205.293 1.12757 205.143 1.13757C204.883 1.15756 204.623 1.18757 204.363 1.17757C204.253 1.17757 204.143 1.15756 204.033 1.13757C203.943 1.11757 203.853 1.09757 203.763 1.07757C203.483 1.01757 203.203 0.957567 202.923 0.887568C202.653 0.977564 202.383 1.05757 202.113 1.14757C201.993 1.18757 201.883 1.21757 201.773 1.23757C200.833 0.857569 199.673 0.777574 198.673 1.11757C198.183 1.08757 197.683 1.13757 197.233 1.27757C195.623 1.10757 193.953 0.707566 192.323 0.997567C191.403 0.717568 190.383 0.457566 189.353 0.537568C188.773 0.567567 188.273 0.797562 187.703 0.847565C186.573 0.707566 185.443 0.737564 184.303 0.717568C183.523 0.567566 182.683 0.567566 181.903 0.717568C180.923 0.567566 179.873 0.567566 178.953 0.887565C178.163 0.647567 177.243 0.58757 176.413 0.717567C175.193 0.137565 173.563 0.277572 172.363 0.797569C171.023 0.667571 169.613 0.457572 168.303 0.797568C167.573 0.717566 166.843 0.587561 166.093 0.707564C165.433 0.677565 164.783 0.627562 164.123 0.737563C162.953 0.337561 161.643 0.427572 160.473 0.767569C159.543 0.697569 158.623 0.657568 157.683 0.727568C156.183 0.517568 154.653 0.747564 153.133 0.707563C151.983 0.457563 150.733 0.457563 149.653 0.857564C148.943 0.727567 148.203 0.687566 147.513 0.887563C146.733 0.557561 145.873 0.31757 144.953 0.407567C144.373 0.467564 143.853 0.647564 143.363 0.877568C142.743 0.767567 142.093 0.797566 141.463 0.827565C140.723 0.727566 139.983 0.647564 139.223 0.667561C138.073 0.247562 136.663 0.197559 135.523 0.66756C134.243 0.277561 132.883 0.267559 131.553 0.48756C129.983 0.407558 128.413 0.407558 126.853 0.52756C125.953 0.397563 125.033 0.467563 124.123 0.437564C123.043 0.197566 121.813 0.197566 120.773 0.537562C119.533 0.157565 118.053 -0.072439 116.843 0.477564C115.553 0.347567 114.223 0.237566 112.943 0.447565C112.213 0.367563 111.483 0.31756 110.773 0.467561C109.963 0.297563 109.133 0.207559 108.293 0.277559C106.583 0.657556 104.903 -0.172439 103.223 0.327561C102.563 0.247559 101.843 0.217561 101.203 0.367562C100.463 0.257561 99.6426 0.267556 98.9526 0.487557C98.6326 0.417557 98.3026 0.35756 97.9626 0.35756C97.5226 0.35756 97.0926 0.407563 96.6826 0.497559C96.2726 0.39756 95.8526 0.317558 95.4226 0.317558C94.9926 0.317558 94.5826 0.377556 94.1826 0.457558C93.6826 0.297554 93.1226 0.287559 92.5826 0.277557C92.5226 0.277557 92.4626 0.297562 92.4026 0.297562C91.6426 0.127563 90.7026 0.157562 89.8526 0.177559C88.6226 0.0875621 87.3726 -0.17244 86.1626 0.177558C85.3926 0.0475609 84.6126 0.147559 83.8926 0.357558C82.7326 -0.0724421 81.3226 -0.0024425 80.2126 0.477561C79.0426 0.0375582 77.6126 -0.00244282 76.4626 0.507559C75.2726 0.327559 73.6126 0.457556 72.3626 0.507559C71.3126 0.107557 69.9626 0.177557 68.9726 0.637556C67.7026 0.327558 66.3026 0.227552 65.1326 0.777555C63.7326 0.567556 62.3426 0.727559 60.9526 0.787557C60.2526 0.937558 59.4926 0.917561 58.8026 1.08756C57.8326 0.827557 56.7926 0.737561 55.8326 1.15756C54.4526 0.69756 52.9526 1.09755 51.9126 1.80755C50.9026 1.70755 50.0126 2.06755 49.2426 2.50756C48.0426 2.70755 47.1226 3.27755 46.4426 3.98755C45.1926 5.10755 43.0826 6.19756 42.9926 7.79756C42.1426 8.30756 41.5426 9.03755 41.5926 9.84755C41.5526 9.92755 41.5126 10.0076 41.4826 10.0976C41.1426 10.6476 40.9226 11.2676 41.1526 11.8576C40.6826 12.4576 40.7226 13.1776 40.9026 13.8476C40.9326 14.6175 40.9626 15.3976 41.3926 16.1176C41.4826 16.5276 41.8126 16.8876 42.2826 17.1376C42.4126 17.2776 42.5526 17.4176 42.7126 17.5476C43.0726 18.3776 43.9926 19.0976 45.2326 19.2076C45.6226 19.5776 46.2126 19.7576 46.7826 19.9276C48.0026 20.5376 49.4126 20.9576 50.8626 21.1176C52.2426 21.6076 53.7426 22.1076 55.3026 21.6976C56.2126 21.8876 57.1326 21.8376 58.0626 21.8076C58.9226 21.8476 59.8126 21.8676 60.6226 21.6176C62.0726 21.8676 63.6126 21.6476 65.0326 21.4076C66.2226 21.9276 67.8826 21.8776 69.0726 21.3776C69.6926 21.3476 70.3926 21.3376 70.9626 21.1476C71.8826 21.4876 72.9626 21.3876 73.9426 21.2576C74.9926 21.4376 76.0426 21.3876 77.0826 21.2176C78.3126 21.2176 79.5326 21.2076 80.7526 21.0576C82.2326 21.4376 83.9126 21.6176 85.3226 20.9776C86.7026 21.3076 88.2026 21.1976 89.6126 21.0576C90.3326 21.2176 91.0726 21.3176 91.8126 21.1976C93.1526 21.9176 94.9426 21.7476 96.3026 21.1376C97.4226 21.3976 98.5926 21.2776 99.7426 21.3476C100.833 21.6576 102.063 21.5876 103.173 21.3476C104.863 21.4776 106.583 21.8176 108.233 21.3976C109.053 21.5976 109.903 21.7076 110.763 21.5676C111.513 21.6776 112.283 21.6676 113.033 21.6176C113.113 21.6476 113.203 21.6776 113.283 21.6976C113.793 21.8576 114.313 21.8776 114.863 21.8876C115.583 21.9276 116.293 21.8676 116.963 21.6676C117.923 21.6576 118.903 21.6876 119.833 21.4776C120.843 21.5676 121.833 21.7376 122.833 21.5276C123.323 21.5776 123.823 21.5976 124.323 21.5876C124.693 21.8776 125.283 22.0276 125.863 21.8576C126.403 21.8576 126.933 22.0276 127.483 21.9276C127.733 22.0676 128.013 22.1876 128.313 22.2576C128.463 22.2276 128.623 22.1876 128.773 22.1576C129.143 22.0976 129.513 22.0476 129.883 21.9976C130.483 21.9176 131.093 22.0576 131.563 22.3276C131.773 22.2876 132.003 22.2776 132.233 22.2876C132.803 22.3376 133.293 22.5676 133.593 22.8976C133.653 22.9176 133.713 22.9276 133.763 22.9476C134.103 22.9676 134.423 23.0276 134.703 23.1776C134.883 23.2776 135.043 23.4076 135.153 23.5476C135.663 23.6776 136.043 24.0076 136.193 24.3576C136.393 24.4476 136.573 24.5576 136.713 24.6876C136.913 24.8676 137.043 25.0876 137.083 25.3076C137.173 25.3676 137.253 25.4276 137.333 25.4976C137.443 25.5876 137.533 25.6976 137.593 25.8076C137.593 25.8076 137.593 25.8076 137.603 25.8176C137.853 25.9576 138.153 26.1076 138.333 26.2976C138.473 26.4376 138.563 26.6076 138.613 26.7776C138.653 26.8976 138.663 27.0176 138.643 27.1476C138.953 27.2876 139.193 27.4976 139.323 27.7476C139.363 27.8276 139.393 27.9176 139.413 28.0076C139.553 28.1776 139.693 28.3576 139.753 28.5476C139.823 28.7776 139.793 28.9976 139.733 29.2276C139.833 29.3176 139.913 29.4176 139.963 29.5376C140.063 29.7576 140.123 29.9676 140.073 30.1976C140.043 30.3176 139.993 30.4276 139.913 30.5376C140.123 30.7076 140.263 30.9076 140.333 31.1276C140.463 31.5276 140.313 31.9276 139.963 32.2376C139.983 32.2976 140.003 32.3576 140.013 32.4176C140.043 32.6376 139.993 32.8476 139.863 33.0476C139.833 33.0976 139.793 33.1476 139.753 33.2076C139.803 33.5776 139.653 33.9376 139.313 34.2576C139.123 34.4276 138.913 34.5776 138.633 34.6776C138.583 34.6976 138.543 34.7076 138.493 34.7176C138.473 34.7376 138.443 34.7576 138.423 34.7876C138.423 34.8276 138.403 34.8676 138.393 34.9076C138.433 35.0476 138.463 35.1776 138.503 35.3176C138.623 35.7876 138.133 36.2076 137.513 36.2976C137.513 36.3476 137.493 36.3876 137.463 36.4376C137.423 36.4976 137.383 36.5576 137.323 36.6176C137.143 36.7876 136.763 36.9876 136.593 37.0976C136.413 37.2176 136.163 37.2676 135.913 37.2776C135.753 37.5076 135.483 37.6576 135.143 37.7076C135.033 37.7576 134.913 37.7976 134.793 37.8076C134.773 37.8276 134.743 37.8376 134.723 37.8476C134.683 37.8876 134.633 37.9276 134.583 37.9576C134.333 38.2276 133.813 38.3676 133.383 38.2376C133.343 38.2376 133.303 38.2376 133.263 38.2376C133.113 38.3576 132.903 38.4576 132.673 38.4976C132.293 38.5676 131.903 38.4976 131.613 38.3176C131.573 38.3176 131.543 38.3076 131.513 38.2976C131.333 38.3676 131.113 38.3876 130.913 38.3576C130.763 38.4176 130.593 38.4576 130.403 38.4576C130.363 38.4576 130.323 38.4576 130.293 38.4576C130.183 38.4576 130.063 38.4576 129.963 38.4276C129.823 38.5276 129.653 38.5976 129.443 38.6376C129.043 38.7176 128.553 38.6476 128.233 38.4476C127.863 38.6276 127.363 38.6076 126.993 38.4376C126.853 38.4676 126.703 38.4676 126.563 38.4576C126.513 38.4876 126.453 38.5076 126.403 38.5376C126.283 38.5876 126.153 38.6176 126.023 38.6476C125.913 38.6776 125.803 38.6876 125.693 38.6876C125.343 38.6876 124.993 38.5576 124.763 38.3676C124.723 38.3676 124.683 38.3676 124.643 38.3676C124.613 38.3676 124.583 38.3676 124.563 38.3676C124.483 38.3776 124.403 38.3876 124.323 38.3776C124.213 38.4376 124.083 38.4676 123.953 38.4876C123.703 38.5176 123.473 38.4676 123.283 38.3776C123.213 38.3976 123.133 38.4076 123.053 38.4076C122.993 38.4076 122.933 38.4076 122.883 38.3976C122.833 38.4276 122.783 38.4476 122.723 38.4676C122.523 38.5276 122.293 38.5376 122.073 38.5376C121.893 38.5976 121.693 38.6276 121.503 38.6176C121.253 38.6076 121.023 38.5276 120.853 38.4076C120.603 38.5176 120.253 38.5276 119.993 38.4176C119.793 38.4476 119.573 38.4176 119.403 38.3376C119.333 38.3376 119.263 38.3476 119.193 38.3576C119.113 38.3576 119.043 38.3576 118.963 38.3376C118.803 38.4176 118.613 38.4476 118.403 38.4476C118.233 38.4476 118.073 38.4476 117.903 38.4376C117.843 38.4376 117.773 38.4376 117.723 38.4176C117.703 38.4176 117.683 38.4176 117.663 38.4376C117.233 38.3576 116.803 38.4176 116.413 38.5476C115.923 38.5476 115.423 38.5976 115.013 38.7376C114.843 38.7376 114.673 38.7676 114.513 38.7976C113.833 38.4676 112.943 38.4376 112.153 38.5676C111.413 38.4876 110.633 38.3676 109.903 38.6076C109.093 38.3476 108.163 38.3976 107.313 38.5176C106.443 38.4376 105.523 38.4076 104.723 38.7076C103.473 38.4176 102.163 38.7076 100.913 38.8676C99.5826 38.4376 98.1526 38.8776 97.1526 39.5376C95.9626 39.1876 94.5126 39.4376 93.7026 40.1576C92.6326 40.4676 91.4426 40.7776 90.5826 41.3476C89.2926 41.3776 87.9526 42.0076 87.6826 42.9476C87.0026 43.1476 86.2026 43.9876 85.5026 44.5476C84.7226 45.5476 83.7726 46.3376 83.8026 47.5576C82.9826 48.2876 82.8526 49.2776 83.2326 50.1576C82.5526 50.9276 82.4926 51.9576 83.0926 52.7476C83.0526 53.5676 83.3326 54.4376 83.8826 55.1576C84.2826 55.9376 84.6326 56.9576 85.8526 57.2676C86.2826 57.9976 87.4426 58.4576 88.5026 58.5476C90.3226 59.3976 92.5326 59.8076 94.5326 60.4276C95.0526 60.5676 95.5326 60.5776 95.9426 60.4776C96.6526 60.5776 97.4226 60.5376 98.1226 60.4476C99.0726 60.9776 100.483 61.1876 101.613 60.8676C102.833 60.9876 104.133 61.0876 105.363 60.9576C105.423 60.9576 105.483 60.9576 105.533 60.9576C106.223 61.2576 107.143 61.4376 107.963 61.4076C108.293 61.5976 108.683 61.6876 109.093 61.7576C109.133 61.7576 109.173 61.7576 109.213 61.7676C109.263 61.7676 109.313 61.7876 109.363 61.7976C109.383 61.7976 109.403 61.7976 109.413 61.7976C109.433 61.7976 109.453 61.7976 109.463 61.7976C109.503 61.7676 109.543 61.7476 109.583 61.7176C109.843 61.5276 110.233 61.4976 110.553 61.6176C110.663 61.6576 110.783 61.6976 110.893 61.7476C110.943 61.7476 111.003 61.7476 111.063 61.7476C111.103 61.7476 111.143 61.7476 111.183 61.7476C111.233 61.7176 111.283 61.6876 111.333 61.6576C111.483 61.5676 111.683 61.5376 111.873 61.5476C111.923 61.5476 111.983 61.5576 112.033 61.5776C112.313 61.4376 112.723 61.4376 112.983 61.5976C113.013 61.6176 113.073 61.6476 113.143 61.6876C113.223 61.6776 113.313 61.6576 113.403 61.6476C113.613 61.6076 113.823 61.6276 114.013 61.6976C114.113 61.6976 114.223 61.7176 114.313 61.7576C114.383 61.7876 114.463 61.8176 114.533 61.8576C114.613 61.8776 114.693 61.8976 114.773 61.9276C114.843 61.9276 114.903 61.9176 114.963 61.9276C115.043 61.9276 115.133 61.9476 115.213 61.9676C115.243 61.9676 115.263 61.9876 115.293 61.9976C115.333 61.9776 115.373 61.9676 115.413 61.9476C115.653 61.8476 115.973 61.8676 116.183 61.9876C116.303 61.9876 116.423 62.0076 116.533 62.0276C116.683 62.0276 116.823 62.0076 116.973 62.0576C117.083 62.0876 117.173 62.1476 117.263 62.2076C117.273 62.2076 117.293 62.2076 117.303 62.2176C117.313 62.2176 117.323 62.2176 117.343 62.2276C117.473 62.2076 117.613 62.2076 117.753 62.2276C117.923 62.2576 118.023 62.3276 118.123 62.4176C118.133 62.4176 118.153 62.4176 118.163 62.4176C118.333 62.4376 118.463 62.5076 118.563 62.5976C118.563 62.5976 118.583 62.5976 118.593 62.6076L118.613 62.6076C118.763 62.6076 118.903 62.6476 119.013 62.7076C119.093 62.7576 119.173 62.8176 119.223 62.8876C119.403 62.8676 119.573 62.9076 119.733 62.9676C119.803 62.9976 119.873 63.0176 119.923 63.0576C120.003 63.1276 120.073 63.1876 120.123 63.2676C120.153 63.3276 120.173 63.3876 120.173 63.4476C120.173 63.4576 120.173 63.4776 120.183 63.4876C120.183 63.4976 120.183 63.5076 120.193 63.5176C120.193 63.5176 120.193 63.5176 120.203 63.5176C120.413 63.5376 120.593 63.6076 120.723 63.7276C120.863 63.8576 120.893 64.0176 120.853 64.1776C120.853 64.1776 120.873 64.1876 120.873 64.1976C120.903 64.1976 120.933 64.1976 120.953 64.2076C121.053 64.2276 121.153 64.2676 121.223 64.3276C121.583 64.3676 121.893 64.5976 121.863 64.8676C121.863 64.8676 121.863 64.8676 121.863 64.8776C121.923 64.8976 121.973 64.9176 122.033 64.9376C122.253 65.0176 122.413 65.1476 122.473 65.3176C122.493 65.3776 122.473 65.4376 122.473 65.4976C122.473 65.5276 122.473 65.5576 122.473 65.5876C122.493 65.6076 122.493 65.6276 122.513 65.6476C122.573 65.7076 122.633 65.7676 122.643 65.8476C122.663 65.9476 122.643 66.0476 122.603 66.1376C122.683 66.1776 122.753 66.2376 122.803 66.3076C122.813 66.3276 122.833 66.3476 122.843 66.3776C122.843 66.3876 122.853 66.3976 122.863 66.4076C122.893 66.4276 122.893 66.4576 122.923 66.4676C122.993 66.5276 123.063 66.5876 123.083 66.6576C123.123 66.7576 123.103 66.8776 123.043 66.9776C123.063 67.0576 123.063 67.1476 123.003 67.2276C123.003 67.2276 123.003 67.2276 123.003 67.2376C123.003 67.2676 123.013 67.2876 123.013 67.3176C123.043 67.3376 123.043 67.3676 123.073 67.3976C123.153 67.4676 123.243 67.5376 123.253 67.6376C123.263 67.7276 123.243 67.8076 123.223 67.8876C123.213 67.9476 123.183 68.0076 123.163 68.0676C123.163 68.0876 123.153 68.1076 123.143 68.1276C123.143 68.1576 123.143 68.1776 123.143 68.1976C123.143 68.2376 123.143 68.2876 123.143 68.3276C123.183 68.3876 123.213 68.4376 123.223 68.4976C123.223 68.5276 123.223 68.5576 123.223 68.5776C123.223 68.5776 123.223 68.5776 123.233 68.5876C123.273 68.6376 123.273 68.7076 123.283 68.7676C123.293 68.8776 123.283 68.9976 123.173 69.0876C123.173 69.0876 123.173 69.0976 123.173 69.1076C123.173 69.1276 123.173 69.1476 123.173 69.1676C123.173 69.1776 123.173 69.1876 123.173 69.1976C123.213 69.2276 123.213 69.2776 123.243 69.3076C123.443 69.5176 123.493 69.7876 123.243 69.9876C123.243 70.1076 123.173 70.2076 123.043 70.3076C123.043 70.3576 123.033 70.4076 123.013 70.4576C122.993 70.4976 122.963 70.5176 122.933 70.5476C122.903 70.5776 122.883 70.6176 122.853 70.6476C122.823 70.7176 122.783 70.7876 122.753 70.8576C122.753 70.8576 122.753 70.8576 122.753 70.8676C122.753 70.8676 122.753 70.8776 122.753 70.8876C122.753 70.9476 122.743 71.0076 122.733 71.0576C122.723 71.1076 122.703 71.1576 122.673 71.1976C122.643 71.2576 122.613 71.3176 122.593 71.3776C122.593 71.3976 122.573 71.4076 122.573 71.4276C122.633 71.5576 122.623 71.6976 122.553 71.8176C122.523 71.8676 122.433 71.8776 122.383 71.9276C122.283 72.0076 122.203 72.0976 122.063 72.1276C122.043 72.1776 122.003 72.2276 121.973 72.2676C121.943 72.3176 121.933 72.3676 121.883 72.4076C121.883 72.4076 121.863 72.4276 121.853 72.4276C121.843 72.4376 121.833 72.4476 121.813 72.4576C121.813 72.4576 121.813 72.4676 121.813 72.4776C121.813 72.4776 121.813 72.4876 121.813 72.4976C121.753 72.5876 121.673 72.7576 121.573 72.8476C121.543 72.8776 121.503 72.8976 121.473 72.9276C121.473 72.9276 121.463 72.9376 121.453 72.9476C121.373 73.0376 121.343 73.1276 121.243 73.2076C121.243 73.2676 121.193 73.3276 121.163 73.3776C121.123 73.4576 121.093 73.5276 121.053 73.6176C121.013 73.7076 120.923 73.7876 120.823 73.8476C120.813 73.8476 120.793 73.8576 120.773 73.8676C120.743 73.8876 120.713 73.8976 120.673 73.9076C120.663 74.0076 120.573 74.0876 120.503 74.1676C120.363 74.3276 120.163 74.4576 119.893 74.4576C119.873 74.4576 119.843 74.4576 119.823 74.4576C119.823 74.4576 119.723 74.5276 119.673 74.5576C119.653 74.5776 119.603 74.5876 119.573 74.5976C119.503 74.6376 119.443 74.6876 119.353 74.6976L119.333 74.7176C119.333 74.7176 119.323 74.7276 119.313 74.7376C119.243 74.7876 119.163 74.8276 119.083 74.8476C119.043 74.8876 118.983 74.8976 118.923 74.9276C118.883 74.9476 118.853 74.9776 118.803 74.9876C118.783 74.9976 118.763 75.0076 118.743 75.0176C118.743 75.0176 118.733 75.0176 118.723 75.0276C118.703 75.0276 118.673 75.0476 118.653 75.0476C118.603 75.1076 118.533 75.1376 118.463 75.1776C118.323 75.2576 118.163 75.3176 117.973 75.3276C117.943 75.3476 117.903 75.3676 117.873 75.3876C117.843 75.4076 117.793 75.4076 117.753 75.4276C117.643 75.4876 117.523 75.5576 117.373 75.5576C117.363 75.5576 117.353 75.5776 117.333 75.5776C117.333 75.5776 117.323 75.5776 117.313 75.5876C117.313 75.5876 117.293 75.5876 117.283 75.5976C117.223 75.6276 117.153 75.6476 117.083 75.6576C117.063 75.6576 117.043 75.6776 117.023 75.6876C117.003 75.6976 116.993 75.7076 116.973 75.7276C116.973 75.7276 116.953 75.7376 116.943 75.7476C116.903 75.8376 116.823 75.9176 116.713 75.9776C116.573 76.0576 116.393 76.0876 116.223 76.0776C116.183 76.0976 116.133 76.1176 116.093 76.1476C116.073 76.1476 116.053 76.1676 116.033 76.1776C115.943 76.2176 115.833 76.2376 115.723 76.2376C115.693 76.2376 115.673 76.2376 115.643 76.2376C115.593 76.2376 115.553 76.2376 115.503 76.2176C115.473 76.2176 115.433 76.2376 115.403 76.2376C115.403 76.2376 115.393 76.2376 115.383 76.2376C115.313 76.3076 115.203 76.3576 115.083 76.3776C115.033 76.3776 114.993 76.3876 114.953 76.3876C114.803 76.5276 114.553 76.6176 114.313 76.5876C114.113 76.5576 113.923 76.5476 113.733 76.5476C113.693 76.5876 113.653 76.6276 113.593 76.6576C113.453 76.7376 113.303 76.7476 113.133 76.7576C113.133 76.7576 113.123 76.7576 113.113 76.7576C113.093 76.7576 113.083 76.7576 113.063 76.7576C113.023 76.7576 112.983 76.7676 112.933 76.7776C112.673 76.8476 112.463 76.9176 112.193 76.9176L112.173 76.9176C112.173 76.9176 112.173 76.9176 112.163 76.9176C112.013 76.9176 111.883 76.8876 111.773 76.8276C111.733 76.8276 111.703 76.8376 111.663 76.8376C111.393 76.8376 111.153 76.7176 111.093 76.5276C110.863 76.5676 110.633 76.6276 110.413 76.7176C109.933 76.6876 109.453 76.6576 108.963 76.6476C108.303 76.6376 107.673 76.7176 107.023 76.7976C105.753 76.2376 104.183 76.6776 102.793 76.7176C100.043 76.5476 97.2826 76.5576 94.5326 76.7176C93.1426 76.8476 91.8126 76.4976 90.4626 76.4076C89.5626 76.4376 88.6626 76.6876 87.7426 76.6076C86.8526 76.6276 86.0026 76.4076 85.1226 76.3776C84.5826 76.4276 84.0526 76.4276 83.5126 76.4276C82.7726 76.4276 82.0426 76.4276 81.3126 76.5676C79.9426 76.3676 78.5326 76.2276 77.1426 76.4376C76.6126 76.4676 76.0926 76.4676 75.5726 76.4576C74.8126 76.4476 74.0626 76.4376 73.3126 76.5576C72.3126 76.3676 71.3226 76.3676 70.3226 76.5576C69.4126 76.4476 68.4926 76.5776 67.6026 76.6876C66.5626 76.3376 65.4426 76.2876 64.4126 76.7076C63.3126 76.4676 62.1426 76.5476 60.9726 76.6176C60.0426 76.6776 59.1026 76.7376 58.1826 76.6476C57.1526 76.7576 56.2526 76.4276 55.2626 76.3776C54.7126 76.3776 54.2426 76.5376 53.7526 76.6976C52.6426 76.4276 51.3826 76.1676 50.2926 76.6276C48.8826 76.3276 47.4626 76.4576 46.0326 76.4576C45.6026 76.5076 45.1726 76.4976 44.7426 76.4776C44.1926 76.4576 43.6526 76.4376 43.1126 76.5676C42.0726 76.0876 40.5826 76.1776 39.5426 76.6076C38.4826 76.4176 37.3326 76.4876 36.2626 76.5676C35.7326 76.4476 35.1826 76.3276 34.6426 76.3276C34.0426 76.3276 33.5626 76.5076 33.0826 76.7176C32.0826 76.2976 30.9726 76.3976 29.9826 76.7776C28.8326 76.7476 27.6126 76.6376 26.5626 77.0376C25.7826 76.8076 24.9426 76.9476 24.1326 77.0076C23.4226 76.9276 22.7526 77.0376 22.1026 77.2476C21.4926 77.1076 20.8026 77.1176 20.1826 77.1876C19.5426 77.0276 18.8926 77.1376 18.2726 77.3076C17.6326 77.0976 16.9026 77.1176 16.2426 77.2476C15.8226 77.0876 15.3326 77.0976 14.8826 77.1576C14.4726 77.1076 14.0326 77.1076 13.6526 77.2476C13.1026 77.2776 12.6426 77.5176 12.3826 77.8476C11.7926 77.6476 10.9226 77.8476 10.4526 78.1376C10.0626 78.1376 9.70264 78.2776 9.44263 78.4876C9.06262 78.6076 8.74262 78.8376 8.53263 79.0976C8.09262 79.2876 7.68265 79.5076 7.33264 79.7976C6.46265 79.8676 5.94263 80.4176 5.35263 80.8276C4.43262 81.1276 3.69263 81.7376 3.40262 82.4276C2.54263 82.7176 2.23264 83.3676 2.06262 83.9976C1.56262 84.9876 0.852632 85.9276 0.822633 86.9976C-0.147368 87.8176 -0.277373 89.0676 0.532624 89.9676C0.462617 90.5476 0.432618 91.1476 0.822633 91.6776C0.952637 92.0176 0.87262 92.3776 1.09262 92.7076C1.71262 93.4476 1.79263 94.3376 2.59262 94.9976C3.00262 95.4576 3.68265 95.8176 4.02264 96.2676C4.27264 97.5476 5.88263 98.3676 7.61264 98.5176C8.56265 99.4276 10.3226 99.7976 11.8226 99.4376C12.7426 99.5776 13.6426 99.6576 14.5826 99.5976C15.2326 99.6576 15.8926 99.7176 16.5326 99.5776C17.6626 100.048 19.0226 100.048 20.2126 99.6976C20.2526 99.7176 20.2926 99.7276 20.3326 99.7476C21.4726 100.188 22.8926 100.038 24.0526 99.7176C25.2826 99.8876 26.5626 99.9076 27.8226 99.8476C28.9726 99.6376 30.1226 99.5776 31.3026 99.7176C31.7926 99.7076 32.2826 99.7076 32.7726 99.7076C33.2226 99.7076 33.6826 99.7076 34.1326 99.7076C35.2326 99.9276 36.4926 99.9276 37.5126 99.5376C38.3326 99.7676 39.2526 99.7176 40.1126 99.6876C40.8226 99.7576 41.5326 99.8376 42.2426 99.7876C42.3526 99.7676 42.4626 99.7576 42.5726 99.7576C42.7326 99.7376 42.8926 99.7076 43.0526 99.6676C43.5126 99.6476 43.9826 99.6676 44.4426 99.6776C44.7926 99.6876 45.1526 99.7076 45.5126 99.7076C45.4426 99.8676 45.4926 100.038 45.6126 100.178C45.9626 100.038 46.3526 100.018 46.7626 99.9976C46.9826 99.9776 47.2026 99.9576 47.4226 99.9676C47.6126 99.9676 47.7926 100.018 47.9726 100.058C48.0326 100.038 48.0826 100.028 48.1426 100.008C48.3526 99.9476 48.5726 99.8876 48.7926 99.8476C49.1626 99.7876 49.5426 99.7876 49.9126 99.8676C49.9226 99.8676 49.9326 99.8676 49.9526 99.8676C50.0226 99.8476 50.0926 99.8276 50.1626 99.8076C50.7926 99.6576 51.4726 99.7876 52.1126 99.8876C52.2326 99.8776 52.3526 99.8576 52.4726 99.8476C52.8026 99.7276 53.1326 99.6276 53.5026 99.5976C53.8826 99.5676 54.3226 99.5976 54.6726 99.7276C54.6726 99.7276 54.6826 99.7276 54.6926 99.7276C55.0126 99.7076 55.3126 99.7476 55.6326 99.8076C55.6526 99.8076 55.6826 99.8076 55.7026 99.8176C55.7026 99.8176 55.7026 99.8176 55.6926 99.8176C55.6926 99.8176 55.6926 99.8176 55.7026 99.8176C55.7126 99.8176 55.7326 99.8176 55.7426 99.8176C55.8426 99.8376 55.9326 99.8576 56.0326 99.8676C56.1226 99.8676 56.2126 99.8676 56.3126 99.8776C56.3626 99.8776 56.4126 99.8876 56.4526 99.8976C56.5826 99.8976 56.7026 99.8976 56.8326 99.9176C57.1126 99.8376 57.3926 99.7676 57.6726 99.6976C58.4126 99.5076 59.2626 99.6476 59.8426 100.008C60.0826 99.9576 60.3326 99.9476 60.5726 99.9776C61.0326 99.8976 61.4626 99.8576 61.9326 99.9576C62.0326 99.9876 62.1326 100.018 62.2326 100.048C62.2726 100.048 62.3026 100.048 62.3426 100.048C62.3426 100.048 62.3526 100.048 62.3626 100.048C62.8726 99.8776 63.3726 99.8876 63.9126 99.9676C64.0026 99.9776 64.0926 99.9976 64.1826 100.008C64.6626 99.8976 65.1526 99.7876 65.6426 99.6776C66.2026 99.5576 66.8226 99.6576 67.3326 99.8376C67.3626 99.8376 67.3926 99.8576 67.4226 99.8676C67.6026 99.9176 67.7926 99.9476 67.9826 99.9776C68.0826 99.9476 68.1826 99.9176 68.2726 99.8876C68.8726 99.7076 69.6326 99.7476 70.2226 99.9876C70.3326 99.9876 70.4426 99.9676 70.5526 99.9576C71.6226 99.7076 72.7326 99.9176 73.8226 99.9376C74.5226 99.9076 75.2226 99.8076 75.9226 99.9376C76.7426 99.9876 77.5426 99.7876 78.3526 99.7276C78.8026 99.8576 79.2626 99.9676 79.7426 99.9676C80.0926 99.9776 80.4226 99.8976 80.7626 99.8176C81.1026 99.7376 81.4426 99.6576 81.8026 99.6676C82.7826 99.9976 83.8426 100.018 84.8326 99.6676C85.9126 99.6876 87.0026 99.7576 88.0626 99.5876C89.2426 99.9876 90.4826 99.7076 91.7026 99.5576C92.1726 99.7076 92.6626 99.8476 93.1826 99.8476C93.7026 99.8476 94.2226 99.6976 94.7126 99.5476C95.4126 99.6376 96.1126 99.6076 96.8226 99.5976C97.3926 99.6776 98.0026 99.7976 98.5826 99.7376C99.4426 99.5876 100.043 99.5276 100.923 99.6376C101.373 99.6076 101.823 99.6076 102.273 99.6176C102.703 99.6176 103.133 99.6376 103.563 99.6176C104.553 99.8176 105.563 99.8576 106.513 99.5176C107.753 99.7376 109.033 99.6276 110.273 99.7876C111.413 99.6376 112.533 99.7376 113.683 99.6576C114.583 99.9776 115.533 100.008 116.483 99.7976C117.083 99.9176 117.693 99.8676 118.283 99.6976C119.073 99.9276 119.953 100.058 120.793 99.9176C121.473 99.9176 122.123 100.028 122.783 100.108C123.263 100.178 123.743 100.148 124.223 100.118C124.653 100.098 125.083 100.068 125.513 100.118C125.803 100.148 126.093 100.138 126.383 100.128C126.873 100.108 127.353 100.098 127.803 100.278C128.883 100.548 130.063 100.338 131.163 100.238C132.273 100.478 133.433 100.488 134.583 100.458C134.683 100.498 134.783 100.548 134.883 100.578C135.043 100.508 135.213 100.458 135.403 100.428C135.973 100.338 136.623 100.468 137.033 100.768C137.313 100.718 137.583 100.648 137.843 100.538C138.483 100.628 139.113 100.618 139.763 100.558C139.993 100.608 140.223 100.668 140.463 100.708C140.633 100.678 140.793 100.658 140.963 100.648C141.223 100.648 141.483 100.688 141.743 100.738C142.043 100.728 142.353 100.718 142.653 100.718C142.913 100.688 143.173 100.668 143.443 100.638C143.723 100.618 143.993 100.638 144.253 100.698C144.333 100.718 144.423 100.748 144.503 100.778C144.573 100.778 144.643 100.778 144.703 100.778C145.113 100.798 145.523 100.818 145.933 100.828C146.143 100.818 146.363 100.798 146.583 100.788C146.933 100.708 147.283 100.628 147.633 100.558C147.853 100.508 148.103 100.508 148.323 100.498C148.573 100.478 148.823 100.468 149.073 100.448C149.493 100.418 149.903 100.488 150.243 100.678C150.293 100.708 150.353 100.738 150.403 100.778C150.403 100.778 150.413 100.778 150.423 100.778C150.653 100.698 150.893 100.658 151.133 100.648C151.383 100.558 151.673 100.518 151.943 100.478C152.313 100.408 152.703 100.318 153.093 100.318C153.443 100.318 153.793 100.318 154.143 100.338C154.413 100.288 154.683 100.238 154.953 100.178C155.103 100.138 155.273 100.118 155.433 100.108C155.673 100.088 155.913 100.118 156.153 100.148C156.543 100.188 156.953 100.208 157.333 100.278C157.603 100.328 157.873 100.378 158.153 100.428C158.473 100.408 158.793 100.388 159.113 100.368C159.353 100.348 159.613 100.398 159.863 100.448C160.163 100.358 160.493 100.338 160.823 100.338C160.933 100.338 161.053 100.338 161.163 100.338C161.353 100.298 161.563 100.278 161.763 100.258C161.993 100.228 162.213 100.208 162.443 100.178C162.823 100.128 163.203 100.088 163.583 100.048C164.013 99.9976 164.453 100.078 164.883 100.128C164.963 100.128 165.043 100.148 165.133 100.158C165.303 100.158 165.473 100.158 165.643 100.158C165.923 100.158 166.213 100.138 166.483 100.188C166.583 100.208 166.683 100.228 166.783 100.258C166.863 100.238 166.953 100.218 167.043 100.198C167.303 99.7776 167.853 99.5076 168.483 99.4376C168.773 99.4076 169.053 99.3976 169.343 99.4576C169.363 99.4576 169.383 99.4576 169.403 99.4676C169.443 99.4576 169.483 99.4476 169.533 99.4376C169.653 99.3276 169.773 99.2276 169.933 99.1476C170.253 98.9676 170.613 98.9176 171.003 98.8676C171.073 98.8676 171.143 98.8476 171.213 98.8376C171.193 98.7276 171.163 98.6176 171.113 98.5076C172.363 98.5376 173.433 98.0476 174.433 97.5376C175.823 97.2876 176.743 96.4976 177.723 95.8176C178.243 95.2276 179.103 94.8376 179.353 94.1376C180.563 93.4276 181.533 92.3176 180.943 91.1776C181.603 90.2976 181.643 89.1776 181.553 88.1976C182.193 87.2576 181.683 86.1476 180.683 85.4476C180.863 84.3576 180.133 83.2476 178.673 82.8176C178.233 82.3776 177.763 81.9176 177.203 81.5476C177.203 81.5476 177.183 81.5476 177.183 81.5376C177.113 81.5076 177.053 81.4576 176.993 81.4176C176.933 81.3776 176.873 81.3476 176.803 81.3076C176.553 81.2676 176.323 81.1976 176.113 81.0776C176.033 81.0376 175.963 80.9876 175.893 80.9376C175.863 80.9076 175.833 80.8876 175.803 80.8676C175.803 80.8676 175.813 80.8676 175.823 80.8676C175.693 80.7476 175.593 80.6176 175.533 80.4776C175.493 80.4176 175.463 80.3476 175.443 80.2776C175.233 80.1876 175.033 80.0976 174.863 79.9776C174.673 79.8476 174.523 79.6976 174.403 79.5376C174.283 79.5076 174.163 79.4576 174.043 79.4276C173.763 79.3376 173.493 79.2576 173.223 79.1676C173.003 79.0976 172.783 79.0376 172.603 78.9276C172.553 78.8976 172.513 78.8676 172.473 78.8376C172.433 78.8076 172.393 78.7776 172.363 78.7476C172.293 78.6776 172.223 78.6076 172.163 78.5376C172.093 78.4676 172.033 78.3976 171.963 78.3276C171.943 78.2976 171.913 78.2776 171.893 78.2476C171.763 78.2376 171.633 78.2176 171.503 78.1976C171.483 78.1976 171.473 78.1976 171.453 78.1976C171.373 78.1876 171.283 78.1676 171.203 78.1576C170.853 78.0876 170.503 77.9276 170.183 77.8076C170.183 77.8076 170.173 77.8076 170.163 77.8076C169.983 77.7376 169.843 77.6376 169.733 77.5176C169.513 77.5376 169.283 77.5676 169.063 77.6076C168.683 77.5376 168.293 77.4676 167.913 77.4676C166.653 77.6276 165.403 77.5476 164.143 77.4376C163.043 77.6176 161.963 77.5176 160.833 77.4676C160.223 77.4176 159.793 77.7276 159.243 77.7776C158.463 77.6776 157.973 77.2076 157.153 77.1576C156.413 77.0776 155.783 77.2776 155.103 77.4376C154.733 77.3676 154.343 77.3176 153.943 77.3576C153.653 77.3876 153.383 77.4576 153.113 77.5376C152.593 77.2776 151.973 77.2476 151.363 77.2876C150.773 76.9376 150.173 76.6276 149.443 76.4376C149.053 76.0976 148.493 75.9476 147.963 75.7376C147.663 75.4576 147.313 75.2276 146.863 75.0776C146.753 74.7376 146.623 74.3976 146.313 74.1076C146.023 73.8376 145.633 73.6576 145.223 73.5276C145.123 73.2376 144.953 72.9676 144.763 72.7076C144.683 72.4076 144.623 72.0876 144.463 71.8076C144.903 71.1576 144.743 70.3276 144.233 69.7176C144.833 69.0876 145.023 68.3176 144.663 67.5876C144.903 66.9176 145.413 66.2476 145.263 65.5376C145.643 65.1876 145.923 64.7776 146.003 64.3376C146.163 64.0676 146.463 63.8476 146.513 63.5476C147.293 63.1676 148.353 63.1676 149.053 62.6876C149.463 62.7176 149.853 62.6276 150.213 62.4976C150.493 62.4976 150.773 62.5776 151.063 62.5376C151.493 62.4976 151.863 62.3076 152.303 62.2576C152.673 62.1876 153.033 62.3276 153.403 62.2776C153.983 62.1476 154.573 62.2276 155.163 62.2076C156.353 61.9276 157.623 62.0876 158.863 62.0076C159.643 62.1776 160.453 62.0076 161.243 62.0076C161.823 62.2276 162.523 62.2076 163.113 61.9976C163.523 62.0376 163.943 62.0376 164.323 61.9176C164.803 61.9476 165.303 61.9576 165.733 61.7976C165.913 61.8376 166.103 61.8776 166.283 61.8976C166.543 61.9276 166.783 61.8976 167.013 61.8476C167.383 61.9476 167.773 62.0276 168.163 62.0276C168.783 62.0776 169.213 61.7476 169.743 61.6176C170.523 61.8276 171.363 61.5776 172.153 61.5276C172.963 61.5276 173.853 61.6876 174.603 61.4176C174.733 61.4476 174.873 61.4576 175.003 61.5076C175.593 61.6076 176.193 61.5476 176.793 61.4776C177.173 61.4376 177.563 61.3876 177.943 61.3976C178.943 61.6376 179.863 61.5276 180.843 61.6476C181.603 61.6776 182.373 61.6476 183.113 61.4976C184.013 61.5276 184.903 61.6276 185.803 61.4976C186.513 61.4976 187.223 61.6776 187.943 61.5376C188.683 61.7076 189.453 61.6976 190.213 61.6976C190.583 61.6976 190.953 61.6976 191.323 61.7176C192.223 62.2076 193.423 62.1476 194.443 61.9176C195.053 62.0176 195.693 62.0776 196.293 61.9176C197.103 62.0376 197.943 62.0776 198.663 61.7576C198.893 61.8076 199.123 61.8476 199.353 61.8976C199.903 61.9976 200.413 61.9376 200.933 61.8376C201.273 61.9676 201.613 62.0776 202.013 62.1176C202.153 62.1176 202.293 62.1276 202.443 62.1276C203.263 62.1276 204.093 61.9876 204.723 61.6176C205.893 61.9676 207.103 61.6576 208.313 61.6376C208.783 61.5776 209.203 61.7676 209.663 61.8176C210.333 61.8476 211.023 61.7876 211.653 61.5976C211.983 61.6476 212.323 61.6876 212.673 61.6476C212.953 61.6176 213.223 61.5476 213.483 61.4776C214.153 61.6076 214.913 61.5676 215.593 61.4376C216.323 61.6676 217.103 61.6376 217.873 61.5376C218.923 61.7676 219.973 61.5476 221.043 61.5276C222.233 61.7676 223.473 61.6976 224.623 61.4976C225.403 61.6776 226.233 61.6776 227.003 61.4776C227.573 61.5976 228.153 61.6076 228.733 61.5176C230.103 61.6876 231.533 61.6576 232.913 61.5076C234.053 61.9876 235.453 61.9276 236.603 61.5076C237.013 61.6276 237.473 61.6576 237.913 61.7276C238.613 61.8476 239.243 61.5376 239.933 61.5176C240.373 61.5476 240.803 61.5176 241.233 61.4776C241.633 61.4476 242.033 61.4076 242.433 61.4276C242.963 61.4776 243.483 61.4676 244.013 61.4476C244.463 61.4276 244.903 61.4176 245.343 61.4476C245.913 61.3976 246.463 61.4176 247.023 61.5276C247.893 61.5876 248.783 61.3976 249.603 61.2176C251.563 62.0876 253.763 60.9876 255.843 60.9476C256.223 60.9176 256.553 60.8176 256.833 60.6676C257.243 60.6276 257.653 60.5576 258.053 60.4776C259.293 60.2676 260.433 59.8576 261.663 59.6076C262.333 59.4276 262.893 59.0976 263.253 58.6476C264.123 58.3176 264.783 57.7076 265.063 57.0376C266.713 56.4176 267.483 55.0676 267.203 53.7876C268.293 52.7876 268.793 51.4176 267.883 50.2576L267.873 50.3576Z" fill="#EDB371"/>
</svg>
