<svg id="eGeZtBpx7RP1" xmlns="http://www.w3.org/2000/svg" xmlns:xlink="http://www.w3.org/1999/xlink" viewBox="0 0 430 131.5" shape-rendering="geometricPrecision" text-rendering="geometricPrecision">
<style><![CDATA[
#eGeZtBpx7RP4 {animation: eGeZtBpx7RP4_c_o 3000ms linear 1 normal forwards}@keyframes eGeZtBpx7RP4_c_o { 0% {opacity: 0} 90% {opacity: 0} 100% {opacity: 1}} #eGeZtBpx7RP23_ts {animation: eGeZtBpx7RP23_ts__ts 3000ms linear 1 normal forwards}@keyframes eGeZtBpx7RP23_ts__ts { 0% {transform: translate(-174px,59.5px) scale(0,1)} 90% {transform: translate(-174px,59.5px) scale(1,1)} 100% {transform: translate(-174px,59.5px) scale(1,1)}} #eGeZtBpx7RP23 {animation: eGeZtBpx7RP23_c_o 3000ms linear 1 normal forwards}@keyframes eGeZtBpx7RP23_c_o { 0% {opacity: 0} 90% {opacity: 1} 100% {opacity: 1}} #eGeZtBpx7RP27_ts {animation: eGeZtBpx7RP27_ts__ts 3000ms linear 1 normal forwards}@keyframes eGeZtBpx7RP27_ts__ts { 0% {transform: translate(605.005005px,61.5px) scale(0,1)} 90% {transform: translate(605.005005px,61.5px) scale(1,1)} 100% {transform: translate(605.005005px,61.5px) scale(1,1)}} #eGeZtBpx7RP27 {animation: eGeZtBpx7RP27_c_o 3000ms linear 1 normal forwards}@keyframes eGeZtBpx7RP27_c_o { 0% {opacity: 0} 90% {opacity: 1} 100% {opacity: 1}}
]]></style>
<g clip-path="url(#eGeZtBpx7RP31)"><g><g id="eGeZtBpx7RP4" opacity="0" clip-path="url(#eGeZtBpx7RP21)"><g><path d="M180.53,41.28c-.8,0-1.6,0-2.42-.02-3.38-.04-6.79-.38-10.28-.74-3.79-.48-7.13-1.03-10.28-1.68-1.7-.36-3.38-.74-5-1.16l-1.54-.4c-.13-.03-.27-.08-.44-.15l-2.27-.88c-3.38-1.41-6.1-2.84-8.3-4.4-2.67-1.87-4.67-3.81-5.95-5.78-.71-1.09-1.28-2.25-1.64-3.41-.1-.32-.34-1.09-.42-1.83-.06-.46-.08-.97-.04-1.51.21-2.1,1.49-4.06,3.51-5.41.95-.63,2.02-1.11,3.18-1.41.57-.15,1.05-.23,1.74-.32l2.35-.19c5.82-.32,12.43.5,19.72,2.44c11.8,3.18,24.22,8.69,36.96,16.43c1.01.61,1.35,1.94.71,2.97-.61,1.01-1.93,1.35-2.96.72-12.4-7.51-24.45-12.87-35.85-15.94-6.85-1.81-13.01-2.59-18.33-2.31l-2.19.17c-.38.04-.69.11-1.09.21-.67.17-1.32.46-1.87.82-.93.61-1.53,1.45-1.6,2.21v.55c.04.34.15.76.25,1.11.25.76.63,1.56,1.16,2.33.99,1.54,2.61,3.07,4.81,4.61c1.98,1.37,4.42,2.65,7.46,3.93l2.59.97l1.13.29c1.56.4,3.18.76,4.79,1.09c3.03.63,6.26,1.16,9.9,1.62c3.34.36,6.64.67,9.86.72c7.19.19,13.5-.46,18.75-1.87c1.16-.32,2.33.36,2.63,1.51.32,1.16-.36,2.33-1.51,2.63-5.05,1.37-10.93,2.06-17.53,2.06v.02h.01Z" fill="#b89e2e" stroke-width="0"/><path d="M180.55,46.98c-.88,0-1.77,0-2.67-.04-3.74-.04-7.53-.42-11.1-.8-4.04-.53-7.59-1.09-10.96-1.79-1.81-.38-3.62-.78-5.38-1.24l-.69-.17c-.74-.19-1.45-.38-2.14-.65l-2.48-.97c-3.87-1.62-7-3.28-9.63-5.11-3.38-2.36-5.87-4.77-7.59-7.45-2.23-3.43-3.2-6.79-2.92-9.99.38-3.64,2.57-7,6.03-9.32c1.62-1.07,3.45-1.89,5.42-2.42c1.66-.46,3.34-.59,4.98-.72l.8-.06c6.77-.36,14.05.55,22.29,2.71c6.56,1.75,13.23,4.16,20.37,7.4c5.53,2.5,10.93,5.32,16.09,8.35c1.03.61,1.37,1.91.76,2.94s-1.91,1.37-2.94.76c-5.03-2.97-10.3-5.7-15.69-8.14-6.92-3.13-13.37-5.47-19.68-7.15-7.8-2.04-14.63-2.9-20.9-2.57l-.76.06c-1.49.11-2.9.21-4.16.57-1.53.4-2.96,1.05-4.18,1.85-2.35,1.58-3.91,3.87-4.14,6.14-.19,2.19.57,4.63,2.25,7.24c1.41,2.15,3.57,4.25,6.43,6.25c2.38,1.64,5.26,3.18,8.79,4.65l2.42.95c.53.21,1.09.34,1.64.48l.72.19c1.68.44,3.43.82,5.15,1.18c3.24.67,6.71,1.24,10.58,1.72c3.55.38,7.09.72,10.68.78c8.12.19,14.97-.5,21.07-2.15c1.16-.32,2.33.38,2.63,1.51.32,1.16-.38,2.33-1.51,2.63-5.8,1.56-12.24,2.31-19.6,2.31l.04.04-.02.03Z" fill="#b89e2e" stroke-width="0"/><path d="M180.53,52.68c-.95,0-1.89,0-2.84-.04-4.12-.06-8.14-.46-11.9-.86-4.25-.55-8.03-1.16-11.65-1.89-1.93-.4-3.83-.82-5.76-1.33l-1.45-.38c-.9-.25-1.72-.48-2.29-.74l-2.63-1.03c-4.39-1.85-7.86-3.68-10.95-5.83-4.06-2.82-7.09-5.81-9.25-9.09-1.28-1.94-2.25-3.95-2.9-5.99-.38-1.24-.61-2.23-.76-3.3-.19-1.26-.21-2.61-.08-3.93.55-5.15,3.68-9.97,8.58-13.21c2.29-1.54,4.88-2.69,7.7-3.43c1.58-.42,3.13-.65,4.18-.76l.82-.06c.82-.06,1.66-.15,2.48-.19c7.72-.38,15.6.55,24.81,2.97c7,1.85,14.07,4.42,21.59,7.82c4.52,2.06,8.98,4.31,13.25,6.69c1.03.59,1.41,1.89.84,2.92-.59,1.03-1.89,1.41-2.92.82-4.16-2.33-8.52-4.52-12.93-6.54-7.32-3.3-14.17-5.81-20.92-7.59-8.77-2.29-16.23-3.2-23.46-2.84-.76.04-1.56.13-2.36.19l-.78.06c-1.2.13-2.46.38-3.49.65-2.33.61-4.54,1.6-6.41,2.86-3.78,2.5-6.26,6.27-6.66,10.05-.11.99-.08,1.96.06,2.9.13.86.32,1.64.61,2.65.53,1.66,1.33,3.3,2.38,4.9c1.85,2.82,4.5,5.43,8.1,7.93c2.84,1.96,6.06,3.66,10.13,5.36l2.71,1.05c.25.11.61.23,1.56.48l1.58.42c1.85.48,3.7.88,5.55,1.28c3.49.72,7.17,1.33,11.27,1.85c3.62.38,7.53.78,11.48.82c8.12.19,15.14-.44,21.53-1.96c1.16-.27,2.31.44,2.59,1.6.27,1.16-.44,2.31-1.6,2.59-5.97,1.41-12.47,2.1-19.74,2.1h-.04l-.03.03Z" fill="#b89e2e" stroke-width="0"/><path d="M249.47,41.28c-6.58,0-12.47-.69-17.51-2.06-1.16-.32-1.83-1.49-1.51-2.63.32-1.16,1.49-1.83,2.63-1.51c5.26,1.43,11.56,2.06,18.71,1.87c3.26-.04,6.56-.36,9.95-.72c3.6-.46,6.83-.99,9.86-1.62c1.62-.34,3.24-.69,4.79-1.09l1.51-.4l2.25-.88c3.01-1.26,5.45-2.55,7.42-3.91c2.21-1.54,3.8-3.07,4.79-4.61.53-.8.9-1.6,1.16-2.36.1-.34.21-.76.25-1.07.02-.19.02-.4,0-.61-.06-.72-.69-1.58-1.6-2.19-.55-.36-1.2-.65-1.87-.82-.38-.11-.71-.15-1.2-.21l-2.14-.17c-5.24-.27-11.42.5-18.29,2.31-11.38,3.07-23.44,8.43-35.83,15.94-1.01.61-2.33.29-2.96-.72-.61-1.01-.29-2.33.71-2.97c12.74-7.72,25.17-13.25,36.96-16.43c7.32-1.94,13.94-2.76,19.68-2.44l2.31.19c.8.11,1.26.19,1.83.34c1.16.29,2.25.8,3.18,1.41c2.02,1.35,3.28,3.3,3.49,5.36.04.59.04,1.09-.04,1.58-.08.69-.32,1.49-.42,1.79-.38,1.16-.92,2.31-1.66,3.43-1.28,1.98-3.28,3.93-5.95,5.78-2.23,1.54-4.92,2.97-8.26,4.38l-2.25.88c-.21.09-.38.14-.51.17l-1.51.4c-1.64.42-3.32.8-5,1.16-3.15.65-6.5,1.2-10.24,1.68-3.53.38-6.96.72-10.37.74-.82,0-1.62.02-2.42.02l.06-.02v0v.01Z" fill="#cf2a23" stroke-width="0"/><path d="M249.43,46.98c-7.34,0-13.77-.76-19.57-2.33-1.16-.32-1.83-1.49-1.51-2.63.32-1.16,1.49-1.83,2.63-1.51c6.1,1.64,12.99,2.33,21.05,2.15c3.62-.04,7.15-.4,10.74-.78c3.83-.48,7.3-1.05,10.55-1.72c1.72-.36,3.47-.76,5.17-1.2l.69-.19c.57-.15,1.11-.27,1.64-.48l2.48-.97c3.49-1.47,6.37-2.99,8.75-4.65c2.88-2,5.05-4.1,6.43-6.25c1.68-2.59,2.44-5.05,2.23-7.26-.23-2.25-1.77-4.54-4.12-6.1-1.22-.82-2.65-1.45-4.14-1.85-1.3-.38-2.71-.46-4.2-.59l-.82-.06c-6.2-.32-13.04.53-20.86,2.59-6.31,1.68-12.76,4.02-19.68,7.15-5.38,2.44-10.66,5.2-15.68,8.14-1.03.61-2.33.25-2.94-.76s-.25-2.33.76-2.94c5.15-3.03,10.58-5.85,16.09-8.35c7.15-3.24,13.81-5.66,20.37-7.4c8.24-2.17,15.52-3.05,22.22-2.71l.84.06c1.64.13,3.34.25,5.02.72c1.95.5,3.79,1.33,5.4,2.42c3.45,2.29,5.66,5.68,6.01,9.28.29,3.24-.69,6.58-2.92,10.01-1.72,2.65-4.23,5.09-7.59,7.45-2.65,1.83-5.78,3.49-9.59,5.09l-2.52.99c-.69.27-1.41.46-2.15.65l-.65.17c-1.81.46-3.6.86-5.4,1.24-3.36.69-6.94,1.28-10.91,1.79-3.62.38-7.4.76-11.17.8-.9.02-1.79.04-2.65.04v.02-.03Z" fill="#cf2a23" stroke-width="0"/><path d="M249.47,52.68c-7.27,0-13.75-.69-19.74-2.1-1.16-.27-1.87-1.43-1.6-2.59s1.43-1.87,2.59-1.6c6.39,1.49,13.41,2.15,21.51,1.96c3.97-.04,7.88-.44,11.54-.84c4.06-.53,7.74-1.11,11.23-1.83c1.85-.38,3.68-.8,5.55-1.28l1.43-.38c1.09-.29,1.45-.42,1.58-.48l2.88-1.14c4.02-1.68,7.23-3.39,10.07-5.36c3.6-2.5,6.24-5.09,8.1-7.91c1.05-1.6,1.85-3.26,2.4-4.92.29-.99.48-1.77.61-2.63.13-.95.15-1.91.06-2.9-.4-3.79-2.88-7.55-6.67-10.05-1.87-1.26-4.1-2.25-6.41-2.86-1.05-.27-2.31-.5-3.57-.65l-.71-.06c-.8-.06-1.6-.15-2.38-.19-7.21-.36-14.67.55-23.46,2.84-6.75,1.79-13.58,4.27-20.92,7.59-4.42,2-8.77,4.21-12.93,6.54-1.03.59-2.35.21-2.92-.82-.59-1.03-.21-2.36.84-2.92c4.27-2.38,8.73-4.63,13.25-6.69c7.55-3.41,14.61-5.97,21.59-7.82c9.21-2.42,17.09-3.37,24.79-2.97.86.06,1.68.13,2.5.19l.76.06c1.09.13,2.67.36,4.25.78c2.82.74,5.4,1.89,7.7,3.43c4.9,3.24,8.03,8.06,8.56,13.19.13,1.35.11,2.67-.08,3.95-.15,1.09-.38,2.08-.76,3.3-.65,2.06-1.64,4.08-2.9,6.02-2.17,3.28-5.17,6.27-9.23,9.09-3.09,2.15-6.56,3.98-10.91,5.81l-2.8,1.09c-.44.21-1.26.44-2,.65l-1.6.42c-1.94.5-3.85.93-5.76,1.33-3.62.74-7.4,1.37-11.61,1.89-3.81.4-7.82.8-11.96.86-.97.02-1.91.04-2.84.04v-.02l-.03-.02Z" fill="#cf2a23" stroke-width="0"/><path d="M151.37,129.5c-.65,0-1.28-.29-1.7-.84-.71-.95-.55-2.29.4-3.03.86-.67,1.74-1.32,2.61-1.98c2.21-1.66,4.48-3.37,6.47-5.18l4.46-3.81l4.08-3.89c2-1.83,3.83-3.81,5.61-5.72.74-.8,1.49-1.6,2.25-2.4.78-.86,1.56-1.79,2.33-2.71.42-.5.82-.99,1.26-1.49c1.05-1.24,2.29-2.69,3.41-4.23c4.29-5.43,8.22-11.34,12.07-18.13c3.97-7.11,6.77-13.27,8.85-19.37.38-1.14,1.6-1.72,2.73-1.35c1.13.38,1.72,1.6,1.35,2.73-2.17,6.35-5.07,12.75-9.17,20.11-3.95,6.98-8.01,13.08-12.38,18.61-1.16,1.6-2.46,3.13-3.57,4.42-.4.48-.82.97-1.22,1.45-.82.97-1.62,1.93-2.48,2.88-.78.82-1.51,1.6-2.23,2.4-1.83,1.98-3.74,4.02-5.82,5.93l-4.12,3.93-4.5,3.85c-2.1,1.89-4.46,3.66-6.73,5.36-.86.65-1.72,1.28-2.57,1.96-.4.29-.86.44-1.3.44l-.08.04v.02h-.01Z" fill="#cf2a23" stroke-width="0"/><path d="M146.13,124.66c-.65,0-1.28-.29-1.7-.84-.74-.95-.55-2.29.38-3.03l2.59-1.96c2.06-1.56,4.21-3.15,6.1-4.86l4.27-3.66l3.89-3.72c1.89-1.72,3.55-3.51,5.3-5.4.74-.8,1.47-1.58,2.23-2.38.74-.8,1.45-1.66,2.17-2.52.42-.5.82-.99,1.26-1.49c1.03-1.2,2.21-2.61,3.26-4.04c4.1-5.2,7.86-10.85,11.56-17.37c3.53-6.33,6.18-12.05,8.1-17.48.4-1.11,1.62-1.72,2.73-1.3c1.11.4,1.7,1.62,1.3,2.73-2,5.66-4.73,11.59-8.41,18.15-3.81,6.71-7.7,12.56-11.88,17.86-1.09,1.49-2.33,2.99-3.43,4.25-.4.48-.82.97-1.22,1.45-.76.9-1.51,1.83-2.33,2.71-.78.8-1.49,1.58-2.21,2.36-1.75,1.87-3.53,3.81-5.51,5.62l-3.95,3.76-4.31,3.7c-1.98,1.79-4.21,3.45-6.35,5.07-.84.63-1.7,1.28-2.54,1.94-.4.29-.86.44-1.3.44l.02.02h-.02v-.01Z" fill="#cf2a23" stroke-width="0"/><path d="M140.88,119.82c-.65,0-1.28-.29-1.7-.84-.74-.95-.55-2.29.38-3.01.84-.65,1.68-1.28,2.54-1.91c2.04-1.53,3.97-2.99,5.74-4.58l4.08-3.49l3.7-3.55c1.79-1.62,3.34-3.3,4.98-5.09.74-.78,1.45-1.58,2.21-2.36.67-.74,1.35-1.56,2.02-2.36.42-.48.82-.99,1.24-1.47c1.03-1.2,2.12-2.5,3.11-3.87c3.91-4.94,7.51-10.37,11.04-16.6c2.94-5.26,5.32-10.24,7.04-14.81.42-1.11,1.66-1.66,2.78-1.24c1.11.42,1.66,1.66,1.24,2.78-1.81,4.77-4.27,9.95-7.32,15.4-3.66,6.46-7.38,12.03-11.37,17.1-1.03,1.41-2.19,2.8-3.28,4.06-.4.48-.8.95-1.2,1.43-.71.86-1.43,1.72-2.19,2.55-.76.8-1.47,1.56-2.19,2.33-1.64,1.77-3.34,3.6-5.21,5.3l-3.76,3.6-4.12,3.53c-1.87,1.7-3.97,3.28-5.99,4.8-.84.63-1.66,1.24-2.48,1.87-.4.29-.86.44-1.33.44h.04v-.01Z" fill="#cf2a23" stroke-width="0"/><path d="M277.79,129.5c-.46,0-.92-.15-1.3-.44-.84-.65-1.7-1.3-2.57-1.93-2.27-1.7-4.62-3.47-6.77-5.41l-4.37-3.74-4.25-4.04c-2.06-1.89-3.95-3.93-5.8-5.91-.74-.78-1.45-1.58-2.21-2.36-.88-.97-1.68-1.91-2.48-2.88-.42-.51-.82-.99-1.26-1.49-1.12-1.3-2.42-2.86-3.62-4.48-4.31-5.47-8.37-11.57-12.32-18.55-4.1-7.36-7.02-13.76-9.19-20.11-.38-1.14.21-2.36,1.35-2.73c1.13-.38,2.35.21,2.73,1.35c2.08,6.1,4.88,12.26,8.85,19.39c3.85,6.77,7.78,12.68,12,18.05c1.16,1.58,2.4,3.05,3.45,4.29.44.5.86,1.01,1.28,1.54.76.9,1.51,1.83,2.33,2.71.71.76,1.47,1.56,2.21,2.36c1.79,1.91,3.62,3.89,5.59,5.7l4.18,4l4.33,3.7c2.04,1.85,4.33,3.56,6.52,5.2.88.65,1.74,1.3,2.61,1.98.95.74,1.11,2.08.4,3.03-.42.55-1.05.84-1.7.84v-.07h.01Z" fill="#b89e2e" stroke-width="0"/><path d="M283.03,124.66c-.46,0-.93-.15-1.3-.44-.84-.65-1.68-1.28-2.54-1.92-2.14-1.62-4.37-3.28-6.39-5.11l-4.18-3.57-4.06-3.87c-1.95-1.79-3.76-3.72-5.49-5.6-.71-.78-1.43-1.53-2.17-2.31-.84-.93-1.6-1.83-2.38-2.76-.4-.48-.8-.97-1.2-1.43-1.07-1.26-2.33-2.76-3.47-4.31-4.14-5.24-8.01-11.08-11.82-17.77-3.6-6.46-6.31-12.26-8.28-17.82-.4-1.11.19-2.36,1.3-2.76s2.36.19,2.75,1.3c1.89,5.32,4.5,10.94,7.99,17.16c3.68,6.5,7.44,12.16,11.5,17.29c1.09,1.49,2.29,2.92,3.3,4.1.42.48.84.99,1.24,1.47.71.86,1.45,1.75,2.21,2.59.71.74,1.43,1.54,2.17,2.31c1.77,1.89,3.43,3.68,5.28,5.38l4.02,3.83l4.14,3.53c1.93,1.75,4.06,3.34,6.14,4.9l2.59,1.96c.95.74,1.11,2.08.38,3.03-.42.55-1.05.84-1.7.84l-.02-.04v.02h-.01Z" fill="#b89e2e" stroke-width="0"/><path d="M288.26,119.82c-.46,0-.92-.15-1.32-.44-.82-.63-1.66-1.26-2.5-1.89-2.02-1.51-4.12-3.09-6.03-4.82l-3.99-3.41-3.89-3.7c-1.85-1.68-3.55-3.51-5.19-5.28-.71-.76-1.41-1.51-2.12-2.27-.8-.88-1.54-1.75-2.25-2.63-.38-.46-.78-.93-1.18-1.39-1.03-1.2-2.25-2.65-3.32-4.12-3.93-4.99-7.65-10.56-11.31-17.02-3.05-5.47-5.51-10.64-7.32-15.42-.42-1.11.15-2.36,1.24-2.78c1.11-.42,2.35.15,2.78,1.24c1.72,4.56,4.1,9.55,7.04,14.83c3.55,6.25,7.15,11.65,11,16.53c1.05,1.43,2.15,2.73,3.15,3.93.4.48.8.95,1.22,1.43.69.82,1.37,1.64,2.1,2.44.69.74,1.43,1.51,2.14,2.29c1.66,1.79,3.22,3.47,4.96,5.07l3.85,3.66l3.95,3.37c1.81,1.64,3.74,3.09,5.78,4.61.86.63,1.7,1.28,2.54,1.94.95.74,1.11,2.08.38,3.03-.42.55-1.05.84-1.7.84v-.04v0h-.01Z" fill="#b89e2e" stroke-width="0"/><path d="M223.69,53.42c-1.2,0-2.15-.97-2.15-2.15v-28.16c0-1.18.97-2.15,2.15-2.15s2.14.97,2.14,2.15v28.16c0,1.18-.97,2.15-2.14,2.15Z" fill="#b89e2e" stroke-width="0"/><path d="M215.01,53.42c-1.2,0-2.15-.97-2.15-2.15v-28.16c0-1.18.97-2.15,2.15-2.15s2.14.97,2.14,2.15v28.16c0,1.18-.97,2.15-2.14,2.15Z" fill="#b89e2e" stroke-width="0"/><path d="M206.31,53.42c-1.2,0-2.15-.97-2.15-2.15v-28.16c0-1.18.97-2.15,2.15-2.15s2.15.97,2.15,2.15v28.16c0,1.18-.97,2.15-2.15,2.15Z" fill="#b89e2e" stroke-width="0"/></g><clipPath id="eGeZtBpx7RP21"><rect width="194" height="129" rx="0" ry="0" transform="translate(118 0.5)" fill="none" stroke-width="0"/></clipPath></g><g id="eGeZtBpx7RP23_ts" transform="translate(-174,59.5) scale(0,1)"><g id="eGeZtBpx7RP23" transform="translate(174,-59.5)" opacity="0"><path d="M149,54.5h-654" fill="none" stroke="#b89e2e" stroke-width="4" stroke-linecap="round"/><path d="M153,59.5h-658" fill="none" stroke="#b89e2e" stroke-width="4" stroke-linecap="round"/><path d="M157,64.5h-662" fill="none" stroke="#b89e2e" stroke-width="4" stroke-linecap="round"/></g></g><g id="eGeZtBpx7RP27_ts" transform="translate(605.005005,61.5) scale(0,1)"><g id="eGeZtBpx7RP27" transform="translate(-605.005005,-61.5)" opacity="0"><path d="M281,56.5h654" fill="none" stroke="#cf2a23" stroke-width="4" stroke-linecap="round"/><path d="M277,61.5h658" fill="none" stroke="#cf2a23" stroke-width="4" stroke-linecap="round"/><path d="M275.01,66.5h659.99" fill="none" stroke="#cf2a23" stroke-width="4" stroke-linecap="round"/></g></g></g><clipPath id="eGeZtBpx7RP31"><rect width="430" height="131.5" rx="0" ry="0" fill="none" stroke-width="0"/></clipPath></g></svg>
