<svg width="50" height="50" viewBox="0 0 50 50" fill="none" xmlns="http://www.w3.org/2000/svg">
<g clip-path="url(#clip0_31_75)">
<g clip-path="url(#clip1_31_75)">
<path d="M47.7895 27.2792C48.3991 22.0172 45.2664 17.2018 40.4906 15.4811C41.4871 10.4985 38.9985 5.31272 34.1816 3.12141C29.3707 0.924126 23.8095 2.43991 20.6813 6.44851C16.2582 3.97061 10.5491 4.75376 6.96232 8.66175C3.37558 12.5698 3.07498 18.3198 5.91666 22.522C2.18166 25.9715 1.14236 31.6392 3.74511 36.2469C4.9514 38.3841 6.75433 39.9722 8.82635 40.9224C11.2199 42.0151 13.9782 42.2433 16.589 41.4887C17.7233 43.9596 19.7045 45.8811 22.098 46.9738C24.176 47.918 26.5587 48.2481 28.9726 47.75C34.1697 46.6935 37.7871 42.2075 37.9615 37.1309C43.003 36.5275 47.1678 32.5412 47.7895 27.2792Z" fill="#CF2A23"/>
<path d="M4.20394 40.0595C3.3651 39.2207 2.63964 38.2685 2.04542 37.2088C-0.68803 32.3511 -0.0594308 26.4039 3.48599 22.2397C0.990864 17.3816 1.74456 11.4521 5.52823 7.33529C9.3119 3.21846 15.1588 1.96441 20.2081 4.04217C24.063 0.163561 29.9335 -0.971366 35.0063 1.34469C40.0792 3.66074 43.0624 8.82794 42.6372 14.2743C47.5132 16.7277 50.3831 21.9606 49.7373 27.5087C49.0914 33.0567 45.0868 37.5016 39.7701 38.7965C38.9279 44.1959 34.834 48.5634 29.3568 49.6739C26.6092 50.2322 23.8213 49.9146 21.2789 48.7566C18.9092 47.6758 16.9218 45.9152 15.5666 43.7246C13.0159 44.1336 10.3829 43.792 8.00723 42.7052C6.56634 42.052 5.28668 41.1542 4.19202 40.0596L4.20394 40.0595ZM36.0825 6.77691C35.3211 6.01542 34.4104 5.37926 33.3804 4.91012C29.4745 3.12854 24.8969 4.25557 22.2464 7.65571C21.6494 8.41925 20.5885 8.63534 19.7372 8.16593C15.9927 6.06833 11.3323 6.81416 8.41991 9.98828C5.50159 13.1565 5.14894 17.8639 7.55665 21.4173C8.09763 22.2209 7.97089 23.2995 7.26089 23.95C4.09866 26.8743 3.3588 31.5287 5.46832 35.2732C6.43096 36.9877 7.88275 38.3202 9.66301 39.1338C11.6755 40.0483 13.9453 40.2177 16.0673 39.6067C17.0032 39.3372 17.9796 39.7886 18.3894 40.6638C19.3099 42.6703 20.9222 44.2706 22.9347 45.1852C24.7149 45.9988 26.6748 46.2163 28.5999 45.8261C32.8136 44.9677 35.8637 41.3704 36.0131 37.0683C36.0444 36.0971 36.7844 35.2976 37.7438 35.183C42.0166 34.6701 45.3463 31.3285 45.8473 27.0557C46.3482 22.783 43.8637 18.7828 39.8263 17.3232C38.9152 16.9969 38.3863 16.0503 38.5725 15.1027C39.1908 11.9976 38.2005 8.90675 36.0706 6.77693L36.0825 6.77691Z" fill="#3E3A39"/>
<path d="M31.6397 29.3649C31.6626 29.9845 32.0132 30.5739 32.6146 30.8411C33.466 31.2271 34.4616 30.8502 34.8502 30.0095C35.2387 29.1569 34.8649 28.1625 34.0253 27.7765C33.424 27.4973 32.7446 27.6175 32.2673 28.0115L27.2242 25.7132L32.7482 25.1866C33.0751 25.7164 33.6764 26.0432 34.3319 25.9707C35.2556 25.8799 35.936 25.0567 35.854 24.1273C35.7661 23.2039 34.9448 22.5259 34.0152 22.6107C33.3598 22.6713 32.8288 23.1071 32.6075 23.6853L27.0894 24.2179L31.6165 20.9997C32.1583 21.2908 32.8435 21.2719 33.3863 20.8957C34.1438 20.3524 34.3241 19.3035 33.789 18.5417C33.2479 17.7858 32.1996 17.6086 31.4361 18.146C30.8993 18.5281 30.66 19.172 30.7544 19.7796L26.2273 22.9978L28.5407 17.9478C29.1604 17.923 29.7449 17.5646 30.0198 16.9684C30.4084 16.1158 30.0345 15.1214 29.195 14.7353C28.3436 14.3493 27.348 14.7262 26.9595 15.5669C26.6785 16.1691 26.7967 16.8481 27.1892 17.3242L24.8758 22.3742L24.3538 16.8518C24.8846 16.5233 25.2132 15.921 25.1427 15.2658C25.0547 14.3424 24.2335 13.6644 23.3039 13.7492C22.3802 13.84 21.6998 14.6632 21.7818 15.5926C21.8404 16.2479 22.2745 16.7775 22.8521 16.9971L23.3681 22.5136L20.1635 17.9961C20.4563 17.4535 20.4394 16.7683 20.0589 16.2327C19.5178 15.4768 18.4695 15.2996 17.706 15.837C16.9485 16.3803 16.7682 17.4293 17.3033 18.1911C17.6838 18.7268 18.3269 18.9641 18.9348 18.8679L22.1394 23.3853L17.0963 21.0871C17.0734 20.4675 16.7168 19.8841 16.1214 19.6109C15.27 19.2249 14.2744 19.6018 13.8859 20.4425C13.4973 21.2951 13.8712 22.2895 14.7107 22.6755C15.312 22.9547 15.9915 22.8345 16.4687 22.4405L21.5118 24.7387L15.9818 25.2714C15.6549 24.7416 15.0536 24.4148 14.3922 24.4813C13.4685 24.5721 12.7881 25.3954 12.8701 26.3247C12.9581 27.2481 13.7793 27.9261 14.7089 27.8413C15.3644 27.7807 15.8953 27.345 16.1166 26.7667L21.6347 26.2341L17.1076 29.4523C16.5658 29.1612 15.8806 29.1801 15.3438 29.5622C14.5863 30.1056 14.406 31.1545 14.9411 31.9163C15.4821 32.6722 16.5305 32.8493 17.2939 32.312C17.8308 31.9298 18.0701 31.286 17.9756 30.6784L22.5027 27.4601L20.1893 32.5102C19.5696 32.5349 18.9852 32.8933 18.7102 33.4895C18.3217 34.3422 18.6955 35.3366 19.535 35.7226C20.3865 36.1086 21.3821 35.7318 21.7706 34.8911C22.0515 34.2889 21.9334 33.6098 21.5409 33.1338L23.8543 28.0837L24.3703 33.6121C23.8395 33.9406 23.5109 34.5429 23.5755 35.2041C23.6634 36.1275 24.4846 36.8055 25.4142 36.7207C26.3439 36.6359 27.0184 35.8067 26.9364 34.8773C26.8778 34.222 26.4436 33.6924 25.866 33.4728L25.35 27.9444L28.5547 32.4618C28.2619 33.0045 28.2787 33.6896 28.6592 34.2253C29.2003 34.9812 30.2487 35.1583 31.0121 34.621C31.7696 34.0776 31.95 33.0287 31.4149 32.2669C31.0344 31.7312 30.3912 31.4939 29.7833 31.5901L26.5787 27.0727L31.6218 29.3709L31.6397 29.3649Z" fill="white"/>
</g>
</g>
<defs>
<clipPath id="clip0_31_75">
<rect width="50" height="50" fill="white"/>
</clipPath>
<clipPath id="clip1_31_75">
<rect width="49" height="50" fill="white" transform="translate(23.8535 -11.0018) rotate(45)"/>
</clipPath>
</defs>
</svg>
