<svg width="115" height="45" viewBox="0 0 115 45" fill="none" xmlns="http://www.w3.org/2000/svg">
<path d="M76.7181 44.7787C76.47 44.7787 76.2346 44.7535 76.0118 44.7325C75.9193 44.7241 75.8226 44.7115 75.7301 44.703H75.6965C75.3643 44.7115 74.9944 44.7199 74.6454 44.661C74.637 44.661 74.6286 44.661 74.6202 44.661C74.4058 44.661 74.1536 44.6568 73.9013 44.6021C73.4935 44.6652 73.1404 44.64 72.8629 44.5853C72.5434 44.64 72.2071 44.64 71.9422 44.5895C71.5975 44.6694 71.2611 44.661 70.9963 44.6316C70.7567 44.6736 70.4834 44.6778 70.1765 44.6484C69.7267 44.7493 69.3104 44.703 68.9363 44.6568C68.6336 44.6232 68.3729 44.5937 68.1417 44.6442C68.1123 44.6526 68.0828 44.6568 68.0534 44.6568C67.7129 44.6862 67.3471 44.6652 66.9435 44.5937C66.6324 44.64 66.3339 44.6274 66.0523 44.5937C65.5352 44.6652 65.0349 44.6358 64.4925 44.5853C63.9965 44.7577 63.4079 44.7535 62.7394 44.5769C62.277 44.6904 61.7599 44.6946 61.2512 44.5895C61.1461 44.5895 61.041 44.5895 60.9359 44.5895C60.6878 44.5895 60.4314 44.5895 60.1665 44.5601C59.5737 44.6021 58.9431 44.6063 58.2453 44.5769C57.6441 44.6652 57.0807 44.6484 56.5678 44.5307C56.0423 44.6862 55.4327 44.6778 54.8736 44.5055C54.5583 44.5055 54.264 44.4718 54.0117 44.4382C53.8015 44.4466 53.5745 44.455 53.3433 44.4382C53.1541 44.5139 52.9187 44.5895 52.6412 44.6148C52.1703 44.661 51.7541 44.5559 51.4388 44.4424C51.195 44.4802 50.9343 44.4802 50.6526 44.4424C50.0599 44.619 49.4755 44.5685 49.0551 44.4886C48.8407 44.4886 48.6305 44.4928 48.4203 44.5012C48.0293 44.5181 47.6257 44.5307 47.2053 44.4844C46.8101 44.5097 46.4401 44.4928 46.1164 44.4718C45.675 44.5853 45.0696 44.6568 44.4558 44.4886C44.1994 44.5139 43.9555 44.5012 43.7411 44.4886H43.7159C43.3922 44.5265 43.0979 44.4886 42.8372 44.4592H42.7952C42.2276 44.5769 41.6601 44.5139 41.1598 44.4592H41.143C40.6133 44.6442 39.8986 44.7283 39.2469 44.497C38.9232 44.5265 38.5911 44.5054 38.2842 44.4382C37.91 44.5307 37.4938 44.5475 37.044 44.4928C36.6908 44.5475 36.3209 44.5433 35.9593 44.4844H35.7365C35.3707 44.4802 34.9882 44.476 34.6014 44.434C34.5467 44.4424 34.4921 44.4592 34.4374 44.4718C34.3029 44.5055 34.1389 44.5475 33.9456 44.5559C33.4747 44.5937 33.0291 44.5012 32.6087 44.3793C32.0453 44.4466 31.4988 44.3709 31.0069 44.3037C30.885 44.2868 30.7631 44.27 30.6453 44.2574C30.4646 44.2994 30.2796 44.3163 30.0778 44.3205C29.6279 44.4466 29.1319 44.4382 28.6652 44.3037L28.4088 44.3835C28.291 44.4214 28.1649 44.4256 28.0472 44.4003L27.6983 44.3205C27.6983 44.3205 27.6562 44.3121 27.652 44.3121L27.589 44.2994C27.5175 44.2994 27.4628 44.2994 27.4082 44.3079L27.1307 44.3247C26.9962 44.3331 26.849 44.3037 26.7313 44.2322L26.5463 44.1271C26.4791 44.0892 26.4244 44.0724 26.3656 44.064H26.3572C26.2983 44.0682 26.2226 44.0766 26.1427 44.0724C26.1175 44.0766 26.0923 44.085 26.0671 44.0934L25.9494 44.1355C25.7854 44.1943 25.6088 44.1901 25.4491 44.1229C25.407 44.1061 25.3692 44.085 25.3314 44.064C25.1506 44.0346 24.9866 43.9841 24.8353 43.9169C24.15 43.9295 23.4774 43.7025 23.0569 43.4923C22.2035 43.1559 21.8209 42.7019 21.6612 42.3067C21.1777 41.9367 20.8414 41.4028 20.7321 40.8311C20.4588 40.5116 20.299 40.1164 20.2906 39.7254C20.2864 39.4269 20.3621 39.141 20.5177 38.8888C20.4546 38.2161 20.8666 37.5392 21.5939 37.1441C21.7747 36.854 22.0353 36.6017 22.3633 36.4126C22.7206 36.1014 23.0948 35.8912 23.5068 35.7735C24.0743 35.2228 25.0623 34.9663 25.9578 35.1471C26.0124 35.1345 26.0713 35.1219 26.1343 35.1093C26.8574 34.8276 27.8538 34.815 28.6021 34.8402C29.0226 34.6636 29.5102 34.5669 30.0273 34.5627C30.2207 34.5585 30.4099 34.5838 30.5739 34.609C30.7 34.6258 30.8051 34.6342 30.9018 34.6426L30.9649 34.63C31.6039 34.5081 32.3186 34.3694 33.0921 34.5712C33.5798 34.4492 34.0969 34.4156 34.5972 34.4618L34.8116 34.4492C35.2194 34.4282 35.644 34.403 36.0812 34.4618C36.2872 34.3988 36.5185 34.3525 36.7875 34.3652C36.9052 34.3694 37.0272 34.3778 37.1491 34.382C37.6326 34.2558 38.0992 34.2895 38.5196 34.3231C38.755 34.3399 38.9737 34.3567 39.167 34.3441C39.1923 34.3441 39.2175 34.3441 39.2385 34.3441C39.5328 34.3567 39.8229 34.3399 40.1088 34.3231C40.4619 34.3021 40.8277 34.2769 41.2102 34.3063C41.6769 34.2516 42.1604 34.2601 42.6522 34.3315C42.7195 34.3231 42.7952 34.3147 42.8667 34.3105C42.9465 34.2895 43.0306 34.2769 43.1105 34.26C43.3081 34.1339 43.5225 34.0456 43.7495 33.9994C43.884 33.9111 44.0396 33.8438 44.212 33.8018C44.2246 33.8018 44.2372 33.7934 44.254 33.7934C44.275 33.7808 44.2918 33.7682 44.3129 33.7556C44.3759 33.7135 44.4432 33.6673 44.5231 33.6252C44.6744 33.3982 44.9183 33.209 45.2168 33.0955C45.2588 33.0535 45.3092 33.0114 45.3597 32.9736C45.427 32.8811 45.5026 32.797 45.5867 32.7171C45.6918 32.5196 45.8305 32.3682 45.9525 32.2379C45.9525 32.2379 45.9609 32.2295 45.9651 32.2253C45.9819 32.0865 46.0239 31.952 46.0912 31.8259C46.0912 31.7964 46.0912 31.7628 46.0912 31.7334C46.0912 31.5989 46.1164 31.4139 46.2215 31.2121C46.2215 31.2079 46.2215 31.2037 46.2215 31.1953C46.2131 31.0986 46.2047 30.9935 46.2047 30.8842C46.1164 30.716 46.0954 30.5142 46.1501 30.3376C46.1585 30.283 46.1753 30.2283 46.2005 30.1779C46.2047 30.1484 46.2131 30.119 46.2173 30.0938C46.1711 30.0391 46.1332 29.9761 46.1038 29.913C46.0828 29.913 46.0534 29.9046 46.0155 29.9088C45.8474 29.9172 45.6708 29.8584 45.5405 29.749C45.3975 29.7617 45.2294 29.7322 45.1032 29.6566C44.9687 29.5725 44.8426 29.4716 44.7375 29.3623C44.7165 29.3581 44.6828 29.3454 44.6492 29.3328C44.5441 29.295 44.4138 29.2446 44.2792 29.1689C44.1994 29.1352 44.0943 29.11 43.9807 29.0806C43.7495 29.0175 43.4762 28.9461 43.224 28.7863C43.0138 28.7611 42.8246 28.7106 42.648 28.6644C42.5219 28.6308 42.4 28.6013 42.3033 28.5887C42.0174 28.5719 41.6601 28.5341 41.328 28.4079C41.2102 28.3911 41.0925 28.3659 40.9832 28.3281C40.9664 28.3281 40.9454 28.3196 40.9286 28.3154C40.4913 28.3701 40.1172 28.3785 39.764 28.3491C39.3394 28.3953 38.8896 28.429 38.4229 28.3281C38.2758 28.2944 38.0992 28.3028 37.8974 28.3154C37.6998 28.3281 37.4728 28.3365 37.2332 28.3112C36.9641 28.3239 36.7077 28.307 36.4596 28.2902H36.4008C35.9972 28.3827 35.5431 28.3659 35.0134 28.2356C34.8158 28.2608 34.6224 28.2608 34.4543 28.2608C34.2651 28.2608 34.0927 28.2608 33.954 28.2902C33.8951 28.3028 33.8363 28.307 33.7774 28.307C33.5294 28.307 33.2897 28.2902 33.0585 28.2734C32.7474 28.2482 32.4657 28.2272 32.1967 28.2398C31.6964 28.3323 31.091 28.4332 30.452 28.307C30.1955 28.3281 29.9096 28.3196 29.6111 28.2818C29.2496 28.3533 28.8712 28.3701 28.5181 28.3281C28.3205 28.3533 28.1229 28.3575 27.9295 28.3449C27.5007 28.4374 27.0887 28.3953 26.7692 28.3449C26.6556 28.3449 26.5379 28.3449 26.4202 28.3449C26.1596 28.3449 25.9031 28.3491 25.6341 28.3197C25.5668 28.3197 25.4701 28.3449 25.365 28.3743C25.2178 28.4121 25.0497 28.4542 24.8563 28.4668C24.5158 28.5046 24.1626 28.4542 23.7885 28.3154C23.2461 28.3911 22.6996 28.3617 22.1783 28.3154C21.6107 28.5088 20.9128 28.4962 20.3327 28.286C20.1057 28.307 19.866 28.307 19.6138 28.286C19.2733 28.3701 18.9495 28.3491 18.6847 28.3323C18.5291 28.3239 18.4156 28.3323 18.2979 28.3154C18.0583 28.286 17.9616 28.2986 17.7346 28.3281L17.5243 28.3533C17.5033 28.3533 17.4823 28.3533 17.4571 28.3533C17.2553 28.3533 17.0451 28.3533 16.8391 28.3533C16.4397 28.3449 16.0739 28.3407 15.7124 28.3785C15.2667 28.4374 14.8169 28.3575 14.489 28.2776C14.4259 28.286 14.3671 28.2944 14.304 28.3028C14.0896 28.3365 13.8331 28.3743 13.5431 28.3407C13.0386 28.4836 12.5383 28.4248 12.0926 28.3743C12.0254 28.3659 11.9623 28.3575 11.8951 28.3533C11.5167 28.4205 11.1593 28.3953 10.8398 28.3701C10.6548 28.3575 10.4699 28.3449 10.3017 28.3491C10.2807 28.3491 10.2597 28.3491 10.2344 28.3491C10.0242 28.3365 9.84346 28.2818 9.69631 28.2398C9.64586 28.223 9.59541 28.2061 9.54076 28.1977C9.32215 28.1977 8.95639 28.1893 8.68312 28.1052L8.62427 28.0968C8.43508 28.0716 8.23749 28.0506 8.0441 28.0127C7.6363 28.0674 7.20749 27.9917 6.84173 27.7899C6.59789 27.7731 6.34985 27.7143 6.11022 27.6092C5.82434 27.5629 5.54266 27.4746 5.26099 27.3401C4.79013 27.277 4.41596 27.0963 4.08384 26.9365L4.00396 26.8987C3.40278 26.8398 2.84363 26.5455 2.49049 26.0999C1.83885 25.9065 1.32595 25.4861 1.10734 24.969C0.850887 24.7378 0.644886 24.4561 0.489334 24.1113C0.367416 23.9095 0.157211 23.5396 0.169823 23.0982C-0.132872 22.5054 -0.0277698 21.8033 0.459906 21.2147C0.468314 20.5336 0.888724 19.9072 1.5824 19.5583C1.77999 19.2598 2.07008 19.0118 2.42742 18.8478C2.65865 18.6208 2.96555 18.4526 3.3271 18.3559C3.34392 18.3559 3.35653 18.3475 3.37335 18.3475C3.59616 18.3013 3.81057 18.2466 4.02078 18.1878C4.30245 18.1121 4.59254 18.0364 4.90784 17.9818C5.0634 17.9481 5.21054 17.9271 5.34927 17.9061C5.51744 17.8346 5.70242 17.7926 5.89581 17.7758C5.91262 17.7758 5.92524 17.7758 5.94205 17.7758C6.19009 17.7716 6.46756 17.7169 6.75765 17.6622C7.33361 17.5529 7.97684 17.4268 8.63268 17.637C8.969 17.5656 9.33056 17.5067 9.71313 17.5361C9.73835 17.5361 9.76778 17.5403 9.79301 17.5445C9.96537 17.5782 10.1335 17.5866 10.3017 17.5698C10.3395 17.5698 10.3732 17.5656 10.411 17.5698C10.575 17.5824 10.7389 17.574 10.9029 17.5698C11.1593 17.5613 11.399 17.5529 11.6596 17.5824C11.7479 17.5824 11.8909 17.574 12.038 17.5613C12.2188 17.5445 12.4248 17.5277 12.6476 17.5403C12.7022 17.5403 12.7737 17.5193 12.8536 17.5067C13.0428 17.4689 13.3076 17.4142 13.6061 17.4647L13.728 17.4815C13.8163 17.4941 13.913 17.5025 14.0097 17.5235C14.5773 17.3596 15.17 17.3638 15.6829 17.5319C16.2715 17.4773 16.8307 17.4773 17.3436 17.5319C17.5874 17.5025 17.827 17.5067 18.0625 17.5403C18.3946 17.4773 18.7477 17.4731 19.0883 17.5361C19.6474 17.4478 20.1687 17.4478 20.6354 17.5361C20.7321 17.5319 20.833 17.5235 20.9297 17.5151C21.2324 17.4899 21.5729 17.4647 21.9344 17.5235C22.2161 17.4941 22.5524 17.4773 22.9056 17.5571C23.1368 17.5235 23.4269 17.5067 23.7254 17.5403C23.8221 17.5193 23.923 17.4983 24.0323 17.4857C24.1963 17.4689 24.3476 17.4773 24.4863 17.4941C24.7764 17.4268 25.0875 17.3974 25.3986 17.4142C25.5289 17.4268 25.6256 17.4478 25.7223 17.4689C25.7686 17.4773 25.8316 17.4941 25.8527 17.4941C25.8779 17.4941 25.8905 17.4941 25.9157 17.4899C26.0545 17.4899 26.1932 17.4731 26.3277 17.4604C26.643 17.431 26.9878 17.3974 27.3577 17.4604C27.7235 17.3133 28.1103 17.2797 28.3961 17.2797C28.4676 17.2797 28.5391 17.2797 28.6106 17.2881C28.7997 17.3049 28.9553 17.3427 29.0856 17.3848C29.3042 17.3511 29.5481 17.3385 29.8171 17.389L29.9264 17.41C29.9264 17.41 29.9348 17.41 29.9391 17.41C30.3048 17.3091 30.6706 17.3217 30.9564 17.3596C31.2297 17.3091 31.4988 17.3259 31.7384 17.3596C32.1714 17.2755 32.7348 17.246 33.2393 17.4604C33.3276 17.4604 33.4116 17.4604 33.4999 17.4604C33.8363 17.4604 34.1726 17.4604 34.5089 17.5193C34.7485 17.4899 34.9672 17.5109 35.1521 17.5277C35.2194 17.5319 35.2909 17.5403 35.3581 17.5445C35.6945 17.5067 36.0098 17.5193 36.3125 17.5361L36.4722 17.5445C36.7875 17.4857 37.1365 17.4689 37.5064 17.4857C37.5232 17.4857 37.5401 17.4857 37.5569 17.4857C37.6998 17.5025 37.8344 17.5067 37.9731 17.5109C38.2127 17.5193 38.4776 17.5277 38.7677 17.5866C38.8644 17.5866 38.9737 17.5698 39.083 17.5571C39.3688 17.5235 39.701 17.4857 40.0499 17.5487C40.0625 17.5487 40.0709 17.5529 40.0835 17.5571C40.3694 17.4983 40.6511 17.5109 40.8823 17.5235C40.958 17.5235 41.0295 17.5319 41.1009 17.5319C41.1766 17.5277 41.2523 17.5151 41.3322 17.5067C41.5508 17.4773 41.8114 17.4436 42.0931 17.4773C42.1015 17.4773 42.1057 17.4731 42.1141 17.4689C42.2739 17.4058 42.5177 17.3091 42.8288 17.3259C43.0054 17.3259 43.1693 17.3553 43.3165 17.389C43.4132 17.3764 43.5309 17.3722 43.6612 17.389C43.7075 17.389 43.7537 17.4016 43.8 17.4058C43.9892 17.368 44.1741 17.3638 44.3465 17.3722C44.5273 17.3343 44.6996 17.3301 44.8426 17.3343C45.1621 17.2502 45.4984 17.2502 45.8053 17.3343C45.8642 17.3343 45.9272 17.3259 45.9861 17.3217C46.2173 17.3049 46.478 17.2881 46.7554 17.3343C46.9236 17.3259 47.0918 17.3259 47.2557 17.3259C47.5668 17.3259 47.8569 17.3259 48.105 17.2713C48.147 17.2629 48.1933 17.2544 48.2353 17.2544C48.332 17.2544 48.4287 17.2544 48.5254 17.2544C48.6515 17.2544 48.7734 17.2587 48.8533 17.2418C48.8701 17.2376 48.8911 17.2334 48.9122 17.2334C49.0677 17.2124 49.2022 17.225 49.2989 17.2334C49.3242 17.2334 49.3452 17.2376 49.3704 17.2376C49.4377 17.2292 49.4839 17.2124 49.5302 17.1998C49.6353 17.1704 49.7656 17.1325 49.9253 17.1157C50.0473 17.0989 50.1692 17.1115 50.2659 17.1157C50.3962 17.0779 50.5265 17.0527 50.6569 17.0442C50.8671 16.9433 51.0815 16.8929 51.2664 16.8509C51.3211 16.8382 51.3758 16.8256 51.4262 16.813C51.4514 16.7794 51.4725 16.7542 51.4935 16.7289C51.5481 16.5692 51.6322 16.4136 51.7415 16.2707C51.7709 16.0184 51.8718 15.804 51.9475 15.6401C51.8844 15.3416 51.9223 15.0305 52.0568 14.7446C51.9559 14.4629 51.9433 14.1644 52.0232 13.887C52.0148 13.8617 52.0106 13.8407 52.0022 13.8155C51.9811 13.7819 51.9601 13.7524 51.9433 13.7188C51.7794 13.6389 51.6406 13.5506 51.5187 13.4371C51.38 13.311 51.2875 13.1765 51.2202 13.0419C51.1193 12.9873 51.0268 12.9242 50.9343 12.8485L50.9091 12.8401C50.7451 12.7813 50.5433 12.7056 50.3584 12.5795C50.1019 12.4996 49.8791 12.3945 49.6857 12.2894C49.5049 12.2894 49.2989 12.2726 49.0887 12.2095C49.0131 12.2263 48.929 12.2432 48.8407 12.2516C48.6515 12.2684 48.4707 12.2558 48.3152 12.2347C48.0545 12.2978 47.7308 12.3735 47.3524 12.3356C47.0792 12.3188 46.8521 12.2221 46.684 12.1507C46.6293 12.1254 46.5789 12.1044 46.5368 12.0918C46.52 12.096 46.499 12.1044 46.478 12.1086C46.3308 12.1549 46.1038 12.2263 45.8221 12.2053L45.6203 12.1969C45.2588 12.1801 44.9141 12.1591 44.5987 12.2095C44.5441 12.2179 44.4894 12.2221 44.4348 12.2179C43.9177 12.1759 43.451 12.1465 42.9928 12.2011C42.791 12.2263 42.5934 12.1885 42.4126 12.1591C42.3411 12.1717 42.2655 12.1759 42.194 12.1843C42.0048 12.2011 41.8114 12.1338 41.6727 12.0035L41.597 11.9741C41.5213 11.9447 41.4373 11.911 41.3868 11.9026L41.3195 11.89C41.3195 11.89 41.2901 11.8858 41.2733 11.8816C41.2481 11.8816 41.2018 11.8732 41.1556 11.869C40.9958 11.8522 40.8487 11.7807 40.7352 11.6672C40.7142 11.6462 40.6931 11.6209 40.6721 11.5999L40.6049 11.5285C40.6049 11.5285 40.5838 11.5074 40.5754 11.4948C40.546 11.4822 40.5166 11.4738 40.4871 11.4654L39.9868 11.3056C39.8439 11.2636 39.7136 11.1795 39.6253 11.0618C39.6169 11.0492 39.6043 11.0366 39.5875 11.024C39.5748 11.0156 39.5454 10.9987 39.4697 10.9651C39.2974 10.8936 39.167 10.7591 39.0956 10.5909C39.083 10.5867 39.0704 10.5825 39.0577 10.5825C38.9821 10.5699 38.9064 10.5447 38.8349 10.5111C38.7971 10.49 38.7635 10.469 38.7256 10.448C38.7046 10.4354 38.6836 10.4228 38.6668 10.4102C38.6668 10.4102 38.6668 10.4102 38.6626 10.4102C38.6457 10.4018 38.6247 10.3891 38.6079 10.3765C38.3683 10.2168 38.1665 10.0318 37.9983 9.86784C37.3341 9.61139 36.9052 9.08167 36.8338 8.47628C36.3755 8.00962 36.2284 7.39162 36.4596 6.8577C36.4428 6.50876 36.4722 6.07994 36.6698 5.66794C36.5731 5.08357 36.8926 4.47818 37.5611 4.02834C37.704 3.80132 37.9058 3.64156 38.0614 3.51544C38.137 3.45658 38.2127 3.39352 38.2548 3.34727C38.2926 3.30523 38.3346 3.26739 38.3809 3.23797L38.5575 3.11184C38.9064 2.8638 39.3352 2.5569 39.928 2.42237C40.2559 2.25841 40.6217 2.09445 41.0463 2.02298C41.1472 1.93049 41.2775 1.87163 41.412 1.85482L41.4667 1.84641C41.5634 1.83379 41.6853 1.81698 41.7147 1.80016C41.7273 1.79175 41.7358 1.78335 41.7484 1.77073C41.8367 1.69085 41.9418 1.6362 42.0595 1.60677C42.1688 1.57734 42.2991 1.56894 42.4084 1.58996C42.4547 1.59836 42.5051 1.59836 42.585 1.58996C42.6396 1.58575 42.6775 1.56894 42.6943 1.56053C42.7994 1.41338 42.9591 1.30828 43.1357 1.27885C43.1525 1.27885 43.1693 1.27044 43.182 1.26624C43.3081 1.23261 43.4384 1.23261 43.5645 1.27044C43.6528 1.28726 43.7075 1.28306 43.7621 1.28306H44.048C44.0816 1.28306 44.1069 1.28306 44.1363 1.28306L44.3423 1.30828C44.4558 1.32089 44.5609 1.33351 44.624 1.3293L45.469 1.23261C45.5026 1.23261 45.5363 1.2284 45.5657 1.22C45.6077 1.21159 45.654 1.20318 45.696 1.20318H45.8474C45.9272 1.20318 46.0197 1.19477 46.0828 1.17795C46.1879 1.14853 46.3014 1.14432 46.4107 1.16534C46.499 1.18216 46.5326 1.18636 46.541 1.18636L46.9446 1.16114C47.0035 1.16114 47.0623 1.16114 47.117 1.17375L47.4533 1.23681C47.5542 1.25783 47.6593 1.26204 47.7602 1.27465L47.8906 1.28726C47.9746 1.29567 48.0251 1.30408 48.0839 1.29987C48.1092 1.29987 48.1386 1.29567 48.168 1.28726L48.5001 1.2242C48.5506 1.21579 48.6347 1.20318 48.6809 1.20318C48.8239 1.20318 48.971 1.20738 49.1139 1.21159C49.1728 1.21159 49.2653 1.19477 49.3536 1.17795L49.5428 1.14432C49.5974 1.13591 49.6521 1.13171 49.7025 1.11489C49.7656 1.09387 49.8286 1.08126 49.8959 1.07706C49.938 1.07706 49.9758 1.06865 50.0094 1.05604C50.022 1.05604 50.0304 1.04763 50.0431 1.04342C50.2406 0.984565 50.4551 1.0182 50.6274 1.13171C50.6442 1.14432 50.6821 1.15273 50.7535 1.14853L51.1571 1.1233C51.1908 1.1233 51.2244 1.1233 51.2538 1.1191L51.6953 1.0224C51.7331 1.01399 51.7667 1.00979 51.8046 1.00559L52.0736 0.98877C52.0947 0.98877 52.1157 0.98877 52.1409 0.98877C52.3175 0.992974 52.494 1.00138 52.6706 1.01399H52.7589C52.8262 1.0224 52.8892 1.03501 52.9523 1.06024C52.9691 1.06444 52.9859 1.07285 53.0027 1.07706C53.0196 1.07706 53.049 1.08546 53.1078 1.07706C53.2129 1.06865 53.318 1.05604 53.4231 1.04763C53.4484 1.04763 53.4736 1.04763 53.4988 1.04763C53.6165 1.04763 53.7301 1.04763 53.8478 1.04342C53.9108 1.04342 53.9655 1.04342 54.0243 1.06024C54.0538 1.06444 54.1294 1.08546 54.1841 1.08546C54.2177 1.08546 54.2556 1.07706 54.2934 1.07285C54.3733 1.06024 54.4574 1.06024 54.5372 1.07285C54.6129 1.08546 54.6844 1.10228 54.7601 1.1191C55.0123 1.10228 55.2267 1.10228 55.4369 1.1191C55.5378 1.08967 55.6429 1.06444 55.7438 1.04763C55.9288 1.01399 56.118 1.06024 56.2651 1.17375C56.2819 1.18216 56.3618 1.20318 56.4375 1.19057C56.4669 1.18636 56.4879 1.17795 56.4964 1.17375C56.6561 1.10648 56.8327 1.10228 56.9966 1.16114C57.0051 1.16114 57.0135 1.16534 57.0177 1.16955C57.4507 1.16114 57.9089 1.16955 58.363 1.25783L58.5017 1.24522C58.9263 1.19897 59.414 1.14853 59.9017 1.26624C59.9311 1.27465 59.9563 1.28306 59.9857 1.29147C60.0488 1.31669 60.1876 1.30828 60.3137 1.30828C60.465 1.30828 60.6164 1.29987 60.7761 1.31669C60.898 1.3293 61.0494 1.31669 61.2049 1.31249C61.4278 1.29987 61.6758 1.28726 61.9449 1.32089L62.0626 1.33771C62.2644 1.36293 62.4578 1.38816 62.6427 1.39657C62.9917 1.34612 63.3616 1.37134 63.7568 1.46804C64.0091 1.41759 64.2529 1.40918 64.4925 1.43861C64.934 1.36293 65.3628 1.38396 65.7706 1.50167C65.9346 1.49326 66.0985 1.49326 66.2583 1.49326C66.5273 1.49326 66.7796 1.49326 67.0192 1.45963C67.0781 1.45122 67.1369 1.45122 67.1958 1.45963C67.3976 1.48485 67.6162 1.49326 67.8474 1.50167C68.1039 1.51008 68.3687 1.51849 68.642 1.55212C69.0456 1.44281 69.4828 1.4344 69.9789 1.52269C70.1429 1.51428 70.3068 1.52269 70.4708 1.52269C70.6558 1.52269 70.8239 1.5311 70.9921 1.52269C71.0383 1.52269 71.0888 1.52269 71.135 1.52269C71.4083 1.56053 71.5891 1.54371 71.9086 1.48485C71.9254 1.48485 71.9422 1.48065 71.959 1.47645C72.2449 1.44702 72.5098 1.48906 72.741 1.52269L72.8125 1.5311H72.9134C73.1278 1.52689 73.3506 1.52269 73.586 1.54371C73.8088 1.48065 74.0401 1.4302 74.2965 1.4302C74.553 1.4302 74.7758 1.48065 74.9776 1.53951L75.0659 1.52689C75.4989 1.46804 75.9866 1.39657 76.4995 1.52689C76.8736 1.48065 77.2352 1.49326 77.5841 1.50167H77.7018C78.1727 1.36293 78.6772 1.36293 79.1691 1.50167C79.2195 1.49326 79.2868 1.47645 79.3498 1.46383C79.5138 1.42179 79.7114 1.37134 79.9636 1.37975C80.178 1.37975 80.3924 1.42179 80.5816 1.47224C80.6489 1.46383 80.7204 1.45543 80.7876 1.44702C81.0273 1.41338 81.2963 1.37975 81.5822 1.39236C81.6116 1.39236 81.6411 1.39657 81.6705 1.40498C81.8092 1.4302 81.9732 1.42179 82.1666 1.40498C82.2423 1.40077 82.3221 1.39657 82.3978 1.39236C82.587 1.39236 82.7341 1.40498 82.8813 1.41338C83.163 1.4344 83.4278 1.45122 83.6464 1.40077C83.6717 1.39657 83.7011 1.38816 83.7263 1.38816L83.8734 1.37134C83.9827 1.35873 84.0921 1.37975 84.193 1.41759C84.2981 1.45963 84.4578 1.46804 84.5587 1.43861L84.6722 1.40498C84.7689 1.37555 84.874 1.36293 84.9749 1.37975C85.08 1.39657 85.1809 1.41338 85.2818 1.43861C85.2986 1.43861 85.3112 1.44702 85.3239 1.45122C85.3281 1.45122 85.3701 1.46804 85.3743 1.46804C85.5299 1.52269 85.6476 1.52689 85.7106 1.51428C85.9124 1.46804 86.1142 1.426 86.316 1.37555C86.4001 1.35453 86.4884 1.35032 86.5767 1.36293L86.6944 1.37975C86.8415 1.40498 86.9382 1.40498 87.0097 1.37975C87.0139 1.37975 87.0223 1.37975 87.0265 1.37555C87.0854 1.35453 87.1484 1.34191 87.2115 1.33771H87.2535C87.3418 1.3293 87.4301 1.34191 87.5142 1.37134C87.5352 1.37975 87.5604 1.38816 87.5815 1.39236C87.6445 1.40918 87.7412 1.39657 87.8757 1.37555C87.943 1.36293 88.0061 1.36293 88.0733 1.37555C88.0986 1.37555 88.128 1.37555 88.1574 1.37134C88.3298 1.33771 88.5064 1.37134 88.6577 1.45963C88.7418 1.51008 88.9015 1.54371 89.0403 1.51008L89.385 1.41759C89.4565 1.40077 89.528 1.39236 89.5994 1.39236L89.7592 1.40077C89.7886 1.40077 89.8138 1.40077 89.8433 1.40918C89.8769 1.41338 89.8895 1.41338 89.9063 1.41338C89.9484 1.41338 89.9862 1.41338 90.0282 1.426L90.146 1.44702C90.146 1.44702 90.1628 1.44702 90.167 1.44702C90.167 1.44702 90.1712 1.44702 90.1754 1.44702C90.1754 1.44702 90.1838 1.44702 90.188 1.44702C90.188 1.44702 90.1964 1.44702 90.2006 1.44702C90.2847 1.46383 90.3772 1.47224 90.436 1.47224C90.5243 1.46804 90.6084 1.48065 90.6925 1.50587C90.6967 1.50587 90.7051 1.51008 90.7135 1.51428C90.7556 1.52689 90.8312 1.5353 90.9237 1.5311C90.9868 1.52689 91.0625 1.50587 91.1676 1.46804C91.2222 1.44702 91.2853 1.4344 91.3441 1.4302L91.4829 1.41759C91.5459 1.40918 91.609 1.41338 91.6678 1.41759L91.7393 1.4302C91.9201 1.45963 92.1093 1.48906 92.2144 1.46383C92.3237 1.426 92.4624 1.40918 92.5759 1.4302C92.5928 1.4302 92.6138 1.43861 92.6306 1.44281C92.6852 1.45543 92.7609 1.45543 92.8282 1.44281C92.8786 1.4344 92.9249 1.42179 92.9711 1.40918L93.093 1.37555C93.2065 1.34612 93.3411 1.33771 93.4504 1.36293C93.484 1.37134 93.5219 1.37975 93.5597 1.38396C93.5975 1.38396 93.6438 1.38396 93.6858 1.37555H93.7531L93.7951 1.36714C93.8792 1.36293 93.9927 1.35453 94.0263 1.34191C94.287 1.23681 94.5855 1.30408 94.7789 1.50167C94.9597 1.51008 95.1194 1.51428 95.2708 1.51008C95.338 1.49747 95.4095 1.48485 95.481 1.47645C95.4978 1.47645 95.5104 1.47645 95.5272 1.47645C95.5524 1.47645 95.5777 1.47645 95.6071 1.46804C95.6239 1.46804 95.6407 1.46804 95.6575 1.46383C95.9813 1.44281 96.284 1.47224 96.5782 1.49747H96.6161C96.9566 1.48906 97.3055 1.47645 97.6587 1.53951C98.2389 1.37555 98.8232 1.4302 99.1722 1.49326C99.3193 1.49326 99.4622 1.49326 99.6052 1.49326H99.6851C99.8869 1.49326 100.084 1.49326 100.286 1.48906C100.32 1.48906 100.354 1.48906 100.387 1.49326C100.795 1.54371 101.203 1.52689 101.644 1.44702C101.674 1.44281 101.707 1.43861 101.737 1.4344C102.342 1.40918 102.842 1.42179 103.305 1.47645C103.78 1.35873 104.41 1.28726 105.003 1.46383C105.546 1.35032 106.101 1.37134 106.584 1.52689C106.853 1.49747 107.11 1.51849 107.345 1.5353C107.761 1.51428 108.156 1.55212 108.472 1.59416C109.212 1.45543 110.002 1.61939 110.548 2.01877C111.465 2.15331 112.154 2.62417 112.39 3.26739C112.428 3.30103 112.478 3.33886 112.512 3.36409C112.621 3.44817 112.743 3.54066 112.852 3.65838C113.134 3.90642 113.269 4.18809 113.374 4.3983C113.432 4.51601 113.475 4.6085 113.533 4.67577C113.55 4.69679 113.567 4.71781 113.584 4.73883C113.727 4.95324 113.752 5.15924 113.769 5.28536C113.929 5.56704 113.958 5.85292 113.954 6.07574C114.105 6.33639 114.177 6.63068 114.156 6.92917C114.135 7.26129 114.004 7.5724 113.781 7.83725C113.71 8.21562 113.529 8.53093 113.369 8.82101C113.327 8.89248 113.285 8.96816 113.247 9.03963C113.117 9.46845 112.878 9.78375 112.533 9.97714C112.314 10.3051 111.965 10.5783 111.545 10.7339C111.528 10.7465 111.511 10.7591 111.49 10.7759C111.293 10.9273 111.036 11.1249 110.662 11.2089C110.548 11.2846 110.422 11.3561 110.284 11.4234C110.153 11.5453 109.998 11.6462 109.83 11.7134C109.666 11.8227 109.476 11.8942 109.275 11.9236C109.048 12.0287 108.77 12.096 108.476 12.096C108.295 12.2095 108.089 12.281 107.862 12.3062C107.664 12.3609 107.446 12.3777 107.21 12.3567C106.983 12.3777 106.782 12.3693 106.597 12.3272C106.311 12.3651 106.033 12.3567 105.785 12.3062C105.55 12.3567 105.256 12.3945 104.949 12.3441C104.684 12.3693 104.44 12.3651 104.217 12.3314C103.91 12.4113 103.616 12.4407 103.322 12.4155L103.217 12.4239C102.96 12.4492 102.653 12.4786 102.334 12.4239C101.884 12.5459 101.426 12.529 101.014 12.5164H100.972C100.496 12.672 100.013 12.693 99.58 12.5795C99.3866 12.6467 99.1638 12.6972 98.9031 12.6972C98.6424 12.6972 98.3902 12.651 98.1674 12.6047C97.7596 12.6341 97.335 12.651 96.9104 12.6047C96.4437 12.7519 95.8215 12.7981 95.275 12.6257C95.0353 12.6552 94.8125 12.6467 94.6233 12.6383C94.4762 12.6341 94.3248 12.6257 94.1945 12.6425C94.0348 12.6636 93.8708 12.651 93.711 12.6552C93.278 12.6636 92.8324 12.6762 92.3699 12.6005C91.836 12.7561 91.2895 12.6636 90.8943 12.5753C90.7051 12.6341 90.4865 12.6846 90.23 12.6846C89.9946 12.672 89.8054 12.6425 89.6415 12.6131C89.4271 12.5795 89.2463 12.5459 89.0739 12.5627C89.0235 12.5669 88.9772 12.5669 88.9268 12.5627C88.5947 12.529 88.2289 12.5543 87.8715 12.5753C87.4049 12.6089 86.9214 12.6383 86.4337 12.5627C85.9797 12.7014 85.4794 12.7014 84.9749 12.5627C84.6512 12.6005 84.2897 12.6425 83.9155 12.6089C83.4783 12.6804 83.0452 12.6804 82.6206 12.6089C82.2843 12.651 81.9606 12.6467 81.6747 12.6425C81.4813 12.6425 81.2921 12.6383 81.0987 12.6467C80.4639 12.7392 79.8543 12.6846 79.2826 12.6047C78.7276 12.6888 78.2021 12.6299 77.7397 12.672C77.7102 12.672 77.6808 12.672 77.6472 12.672C77.4622 12.6636 77.2814 12.6425 77.1006 12.6173C76.9157 12.5921 76.7349 12.5711 76.5793 12.5753C76.5583 12.5753 76.5331 12.5753 76.5079 12.5753C76.3481 12.5627 76.1673 12.5879 75.9697 12.6131C75.7932 12.6341 75.6208 12.6552 75.4442 12.6636C75.4232 12.6636 75.398 12.6636 75.3728 12.6636C75.1626 12.6467 74.9566 12.6215 74.7463 12.5921C74.4016 12.5459 74.0779 12.5038 73.7752 12.529C72.5266 12.6005 71.341 12.5963 70.2269 12.529C70.0882 12.5332 69.9453 12.5501 69.7981 12.5669C69.3567 12.6131 68.8648 12.6636 68.3729 12.508C68.1375 12.5374 67.8979 12.5627 67.6288 12.5543C67.4648 12.5543 67.2967 12.5459 67.1327 12.5332C67.0444 12.5585 66.9561 12.5795 66.8637 12.5963C66.6745 12.6299 66.4895 12.5795 66.3466 12.4702C66.3171 12.466 66.2919 12.4576 66.2625 12.4492C66.2457 12.4534 66.2288 12.4576 66.212 12.466L66.149 12.4828C66.1153 12.4912 66.0775 12.4996 66.0439 12.4996C66.0439 12.4996 66.0312 12.4996 66.0186 12.4996C66.0102 12.4996 66.0018 12.4996 65.9934 12.4996C65.8799 12.5669 65.758 12.6005 65.615 12.5963C65.5562 12.5963 65.5015 12.5921 65.4427 12.5879C65.4427 12.5879 65.4385 12.5879 65.4343 12.5921C65.3796 12.6173 65.325 12.6383 65.2703 12.651C65.2199 12.6762 65.1694 12.6972 65.1148 12.7098C65.1063 12.7098 65.0979 12.714 65.0853 12.7182C65.0769 12.7182 65.0727 12.7182 65.0643 12.7182C65.0054 12.7308 64.9466 12.735 64.8667 12.735C64.8163 12.7561 64.7658 12.7729 64.7154 12.7813C64.6985 12.7981 64.6775 12.8107 64.6565 12.8233C64.6019 12.8654 64.5598 12.8906 64.501 12.9116C64.4715 12.9242 64.4421 12.9368 64.4127 12.9452C64.3622 12.9705 64.3034 12.9915 64.2445 13.0041C64.2109 13.0209 64.1814 13.0293 64.1562 13.0419C64.0974 13.0672 64.0343 13.0882 63.9754 13.105C63.925 13.1428 63.8703 13.1723 63.8115 13.1933C63.7989 13.1975 63.7863 13.2059 63.7736 13.2101C63.7568 13.2185 63.74 13.2269 63.7316 13.2311C63.7316 13.2311 63.7064 13.2479 63.6896 13.2521C63.6307 13.2984 63.5676 13.332 63.4962 13.353C63.4836 13.3572 63.4752 13.3614 63.4668 13.3657C63.4037 13.4119 63.328 13.4413 63.2523 13.4623C63.2145 13.5086 63.1683 13.5548 63.1178 13.5885C63.0842 13.6726 63.0337 13.7482 62.9707 13.8113C62.9496 13.8407 62.9286 13.8659 62.9076 13.8912C62.8992 13.8996 62.895 13.908 62.8866 13.9164C62.8824 13.9206 62.8782 13.9248 62.8698 13.9332C62.8614 13.9416 62.853 13.95 62.8403 13.9584C62.8151 14.0089 62.7815 14.0593 62.7436 14.1014C62.7436 14.1014 62.7436 14.1056 62.7394 14.1098C62.6974 14.1897 62.6343 14.2653 62.5629 14.32C62.5545 14.341 62.5461 14.3662 62.5334 14.3872C62.5334 14.3957 62.525 14.4041 62.5208 14.4209C62.5082 14.4966 62.483 14.5722 62.4452 14.6395C62.4452 14.6395 62.4452 14.6437 62.4452 14.6479C62.4452 14.6479 62.4452 14.6563 62.4409 14.6605C62.4199 14.711 62.3905 14.7572 62.3569 14.8035C62.3485 14.8245 62.34 14.8413 62.3316 14.8581C62.3442 14.9128 62.3527 14.9716 62.3527 15.0305C62.3527 15.0893 62.3527 15.1482 62.34 15.207C62.3611 15.2827 62.3695 15.3584 62.3653 15.4383C62.3653 15.4509 62.3653 15.4677 62.3653 15.4761C62.3653 15.5013 62.3653 15.5224 62.3653 15.5434C62.3905 15.6022 62.4073 15.6611 62.4157 15.7242C62.4241 15.7704 62.4283 15.8166 62.4283 15.8629C62.4704 15.9091 62.504 15.9638 62.5292 16.0184C62.5671 16.0983 62.5881 16.1824 62.5923 16.2665C62.5923 16.2749 62.6007 16.2833 62.6007 16.2917C62.668 16.3422 62.731 16.3968 62.7815 16.4599C62.7941 16.4683 62.8109 16.4725 62.8235 16.4809C62.9202 16.5103 63.0211 16.5608 63.0926 16.6238C63.0884 16.6196 63.0758 16.607 63.0632 16.5986C63.1472 16.6617 63.2103 16.7373 63.2565 16.8256C63.265 16.8256 63.2692 16.834 63.2776 16.8382C63.2902 16.8467 63.3028 16.8551 63.3196 16.8635C63.3869 16.9097 63.4415 16.9644 63.4878 17.0274C63.5803 17.0484 63.6685 17.0863 63.7484 17.1409C63.7989 17.1493 63.8535 17.1662 63.8998 17.1914C63.925 17.204 63.9502 17.2166 63.9754 17.2292C64.0343 17.2418 64.089 17.2671 64.1436 17.2965C64.1983 17.2965 64.2571 17.3049 64.3118 17.3175C64.3118 17.3175 64.3496 17.3259 64.3622 17.3301C64.4043 17.3427 64.4463 17.3596 64.4841 17.3764C64.5346 17.3764 64.585 17.3806 64.6229 17.389C64.6313 17.389 64.6355 17.389 64.6355 17.389C64.6943 17.389 64.7532 17.3974 64.8079 17.4142C64.934 17.3806 65.0685 17.3764 65.1904 17.4142C65.2787 17.4142 65.3712 17.4226 65.4553 17.4562L65.5015 17.4689C65.5352 17.4773 65.5688 17.4899 65.6024 17.5067L65.6319 17.5193C65.6613 17.5193 65.6907 17.5277 65.7201 17.5361L65.7622 17.5277C65.8967 17.5067 66.0691 17.5193 66.2036 17.5782C66.2751 17.5613 66.3508 17.5529 66.4264 17.5571C66.5484 17.4941 66.6955 17.4815 66.8216 17.4857C66.8931 17.4857 67.0318 17.5067 67.0991 17.5319L67.1369 17.5445C67.2336 17.4941 67.3471 17.4647 67.4564 17.4647C67.4817 17.4647 67.5279 17.4647 67.5531 17.4689C67.5615 17.4689 67.5994 17.4731 67.6036 17.4731L67.6877 17.4857C67.8768 17.5151 68.0618 17.5529 68.2384 17.6244C68.5705 17.6328 68.9237 17.7001 69.2306 17.8094C69.7267 17.7716 70.2311 17.801 70.7062 17.8472C71.2317 17.7295 71.8455 17.7926 72.35 18.0112C72.6317 17.986 72.8881 17.986 73.1194 18.0112C73.38 17.9734 73.6491 17.9902 73.9181 18.0658C74.1998 18.1499 74.4689 18.2214 74.7379 18.2929C75.3139 18.4442 75.9067 18.604 76.4532 18.8436C76.9157 18.9025 77.4538 19.0916 77.8027 19.4658C78.3829 19.7096 78.6225 20.2057 78.7739 20.5168L78.8033 20.5799C79.0555 20.933 79.2027 21.3408 79.2321 21.7486C79.4718 22.1943 79.4717 22.7114 79.2405 23.1612C79.3204 23.6153 79.2069 24.0651 78.9168 24.4309C78.8327 24.9353 78.5216 25.3011 78.2652 25.6038C78.2021 25.6753 78.1391 25.7509 78.076 25.8308C78.0424 25.8729 78.0045 25.9149 77.9583 25.9485C77.8826 26.0074 77.8069 26.0747 77.7271 26.1419C77.5379 26.3101 77.3403 26.4783 77.1259 26.6044C76.8106 27.1005 76.1841 27.3695 75.6082 27.4284C75.2298 27.6428 74.7926 27.7689 74.4016 27.8782C73.956 28.1935 73.338 28.3281 72.7494 28.2398C72.1861 28.5299 71.5596 28.6223 71.0047 28.492C70.9585 28.5004 70.9122 28.5046 70.8618 28.513C70.4456 28.5761 69.9789 28.6434 69.4912 28.5677C69.1086 28.6686 68.7219 28.6602 68.3729 28.6308C68.0702 28.6686 67.6708 28.6938 67.2715 28.6097C66.9393 28.677 66.624 28.6434 66.3634 28.6097H66.3466C66.0775 28.6434 65.6613 28.6602 65.2493 28.5257C65.0307 28.5845 64.8121 28.6055 64.6397 28.6097C64.4169 28.6686 64.1983 28.6854 63.9881 28.6602C63.9544 28.6602 63.9082 28.6602 63.8745 28.6518H63.7148C63.6097 28.6896 63.4962 28.7022 63.3827 28.6896H63.3406C63.2481 28.698 63.1599 28.6896 63.0716 28.6602C63.0043 28.6602 62.9328 28.6602 62.8656 28.6392C62.6932 28.6896 62.504 28.6686 62.3442 28.5803C62.277 28.6013 62.2307 28.6055 62.1551 28.6097C62.134 28.6097 62.113 28.6097 62.092 28.6097C61.9911 28.6476 61.8818 28.6686 61.7725 28.6644C61.6632 28.6812 61.5413 28.6728 61.432 28.6392C61.3605 28.6644 61.2806 28.6728 61.2049 28.6728C61.1419 28.6812 61.0788 28.6812 61.0158 28.6728C60.8728 28.6728 60.7425 28.6265 60.629 28.5425C60.629 28.5425 60.6248 28.5425 60.6206 28.5425L60.5996 28.5509C60.4818 28.6139 60.3431 28.6434 60.2128 28.6265C60.0824 28.6476 59.9521 28.6308 59.8302 28.5845C59.6284 28.6644 59.3972 28.6434 59.2122 28.5299C59.0566 28.635 58.8843 28.6686 58.6993 28.6265C58.5984 28.6686 58.4975 28.6812 58.3882 28.6728C58.2789 28.7064 58.157 28.7064 58.0435 28.6812C57.972 28.6686 57.9005 28.6476 57.8333 28.6139C57.7029 28.698 57.5474 28.7401 57.3876 28.7232C57.3582 28.7232 57.3288 28.7232 57.2993 28.7148C57.2951 28.7148 57.2909 28.7232 57.2825 28.7232C57.2615 28.7401 57.2405 28.7569 57.2152 28.7737C57.1354 28.8283 57.0219 28.8788 56.9252 28.8956C56.8915 28.9082 56.8537 28.9208 56.8201 28.9292C56.6981 29.0512 56.5384 29.1226 56.366 29.131L56.3324 29.1521C56.3324 29.1521 56.2904 29.1773 56.2651 29.1899C56.1979 29.3076 56.1012 29.4001 55.9835 29.4632C55.9835 29.5178 55.9708 29.5725 55.9582 29.6229C55.9246 29.7827 55.8363 29.9256 55.706 30.0265C55.6303 30.1022 55.5588 30.1358 55.4579 30.1695C55.4369 30.1779 55.4243 30.1821 55.4117 30.1905C55.4033 30.2956 55.3739 30.4007 55.3192 30.4932C55.3318 30.6319 55.3024 30.7706 55.2309 30.8926C55.336 31.0607 55.3697 31.2625 55.315 31.4517C55.3991 31.5904 55.4369 31.7544 55.4117 31.9142C55.4495 31.9646 55.4832 32.0235 55.5042 32.0823C55.7018 32.1874 55.8363 32.385 55.8657 32.5994C55.8826 32.6078 55.8994 32.6162 55.9162 32.6289L55.9582 32.6541C56.0003 32.6793 56.0423 32.7087 56.0801 32.7424C56.1264 32.7844 56.1684 32.8349 56.2021 32.8853C56.2063 32.8853 56.2105 32.8937 56.2189 32.8979C56.3408 32.9778 56.4333 33.0955 56.4837 33.2342C56.6183 33.2973 56.7444 33.4108 56.8201 33.5411C56.9588 33.579 57.0933 33.6631 57.1858 33.7724C57.1732 33.7598 57.2068 33.7724 57.2699 33.7724C57.3372 33.7724 57.4002 33.7892 57.4633 33.8102C57.5936 33.8438 57.7324 33.9195 57.8248 34.0204C57.8248 34.0204 57.8627 34.0456 57.9384 34.0498C57.972 34.0498 58.0014 34.0498 58.035 34.0456C58.1948 34.0162 58.363 34.0456 58.5017 34.1213C58.5816 34.1676 58.6867 34.1886 58.775 34.176C58.9221 34.1591 59.0651 34.1381 59.2038 34.1171L59.3762 34.0793C59.4771 34.0583 59.578 34.0583 59.6789 34.0793C59.7924 34.1045 59.9017 34.1423 60.011 34.1886C60.1497 34.1886 60.2716 34.2012 60.3809 34.2138C60.4188 34.218 60.4566 34.2222 60.4944 34.2264C60.8013 34.1676 61.1251 34.2096 61.3983 34.3441C61.5287 34.3441 61.6632 34.3525 61.8061 34.3652C62.2139 34.3021 62.5965 34.3399 62.937 34.3736L63.0632 34.3862C63.4205 34.3189 63.7694 34.3189 64.1016 34.3147H64.2025C64.5178 34.2306 64.8625 34.197 65.2283 34.2222C65.4469 34.2222 65.7412 34.2348 66.0439 34.3273C66.2961 34.3147 66.5988 34.3105 66.9057 34.3483C67.2336 34.3105 67.5868 34.3273 67.9735 34.4072C68.5831 34.2853 69.1843 34.3483 69.7224 34.4072C69.836 34.4198 69.9495 34.4324 70.063 34.4408C70.4876 34.3609 71.0762 34.3105 71.6521 34.4576C71.7783 34.4618 71.9086 34.4661 72.0389 34.4661C72.3248 34.4661 72.6191 34.4703 72.926 34.5165C73.5188 34.3021 74.3049 34.2138 74.9986 34.4997C75.3097 34.4787 75.604 34.5207 75.8436 34.5669C76.3733 34.5165 76.9661 34.4829 77.5463 34.5796C78.1222 34.382 78.7865 34.3736 79.5769 34.5627C80.0687 34.5081 80.5522 34.5081 81.0189 34.5039C81.5107 34.424 81.969 34.4156 82.4062 34.4787C82.7972 34.4282 83.2344 34.3988 83.6674 34.5081C83.8903 34.4618 84.1131 34.4492 84.3065 34.4408C84.9035 34.2264 85.6308 34.2138 86.2151 34.403C86.7575 34.3147 87.3586 34.2432 87.9598 34.3189C88.3508 34.2264 88.7418 34.2348 89.0865 34.2516H89.1958C89.5111 34.239 89.8643 34.2306 90.2258 34.2853C91.0036 34.1297 91.7183 34.3652 92.2648 34.5543C92.8912 34.63 93.5135 34.815 94.0768 35.0841C94.2786 35.1429 94.5266 35.227 94.7537 35.3741C95.338 35.4834 95.8299 35.824 96.0948 36.3032C96.1116 36.3201 96.1326 36.3411 96.1494 36.3579C96.4353 36.5387 96.6371 36.7825 96.7296 37.0642C96.9398 37.4594 96.965 37.8546 96.9818 38.1825C97.0743 38.5777 97.0533 38.9308 96.9188 39.2377C96.9398 39.5278 96.8641 39.8263 96.6875 40.1374C96.6455 40.5452 96.4185 40.9236 96.0359 41.2305C95.8467 41.8443 95.2876 42.2689 94.8251 42.622C94.6906 42.7271 94.5561 42.8238 94.4426 42.9247C94.0516 43.3199 93.5639 43.589 93.0258 43.7025C92.618 43.9211 92.2312 44.0304 91.8528 44.0388C91.2937 44.3541 90.6378 44.4592 90.0493 44.3373C89.6583 44.4508 89.2337 44.455 88.7586 44.3499C88.6157 44.3751 88.4811 44.3877 88.3592 44.4003C88.2415 44.413 88.128 44.4214 88.0145 44.4466C87.9766 44.455 87.943 44.4592 87.9052 44.4592L87.5773 44.476C87.1358 44.5012 86.6818 44.5307 86.2067 44.4802C85.7359 44.6484 85.1851 44.6736 84.5587 44.5517C84.0584 44.7199 83.4825 44.7325 82.978 44.5811L82.8434 44.5895C82.3894 44.6105 81.8891 44.6358 81.4435 44.5937C80.939 44.7661 80.3504 44.7787 79.7955 44.6316C79.2826 44.7955 78.715 44.8081 78.2063 44.6694C77.8952 44.7367 77.5967 44.7577 77.315 44.7283C77.1048 44.7745 76.8946 44.7913 76.697 44.7913L76.7181 44.7787ZM75.7469 43.3241C75.7469 43.3241 75.7805 43.3241 75.7974 43.3241C75.9151 43.3325 76.0328 43.3451 76.1547 43.3577C76.5205 43.3956 76.8358 43.4292 77.1048 43.3493C77.2057 43.3199 77.3066 43.3157 77.4075 43.3325C77.5967 43.3661 77.8111 43.3451 78.055 43.2736C78.1979 43.2316 78.3493 43.24 78.488 43.2905C78.7949 43.4082 79.2027 43.3914 79.5222 43.2526C79.6862 43.1812 79.8711 43.177 80.0351 43.24C80.384 43.3703 80.7961 43.3703 81.0903 43.24C81.208 43.1854 81.3426 43.1685 81.4729 43.1896C81.826 43.24 82.3642 43.2148 82.793 43.1938L83.0621 43.1812C83.1545 43.1812 83.247 43.1938 83.3353 43.2232C83.596 43.3199 83.9743 43.3073 84.2308 43.1896C84.3737 43.1265 84.5335 43.1097 84.6806 43.1433C85.1767 43.261 85.5677 43.2568 85.8368 43.1307C85.9587 43.0718 86.0974 43.0508 86.2319 43.0718C86.6355 43.1307 87.0602 43.1055 87.51 43.0803L87.8001 43.0634C87.943 43.0382 88.0944 43.0214 88.2415 43.0046C88.3844 42.992 88.5148 42.9794 88.6199 42.9499C88.7334 42.9205 88.8553 42.9205 88.9688 42.9499C89.3009 43.0382 89.5658 43.0424 89.7676 42.9499C89.9231 42.8827 90.0997 42.8743 90.2595 42.9289C90.6378 43.055 91.054 42.9079 91.2937 42.7397C91.4282 42.6472 91.5922 42.6052 91.7519 42.622C91.9579 42.643 92.1765 42.58 92.4624 42.416C92.5339 42.374 92.6096 42.3487 92.6894 42.3361C93.0005 42.2857 93.2696 42.1427 93.4882 41.9157C93.5008 41.9031 93.5135 41.8905 93.5261 41.8821C93.669 41.7518 93.8372 41.6256 94.0095 41.4911C94.2786 41.2851 94.7326 40.9404 94.7452 40.7554C94.7579 40.5284 94.8798 40.3224 95.0774 40.2047C95.2708 40.0869 95.3296 39.9818 95.3338 39.9608C95.3296 39.8473 95.3506 39.7464 95.3969 39.6413L95.4431 39.5404C95.4557 39.5152 95.4684 39.4858 95.4852 39.4605C95.5566 39.347 95.5608 39.3008 95.5608 39.2966C95.4726 39.0695 95.5146 38.8509 95.6659 38.6617C95.687 38.6365 95.6786 38.544 95.6491 38.4347C95.6365 38.3843 95.6281 38.3338 95.6239 38.2834C95.6113 38.0185 95.6029 37.8041 95.5146 37.6528C95.4852 37.6065 95.4641 37.5561 95.4473 37.5014C95.4389 37.493 95.4263 37.4846 95.4095 37.4762C95.338 37.4384 95.275 37.3879 95.2203 37.329C95.1867 37.2912 95.1488 37.2576 95.111 37.2239C95.0311 37.1567 94.9681 37.0684 94.926 36.9717C94.884 36.8792 94.7368 36.711 94.4383 36.6858C94.2828 36.6732 94.1399 36.6059 94.0263 36.5008C93.9759 36.4546 93.7573 36.3873 93.648 36.3579C93.6101 36.3453 93.5723 36.3327 93.5345 36.3159C93.0804 36.0888 92.5675 35.9375 92.0504 35.8828C91.9958 35.8786 91.9453 35.866 91.8949 35.8492C91.3105 35.6432 90.8691 35.5087 90.436 35.6222C90.3309 35.6516 90.2216 35.6516 90.1123 35.6306C89.8559 35.5759 89.5616 35.5843 89.2505 35.5928H89.1118C89.1118 35.5928 89.0781 35.5928 89.0613 35.5928C88.767 35.5759 88.4601 35.5675 88.2247 35.6432C88.1196 35.6768 88.0103 35.6852 87.901 35.6642C87.3965 35.5759 86.8247 35.6642 86.2824 35.7525C86.1479 35.7735 86.0133 35.7567 85.8914 35.7063C85.5761 35.5675 85.08 35.5759 84.7353 35.7231C84.6596 35.7567 84.5797 35.7735 84.4957 35.7777H84.4452C84.2476 35.7861 84.0206 35.7945 83.8903 35.8408C83.7389 35.8912 83.5792 35.887 83.432 35.8324C83.1924 35.7441 82.8308 35.7819 82.5071 35.824C82.4398 35.8324 82.3684 35.8324 82.3011 35.824C81.969 35.7693 81.6158 35.7735 81.2122 35.8408C81.1744 35.8492 81.1324 35.8324 81.0945 35.8492C80.6237 35.8492 80.1192 35.8492 79.6399 35.9123C79.5516 35.9207 79.4676 35.9165 79.3835 35.8954C78.7571 35.7357 78.2652 35.7315 77.9204 35.8912C77.7817 35.9543 77.6219 35.9711 77.4748 35.9333C76.9955 35.8198 76.4364 35.8618 75.8983 35.9123C75.8268 35.9207 75.7553 35.9123 75.6839 35.8997C75.4737 35.8534 75.2298 35.8114 75.0154 35.8492C74.8641 35.8744 74.7127 35.8492 74.5782 35.7777C74.2629 35.6054 73.7458 35.6264 73.2959 35.8282C73.1614 35.887 73.0101 35.9039 72.8629 35.8702C72.6233 35.8156 72.3458 35.8114 72.0515 35.8114C71.8749 35.8114 71.7026 35.8114 71.526 35.7988C71.4756 35.7988 71.4293 35.7861 71.3831 35.7735C71.0846 35.6894 70.6894 35.6936 70.269 35.7819C70.2059 35.7945 70.1386 35.7988 70.0756 35.7945C69.92 35.7819 69.7645 35.7651 69.6089 35.7483C69.0918 35.6936 68.6042 35.6432 68.1753 35.7525C68.066 35.7819 67.9525 35.7819 67.839 35.7525C67.5237 35.6726 67.2715 35.6558 67.0528 35.6936C66.9814 35.7063 66.9099 35.7063 66.8426 35.6936C66.5736 35.6516 66.2793 35.6642 66.0312 35.681C65.9388 35.6852 65.8463 35.6726 65.758 35.6432L65.6823 35.618C65.5604 35.5801 65.4174 35.5717 65.2114 35.5675C64.9382 35.5507 64.728 35.5717 64.5472 35.6306C64.4841 35.6516 64.4169 35.66 64.3496 35.6642H64.1436C63.8325 35.6642 63.5382 35.6684 63.2818 35.7273C63.2145 35.7441 63.143 35.7483 63.0716 35.7399L62.8319 35.7147C62.5208 35.681 62.2476 35.6558 62.0037 35.7063C61.9365 35.7189 61.8692 35.7231 61.8019 35.7147C61.6043 35.6936 61.4278 35.6894 61.2554 35.6894C61.0956 35.6936 60.9401 35.639 60.8182 35.5423C60.7551 35.5591 60.6584 35.5759 60.5953 35.5759C60.4818 35.5759 60.3641 35.5633 60.2506 35.5507C60.1707 35.5423 60.0782 35.5297 60.0362 35.5381C59.8764 35.5675 59.7125 35.5381 59.5737 35.4582C59.5569 35.4498 59.5443 35.4414 59.5317 35.4372H59.5275C59.5275 35.4372 59.4939 35.4456 59.4813 35.4456C59.3215 35.4708 59.1618 35.4919 58.9978 35.5129C58.6909 35.5549 58.3756 35.5129 58.0897 35.3994C58.0182 35.3994 57.9468 35.3994 57.8753 35.3994C57.5642 35.3741 57.2783 35.269 57.0513 35.1051C56.8747 35.0798 56.7108 35.0252 56.5678 34.9495C56.4795 34.9033 56.3997 34.8486 56.3282 34.7856C56.1054 34.6931 55.912 34.5459 55.7732 34.361C55.7018 34.3147 55.6345 34.2685 55.5757 34.2138C55.4663 34.1129 55.3739 33.9994 55.3108 33.8733C55.2688 33.8354 55.2309 33.7976 55.1931 33.7556C55.088 33.6925 54.9661 33.6126 54.861 33.5075C54.7474 33.3898 54.655 33.2427 54.5961 33.0745C54.4826 32.9736 54.3943 32.8601 54.327 32.7298C54.3102 32.6961 54.2934 32.6625 54.2808 32.6289C54.2135 32.5364 54.1463 32.4229 54.1042 32.2883C54.0664 32.1748 54.0538 32.0655 54.0538 31.9646C54.0538 31.9562 54.0454 31.9478 54.0454 31.9436C54.0117 31.8721 53.915 31.6577 53.9319 31.3802C53.9024 31.3256 53.8772 31.2667 53.8604 31.2037C53.7637 30.9052 53.8057 30.5857 53.9655 30.3124C53.9781 30.1737 54.0159 30.0391 54.079 29.913C54.1168 29.6439 54.2514 29.3917 54.4784 29.1815C54.5162 29.1437 54.5541 29.1142 54.5961 29.0806C54.6129 28.9292 54.6634 28.7821 54.7559 28.6518C54.8778 28.471 55.0543 28.3281 55.2688 28.2398C55.2772 28.2272 55.2898 28.2188 55.2982 28.2061C55.4117 28.0968 55.542 28.017 55.6723 27.9413L55.7228 27.9119C55.8363 27.8404 55.9498 27.7941 56.0633 27.7689C56.1895 27.6764 56.3408 27.6092 56.5048 27.5713C56.5174 27.5671 56.53 27.5629 56.5426 27.5587C56.7654 27.3821 57.0681 27.2854 57.3624 27.2981C57.4423 27.2644 57.5264 27.2392 57.6146 27.2224C57.8459 27.1803 58.0813 27.1972 58.2915 27.2686C58.3293 27.2686 58.363 27.2644 58.4008 27.2644C58.4891 27.2434 58.5816 27.2308 58.6783 27.2266V27.2602C58.6783 27.2602 58.7119 27.2476 58.7245 27.2434V27.2308C58.7245 27.2308 58.7497 27.2308 58.7624 27.2308C58.8296 27.2056 58.9011 27.1845 58.9768 27.1719C59.1996 27.1257 59.435 27.1383 59.6536 27.2014C59.8344 27.1719 60.0236 27.1803 60.2002 27.2266C60.2506 27.2098 60.3011 27.1972 60.3515 27.1845C60.7005 27.0963 60.9611 27.1383 61.2218 27.2518C61.2596 27.2434 61.2974 27.2392 61.3353 27.235C61.4824 27.2182 61.6254 27.2266 61.7683 27.2602C61.886 27.2266 62.0037 27.214 62.1088 27.214C62.2307 27.1845 62.3653 27.1719 62.4914 27.1803C62.5965 27.1845 62.7016 27.2056 62.8025 27.235C62.9244 27.2266 63.0463 27.235 63.1641 27.256C63.2523 27.256 63.3364 27.2686 63.4163 27.2854C63.4163 27.2854 63.4247 27.2854 63.4289 27.2854C63.5382 27.256 63.6517 27.2434 63.7694 27.2476H63.9796V27.2518C64.0049 27.2518 64.0301 27.2518 64.0595 27.256C64.1058 27.256 64.1478 27.256 64.1898 27.2644C64.2361 27.2728 64.2992 27.2644 64.3748 27.2434C64.4421 27.2224 64.5178 27.2098 64.5892 27.2098C64.5934 27.2098 64.5976 27.2098 64.6019 27.2098C64.7448 27.2098 64.8751 27.193 64.9676 27.1635C65.0223 27.1467 65.0811 27.1341 65.14 27.1299C65.1862 27.1299 65.2283 27.1215 65.2745 27.1131C65.4132 27.0878 65.5604 27.1131 65.6907 27.1719C65.821 27.235 66.0397 27.2476 66.2667 27.2098C66.3297 27.1972 66.3928 27.1972 66.4559 27.2014L66.5694 27.214C66.7838 27.2392 66.9814 27.2602 67.1075 27.214C67.2462 27.1635 67.4018 27.1635 67.5405 27.214C67.7171 27.2728 67.9735 27.277 68.3225 27.2266C68.3729 27.2182 68.4276 27.2182 68.4822 27.2266C68.7345 27.2518 69.054 27.2686 69.2684 27.1887C69.3945 27.1425 69.5333 27.1341 69.6636 27.1635C69.9663 27.235 70.3362 27.1803 70.723 27.1257C70.8239 27.1089 70.9248 27.0963 71.0215 27.0836C71.1224 27.071 71.2233 27.0836 71.32 27.1131C71.6563 27.2224 72.0515 27.0794 72.3122 26.9113C72.4803 26.802 72.6905 26.7683 72.8839 26.8272C73.1866 26.9155 73.544 26.8356 73.6911 26.7095C73.7668 26.6422 73.8551 26.596 73.9518 26.5665L74.0611 26.5371C74.4394 26.4278 74.8262 26.3185 75.0701 26.1545C75.1794 26.0831 75.3097 26.041 75.44 26.0368C75.7385 26.0326 75.9781 25.9023 76.0244 25.835C76.0917 25.608 76.2556 25.4567 76.4826 25.3936C76.5583 25.3642 76.7601 25.1834 76.882 25.0783C76.9535 25.0152 77.0292 24.9522 77.0964 24.8933C77.1553 24.8218 77.2141 24.7546 77.2688 24.6873C77.4832 24.4351 77.6177 24.2711 77.6135 24.1366C77.6093 23.9348 77.6934 23.7372 77.8448 23.6026C77.9162 23.5396 77.9793 23.4555 77.912 23.2957C77.8069 23.0477 77.8532 22.766 78.0297 22.5642C78.1306 22.4507 78.076 22.3793 78.0508 22.3498C77.9541 22.2237 77.9036 22.0639 77.912 21.9042C77.9204 21.7192 77.849 21.5132 77.7186 21.3366C77.6934 21.303 77.6724 21.2694 77.6556 21.2315L77.5883 21.097C77.4412 20.7943 77.3907 20.7312 77.2772 20.7018C77.1006 20.6556 76.9451 20.5421 76.8526 20.3865C76.8064 20.3276 76.5751 20.2057 76.2766 20.1847C76.1926 20.1763 76.1127 20.1553 76.0412 20.1216C75.5788 19.9072 75.028 19.7601 74.4479 19.6045C74.162 19.5289 73.8719 19.4532 73.5986 19.3691C73.4977 19.3397 73.4136 19.3481 73.3632 19.3607C73.2791 19.3817 73.195 19.3817 73.1109 19.3733C72.9134 19.3481 72.6695 19.3523 72.3752 19.3901C72.2281 19.4069 72.0767 19.3775 71.9506 19.306C71.6942 19.1589 71.2906 19.1127 71.0131 19.1925C70.929 19.2178 70.8407 19.2262 70.7524 19.2178C70.2732 19.1715 69.7687 19.1337 69.3146 19.1799C69.281 19.1799 69.2516 19.1841 69.218 19.1799L69.1801 18.4863L69.1549 19.1757C69.0666 19.1757 68.9741 19.1547 68.8942 19.1169C68.6882 19.0286 68.415 18.9739 68.1795 18.9865C68.0492 18.9907 67.9189 18.9613 67.8054 18.894C67.7802 18.8772 67.7255 18.8646 67.6498 18.8478C67.4102 18.9445 67.1327 18.9529 66.8763 18.873C66.7586 18.9109 66.6324 18.9319 66.5063 18.9235C66.2919 18.9739 66.0607 18.9613 65.8589 18.8898C65.7243 18.8983 65.594 18.8898 65.4679 18.8562C65.3796 18.8436 65.2955 18.8226 65.2157 18.7889L65.1736 18.7721C65.1736 18.7721 65.1358 18.7721 65.1148 18.7679C65.1148 18.7679 65.1063 18.7679 65.1021 18.7679C64.9088 18.81 64.7112 18.8016 64.5262 18.7427C64.5094 18.7427 64.4967 18.7385 64.4841 18.7343C64.4001 18.7343 64.2865 18.7301 64.1604 18.6923C64.1226 18.6796 64.0848 18.667 64.0511 18.6544C64.0007 18.6544 63.9544 18.646 63.9082 18.6376C63.7947 18.6166 63.698 18.5787 63.6055 18.5283C63.5508 18.5115 63.5004 18.4905 63.4457 18.4652C63.349 18.4442 63.2481 18.4064 63.1514 18.3517C63.1514 18.3517 63.1514 18.3517 63.1472 18.3517C63.0716 18.3349 63.0001 18.3139 62.9286 18.2845C62.8824 18.2676 62.7773 18.2298 62.6722 18.1415C62.6385 18.1121 62.5713 18.0574 62.504 17.9734C62.4283 17.9313 62.3569 17.8809 62.2938 17.822C62.2434 17.7758 62.2013 17.7211 62.1635 17.6665C61.9995 17.595 61.8608 17.4857 61.7599 17.3511C61.5833 17.2418 61.4446 17.0737 61.3731 16.8719C61.3563 16.8256 61.3479 16.7836 61.3395 16.7458C61.3142 16.6995 61.2974 16.6449 61.2806 16.5818C61.2218 16.5145 61.1503 16.422 61.1082 16.2917C61.0704 16.1866 61.0578 16.0731 61.0662 15.9638C61.041 15.9049 61.02 15.8419 61.0116 15.7662C60.9863 15.6106 61.0158 15.4803 61.0326 15.4173C61.0158 15.3584 61.0074 15.3079 61.0074 15.2827C60.9989 15.2239 60.9989 15.1692 61.0031 15.1146C60.9569 14.9968 60.9359 14.8707 60.9443 14.7404C60.9569 14.5848 61.0074 14.4377 61.0956 14.3116C61.1167 14.2695 61.1419 14.2275 61.1713 14.1855C61.1923 14.135 61.226 14.0846 61.2596 14.0383C61.268 14.0047 61.2764 13.9752 61.289 13.9416C61.2974 13.8029 61.3395 13.6641 61.4151 13.538C61.474 13.4329 61.5707 13.3446 61.6884 13.2774C61.6926 13.2774 61.6968 13.269 61.7052 13.2648C61.722 13.2395 61.7431 13.2143 61.7641 13.1891C61.8019 13.126 61.8566 13.0419 61.9365 12.9663C61.9491 12.9536 61.9575 12.9452 61.9701 12.9368C61.9701 12.9368 61.9701 12.9326 61.9743 12.9284C61.9911 12.8906 62.0037 12.8612 62.0163 12.8317C62.0752 12.7056 62.1761 12.5921 62.3022 12.4996C62.3148 12.4828 62.3274 12.4702 62.3358 12.4576C62.4998 12.2726 62.7058 12.1507 62.9328 12.1128C62.9581 12.1002 62.9833 12.0834 63.0169 12.0666C63.0674 12.033 63.1178 12.0077 63.1725 11.9867C63.1977 11.9741 63.2229 11.9615 63.2397 11.9573C63.2523 11.9531 63.2607 11.9447 63.2734 11.9405C63.2776 11.9405 63.286 11.9363 63.2902 11.9321C63.3238 11.911 63.349 11.8942 63.3701 11.8858C63.4836 11.8185 63.6013 11.7723 63.719 11.7471C63.7274 11.7471 63.7358 11.7387 63.7484 11.7345C63.7989 11.7092 63.8661 11.6798 63.946 11.6546C64.0007 11.6041 64.0637 11.5621 64.1268 11.5243C64.2403 11.4612 64.3664 11.4234 64.4925 11.4065C64.5934 11.3645 64.7154 11.3393 64.8457 11.3351C64.8793 11.3225 64.9172 11.3098 64.9508 11.3014C65.1358 11.2047 65.3502 11.1627 65.5562 11.1879C65.6823 11.1375 65.8 11.1249 65.8841 11.1165C65.8925 11.1165 65.9009 11.1165 65.9051 11.1165H65.9135H65.9219C66.027 11.087 66.1658 11.0492 66.3466 11.045C66.3634 11.045 66.3886 11.045 66.4096 11.045C66.4853 11.045 66.561 11.0576 66.6324 11.0744C66.7459 11.0786 66.8552 11.0996 66.9561 11.1417C67.0192 11.1291 67.0907 11.1207 67.1537 11.1249C67.3429 11.1375 67.5363 11.1501 67.7297 11.1501C67.9399 11.1543 68.1543 11.1291 68.3855 11.0996L68.457 11.0912C68.5789 11.0786 68.7009 11.0954 68.8144 11.1459C69.0288 11.2426 69.3693 11.2047 69.7309 11.1669C69.92 11.1459 70.1092 11.1291 70.2942 11.1207C70.3152 11.1207 70.3363 11.1207 70.3573 11.1207C71.4293 11.1879 72.5686 11.1879 73.75 11.1207C74.183 11.0786 74.6244 11.1375 75.0112 11.1921C75.1794 11.2132 75.3475 11.2384 75.5115 11.251C75.6292 11.2468 75.7511 11.23 75.8688 11.2132C76.1043 11.1837 76.3733 11.1459 76.6634 11.1669C76.9073 11.1627 77.1427 11.1963 77.3487 11.2216C77.4748 11.2384 77.6009 11.2552 77.7313 11.2636C78.2778 11.2174 78.7907 11.2804 79.2153 11.1963C79.291 11.1837 79.3667 11.1795 79.4423 11.1921C79.9468 11.2678 80.4849 11.3225 80.9894 11.2468C81.0105 11.2468 81.0273 11.2426 81.0483 11.2384C81.2963 11.2216 81.536 11.2258 81.763 11.23C82.0447 11.2342 82.3305 11.2384 82.5912 11.1963C82.6711 11.1837 82.751 11.1837 82.8308 11.1963C83.1588 11.2594 83.4867 11.2594 83.8314 11.1963C83.8987 11.1837 83.9701 11.1837 84.0374 11.1879C84.3107 11.2216 84.6176 11.1837 84.9455 11.1417L85.0212 11.1333C85.1221 11.1207 85.2272 11.1333 85.3197 11.1627C85.5425 11.2384 85.8704 11.2972 86.1815 11.1711C86.3118 11.1165 86.4548 11.1038 86.5935 11.1333C86.9593 11.2132 87.3881 11.1837 87.8421 11.1543C88.2205 11.1291 88.6451 11.0996 89.0697 11.1375C89.3976 11.1123 89.6793 11.1627 89.9358 11.2047C90.0661 11.2258 90.1964 11.251 90.3309 11.2552C90.4108 11.2552 90.5243 11.2174 90.7135 11.1543C90.8354 11.1123 90.9658 11.108 91.0919 11.1375C91.4745 11.23 91.8654 11.3056 92.1135 11.2005C92.2438 11.1459 92.3867 11.1333 92.5255 11.1627C92.9039 11.2426 93.3116 11.2342 93.7447 11.2258C93.875 11.2258 94.0011 11.2216 94.1314 11.2216C94.3585 11.1963 94.5687 11.2047 94.7452 11.2132C94.9302 11.2216 95.1026 11.23 95.2371 11.1963C95.3885 11.1585 95.5482 11.1753 95.687 11.2384C95.9266 11.3477 96.3428 11.3351 96.6413 11.2132C96.7632 11.1627 96.8935 11.1501 97.0239 11.1711C97.3896 11.2342 97.8016 11.2089 98.2304 11.1795C98.3019 11.1753 98.3692 11.1795 98.4364 11.1963C98.6172 11.2384 98.8064 11.2804 98.962 11.2804C99.0755 11.2804 99.1806 11.2468 99.3487 11.1711C99.5211 11.0996 99.7145 11.0996 99.8869 11.1711C100.164 11.2888 100.467 11.2174 100.673 11.1375C100.757 11.1038 100.845 11.087 100.942 11.0912H101.119C101.497 11.1123 101.854 11.1249 102.111 11.024C102.254 10.9693 102.409 10.9651 102.556 11.0071C102.699 11.0492 102.914 11.0282 103.141 11.0071L103.326 10.9903C103.372 10.9903 103.414 10.9903 103.46 10.9903C103.633 11.0114 103.813 10.9903 104.019 10.9189C104.141 10.881 104.268 10.8726 104.394 10.902C104.495 10.9273 104.671 10.9483 104.965 10.9105C105.049 10.902 105.134 10.9105 105.213 10.9273C105.34 10.9609 105.529 10.9147 105.659 10.881C105.789 10.8432 105.928 10.8474 106.054 10.8894C106.18 10.9315 106.365 10.9315 106.567 10.8936C106.689 10.8726 106.819 10.881 106.937 10.9273C106.937 10.9273 107 10.9525 107.177 10.9273C107.236 10.9189 107.299 10.9189 107.358 10.9273C107.488 10.9441 107.547 10.9273 107.551 10.9273C107.618 10.902 107.685 10.8894 107.753 10.8852C107.782 10.8852 107.795 10.8768 107.795 10.8768C107.976 10.6498 108.261 10.5741 108.539 10.6708C108.573 10.6708 108.711 10.6498 108.762 10.6162C108.867 10.5531 108.993 10.5111 109.115 10.5111C109.182 10.4564 109.254 10.427 109.338 10.3976C109.371 10.3849 109.397 10.3639 109.405 10.3555C109.476 10.2714 109.565 10.2084 109.661 10.1663C109.804 10.1075 109.914 10.0444 109.994 9.97714C110.103 9.88886 110.233 9.8342 110.376 9.82159C110.46 9.81318 110.536 9.76273 110.704 9.63661C110.759 9.59457 110.818 9.55253 110.872 9.51049C110.927 9.47265 110.99 9.43902 111.057 9.418C111.288 9.34232 111.423 9.20779 111.452 9.13212C111.528 8.95134 111.679 8.81261 111.864 8.74534C111.915 8.72852 111.944 8.72012 111.982 8.56457C111.995 8.51832 112.011 8.47207 112.033 8.43003C112.087 8.31652 112.15 8.20722 112.213 8.09791C112.348 7.85407 112.478 7.62705 112.482 7.45889C112.487 7.2655 112.575 7.08052 112.726 6.95439C112.785 6.90394 112.823 6.84509 112.827 6.79464C112.827 6.78202 112.827 6.74419 112.781 6.68953C112.646 6.54239 112.583 6.34059 112.608 6.143C112.629 5.97484 112.621 5.9328 112.617 5.92439C112.579 5.87394 112.545 5.81508 112.524 5.75622C112.474 5.62169 112.457 5.50398 112.449 5.4241C112.327 5.26014 112.251 5.10038 112.184 4.96585C112.104 4.80189 112.058 4.71361 111.982 4.65054C111.957 4.62952 111.932 4.6043 111.911 4.57907C111.873 4.53703 111.789 4.47397 111.717 4.41511C111.57 4.3016 111.406 4.17128 111.272 3.9947C111.209 3.91062 111.166 3.81393 111.145 3.71303C111.124 3.60372 110.801 3.3725 110.254 3.32625C110.099 3.31364 109.951 3.24637 109.838 3.13707C109.636 2.94368 109.157 2.81335 108.703 2.92266C108.615 2.94368 108.526 2.94788 108.438 2.93527C108.139 2.89323 107.786 2.84698 107.425 2.87221C107.391 2.87221 107.353 2.87221 107.32 2.87221C107.08 2.85119 106.866 2.83437 106.702 2.868C106.563 2.89743 106.42 2.88482 106.29 2.83017C105.987 2.70404 105.579 2.69564 105.197 2.80494C105.037 2.85119 104.869 2.83858 104.717 2.76711C104.44 2.6578 104.028 2.67041 103.578 2.79653C103.486 2.82176 103.393 2.82596 103.296 2.81335C102.893 2.75449 102.443 2.73768 101.884 2.7629C101.35 2.85539 100.824 2.87641 100.316 2.82176C100.118 2.82596 99.9205 2.82596 99.7229 2.82176H99.643C99.4833 2.82176 99.3277 2.82176 99.168 2.82176C99.1175 2.82176 99.0671 2.82176 99.0208 2.80915C98.634 2.73347 98.2473 2.74609 97.9782 2.84698C97.8437 2.89743 97.6923 2.90584 97.5494 2.868C97.3182 2.80494 97.0028 2.81755 96.7001 2.83017C96.6707 2.83017 96.6035 2.83017 96.574 2.83017L96.4857 2.82176C96.2419 2.80074 96.0149 2.77551 95.8089 2.78813C95.7626 2.79233 95.7164 2.79653 95.6702 2.80074C95.6323 2.80494 95.5945 2.81335 95.5566 2.82176C95.5188 2.83017 95.4768 2.83858 95.4347 2.83858C95.2161 2.85119 95.0143 2.83858 94.7831 2.83437C94.6275 2.83017 94.4972 2.82176 94.3711 2.82596H94.3627C94.2155 2.82596 94.0768 2.77972 93.9633 2.69984C93.9507 2.69984 93.9381 2.69984 93.9255 2.69984L93.833 2.70825C93.7321 2.71666 93.6312 2.72086 93.5303 2.71666C93.4672 2.71666 93.4083 2.70825 93.3537 2.69984C93.2696 2.72086 93.1855 2.74188 93.1014 2.7587C92.9165 2.79233 92.7231 2.79653 92.5339 2.77131C92.1807 2.84698 91.8528 2.79653 91.5838 2.75449C91.4408 2.80074 91.2643 2.85119 91.0583 2.868C90.9237 2.87641 90.6715 2.88482 90.4108 2.81335C90.2679 2.81335 90.1376 2.79233 90.0156 2.77131C89.9988 2.77131 89.9862 2.76711 89.9694 2.7629C89.9694 2.7629 89.9694 2.7629 89.9652 2.7629C89.961 2.7629 89.9526 2.7629 89.9484 2.7629L89.8727 2.75029C89.8349 2.75029 89.7928 2.75029 89.755 2.74188C89.734 2.74188 89.7171 2.73768 89.7003 2.73347H89.6835L89.4313 2.80074C89.0361 2.90164 88.5904 2.868 88.2163 2.71245C88.1616 2.71245 88.1112 2.71245 88.0565 2.71245C87.8295 2.74608 87.5815 2.7587 87.3082 2.69984C87.0097 2.76711 86.7322 2.74188 86.5388 2.71245C86.3749 2.75029 86.2109 2.78813 86.047 2.82176C85.6266 2.91425 85.223 2.82176 84.9623 2.73347C84.9623 2.73347 84.9623 2.73347 84.9539 2.73347C84.6218 2.82596 84.2434 2.82176 83.9029 2.72506C83.5161 2.80074 83.1503 2.77551 82.8224 2.75449C82.6963 2.74609 82.5744 2.73768 82.4483 2.73768C82.423 2.73768 82.3558 2.74609 82.2927 2.75029C82.0573 2.76711 81.7924 2.78392 81.5023 2.73768C81.3552 2.73347 81.187 2.7587 81.0062 2.77972C80.8717 2.79653 80.7414 2.81755 80.6069 2.82596C80.527 2.83437 80.4471 2.82596 80.3672 2.80074C80.2243 2.7587 80.0687 2.72506 79.9594 2.72506C79.8838 2.72506 79.7997 2.74609 79.703 2.77131C79.5348 2.81335 79.3204 2.8638 79.0724 2.85119C79.0093 2.85119 78.9462 2.83858 78.8832 2.81755C78.6015 2.72506 78.3156 2.72506 78.0592 2.81755C77.9793 2.84698 77.8994 2.8638 77.8153 2.8596H77.5715C77.2184 2.84278 76.8862 2.83437 76.5793 2.88482C76.47 2.90164 76.3523 2.89323 76.2472 2.85539C75.9866 2.76711 75.6586 2.81335 75.2761 2.8638L75.0238 2.89743C74.9229 2.91005 74.8262 2.89743 74.7295 2.868C74.5824 2.82176 74.4394 2.77972 74.3175 2.77972C74.1956 2.77972 74.0527 2.82176 73.8761 2.87641C73.7836 2.90584 73.6869 2.91425 73.5902 2.90164C73.3926 2.87641 73.1824 2.88062 72.9596 2.88482H72.7999C72.7662 2.88482 72.7326 2.88482 72.7031 2.88482L72.5686 2.868C72.4089 2.84278 72.2533 2.82176 72.1398 2.83017C71.7488 2.89743 71.4461 2.92266 71.0509 2.87641C70.8533 2.88902 70.6684 2.88482 70.4876 2.87641C70.311 2.87641 70.1597 2.868 70.0041 2.87641C69.9411 2.87641 69.8822 2.87641 69.8233 2.8638C69.4702 2.79233 69.1843 2.79653 68.9489 2.88062C68.8396 2.91845 68.7177 2.93107 68.6 2.91005C68.3645 2.868 68.1039 2.8596 67.8306 2.85119C67.6078 2.84278 67.3766 2.83858 67.1369 2.80915C66.8426 2.84278 66.561 2.84278 66.2877 2.84278C66.1069 2.84278 65.9261 2.84278 65.7454 2.85539C65.6529 2.8638 65.5604 2.84698 65.4721 2.81755C65.2283 2.72927 64.9634 2.72086 64.6775 2.77972C64.585 2.80074 64.4841 2.80074 64.3916 2.77972C64.2655 2.75449 64.1226 2.7629 63.9628 2.80915C63.8367 2.84698 63.7022 2.84278 63.5761 2.80915C63.2944 2.72506 63.0421 2.69984 62.8361 2.73768C62.7941 2.74609 62.752 2.74609 62.7058 2.74609C62.4241 2.74609 62.1635 2.70825 61.9112 2.67462L61.7893 2.6578C61.6464 2.63678 61.4824 2.64519 61.3058 2.6578C61.1082 2.66621 60.8896 2.67882 60.6584 2.6578C60.5701 2.64939 60.4818 2.65359 60.3935 2.6578C60.1665 2.66621 59.8722 2.67462 59.5653 2.56951C59.3131 2.51486 59.002 2.54849 58.6741 2.58633L58.4134 2.61155C58.3419 2.61996 58.2747 2.61155 58.2032 2.59894C57.7996 2.51066 57.354 2.51066 56.9294 2.52327C56.8705 2.52327 56.8159 2.52327 56.7612 2.50645C56.7318 2.51486 56.6981 2.51906 56.6645 2.52327C56.366 2.56951 56.0591 2.53588 55.7943 2.43078C55.6808 2.47702 55.563 2.48963 55.4411 2.47282C55.2561 2.44759 55.0543 2.44759 54.7853 2.46861C54.718 2.47702 54.6465 2.46861 54.5751 2.456L54.5162 2.44339C54.4826 2.43498 54.449 2.42657 54.4153 2.42237C54.3607 2.43078 54.306 2.43498 54.2514 2.43498C54.1 2.43919 53.9571 2.42237 53.8436 2.39714C53.7469 2.39714 53.6502 2.40135 53.5493 2.39714C53.4484 2.40555 53.3475 2.41816 53.2466 2.42657C53.0406 2.44339 52.8472 2.42657 52.6664 2.38033C52.6496 2.37612 52.6328 2.37192 52.616 2.36772C52.4646 2.35931 52.3049 2.3509 52.1493 2.3467L51.9643 2.35931L51.5733 2.44759C51.4472 2.47702 51.3211 2.48123 51.2328 2.48543L50.8629 2.50645C50.619 2.52327 50.3878 2.48963 50.1776 2.40976C50.1482 2.41396 50.1187 2.41816 50.0893 2.42237C49.9758 2.456 49.8707 2.47282 49.7824 2.48543L49.6395 2.51066C49.4965 2.54008 49.3326 2.57372 49.1182 2.56951C49.0004 2.56951 48.8743 2.56951 48.7524 2.56531L48.4833 2.61576C48.4161 2.63257 48.311 2.64939 48.2059 2.6578C48.0461 2.66621 47.9116 2.65359 47.8065 2.64098L47.6719 2.62837C47.5248 2.61576 47.3735 2.60315 47.2305 2.57372L46.9699 2.52327L46.6503 2.54429C46.5284 2.5527 46.4107 2.54429 46.3056 2.52327C46.1501 2.54849 46.0113 2.5527 45.8936 2.5569H45.8221C45.7591 2.56951 45.696 2.57792 45.633 2.58213L44.809 2.67882C44.5777 2.70404 44.3675 2.67882 44.1994 2.6578L44.048 2.64098H43.8126C43.7369 2.64098 43.6486 2.64519 43.5519 2.64098C43.3333 2.80494 43.0558 2.91005 42.7447 2.94368C42.6607 2.95209 42.564 2.96049 42.4547 2.95629C42.4378 2.9689 42.4168 2.97731 42.3958 2.98992C42.2991 3.04458 42.1982 3.08241 42.1057 3.10764C41.9712 3.26319 41.7694 3.34307 41.5592 3.33886C41.185 3.33886 40.8277 3.49862 40.4913 3.67099C40.4283 3.70042 40.3652 3.72564 40.298 3.73405C39.9574 3.79291 39.6884 3.9863 39.3815 4.20491L39.2511 4.2974C39.146 4.4025 39.0409 4.48658 38.9442 4.56646C38.877 4.62111 38.7719 4.70099 38.7508 4.73883C38.6962 4.89438 38.6037 4.99528 38.4608 5.07936C38.1581 5.25593 38.0656 5.41149 38.0572 5.44512C38.1791 5.68055 38.1581 5.9328 37.9983 6.143C37.8806 6.29855 37.8428 6.53819 37.8764 6.92076C37.889 7.07631 37.8512 7.23607 37.7629 7.3664C37.7629 7.38321 37.8175 7.4757 37.9521 7.5724C38.1707 7.72374 38.2842 7.99281 38.2379 8.25346C38.2169 8.37538 38.3683 8.51412 38.5995 8.58559C38.7088 8.61922 38.8055 8.67808 38.8896 8.75795C39.0451 8.91351 39.2091 9.07326 39.3815 9.19098C39.4067 9.20359 39.4277 9.2162 39.4529 9.23302C39.579 9.26245 39.6968 9.30869 39.8103 9.36755C39.8607 9.39698 39.9112 9.42641 39.9574 9.46004C39.9742 9.47265 39.9953 9.48526 40.0121 9.49788C40.0751 9.53992 40.1256 9.59037 40.1676 9.64922C40.2055 9.69127 40.2433 9.73751 40.2727 9.78796C40.319 9.81318 40.3652 9.84261 40.4031 9.86784C40.4703 9.91408 40.5334 9.96453 40.588 10.0192L40.8739 10.1117L40.7268 10.7885L40.9286 10.1285C41.0379 10.1621 41.1724 10.2042 41.3069 10.284C41.349 10.3051 41.3952 10.3387 41.4373 10.3723C41.4625 10.3891 41.4835 10.4102 41.5087 10.427C41.5466 10.4606 41.576 10.49 41.6012 10.5153C41.6349 10.5195 41.6685 10.5279 41.7021 10.5321C41.8661 10.5657 42.0174 10.6246 42.1351 10.6708L42.2276 10.7045C42.2276 10.7045 42.2444 10.7087 42.2529 10.7129C42.2865 10.7255 42.3201 10.7423 42.3496 10.7549C42.4294 10.7423 42.5093 10.7423 42.5892 10.7549C42.6985 10.7759 42.812 10.7969 42.9087 10.8011C43.451 10.7381 43.9765 10.7675 44.5063 10.8096C44.9393 10.7507 45.3429 10.7717 45.7339 10.7927L45.9525 10.8054C46.0029 10.8096 46.0618 10.7843 46.108 10.7717C46.2131 10.7381 46.3603 10.6918 46.5368 10.6792C46.5873 10.6792 46.6335 10.6792 46.684 10.6792C46.9278 10.7129 47.1128 10.7885 47.2641 10.8516C47.3861 10.902 47.4491 10.9273 47.5122 10.9315C47.6888 10.9483 47.8443 10.9105 48.0419 10.86L48.1764 10.8264C48.2689 10.8054 48.3656 10.8011 48.4581 10.818C48.5548 10.8348 48.6641 10.8516 48.7524 10.8432C48.8113 10.839 48.8785 10.818 48.9626 10.7927C49.135 10.7381 49.32 10.7549 49.4797 10.8348C49.5175 10.8558 49.6226 10.8852 49.8623 10.8684C50.001 10.8558 50.1397 10.8936 50.2575 10.9651C50.4719 11.0954 50.6611 11.1879 50.8797 11.2426C50.9848 11.2678 51.0857 11.3225 51.1655 11.3939C51.2034 11.4234 51.3379 11.4738 51.4262 11.5074L51.586 11.5663C51.6658 11.5957 51.7373 11.642 51.8004 11.7008C51.8718 11.7681 51.9349 11.8059 52.0106 11.8269C52.225 11.8942 52.3889 12.0624 52.4562 12.2768C52.4814 12.3567 52.494 12.3777 52.4982 12.3819C52.5193 12.3987 52.5697 12.4365 52.7043 12.4786C52.906 12.5459 53.07 12.7014 53.1415 12.899C53.1583 12.9452 53.1919 13.0041 53.2466 13.0756C53.2928 13.1386 53.3307 13.2143 53.3517 13.29L53.3769 13.3909C53.3895 13.4371 53.4063 13.496 53.4147 13.517C53.5241 13.7356 53.524 14.0299 53.3895 14.2359C53.3979 14.2317 53.4063 14.2569 53.4358 14.2948C53.6628 14.5638 53.646 14.9632 53.4021 15.2155C53.3517 15.2659 53.3391 15.3037 53.3391 15.3122C53.4232 15.4803 53.44 15.6863 53.3769 15.8629C53.3391 15.9638 53.2928 16.0689 53.2466 16.1698C53.2172 16.2371 53.1709 16.3337 53.1583 16.38C53.1961 16.6112 53.1162 16.8467 52.9397 17.0022C52.8682 17.0695 52.843 17.1199 52.8388 17.1325C52.822 17.204 52.7967 17.2797 52.7589 17.3427C52.7169 17.4142 52.6622 17.4857 52.6034 17.5571L52.5949 17.5656C52.5319 17.7295 52.41 17.864 52.2502 17.9439C52.0358 18.049 51.8172 18.0995 51.6238 18.1457C51.4935 18.1751 51.3253 18.2172 51.2706 18.255C51.1403 18.3433 50.9848 18.3854 50.8334 18.3727C50.7788 18.3727 50.7157 18.3811 50.64 18.4106C50.5602 18.44 50.4761 18.4568 50.3878 18.4568C50.3163 18.4568 50.2491 18.4484 50.1818 18.4442C50.1566 18.4442 50.1355 18.4358 50.1103 18.4358C50.0473 18.4442 50.0052 18.461 49.9548 18.4736C49.8623 18.4989 49.7488 18.5325 49.6184 18.5493C49.4503 18.5787 49.2989 18.5619 49.2022 18.5493C49.1812 18.5493 49.1644 18.5451 49.1434 18.5451C48.9248 18.5871 48.7188 18.5829 48.5422 18.5787C48.4917 18.5787 48.4413 18.5787 48.3908 18.5787C48.0125 18.6586 47.6467 18.6544 47.2936 18.6544C47.1254 18.6544 46.9572 18.6544 46.7933 18.6628C46.7302 18.6628 46.6672 18.6628 46.6083 18.6502C46.4822 18.625 46.3098 18.6376 46.1248 18.6502C46.0029 18.6586 45.8768 18.667 45.7549 18.667C45.6666 18.667 45.5867 18.6502 45.5068 18.6208C45.427 18.5914 45.3008 18.5956 45.1999 18.6292C45.1032 18.6628 45.0023 18.6754 44.9014 18.667C44.7585 18.6544 44.6912 18.6628 44.6618 18.6712C44.5819 18.6965 44.4978 18.7049 44.418 18.7007C44.3549 18.7007 44.1657 18.688 44.1111 18.7091C43.9807 18.7553 43.8336 18.7679 43.7033 18.7343C43.6612 18.7217 43.615 18.7133 43.5729 18.7091C43.5435 18.7091 43.5099 18.7091 43.4594 18.7175C43.3585 18.7385 43.2534 18.7343 43.1567 18.7091C43.0348 18.6796 42.9045 18.6628 42.7952 18.6544C42.7784 18.6544 42.7111 18.6838 42.6607 18.7007C42.5556 18.7427 42.4505 18.7805 42.3369 18.8058C42.2276 18.831 42.1141 18.831 42.009 18.8016C41.9081 18.7763 41.74 18.8016 41.5592 18.8226C41.4415 18.8394 41.328 18.852 41.2144 18.8604C41.1976 18.8604 41.1766 18.8604 41.1682 18.8604C41.0673 18.8604 40.9622 18.8562 40.8571 18.8478C40.6679 18.8394 40.4745 18.8268 40.3694 18.8646C40.2517 18.9067 40.1214 18.9151 39.9995 18.8898C39.928 18.8772 39.8733 18.8646 39.8187 18.852C39.6715 18.8352 39.4908 18.852 39.3016 18.8772C39.1166 18.8983 38.9316 18.9193 38.734 18.9151C38.6836 18.9151 38.6289 18.9067 38.5785 18.894C38.3935 18.8478 38.2001 18.8436 37.9773 18.8352C37.8091 18.831 37.6368 18.8226 37.4644 18.8058C37.1827 18.7931 36.9263 18.81 36.7076 18.8562C36.653 18.8688 36.5983 18.873 36.5437 18.8688L36.2872 18.8562C36.0182 18.8436 35.7617 18.831 35.5305 18.8604C35.4969 18.8646 35.4632 18.8646 35.4296 18.8688C35.3119 18.8688 35.19 18.8562 35.0723 18.8478C34.9125 18.8352 34.778 18.8226 34.6771 18.8394C34.5804 18.8604 34.4837 18.8562 34.387 18.8394C34.1516 18.7847 33.8783 18.7889 33.5882 18.7889H33.5462C33.3948 18.7889 33.2351 18.7889 33.0795 18.7805C32.9744 18.7763 32.8735 18.7469 32.7852 18.6965C32.6213 18.604 32.3102 18.5998 31.957 18.6796C31.8729 18.7007 31.7804 18.7007 31.6964 18.688C31.5366 18.6628 31.3348 18.6376 31.2045 18.6712C31.1162 18.6965 31.0195 18.7007 30.927 18.688C30.6369 18.646 30.4309 18.6502 30.3048 18.7049C30.1703 18.7637 30.0147 18.7763 29.8676 18.7427C29.8213 18.7301 29.7751 18.7217 29.7246 18.7133L29.5985 18.688C29.4934 18.6712 29.3673 18.6838 29.2033 18.7175C29.0772 18.7427 28.9469 18.7301 28.825 18.6838C28.7241 18.646 28.64 18.6208 28.5517 18.6082C28.5349 18.6082 28.4886 18.6082 28.4382 18.6082C28.1775 18.6082 27.9589 18.6502 27.837 18.7259C27.6688 18.8268 27.467 18.852 27.2821 18.7931C27.0676 18.7301 26.8028 18.7511 26.5001 18.7805C26.3403 18.7974 26.1806 18.81 26.0166 18.8142C25.7938 18.8352 25.6046 18.7931 25.4659 18.7637C25.4238 18.7553 25.3818 18.7427 25.3398 18.7385C25.159 18.7301 24.9446 18.7511 24.7596 18.8058C24.6629 18.8352 24.5662 18.8394 24.4653 18.8268C24.3728 18.8142 24.2803 18.8016 24.2047 18.81C24.1458 18.8142 24.0659 18.8352 23.9818 18.8604C23.8809 18.8898 23.7716 18.894 23.6665 18.873C23.4984 18.8394 23.2756 18.8478 23.0359 18.8898C22.9266 18.9109 22.8131 18.9025 22.708 18.8688C22.544 18.8184 22.3464 18.8142 22.0395 18.852C21.9597 18.8646 21.884 18.8604 21.8041 18.8436C21.5939 18.7974 21.3543 18.8184 21.0768 18.8394C20.9297 18.852 20.7867 18.8604 20.6396 18.8646C20.5891 18.8646 20.5345 18.8646 20.484 18.852C20.1309 18.7805 19.7105 18.7847 19.2354 18.8688C19.1471 18.8856 19.0504 18.8814 18.9621 18.8604C18.7351 18.81 18.4997 18.81 18.2895 18.8604C18.1844 18.8856 18.0793 18.8898 17.9742 18.8646C17.8228 18.831 17.6673 18.831 17.4991 18.8562C17.4361 18.8646 17.373 18.8688 17.3099 18.8562C16.8265 18.7974 16.2883 18.7974 15.7082 18.8604C15.5905 18.873 15.4727 18.8562 15.3634 18.81C15.0776 18.688 14.6782 18.6965 14.3166 18.8268C14.1779 18.8772 14.0265 18.8814 13.8836 18.8394C13.8121 18.8184 13.707 18.8058 13.5935 18.7889L13.4296 18.7679C13.3707 18.7595 13.2656 18.7805 13.1647 18.7974C13.0344 18.8226 12.8746 18.8562 12.6938 18.8604C12.6728 18.8604 12.656 18.8604 12.635 18.8604C12.5004 18.852 12.3533 18.8604 12.1935 18.8772C12.0128 18.894 11.811 18.9067 11.5966 18.8983C11.3864 18.8772 11.2014 18.8856 11.0038 18.8898C10.8272 18.894 10.6254 18.9025 10.4152 18.8898C10.1504 18.9109 9.8855 18.8983 9.61644 18.852C9.35578 18.8436 9.05729 18.9067 8.76721 18.9697C8.62427 18.9992 8.46872 18.9865 8.33418 18.9277C7.99786 18.7805 7.55643 18.8646 7.05193 18.9613C6.72401 19.0244 6.38769 19.0874 6.03034 19.1C5.96307 19.1085 5.91683 19.1253 5.8874 19.1379C5.81172 19.1799 5.72764 19.2009 5.63936 19.2136C5.48801 19.2304 5.34087 19.2556 5.18952 19.285C4.91625 19.3313 4.66821 19.3985 4.40335 19.47C4.16792 19.5331 3.9367 19.5961 3.69286 19.6466C3.56253 19.6844 3.45322 19.7433 3.40278 19.8063C3.3271 19.903 3.222 19.9787 3.10849 20.0207C2.90669 20.0964 2.77636 20.2267 2.73432 20.3234C2.65865 20.4958 2.51991 20.6303 2.34334 20.6976C2.01122 20.8237 1.82624 21.0466 1.87669 21.2652C1.93134 21.5048 1.85146 21.757 1.67069 21.9252C1.53195 22.0513 1.32175 22.2952 1.46048 22.4759C1.59922 22.6525 1.64126 22.8837 1.5782 23.0982C1.5824 23.1276 1.60762 23.2033 1.71693 23.3882C1.73375 23.4177 1.75056 23.4429 1.76318 23.4765C1.85987 23.6993 1.96918 23.8423 2.12893 23.96C2.26767 24.0609 2.36436 24.2122 2.398 24.3804C2.41902 24.4813 2.65865 24.7041 3.05384 24.7756C3.25984 24.8134 3.44061 24.9396 3.54151 25.1245C3.634 25.2969 3.88625 25.4819 4.21837 25.4903C4.31086 25.4903 4.40335 25.5155 4.48743 25.5533L4.70184 25.6542C5.00033 25.7972 5.25678 25.9191 5.54266 25.9443C5.63515 25.9527 5.72764 25.978 5.81172 26.0242C6.01773 26.1335 6.21111 26.1966 6.4045 26.2176C6.48438 26.226 6.56005 26.2512 6.63573 26.2849C6.72822 26.3311 6.87116 26.3858 7.03091 26.3774C7.18646 26.3689 7.34202 26.4152 7.46814 26.5077C7.56904 26.5792 7.75822 26.6422 7.92218 26.6044C8.02308 26.5792 8.13239 26.5792 8.23329 26.6044C8.40565 26.6422 8.61586 26.6716 8.81766 26.6969L8.94798 26.7137C9.00264 26.7221 9.06149 26.7347 9.11194 26.7557C9.19602 26.7725 9.42725 26.7852 9.60382 26.7852C9.64166 26.7852 9.6837 26.7852 9.72154 26.7936C9.86868 26.8146 9.99901 26.8524 10.1083 26.8861C10.1882 26.9113 10.2597 26.9323 10.3143 26.9407C10.5413 26.9365 10.7599 26.9491 10.9533 26.9659C11.2518 26.9869 11.5041 27.008 11.7269 26.9533C11.7984 26.9365 11.8698 26.9323 11.9413 26.9407C12.0506 26.9491 12.1599 26.9659 12.2734 26.9785C12.6476 27.0248 13.0007 27.0668 13.253 26.9659C13.3833 26.9155 13.5304 26.9029 13.6692 26.9365C13.7827 26.9659 13.9382 26.9407 14.119 26.9155C14.2536 26.8945 14.3881 26.8776 14.5226 26.8692C14.5941 26.8692 14.6656 26.8692 14.737 26.8903C14.9598 26.9491 15.2836 27.0206 15.5652 26.9827C16.0277 26.9365 16.4565 26.9407 16.8727 26.9491C17.0577 26.9491 17.2385 26.9575 17.4192 26.9533L17.579 26.9365C17.8439 26.9029 18.0499 26.8776 18.4324 26.9197C18.5375 26.9197 18.6468 26.9281 18.7519 26.9323C19.0126 26.9491 19.206 26.9617 19.3489 26.9113C19.4456 26.8776 19.5507 26.865 19.6558 26.8776C19.9123 26.9071 20.1351 26.9071 20.3327 26.8776C20.4672 26.8566 20.6102 26.8776 20.7363 26.9323C21.0474 27.0752 21.5351 27.0921 21.8251 26.9617C21.9344 26.9155 22.048 26.8945 22.1657 26.9071C22.7038 26.9575 23.2713 26.9996 23.7632 26.9071C23.8978 26.8818 24.0365 26.8987 24.1626 26.9533C24.3938 27.0542 24.583 27.0921 24.7428 27.0752C24.7596 27.0752 24.7722 27.0752 24.789 27.0752C24.8563 27.0752 24.953 27.0458 25.0539 27.0206C25.2347 26.9743 25.4617 26.9197 25.7265 26.9281C25.7476 26.9281 25.7686 26.9281 25.7938 26.9323C25.983 26.9575 26.1932 26.9533 26.4118 26.9533C26.5758 26.9533 26.7271 26.9533 26.8743 26.9533C26.9037 26.9533 26.9373 26.9533 26.9668 26.9617C27.2989 27.0164 27.5301 27.0206 27.7193 26.9659C27.8034 26.9407 27.8959 26.9365 27.9799 26.9449C28.1271 26.9617 28.2742 26.9575 28.4214 26.9323C28.4928 26.9197 28.5685 26.9197 28.64 26.9323C28.8838 26.9701 29.1823 26.9533 29.4388 26.8903C29.527 26.8692 29.6195 26.865 29.7078 26.8776C29.9811 26.9197 30.2207 26.9281 30.4225 26.9029C30.5066 26.8945 30.5949 26.8987 30.6748 26.9155C31.0952 27.0164 31.5618 26.9323 32.0117 26.8482C32.0411 26.844 32.0705 26.8398 32.0958 26.8398C32.4699 26.8188 32.8273 26.8482 33.1426 26.8692C33.3654 26.8861 33.563 26.8987 33.7564 26.9029C34.017 26.8566 34.2609 26.8566 34.4669 26.8566C34.6434 26.8566 34.8074 26.8566 34.9335 26.8314C35.0386 26.8104 35.1479 26.8146 35.253 26.844C35.644 26.9533 35.9341 26.9743 36.1401 26.9113C36.22 26.886 36.3041 26.8776 36.3881 26.8818L36.5689 26.8945C36.8043 26.9113 37.0272 26.9239 37.2332 26.9113C37.2836 26.9113 37.3299 26.9113 37.3761 26.9155C37.5106 26.9365 37.6704 26.9281 37.8428 26.9155C38.1118 26.9029 38.4103 26.886 38.734 26.9575C39.0157 27.0164 39.352 26.9869 39.6968 26.9491C39.7472 26.9449 39.7977 26.9449 39.8481 26.9491C40.1424 26.9827 40.4745 26.9701 40.8949 26.9113C40.9916 26.8987 41.0883 26.9071 41.1766 26.9323C41.2102 26.9407 41.2481 26.9491 41.2817 26.9575C41.3238 26.9659 41.3616 26.9743 41.4036 26.9869C41.4541 27.0038 41.5129 27.0164 41.5802 27.0248C41.6559 27.0332 41.7315 27.05 41.803 27.0836C41.9712 27.1593 42.2318 27.1803 42.4168 27.1887C42.4336 27.1887 42.4462 27.1887 42.4631 27.1887C42.6565 27.2098 42.833 27.256 43.0096 27.3023C43.1946 27.3485 43.3711 27.3947 43.5141 27.399C43.6907 27.399 43.8588 27.4704 43.9849 27.5965C44.0312 27.6386 44.233 27.6932 44.3549 27.7227C44.5231 27.7689 44.7123 27.8194 44.9014 27.9034C44.9393 27.9203 44.9729 27.9413 45.0065 27.9623C45.0444 27.9833 45.0906 27.9959 45.1369 28.0127C45.284 28.0674 45.4858 28.1389 45.6666 28.2944C45.6918 28.3154 45.717 28.3407 45.7381 28.3659C45.7717 28.3701 45.8053 28.3743 45.8432 28.3827C45.9693 28.4079 46.0954 28.45 46.2131 28.513C46.4443 28.5341 46.663 28.5971 46.8521 28.7064C47.0581 28.8283 47.2263 28.9965 47.3314 29.1899C47.5332 29.3665 47.6677 29.5935 47.7056 29.8457C47.7392 30.077 47.693 30.3082 47.5752 30.5142C47.5837 30.5394 47.5921 30.5688 47.5963 30.6025C47.6089 30.6613 47.6131 30.7202 47.6089 30.7833C47.6047 30.8799 47.6131 30.9766 47.6215 31.0733C47.6299 31.17 47.6341 31.2667 47.6383 31.3592C47.6383 31.498 47.6047 31.6325 47.529 31.7502C47.6047 31.9856 47.55 32.2421 47.3819 32.4271C47.3861 32.5784 47.344 32.7255 47.2515 32.8517C47.1801 32.9526 47.0918 33.0535 47.0035 33.1502C46.9446 33.2174 46.8521 33.3141 46.8353 33.3562C46.7933 33.4823 46.7134 33.5916 46.6041 33.6757C46.5536 33.7135 46.5074 33.764 46.4738 33.8186C46.4149 33.9153 46.335 33.9952 46.2383 34.0498C46.2299 34.054 46.2257 34.0583 46.2257 34.0583C46.129 34.2012 45.9819 34.3063 45.8137 34.3441C45.7675 34.3567 45.7339 34.3694 45.7128 34.382C45.6414 34.5627 45.4942 34.7099 45.305 34.7772C45.2546 34.794 45.1957 34.836 45.1201 34.8865C45.0402 34.9411 44.9603 34.9916 44.872 35.042C44.8005 35.0798 44.7249 35.1051 44.6408 35.1177C44.6198 35.1177 44.5945 35.1261 44.5735 35.1345C44.5567 35.1387 44.5525 35.1387 44.5525 35.1345C44.4348 35.2522 44.275 35.3237 44.1027 35.3321C44.0186 35.3363 43.9219 35.3741 43.8462 35.433C43.7579 35.5003 43.657 35.5507 43.5477 35.5717L43.4174 35.597C43.3417 35.6096 43.2618 35.6222 43.1904 35.6432C43.1357 35.66 43.0769 35.6684 43.018 35.6684C42.9507 35.6684 42.8877 35.6768 42.8204 35.6894C42.7363 35.7063 42.6522 35.7063 42.5682 35.6936C42.1393 35.6222 41.74 35.6138 41.349 35.6684C41.2985 35.6768 41.2481 35.6768 41.1934 35.6684C40.8823 35.639 40.5586 35.66 40.2181 35.681C39.9238 35.6979 39.5875 35.7189 39.2385 35.7063C38.9568 35.7189 38.6962 35.7021 38.4397 35.681C38.0572 35.6516 37.7335 35.6264 37.4644 35.7147C37.3803 35.7441 37.292 35.7525 37.2079 35.7483C37.0524 35.7399 36.901 35.7315 36.7455 35.7231C36.6278 35.7189 36.5101 35.7567 36.3881 35.7988C36.2746 35.8366 36.1569 35.8492 36.0392 35.8282C35.6945 35.7651 35.3119 35.7861 34.9083 35.8114L34.6308 35.824C34.593 35.824 34.5594 35.824 34.5215 35.824C34.1137 35.7777 33.6933 35.8156 33.3023 35.9333C33.1636 35.9753 33.0165 35.9711 32.8819 35.9249C32.3774 35.7525 31.8813 35.845 31.2507 35.9669L31.1372 35.9879C31.1078 35.9921 31.0826 35.9963 31.0531 36.0005C30.8219 36.0174 30.6075 35.9879 30.4225 35.9627C30.288 35.9459 30.1619 35.9249 30.0736 35.9291C29.6868 35.9291 29.3463 36.0048 29.073 36.1393C28.9679 36.1897 28.846 36.215 28.7367 36.2108C27.7193 36.1687 27.0088 36.2318 26.622 36.3957C26.5674 36.4168 26.5127 36.4336 26.4581 36.442C26.3698 36.4546 26.3025 36.4714 26.2563 36.4882C26.1175 36.5429 25.962 36.5513 25.819 36.5092C25.2935 36.3579 24.6461 36.5387 24.4611 36.7867C24.3602 36.9254 24.2089 37.0221 24.0407 37.0516C23.7632 37.1062 23.5152 37.2408 23.2587 37.4678C23.2167 37.5056 23.1747 37.535 23.1242 37.5645C22.9434 37.6654 22.8131 37.7873 22.7542 37.9218C22.6828 38.0858 22.5524 38.2161 22.3885 38.2834C22.0606 38.4221 21.8756 38.6533 21.9218 38.7711C22.0311 39.0317 21.9681 39.3344 21.7621 39.532C21.699 39.5951 21.6906 39.6413 21.6906 39.6791C21.6906 39.7506 21.7369 39.8725 21.863 39.9818C21.9975 40.1038 22.0816 40.2719 22.0942 40.4527C22.1068 40.6881 22.2582 41.0413 22.6281 41.2641C22.8005 41.3692 22.9182 41.5416 22.9476 41.7392C22.9602 41.8148 23.1158 42.0082 23.6077 42.1974C23.6329 42.2058 23.6581 42.2184 23.6791 42.231C23.9945 42.3992 24.5326 42.5463 24.9488 42.5127C25.0959 42.5001 25.2431 42.5379 25.3692 42.6136C25.4028 42.6346 25.4911 42.6767 25.6509 42.6893C25.7013 42.6935 25.7518 42.7061 25.798 42.7187C25.8737 42.6977 25.9452 42.6851 26.0208 42.6725C26.0755 42.6641 26.1301 42.6641 26.1806 42.6725C26.2058 42.6725 26.231 42.6725 26.2605 42.6683L26.3445 42.6598C26.374 42.6598 26.4034 42.6598 26.4286 42.6598C26.7145 42.6767 26.9752 42.7565 27.2106 42.8869L27.2568 42.9121H27.3073C27.4124 42.8995 27.5217 42.8911 27.6268 42.8953C27.7067 42.8953 27.7908 42.9079 27.879 42.9247L28.1817 42.992L28.3457 42.9415C28.413 42.9205 28.476 42.9037 28.5349 42.8869C28.6736 42.8532 28.8208 42.8658 28.9553 42.9205C29.2159 43.0256 29.5313 43.0382 29.7751 42.9541C29.8592 42.9247 29.9517 42.9121 30.0399 42.9205C30.1661 42.9289 30.2922 42.9163 30.3973 42.8827C30.4856 42.8532 30.5823 42.8448 30.6748 42.8532C30.8513 42.8701 31.0279 42.8953 31.2087 42.9205C31.688 42.9878 32.142 43.0508 32.5498 42.9752C32.6549 42.9583 32.7642 42.9625 32.8693 42.9962C33.1804 43.0887 33.5336 43.1896 33.8573 43.1601C33.9414 43.1559 34.0212 43.1349 34.1179 43.1097C34.2398 43.0803 34.3828 43.0424 34.5467 43.0298C34.5972 43.0256 34.6434 43.0298 34.6939 43.0298C35.0344 43.0718 35.3876 43.0761 35.7617 43.0761H36.0476C36.0854 43.0761 36.1275 43.0845 36.1653 43.0887C36.4092 43.1349 36.6782 43.1349 36.9137 43.0887C36.9893 43.0718 37.0734 43.0719 37.1533 43.0845C37.5106 43.1391 37.8259 43.1265 38.0656 43.0424C38.2043 42.9962 38.3515 42.992 38.4944 43.034C38.7172 43.1013 39.0031 43.1223 39.2553 43.0803C39.3941 43.0592 39.5328 43.0803 39.6589 43.1391C39.9448 43.2779 40.4115 43.2568 40.794 43.0929C40.9033 43.0466 41.0211 43.0298 41.1346 43.0382L41.3238 43.0592C41.7904 43.1097 42.2276 43.1559 42.5976 43.0592C42.6775 43.0382 42.7616 43.0298 42.8456 43.0424L43.018 43.0634C43.2408 43.0887 43.43 43.1139 43.594 43.0845C43.6402 43.0761 43.6865 43.0718 43.7369 43.0761H43.8294C44.0522 43.0929 44.2456 43.1013 44.418 43.0761C44.5315 43.055 44.6492 43.0676 44.7585 43.1055C45.0612 43.2106 45.4606 43.2022 45.8768 43.0803C45.9567 43.0592 46.0407 43.0466 46.1206 43.055C46.4359 43.0803 46.8101 43.1013 47.1843 43.0718C47.2347 43.0718 47.2852 43.0718 47.3314 43.0718C47.6593 43.1181 48.0083 43.1013 48.3824 43.0887C48.6431 43.0803 48.9079 43.0676 49.1728 43.0761C49.2148 43.0761 49.2569 43.0845 49.2989 43.0929C49.7025 43.1812 50.0851 43.1685 50.3752 43.0592C50.4929 43.013 50.619 43.0046 50.7451 43.0256C50.9848 43.0718 51.1782 43.0718 51.3295 43.0256C51.4809 42.9836 51.6448 42.992 51.7878 43.0508C52.0862 43.177 52.3133 43.2232 52.5319 43.2022C52.6622 43.1896 52.8009 43.1475 52.9733 43.0634C53.1036 43.0046 53.2466 42.9836 53.3853 43.0088C53.5661 43.0424 53.7889 43.0298 54.0243 43.0214C54.0664 43.0214 54.1168 43.0214 54.1589 43.0256C54.4069 43.0592 54.7012 43.0971 54.9871 43.0845C55.067 43.0845 55.1594 43.0971 55.2393 43.1265C55.5883 43.2526 56.0045 43.2568 56.2946 43.1349C56.4417 43.0718 56.6099 43.0634 56.7612 43.1097C57.1564 43.2274 57.6146 43.2484 58.1233 43.1643C58.1696 43.1559 58.22 43.1559 58.2663 43.1559C58.9599 43.1896 59.578 43.1854 60.1581 43.1391C60.2086 43.1391 60.259 43.1391 60.3095 43.1433C60.5071 43.1727 60.7257 43.1685 60.9569 43.1685C61.0998 43.1685 61.2428 43.1685 61.3815 43.1727C61.4236 43.1727 61.4656 43.1812 61.5034 43.1896C61.8692 43.2694 62.256 43.261 62.5461 43.1643C62.6806 43.1181 62.8277 43.1181 62.9665 43.1643C63.4667 43.3199 63.8703 43.3409 64.131 43.219C64.2403 43.1685 64.3622 43.1475 64.4841 43.1601C65.0433 43.2148 65.5057 43.2526 65.9472 43.1812C66.0102 43.1727 66.0733 43.1685 66.1364 43.177C66.3718 43.2022 66.6198 43.219 66.8342 43.177C66.9267 43.1601 67.0234 43.1559 67.1117 43.177C67.4186 43.24 67.6835 43.2652 67.9189 43.2484C68.3561 43.1601 68.7597 43.2106 69.1213 43.2484C69.445 43.2863 69.7225 43.3199 69.9537 43.2484C70.042 43.2232 70.1387 43.2148 70.2311 43.2232C70.4918 43.2526 70.6936 43.2526 70.8407 43.219C70.9248 43.198 71.0131 43.1938 71.0972 43.2064C71.3368 43.2442 71.568 43.2316 71.7278 43.1812C71.8455 43.1433 71.9674 43.1349 72.0894 43.1643C72.3374 43.219 72.5392 43.2064 72.7578 43.1643C72.8629 43.1433 72.9638 43.1433 73.0689 43.1685C73.401 43.2526 73.5356 43.2358 73.8214 43.1812C73.935 43.1601 74.0527 43.1643 74.162 43.2022C74.2713 43.2358 74.4436 43.2442 74.595 43.2442C74.616 43.2442 74.6455 43.24 74.6539 43.2358C74.7211 43.2358 74.7884 43.2358 74.8557 43.2526C75.0701 43.3031 75.398 43.2947 75.6881 43.2863H75.7595C75.7595 43.2863 75.7721 43.2863 75.7764 43.2863L75.7469 43.3241ZM56.4585 29.0848L56.4417 29.0932C56.4417 29.0932 56.4501 29.089 56.4585 29.0848ZM63.9292 28.6392C63.9292 28.6392 63.9418 28.6392 63.946 28.6392H63.9292ZM59.826 28.5593C59.826 28.5593 59.826 28.5593 59.8302 28.5593C59.8302 28.5593 59.8302 28.5593 59.826 28.5593ZM65.1946 17.7085L65.1736 18.0827L65.2283 17.6286L65.1904 17.7085H65.1946ZM66.1195 17.5992C66.1195 17.5992 66.1111 17.5992 66.1111 17.6034C66.1111 17.6034 66.1195 17.6034 66.1195 17.5992ZM65.2114 17.3932L65.203 17.5656L65.2577 17.4016C65.2577 17.4016 65.2367 17.3974 65.2283 17.3932C65.2241 17.3932 65.2199 17.3932 65.2114 17.3932ZM65.2409 17.389C65.2409 17.389 65.2535 17.389 65.2577 17.3932C65.2577 17.3932 65.2451 17.389 65.2409 17.389ZM63.6601 17.3596C63.6601 17.3596 63.6601 17.3596 63.6601 17.3638C63.6601 17.3638 63.6601 17.3638 63.6601 17.3596ZM64.4001 17.2965C64.4001 17.2965 64.4085 17.2965 64.4127 17.2965H64.4001ZM64.1058 17.2629C64.1058 17.2629 64.1058 17.2629 64.11 17.2671C64.11 17.2671 64.11 17.2671 64.1058 17.2629ZM64.0932 17.2544C64.0932 17.2544 64.0974 17.2544 64.1016 17.2587C64.1016 17.2587 64.0974 17.2587 64.0932 17.2544ZM62.937 16.8845C62.937 16.8845 62.937 16.8887 62.937 16.8929C62.937 16.8929 62.937 16.8887 62.937 16.8845ZM62.6638 16.6785H62.6722C62.6722 16.6785 62.6722 16.6533 62.6764 16.6364C62.6764 16.6364 62.6722 16.6659 62.668 16.6785H62.6638ZM61.9911 16.565L62.2307 16.607L62.1761 16.586L61.9911 16.565ZM64.7616 12.693C64.7616 12.693 64.7826 12.693 64.7952 12.693C64.7826 12.693 64.77 12.693 64.7616 12.693ZM40.5796 11.4402C40.5796 11.4402 40.5796 11.4402 40.588 11.4486C40.588 11.4486 40.5838 11.4444 40.5796 11.4402Z" fill="#EDB371"/>
</svg>
