<svg width="157" height="73" viewBox="0 0 157 73" fill="none" xmlns="http://www.w3.org/2000/svg">
<path d="M127.843 72.9736C127.429 72.9736 127.037 72.9316 126.666 72.8965C126.512 72.8825 126.35 72.8615 126.196 72.8475H126.14C125.587 72.8615 124.97 72.8755 124.389 72.7774C124.375 72.7774 124.361 72.7774 124.347 72.7774C123.99 72.7774 123.569 72.7704 123.149 72.6794C122.469 72.7844 121.881 72.7424 121.419 72.6513C120.886 72.7424 120.326 72.7424 119.884 72.6583C119.31 72.7914 118.75 72.7774 118.308 72.7284C117.909 72.7985 117.454 72.8055 116.942 72.7564C116.193 72.9245 115.499 72.8475 114.876 72.7704C114.371 72.7144 113.937 72.6654 113.552 72.7494C113.503 72.7634 113.454 72.7704 113.404 72.7704C112.837 72.8195 112.228 72.7844 111.555 72.6654C111.037 72.7424 110.539 72.7214 110.07 72.6654C109.208 72.7844 108.375 72.7354 107.471 72.6513C106.644 72.9386 105.664 72.9316 104.55 72.6373C103.779 72.8265 102.917 72.8335 102.07 72.6583C101.895 72.6583 101.719 72.6583 101.544 72.6583C101.131 72.6583 100.704 72.6583 100.262 72.6093C99.2746 72.6794 98.2238 72.6864 97.0609 72.6373C96.0591 72.7844 95.1204 72.7564 94.2658 72.5603C93.3901 72.8195 92.3743 72.8055 91.4426 72.5182C90.9172 72.5182 90.4268 72.4622 90.0065 72.4062C89.6562 72.4202 89.2779 72.4342 88.8926 72.4062C88.5774 72.5322 88.1851 72.6583 87.7227 72.7004C86.9381 72.7774 86.2446 72.6023 85.7192 72.4132C85.3129 72.4762 84.8785 72.4762 84.4092 72.4132C83.4214 72.7074 82.4476 72.6233 81.7471 72.4902C81.3898 72.4902 81.0396 72.4972 80.6893 72.5112C80.0378 72.5393 79.3653 72.5603 78.6647 72.4832C78.0062 72.5252 77.3898 72.4972 76.8503 72.4622C76.1148 72.6513 75.106 72.7704 74.0832 72.4902C73.6559 72.5322 73.2496 72.5112 72.8923 72.4902H72.8503C72.3108 72.5533 71.8205 72.4902 71.3861 72.4412H71.3161C70.3703 72.6373 69.4246 72.5322 68.591 72.4412H68.563C67.6803 72.7494 66.4894 72.8895 65.4035 72.5042C64.8641 72.5533 64.3107 72.5182 63.7993 72.4062C63.1758 72.5603 62.4823 72.5883 61.7327 72.4972C61.1442 72.5883 60.5278 72.5813 59.9253 72.4832H59.554C58.9446 72.4762 58.3071 72.4692 57.6626 72.3991C57.5715 72.4132 57.4804 72.4412 57.3894 72.4622C57.1652 72.5182 56.892 72.5883 56.5697 72.6023C55.7851 72.6654 55.0425 72.5112 54.342 72.3081C53.4033 72.4202 52.4926 72.2941 51.6729 72.182C51.4698 72.154 51.2666 72.1259 51.0705 72.1049C50.7693 72.175 50.461 72.203 50.1248 72.21C49.3752 72.4202 48.5485 72.4062 47.7709 72.182L47.3436 72.3151C47.1475 72.3781 46.9373 72.3851 46.7412 72.3431L46.1597 72.21C46.1597 72.21 46.0896 72.196 46.0826 72.196L45.9776 72.175C45.8585 72.175 45.7674 72.175 45.6763 72.189L45.214 72.217C44.9898 72.231 44.7446 72.182 44.5485 72.0629L44.2402 71.8877C44.1281 71.8247 44.0371 71.7967 43.939 71.7827H43.925C43.8269 71.7897 43.7008 71.8037 43.5677 71.7967C43.5257 71.8037 43.4836 71.8177 43.4416 71.8317L43.2455 71.9018C42.9722 71.9998 42.678 71.9928 42.4118 71.8807C42.3418 71.8527 42.2787 71.8177 42.2157 71.7827C41.9144 71.7336 41.6412 71.6496 41.389 71.5375C40.2471 71.5585 39.1263 71.1802 38.4257 70.8299C37.0037 70.2695 36.3662 69.5129 36.1 68.8544C35.2943 68.2379 34.7339 67.3483 34.5518 66.3955C34.0964 65.8631 33.8302 65.2046 33.8162 64.5531C33.8092 64.0557 33.9353 63.5794 34.1945 63.159C34.0894 62.0382 34.7759 60.9103 35.9879 60.2518C36.2891 59.7684 36.7234 59.3481 37.2699 59.0329C37.8653 58.5145 38.4888 58.1642 39.1753 57.968C40.1211 57.0503 41.7673 56.623 43.2595 56.9242C43.3505 56.9032 43.4486 56.8822 43.5537 56.8612C44.7586 56.3918 46.4189 56.3708 47.6659 56.4128C48.3664 56.1186 49.179 55.9575 50.0407 55.9505C50.3629 55.9435 50.6782 55.9855 50.9514 56.0275C51.1616 56.0556 51.3367 56.0696 51.4978 56.0836L51.6029 56.0626C52.6677 55.8594 53.8586 55.6282 55.1476 55.9645C55.9602 55.7613 56.8219 55.7053 57.6556 55.7823L58.0128 55.7613C58.6924 55.7263 59.3999 55.6843 60.1285 55.7823C60.4717 55.6773 60.857 55.6002 61.3054 55.6212C61.5015 55.6282 61.7047 55.6422 61.9078 55.6492C62.7135 55.4391 63.4911 55.4951 64.1916 55.5512C64.5839 55.5792 64.9482 55.6072 65.2704 55.5862C65.3125 55.5862 65.3545 55.5862 65.3895 55.5862C65.8799 55.6072 66.3633 55.5792 66.8396 55.5512C67.4281 55.5161 68.0376 55.4741 68.675 55.5231C69.4526 55.4321 70.2583 55.4461 71.0779 55.5652C71.19 55.5512 71.3161 55.5372 71.4352 55.5302C71.5683 55.4951 71.7084 55.4741 71.8415 55.4461C72.1707 55.2359 72.528 55.0888 72.9063 55.0118C73.1305 54.8646 73.3897 54.7526 73.6769 54.6825C73.6979 54.6825 73.7189 54.6685 73.7469 54.6685C73.782 54.6475 73.81 54.6265 73.845 54.6054C73.9501 54.5354 74.0622 54.4583 74.1953 54.3883C74.4475 54.01 74.8538 53.6947 75.3512 53.5056C75.4212 53.4355 75.5053 53.3655 75.5894 53.3024C75.7015 53.1483 75.8276 53.0082 75.9677 52.8751C76.1428 52.5459 76.374 52.2937 76.5771 52.0765C76.5771 52.0765 76.5911 52.0625 76.5981 52.0555C76.6262 51.8243 76.6962 51.6001 76.8083 51.39C76.8083 51.3409 76.8083 51.2849 76.8083 51.2358C76.8083 51.0117 76.8503 50.7034 77.0255 50.3672C77.0255 50.3602 77.0255 50.3532 77.0255 50.3392C77.0115 50.178 76.9975 50.0029 76.9975 49.8208C76.8503 49.5405 76.8153 49.2043 76.9064 48.9101C76.9204 48.819 76.9484 48.7279 76.9904 48.6438C76.9975 48.5948 77.0115 48.5458 77.0185 48.5037C76.9414 48.4127 76.8784 48.3076 76.8293 48.2025C76.7943 48.2025 76.7453 48.1885 76.6822 48.1955C76.402 48.2095 76.1078 48.1114 75.8906 47.9293C75.6524 47.9503 75.3722 47.9013 75.162 47.7752C74.9379 47.6351 74.7277 47.4669 74.5526 47.2848C74.5175 47.2778 74.4615 47.2568 74.4055 47.2358C74.2303 47.1727 74.0132 47.0886 73.789 46.9626C73.6559 46.9065 73.4807 46.8645 73.2916 46.8154C72.9063 46.7104 72.451 46.5913 72.0306 46.3251C71.6804 46.283 71.3651 46.199 71.0709 46.1219C70.8607 46.0659 70.6576 46.0168 70.4964 45.9958C70.0201 45.9678 69.4246 45.9047 68.8712 45.6946C68.675 45.6666 68.4789 45.6245 68.2968 45.5615C68.2687 45.5615 68.2337 45.5475 68.2057 45.5405C67.4771 45.6315 66.8536 45.6455 66.2652 45.5965C65.5576 45.6736 64.8081 45.7296 64.0305 45.5615C63.7853 45.5054 63.4911 45.5194 63.1548 45.5405C62.8255 45.5615 62.4472 45.5755 62.0479 45.5335C61.5996 45.5545 61.1723 45.5265 60.7589 45.4984H60.6609C59.9884 45.6525 59.2318 45.6245 58.3491 45.4074C58.0198 45.4494 57.6976 45.4494 57.4174 45.4494C57.1021 45.4494 56.8149 45.4494 56.5837 45.4984C56.4857 45.5194 56.3876 45.5265 56.2895 45.5265C55.8762 45.5265 55.4769 45.4984 55.0916 45.4704C54.5732 45.4284 54.1038 45.3933 53.6555 45.4144C52.8218 45.5685 51.8131 45.7366 50.7482 45.5265C50.3209 45.5615 49.8445 45.5475 49.3472 45.4844C48.7447 45.6035 48.1142 45.6315 47.5258 45.5615C47.1965 45.6035 46.8672 45.6105 46.545 45.5895C45.8304 45.7436 45.1439 45.6736 44.6115 45.5895C44.4224 45.5895 44.2262 45.5895 44.0301 45.5895C43.5957 45.5895 43.1684 45.5965 42.7201 45.5475C42.608 45.5475 42.4468 45.5895 42.2717 45.6385C42.0265 45.7016 41.7463 45.7716 41.4241 45.7927C40.8566 45.8557 40.2682 45.7716 39.6447 45.5405C38.741 45.6666 37.8303 45.6175 36.9616 45.5405C36.0159 45.8627 34.853 45.8417 33.8863 45.4914C33.508 45.5264 33.1087 45.5264 32.6883 45.4914C32.1209 45.6315 31.5815 45.5965 31.1401 45.5685C30.8809 45.5545 30.6918 45.5685 30.4956 45.5405C30.0963 45.4914 29.9352 45.5124 29.5569 45.5615L29.2066 45.6035C29.1716 45.6035 29.1366 45.6035 29.0946 45.6035C28.7583 45.6035 28.408 45.6035 28.0648 45.6035C27.3993 45.5895 26.7898 45.5825 26.1873 45.6455C25.4447 45.7436 24.6952 45.6105 24.1487 45.4774C24.0437 45.4914 23.9456 45.5054 23.8405 45.5194C23.4832 45.5755 23.0559 45.6385 22.5725 45.5825C21.7319 45.8207 20.8982 45.7226 20.1557 45.6385C20.0436 45.6245 19.9385 45.6105 19.8264 45.6035C19.1959 45.7156 18.6005 45.6736 18.0681 45.6315C17.7598 45.6105 17.4516 45.5895 17.1714 45.5965C17.1364 45.5965 17.1013 45.5965 17.0593 45.5965C16.709 45.5755 16.4078 45.4844 16.1626 45.4144C16.0785 45.3863 15.9945 45.3583 15.9034 45.3443C15.5391 45.3443 14.9297 45.3303 14.4743 45.1902L14.3762 45.1762C14.061 45.1341 13.7317 45.0991 13.4095 45.0361C12.73 45.1271 12.0154 45.001 11.4059 44.6648C10.9996 44.6368 10.5863 44.5387 10.187 44.3636C9.71063 44.2865 9.24127 44.1394 8.77191 43.9152C7.9873 43.8101 7.36382 43.5089 6.8104 43.2427L6.6773 43.1796C5.67552 43.0816 4.74381 42.5912 4.15535 41.8486C3.06952 41.5264 2.21486 40.8258 1.85058 39.9642C1.42325 39.5789 1.07998 39.1095 0.820785 38.5351C0.617629 38.1988 0.267359 37.5823 0.288375 36.8468C-0.216013 35.859 -0.0408785 34.6891 0.771747 33.7083C0.785758 32.5735 1.4863 31.5297 2.64219 30.9482C2.97144 30.4508 3.45481 30.0375 4.05027 29.7643C4.43557 29.386 4.94696 29.1058 5.54943 28.9447C5.57745 28.9447 5.59847 28.9307 5.62649 28.9307C5.99777 28.8536 6.35505 28.7625 6.70532 28.6645C7.17468 28.5384 7.65805 28.4123 8.18346 28.3212C8.44266 28.2652 8.68784 28.2301 8.91902 28.1951C9.19924 28.076 9.50748 28.006 9.82972 27.9779C9.85775 27.9779 9.87876 27.9779 9.90678 27.9779C10.3201 27.9709 10.7825 27.8799 11.2658 27.7888C12.2256 27.6066 13.2974 27.3965 14.3902 27.7468C14.9507 27.6277 15.5531 27.5296 16.1906 27.5786C16.2327 27.5786 16.2817 27.5856 16.3237 27.5926C16.6109 27.6487 16.8912 27.6627 17.1714 27.6347C17.2344 27.6347 17.2905 27.6277 17.3535 27.6347C17.6267 27.6557 17.8999 27.6417 18.1732 27.6347C18.6005 27.6207 18.9998 27.6066 19.4341 27.6557C19.5812 27.6557 19.8194 27.6417 20.0646 27.6207C20.3658 27.5926 20.7091 27.5646 21.0804 27.5856C21.1715 27.5856 21.2905 27.5506 21.4237 27.5296C21.7389 27.4665 22.1802 27.3755 22.6776 27.4595L22.8808 27.4876C23.0279 27.5086 23.189 27.5226 23.3501 27.5576C24.2959 27.2844 25.2836 27.2914 26.1383 27.5716C27.119 27.4806 28.0508 27.4806 28.9054 27.5716C29.3117 27.5226 29.711 27.5296 30.1033 27.5856C30.6568 27.4806 31.2452 27.4735 31.8127 27.5786C32.7444 27.4315 33.613 27.4315 34.3906 27.5786C34.5518 27.5716 34.7199 27.5576 34.881 27.5436C35.3854 27.5016 35.9528 27.4595 36.5553 27.5576C37.0247 27.5086 37.5851 27.4806 38.1736 27.6137C38.5588 27.5576 39.0422 27.5296 39.5396 27.5856C39.7007 27.5506 39.8689 27.5156 40.051 27.4946C40.3242 27.4665 40.5764 27.4806 40.8076 27.5086C41.291 27.3965 41.8094 27.3474 42.3278 27.3755C42.5449 27.3965 42.706 27.4315 42.8672 27.4665C42.9442 27.4806 43.0493 27.5086 43.0843 27.5086C43.1264 27.5086 43.1474 27.5086 43.1894 27.5016C43.4206 27.5016 43.6518 27.4735 43.8759 27.4525C44.4013 27.4035 44.9758 27.3475 45.5923 27.4525C46.2017 27.2073 46.8462 27.1513 47.3226 27.1513C47.4417 27.1513 47.5608 27.1513 47.6799 27.1653C47.9951 27.1933 48.2543 27.2564 48.4715 27.3264C48.8358 27.2704 49.2421 27.2494 49.6904 27.3334L49.8726 27.3685C49.8726 27.3685 49.8866 27.3685 49.8936 27.3685C50.503 27.2003 51.1125 27.2214 51.5889 27.2844C52.0442 27.2003 52.4926 27.2284 52.8919 27.2844C53.6134 27.1443 54.5522 27.0953 55.3928 27.4525C55.5399 27.4525 55.68 27.4525 55.8271 27.4525C56.3876 27.4525 56.948 27.4525 57.5084 27.5506C57.9078 27.5016 58.272 27.5366 58.5803 27.5646C58.6924 27.5716 58.8114 27.5856 58.9235 27.5926C59.484 27.5296 60.0094 27.5506 60.5138 27.5786L60.78 27.5926C61.3054 27.4946 61.8868 27.4665 62.5033 27.4946C62.5313 27.4946 62.5593 27.4946 62.5874 27.4946C62.8255 27.5226 63.0497 27.5296 63.2809 27.5366C63.6802 27.5506 64.1215 27.5646 64.6049 27.6627C64.766 27.6627 64.9482 27.6347 65.1303 27.6137C65.6067 27.5576 66.1601 27.4946 66.7416 27.5996C66.7626 27.5996 66.7766 27.6066 66.7976 27.6137C67.274 27.5156 67.7433 27.5366 68.1286 27.5576C68.2547 27.5576 68.3738 27.5716 68.4929 27.5716C68.619 27.5646 68.7451 27.5436 68.8782 27.5296C69.2425 27.4806 69.6768 27.4245 70.1462 27.4806C70.1602 27.4806 70.1672 27.4735 70.1812 27.4665C70.4474 27.3615 70.8537 27.2003 71.3721 27.2284C71.6664 27.2284 71.9396 27.2774 72.1847 27.3334C72.3459 27.3124 72.542 27.3054 72.7592 27.3334C72.8362 27.3334 72.9133 27.3545 72.9904 27.3615C73.3056 27.2984 73.6138 27.2914 73.9011 27.3054C74.2023 27.2424 74.4895 27.2354 74.7277 27.2424C75.2601 27.1023 75.8205 27.1023 76.3319 27.2424C76.43 27.2424 76.5351 27.2284 76.6332 27.2214C77.0185 27.1933 77.4528 27.1653 77.9152 27.2424C78.1954 27.2284 78.4756 27.2284 78.7488 27.2284C79.2672 27.2284 79.7506 27.2284 80.1639 27.1373C80.2339 27.1233 80.311 27.1093 80.3811 27.1093C80.5422 27.1093 80.7033 27.1093 80.8644 27.1093C81.0746 27.1093 81.2777 27.1163 81.4109 27.0882C81.4389 27.0812 81.4739 27.0742 81.5089 27.0742C81.7681 27.0392 81.9923 27.0602 82.1534 27.0742C82.1955 27.0742 82.2305 27.0812 82.2725 27.0812C82.3846 27.0672 82.4617 27.0392 82.5387 27.0182C82.7139 26.9692 82.931 26.9061 83.1972 26.8781C83.4004 26.8501 83.6035 26.8711 83.7647 26.8781C83.9818 26.815 84.199 26.773 84.4162 26.759C84.7664 26.5909 85.1237 26.5068 85.4319 26.4368C85.523 26.4157 85.6141 26.3947 85.6982 26.3737C85.7402 26.3177 85.7752 26.2756 85.8102 26.2336C85.9013 25.9674 86.0414 25.7082 86.2236 25.47C86.2726 25.0497 86.4407 24.6924 86.5668 24.4192C86.4617 23.9218 86.5248 23.4034 86.749 22.927C86.5808 22.4577 86.5598 21.9603 86.6929 21.4979C86.6789 21.4559 86.6719 21.4209 86.6579 21.3789C86.6229 21.3228 86.5878 21.2738 86.5598 21.2177C86.2866 21.0846 86.0554 20.9375 85.8523 20.7484C85.6211 20.5382 85.467 20.314 85.3549 20.0899C85.1868 19.9988 85.0326 19.8937 84.8785 19.7676L84.8365 19.7536C84.5633 19.6555 84.227 19.5294 83.9188 19.3193C83.4915 19.1862 83.1202 19.011 82.7979 18.8359C82.4967 18.8359 82.1534 18.8079 81.8032 18.7028C81.6771 18.7308 81.537 18.7588 81.3898 18.7728C81.0746 18.8009 80.7734 18.7799 80.5142 18.7448C80.0798 18.8499 79.5404 18.976 78.9099 18.913C78.4546 18.8849 78.0763 18.7238 77.7961 18.6047C77.705 18.5627 77.6209 18.5277 77.5509 18.5066C77.5229 18.5136 77.4878 18.5277 77.4528 18.5347C77.2076 18.6117 76.8293 18.7308 76.36 18.6958L76.0237 18.6818C75.4212 18.6538 74.8468 18.6187 74.3214 18.7028C74.2303 18.7168 74.1393 18.7238 74.0482 18.7168C73.1865 18.6467 72.4089 18.5977 71.6453 18.6888C71.3091 18.7308 70.9798 18.6678 70.6786 18.6187C70.5595 18.6397 70.4334 18.6467 70.3143 18.6608C69.9991 18.6888 69.6768 18.5767 69.4456 18.3595L69.3195 18.3105C69.1934 18.2615 69.0533 18.2054 68.9693 18.1914L68.8572 18.1704C68.8572 18.1704 68.8081 18.1634 68.7801 18.1564C68.7381 18.1564 68.661 18.1424 68.584 18.1354C68.3178 18.1073 68.0726 17.9882 67.8834 17.7991C67.8484 17.7641 67.8134 17.722 67.7784 17.687L67.6663 17.5679C67.6663 17.5679 67.6312 17.5329 67.6172 17.5119C67.5682 17.4909 67.5192 17.4768 67.4701 17.4628L66.6365 17.1966C66.3983 17.1266 66.1811 16.9865 66.034 16.7903C66.02 16.7693 65.999 16.7483 65.971 16.7273C65.9499 16.7133 65.9009 16.6852 65.7748 16.6292C65.4876 16.5101 65.2704 16.2859 65.1513 16.0057C65.1303 15.9987 65.1093 15.9917 65.0883 15.9917C64.9622 15.9707 64.8361 15.9287 64.717 15.8726C64.6539 15.8376 64.5979 15.8026 64.5349 15.7675C64.4998 15.7465 64.4648 15.7255 64.4368 15.7045C64.4368 15.7045 64.4368 15.7045 64.4298 15.7045C64.4017 15.6905 64.3667 15.6695 64.3387 15.6484C63.9394 15.3822 63.6031 15.074 63.3229 14.8008C62.2161 14.3735 61.5015 13.4908 61.3824 12.482C60.6188 11.7044 60.3737 10.6746 60.7589 9.78493C60.7309 9.20348 60.78 8.48893 61.1092 7.8024C60.9481 6.82865 61.4805 5.81987 62.5944 5.07029C62.8325 4.692 63.1688 4.4258 63.428 4.21564C63.5541 4.11756 63.6802 4.01248 63.7502 3.93542C63.8133 3.86537 63.8834 3.80232 63.9604 3.75328L64.2546 3.54312C64.8361 3.1298 65.5506 2.61841 66.5384 2.39423C67.0848 2.12102 67.6943 1.84781 68.4018 1.72872C68.57 1.5746 68.7871 1.47653 69.0113 1.44851L69.1024 1.43449C69.2635 1.41348 69.4667 1.38546 69.5157 1.35744C69.5367 1.34342 69.5507 1.32941 69.5717 1.3084C69.7189 1.17529 69.894 1.08422 70.0901 1.03519C70.2723 0.986149 70.4894 0.972138 70.6716 1.00717C70.7486 1.02118 70.8327 1.02118 70.9658 1.00717C71.0569 1.00016 71.1199 0.972138 71.148 0.958128C71.3231 0.712939 71.5893 0.537804 71.8835 0.488766C71.9115 0.488766 71.9396 0.474755 71.9606 0.46775C72.1707 0.411707 72.3879 0.411707 72.5981 0.474755C72.7452 0.502777 72.8362 0.495772 72.9273 0.495772H73.4037C73.4597 0.495772 73.5018 0.495772 73.5508 0.495772L73.8941 0.537804C74.0832 0.55882 74.2583 0.579836 74.3634 0.572831L75.7715 0.411707C75.8276 0.411707 75.8836 0.404701 75.9326 0.390691C76.0027 0.37668 76.0798 0.362669 76.1498 0.362669H76.402C76.5351 0.362669 76.6892 0.348658 76.7943 0.320637C76.9694 0.271599 77.1586 0.264594 77.3407 0.299621C77.4878 0.327642 77.5439 0.334648 77.5579 0.334648L78.2304 0.292615C78.3285 0.292615 78.4266 0.292615 78.5176 0.313631L79.0781 0.418712C79.2462 0.453739 79.4213 0.460745 79.5894 0.481761L79.8066 0.502777C79.9467 0.516788 80.0308 0.530799 80.1289 0.523793C80.1709 0.523793 80.2199 0.516788 80.269 0.502777L80.8224 0.397696C80.9065 0.383685 81.0466 0.362669 81.1236 0.362669C81.3618 0.362669 81.607 0.369674 81.8452 0.37668C81.9433 0.37668 82.0974 0.348658 82.2445 0.320637L82.5597 0.264594C82.6508 0.250583 82.7419 0.243577 82.8259 0.215556C82.931 0.180529 83.0361 0.159513 83.1482 0.152507C83.2182 0.152507 83.2813 0.138496 83.3373 0.11748C83.3583 0.11748 83.3724 0.10347 83.3934 0.0964641C83.7226 -0.00161142 84.0799 0.0544317 84.3671 0.243577C84.3952 0.264594 84.4582 0.278604 84.5773 0.271599L85.2498 0.229567C85.3058 0.229567 85.3619 0.229567 85.4109 0.222561L86.1465 0.0614371C86.2095 0.0474264 86.2656 0.040421 86.3286 0.0334156L86.777 0.00539398C86.812 0.00539398 86.847 0.00539398 86.8891 0.00539398C87.1833 0.0123994 87.4775 0.0264102 87.7718 0.0474263H87.9189C88.0309 0.0614371 88.136 0.0824533 88.2411 0.124486C88.2691 0.131491 88.2972 0.145502 88.3252 0.152507C88.3532 0.152507 88.4022 0.166518 88.5003 0.152507C88.6754 0.138496 88.8506 0.11748 89.0257 0.103469C89.0677 0.103469 89.1098 0.103469 89.1518 0.103469C89.348 0.103469 89.5371 0.10347 89.7333 0.0964641C89.8383 0.0964641 89.9294 0.0964641 90.0275 0.124486C90.0765 0.131491 90.2026 0.166518 90.2937 0.166518C90.3497 0.166518 90.4128 0.152507 90.4758 0.145502C90.6089 0.124486 90.749 0.124486 90.8821 0.145502C91.0082 0.166518 91.1273 0.19454 91.2534 0.222561C91.6738 0.19454 92.031 0.19454 92.3813 0.222561C92.5494 0.173523 92.7246 0.131491 92.8927 0.103469C93.2009 0.0474263 93.5162 0.124486 93.7614 0.313631C93.7894 0.327642 93.9225 0.362669 94.0486 0.341653C94.0976 0.334648 94.1327 0.320637 94.1467 0.313631C94.4129 0.201545 94.7071 0.19454 94.9803 0.292615C94.9943 0.292615 95.0083 0.299621 95.0153 0.306626C95.7369 0.292615 96.5005 0.306626 97.2571 0.453739L97.4882 0.432723C98.1958 0.355664 99.0084 0.271599 99.821 0.46775C99.8701 0.481761 99.9121 0.495772 99.9611 0.509782C100.066 0.551815 100.297 0.537804 100.508 0.537804C100.76 0.537804 101.012 0.523793 101.278 0.551815C101.481 0.572831 101.734 0.551815 101.993 0.544809C102.364 0.523793 102.777 0.502777 103.226 0.55882L103.422 0.586842C103.758 0.628874 104.08 0.670906 104.389 0.684917C104.97 0.600853 105.586 0.642885 106.245 0.804009C106.665 0.719944 107.072 0.705933 107.471 0.754971C108.206 0.628874 108.921 0.663901 109.601 0.860052C109.874 0.846041 110.147 0.846041 110.413 0.846041C110.862 0.846041 111.282 0.846041 111.681 0.789998C111.779 0.775987 111.877 0.775987 111.975 0.789998C112.312 0.832031 112.676 0.846041 113.061 0.860052C113.489 0.874063 113.93 0.888074 114.385 0.944117C115.058 0.761977 115.786 0.747966 116.613 0.895079C116.886 0.881068 117.159 0.895079 117.433 0.895079C117.741 0.895079 118.021 0.90909 118.301 0.895079C118.378 0.895079 118.462 0.895079 118.539 0.895079C118.995 0.958128 119.296 0.930106 119.828 0.832031C119.856 0.832031 119.884 0.825025 119.913 0.81802C120.389 0.768982 120.83 0.839036 121.216 0.895079L121.335 0.90909H121.503C121.86 0.902084 122.231 0.895079 122.624 0.930106C122.995 0.825025 123.38 0.74096 123.808 0.74096C124.235 0.74096 124.606 0.825025 124.942 0.923101L125.09 0.902084C125.811 0.804009 126.624 0.684917 127.478 0.902084C128.102 0.825025 128.704 0.846041 129.286 0.860052H129.482C130.266 0.628874 131.107 0.628874 131.927 0.860052C132.011 0.846041 132.123 0.81802 132.228 0.797004C132.501 0.72695 132.83 0.642885 133.251 0.656896C133.608 0.656896 133.965 0.72695 134.281 0.811014C134.393 0.797004 134.512 0.782993 134.624 0.768982C135.023 0.712939 135.471 0.656896 135.948 0.677912C135.997 0.677912 136.046 0.684917 136.095 0.698928C136.326 0.74096 136.599 0.72695 136.922 0.698928C137.048 0.691923 137.181 0.684917 137.307 0.677912C137.622 0.677912 137.867 0.698928 138.113 0.712939C138.582 0.747966 139.023 0.775987 139.388 0.691923C139.43 0.684917 139.479 0.670906 139.521 0.670906L139.766 0.642885C139.948 0.621869 140.13 0.656896 140.298 0.719944C140.473 0.789998 140.74 0.804009 140.908 0.754971L141.097 0.698928C141.258 0.64989 141.433 0.628874 141.601 0.656896C141.776 0.684917 141.944 0.712939 142.113 0.754971C142.141 0.754971 142.162 0.768982 142.183 0.775987C142.19 0.775987 142.26 0.804009 142.267 0.804009C142.526 0.895079 142.722 0.902085 142.827 0.881068C143.163 0.804009 143.5 0.733955 143.836 0.64989C143.976 0.614863 144.123 0.607858 144.27 0.628874L144.466 0.656896C144.712 0.698928 144.873 0.698928 144.992 0.656896C144.999 0.656896 145.013 0.656896 145.02 0.64989C145.118 0.614863 145.223 0.593847 145.328 0.586842H145.398C145.545 0.572831 145.692 0.593847 145.832 0.642885C145.868 0.656896 145.91 0.670906 145.945 0.677912C146.05 0.705933 146.211 0.684917 146.435 0.64989C146.547 0.628874 146.652 0.628874 146.764 0.64989C146.806 0.64989 146.855 0.64989 146.904 0.642885C147.192 0.586842 147.486 0.642885 147.738 0.789998C147.878 0.874063 148.144 0.930106 148.375 0.874063L148.95 0.719944C149.069 0.691923 149.188 0.677912 149.307 0.677912L149.573 0.691923C149.622 0.691923 149.664 0.691923 149.713 0.705933C149.77 0.712939 149.791 0.712939 149.819 0.712939C149.889 0.712939 149.952 0.712939 150.022 0.733955L150.218 0.768982C150.218 0.768982 150.246 0.768982 150.253 0.768982C150.253 0.768982 150.26 0.768982 150.267 0.768982C150.267 0.768982 150.281 0.768982 150.288 0.768982C150.288 0.768982 150.302 0.768982 150.309 0.768982C150.449 0.797004 150.603 0.811014 150.701 0.811014C150.848 0.804009 150.988 0.825025 151.129 0.867058C151.136 0.867058 151.15 0.874063 151.164 0.881068C151.234 0.902085 151.36 0.916095 151.514 0.90909C151.619 0.902084 151.745 0.867058 151.92 0.804009C152.011 0.768982 152.116 0.747966 152.214 0.74096L152.446 0.719944C152.551 0.705933 152.656 0.712939 152.754 0.719944L152.873 0.74096C153.174 0.789998 153.489 0.839036 153.664 0.797004C153.847 0.733955 154.078 0.705933 154.267 0.74096C154.295 0.74096 154.33 0.754971 154.358 0.761977C154.449 0.782993 154.575 0.782993 154.687 0.761977C154.771 0.747966 154.848 0.72695 154.925 0.705933L155.129 0.64989C155.318 0.600852 155.542 0.586842 155.724 0.628874C155.78 0.642885 155.843 0.656896 155.906 0.663901C155.969 0.663901 156.046 0.663901 156.116 0.64989H156.228L156.299 0.63588C156.439 0.628874 156.628 0.614863 156.684 0.593847C157.118 0.418712 157.616 0.530799 157.938 0.860052C158.239 0.874063 158.505 0.881068 158.757 0.874063C158.87 0.853047 158.989 0.832031 159.108 0.81802C159.136 0.81802 159.157 0.81802 159.185 0.81802C159.227 0.81802 159.269 0.81802 159.318 0.804009C159.346 0.804009 159.374 0.804009 159.402 0.797004C159.941 0.761977 160.446 0.811014 160.936 0.853047H160.999C161.567 0.839036 162.148 0.81802 162.736 0.923101C163.703 0.64989 164.677 0.74096 165.258 0.846041C165.504 0.846041 165.742 0.846041 165.98 0.846041H166.113C166.449 0.846041 166.779 0.846041 167.115 0.839036C167.171 0.839036 167.227 0.839036 167.283 0.846041C167.963 0.930106 168.642 0.902085 169.378 0.768982C169.427 0.761977 169.483 0.754971 169.532 0.747966C170.541 0.705933 171.374 0.72695 172.145 0.81802C172.936 0.621869 173.987 0.502777 174.975 0.797004C175.879 0.607858 176.803 0.642885 177.609 0.902084C178.057 0.853047 178.485 0.888074 178.877 0.916095C179.57 0.881068 180.229 0.944117 180.754 1.01417C181.987 0.782993 183.304 1.0562 184.215 1.72172C185.742 1.94589 186.891 2.73049 187.283 3.80232C187.346 3.85836 187.43 3.92141 187.487 3.96344C187.669 4.10355 187.872 4.25767 188.054 4.45382C188.523 4.86714 188.748 5.3365 188.923 5.68677C189.021 5.88292 189.091 6.03704 189.189 6.14912C189.217 6.18415 189.245 6.21918 189.273 6.25421C189.511 6.61148 189.553 6.95474 189.581 7.16491C189.847 7.63427 189.896 8.11063 189.889 8.48192C190.142 8.91626 190.261 9.40663 190.226 9.90402C190.191 10.4574 189.973 10.9758 189.602 11.4172C189.483 12.0477 189.182 12.5731 188.916 13.0564C188.846 13.1755 188.776 13.3016 188.712 13.4207C188.495 14.1353 188.096 14.6607 187.522 14.9829C187.157 15.5293 186.576 15.9847 185.875 16.2439C185.847 16.2649 185.819 16.2859 185.784 16.314C185.455 16.5661 185.028 16.8954 184.404 17.0355C184.215 17.1616 184.005 17.2807 183.774 17.3928C183.557 17.5959 183.297 17.7641 183.017 17.8762C182.744 18.0583 182.429 18.1774 182.092 18.2264C181.714 18.4016 181.252 18.5136 180.761 18.5136C180.46 18.7028 180.117 18.8219 179.739 18.8639C179.409 18.955 179.045 18.983 178.653 18.948C178.274 18.983 177.938 18.969 177.63 18.8989C177.154 18.962 176.691 18.948 176.278 18.8639C175.886 18.948 175.395 19.011 174.884 18.927C174.443 18.969 174.036 18.962 173.665 18.9059C173.154 19.0391 172.663 19.0881 172.173 19.0461L171.998 19.0601C171.57 19.1021 171.059 19.1511 170.526 19.0601C169.777 19.2632 169.013 19.2352 168.327 19.2142H168.257C167.465 19.4734 166.66 19.5084 165.938 19.3193C165.616 19.4314 165.244 19.5154 164.81 19.5154C164.376 19.5154 163.955 19.4384 163.584 19.3613C162.905 19.4103 162.197 19.4384 161.49 19.3613C160.712 19.6065 159.675 19.6835 158.764 19.3963C158.365 19.4454 157.994 19.4314 157.679 19.4173C157.433 19.4103 157.181 19.3963 156.964 19.4243C156.698 19.4594 156.425 19.4384 156.158 19.4454C155.437 19.4594 154.694 19.4804 153.924 19.3543C153.034 19.6135 152.123 19.4594 151.465 19.3123C151.15 19.4103 150.785 19.4944 150.358 19.4944C149.966 19.4734 149.65 19.4243 149.377 19.3753C149.02 19.3193 148.719 19.2632 148.431 19.2912C148.347 19.2983 148.27 19.2983 148.186 19.2912C147.633 19.2352 147.023 19.2772 146.428 19.3123C145.65 19.3683 144.845 19.4173 144.032 19.2912C143.276 19.5224 142.442 19.5224 141.601 19.2912C141.062 19.3543 140.459 19.4243 139.836 19.3683C139.107 19.4874 138.386 19.4874 137.678 19.3683C137.118 19.4384 136.578 19.4314 136.102 19.4243C135.78 19.4243 135.464 19.4173 135.142 19.4314C134.084 19.5855 133.069 19.4944 132.116 19.3613C131.191 19.5014 130.316 19.4033 129.545 19.4734C129.496 19.4734 129.447 19.4734 129.391 19.4734C129.083 19.4594 128.781 19.4243 128.48 19.3823C128.172 19.3403 127.871 19.3053 127.611 19.3123C127.576 19.3123 127.534 19.3123 127.492 19.3123C127.226 19.2912 126.925 19.3333 126.596 19.3753C126.301 19.4103 126.014 19.4454 125.72 19.4594C125.685 19.4594 125.643 19.4594 125.601 19.4594C125.251 19.4314 124.907 19.3893 124.557 19.3403C123.983 19.2632 123.443 19.1932 122.939 19.2352C120.858 19.3543 118.883 19.3473 117.026 19.2352C116.795 19.2422 116.557 19.2702 116.312 19.2983C115.576 19.3753 114.757 19.4594 113.937 19.2002C113.545 19.2492 113.145 19.2912 112.697 19.2772C112.424 19.2772 112.144 19.2632 111.87 19.2422C111.723 19.2842 111.576 19.3193 111.422 19.3473C111.107 19.4033 110.798 19.3193 110.56 19.1371C110.511 19.1301 110.469 19.1161 110.42 19.1021C110.392 19.1091 110.364 19.1161 110.336 19.1301L110.231 19.1581C110.175 19.1722 110.112 19.1862 110.056 19.1862C110.056 19.1862 110.035 19.1862 110.014 19.1862C110 19.1862 109.986 19.1862 109.972 19.1862C109.783 19.2983 109.58 19.3543 109.341 19.3473C109.243 19.3473 109.152 19.3403 109.054 19.3333C109.054 19.3333 109.047 19.3333 109.04 19.3403C108.949 19.3823 108.858 19.4173 108.767 19.4384C108.683 19.4804 108.599 19.5154 108.508 19.5364C108.494 19.5364 108.48 19.5434 108.459 19.5504C108.445 19.5504 108.438 19.5504 108.424 19.5504C108.326 19.5715 108.228 19.5785 108.094 19.5785C108.01 19.6135 107.926 19.6415 107.842 19.6555C107.814 19.6835 107.779 19.7046 107.744 19.7256C107.653 19.7956 107.583 19.8377 107.485 19.8727C107.436 19.8937 107.387 19.9147 107.338 19.9287C107.254 19.9708 107.156 20.0058 107.058 20.0268C107.002 20.0548 106.953 20.0688 106.911 20.0899C106.812 20.1319 106.707 20.1669 106.609 20.1949C106.525 20.258 106.434 20.307 106.336 20.3421C106.315 20.3491 106.294 20.3631 106.273 20.3701C106.245 20.3841 106.217 20.3981 106.203 20.4051C106.203 20.4051 106.161 20.4331 106.133 20.4401C106.035 20.5172 105.93 20.5732 105.811 20.6083C105.79 20.6153 105.776 20.6223 105.762 20.6293C105.657 20.7063 105.53 20.7554 105.404 20.7904C105.341 20.8675 105.264 20.9445 105.18 21.0006C105.124 21.1407 105.04 21.2668 104.935 21.3718C104.9 21.4209 104.865 21.4629 104.83 21.505C104.816 21.519 104.809 21.533 104.795 21.547C104.788 21.554 104.781 21.561 104.767 21.575C104.753 21.589 104.739 21.603 104.718 21.617C104.676 21.7011 104.62 21.7852 104.557 21.8552C104.557 21.8552 104.557 21.8622 104.55 21.8692C104.48 22.0023 104.375 22.1284 104.255 22.2195C104.241 22.2545 104.227 22.2966 104.206 22.3316C104.206 22.3456 104.192 22.3596 104.185 22.3876C104.164 22.5137 104.122 22.6398 104.059 22.7519C104.059 22.7519 104.059 22.7589 104.059 22.7659C104.059 22.7659 104.059 22.7799 104.052 22.7869C104.017 22.871 103.968 22.9481 103.912 23.0251C103.898 23.0601 103.884 23.0882 103.87 23.1162C103.891 23.2073 103.905 23.3053 103.905 23.4034C103.905 23.5015 103.905 23.5996 103.884 23.6976C103.919 23.8237 103.933 23.9498 103.926 24.0829C103.926 24.104 103.926 24.132 103.926 24.146C103.926 24.188 103.926 24.223 103.926 24.2581C103.968 24.3561 103.996 24.4542 104.01 24.5593C104.024 24.6364 104.031 24.7134 104.031 24.7905C104.101 24.8675 104.157 24.9586 104.199 25.0497C104.262 25.1828 104.297 25.3229 104.304 25.463C104.304 25.477 104.318 25.491 104.318 25.505C104.431 25.5891 104.536 25.6802 104.62 25.7852C104.641 25.7993 104.669 25.8063 104.69 25.8203C104.851 25.8693 105.019 25.9534 105.138 26.0585C105.131 26.0515 105.11 26.0304 105.089 26.0164C105.229 26.1215 105.334 26.2476 105.411 26.3947C105.425 26.3947 105.432 26.4087 105.446 26.4157C105.467 26.4297 105.488 26.4438 105.516 26.4578C105.629 26.5348 105.72 26.6259 105.797 26.731C105.951 26.766 106.098 26.8291 106.231 26.9201C106.315 26.9341 106.406 26.9622 106.483 27.0042C106.525 27.0252 106.567 27.0462 106.609 27.0672C106.707 27.0883 106.798 27.1303 106.889 27.1793C106.981 27.1793 107.079 27.1933 107.17 27.2143C107.17 27.2143 107.233 27.2284 107.254 27.2354C107.324 27.2564 107.394 27.2844 107.457 27.3124C107.541 27.3124 107.625 27.3194 107.688 27.3334C107.702 27.3334 107.709 27.3334 107.709 27.3334C107.807 27.3334 107.905 27.3474 107.996 27.3755C108.206 27.3194 108.431 27.3124 108.634 27.3755C108.781 27.3755 108.935 27.3895 109.075 27.4455L109.152 27.4665C109.208 27.4806 109.264 27.5016 109.32 27.5296L109.369 27.5506C109.418 27.5506 109.467 27.5646 109.517 27.5786L109.587 27.5646C109.811 27.5296 110.098 27.5506 110.322 27.6487C110.441 27.6207 110.567 27.6066 110.693 27.6137C110.897 27.5086 111.142 27.4876 111.352 27.4946C111.471 27.4946 111.702 27.5296 111.814 27.5716L111.877 27.5926C112.038 27.5086 112.228 27.4595 112.41 27.4595C112.452 27.4595 112.529 27.4595 112.571 27.4665C112.585 27.4665 112.648 27.4735 112.655 27.4735L112.795 27.4946C113.11 27.5436 113.419 27.6066 113.713 27.7257C114.266 27.7398 114.855 27.8518 115.366 28.034C116.193 27.9709 117.033 28.02 117.825 28.097C118.701 27.9009 119.723 28.006 120.564 28.3702C121.033 28.3282 121.461 28.3282 121.846 28.3702C122.28 28.3072 122.729 28.3352 123.177 28.4613C123.646 28.6014 124.095 28.7205 124.543 28.8396C125.503 29.0918 126.491 29.358 127.401 29.7573C128.172 29.8554 129.069 30.1706 129.65 30.7941C130.617 31.2004 131.016 32.0271 131.268 32.5455L131.317 32.6505C131.738 33.239 131.983 33.9185 132.032 34.598C132.431 35.3406 132.431 36.2023 132.046 36.9518C132.179 37.7084 131.99 38.458 131.506 39.0675C131.366 39.9081 130.848 40.5176 130.421 41.022C130.316 41.1411 130.21 41.2672 130.105 41.4003C130.049 41.4703 129.986 41.5404 129.909 41.5964C129.783 41.6945 129.657 41.8066 129.524 41.9187C129.209 42.1989 128.879 42.4791 128.522 42.6893C127.997 43.5159 126.953 43.9642 125.993 44.0623C125.363 44.4196 124.634 44.6298 123.983 44.8119C123.24 45.3373 122.21 45.5615 121.23 45.4144C120.291 45.8977 119.247 46.0519 118.322 45.8347C118.245 45.8487 118.168 45.8557 118.084 45.8697C117.391 45.9748 116.613 46.0869 115.8 45.9608C115.163 46.1289 114.518 46.1149 113.937 46.0659C113.433 46.1289 112.767 46.1709 112.101 46.0308C111.548 46.1429 111.023 46.0869 110.588 46.0308H110.56C110.112 46.0869 109.418 46.1149 108.732 45.8907C108.368 45.9888 108.003 46.0238 107.716 46.0308C107.345 46.1289 106.981 46.1569 106.63 46.1149C106.574 46.1149 106.497 46.1149 106.441 46.1009H106.175C106 46.1639 105.811 46.185 105.621 46.1639H105.551C105.397 46.178 105.25 46.1639 105.103 46.1149C104.991 46.1149 104.872 46.1149 104.76 46.0799C104.473 46.1639 104.157 46.1289 103.891 45.9818C103.779 46.0168 103.702 46.0238 103.576 46.0308C103.541 46.0308 103.506 46.0308 103.471 46.0308C103.303 46.0939 103.121 46.1289 102.938 46.1219C102.756 46.1499 102.553 46.1359 102.371 46.0799C102.252 46.1219 102.119 46.1359 101.993 46.1359C101.888 46.1499 101.783 46.1499 101.677 46.1359C101.439 46.1359 101.222 46.0589 101.033 45.9188C101.033 45.9188 101.026 45.9188 101.019 45.9188L100.984 45.9328C100.788 46.0378 100.557 46.0869 100.339 46.0589C100.122 46.0939 99.9051 46.0659 99.7019 45.9888C99.3657 46.1219 98.9804 46.0869 98.6722 45.8977C98.4129 46.0729 98.1257 46.1289 97.8175 46.0589C97.6494 46.1289 97.4812 46.1499 97.2991 46.1359C97.117 46.192 96.9138 46.192 96.7246 46.1499C96.6056 46.1289 96.4865 46.0939 96.3744 46.0378C96.1572 46.1779 95.898 46.248 95.6318 46.22C95.5828 46.22 95.5337 46.22 95.4847 46.206C95.4777 46.206 95.4707 46.22 95.4567 46.22C95.4216 46.248 95.3866 46.276 95.3446 46.3041C95.2115 46.3951 95.0223 46.4792 94.8612 46.5072C94.8052 46.5282 94.7421 46.5492 94.6861 46.5632C94.4829 46.7664 94.2167 46.8855 93.9295 46.8995L93.8735 46.9345C93.8735 46.9345 93.8034 46.9766 93.7614 46.9976C93.6493 47.1937 93.4882 47.3479 93.292 47.4529C93.292 47.544 93.271 47.6351 93.25 47.7191C93.1939 47.9853 93.0468 48.2235 92.8297 48.3917C92.7036 48.5178 92.5845 48.5738 92.4163 48.6298C92.3813 48.6439 92.3603 48.6509 92.3393 48.6649C92.3253 48.84 92.2762 49.0151 92.1852 49.1693C92.2062 49.4004 92.1571 49.6316 92.038 49.8348C92.2132 50.115 92.2692 50.4512 92.1782 50.7665C92.3183 50.9977 92.3813 51.2709 92.3393 51.5371C92.4023 51.6211 92.4584 51.7192 92.4934 51.8173C92.8226 51.9924 93.0468 52.3217 93.0959 52.679C93.1239 52.693 93.1519 52.707 93.1799 52.728L93.25 52.77C93.32 52.8121 93.3901 52.8611 93.4531 52.9171C93.5302 52.9872 93.6002 53.0713 93.6563 53.1553C93.6633 53.1553 93.6703 53.1693 93.6843 53.1763C93.8875 53.3094 94.0416 53.5056 94.1257 53.7368C94.3498 53.8419 94.56 54.031 94.6861 54.2482C94.9173 54.3112 95.1414 54.4513 95.2956 54.6335C95.2745 54.6124 95.3306 54.6335 95.4357 54.6335C95.5477 54.6335 95.6528 54.6615 95.7579 54.6965C95.9751 54.7526 96.2062 54.8787 96.3604 55.0468C96.3604 55.0468 96.4234 55.0888 96.5495 55.0958C96.6056 55.0958 96.6546 55.0958 96.7106 55.0888C96.9768 55.0398 97.2571 55.0888 97.4882 55.2149C97.6213 55.292 97.7965 55.327 97.9436 55.306C98.1888 55.278 98.427 55.2429 98.6581 55.2079L98.9454 55.1449C99.1135 55.1098 99.2816 55.1098 99.4497 55.1449C99.6389 55.1869 99.821 55.2499 100.003 55.327C100.234 55.327 100.438 55.348 100.62 55.369C100.683 55.376 100.746 55.383 100.809 55.39C101.32 55.292 101.86 55.362 102.315 55.5862C102.532 55.5862 102.756 55.6002 102.994 55.6212C103.674 55.5161 104.311 55.5792 104.879 55.6352L105.089 55.6562C105.685 55.5442 106.266 55.5442 106.819 55.5372H106.988C107.513 55.3971 108.087 55.341 108.697 55.383C109.061 55.383 109.552 55.4041 110.056 55.5582C110.476 55.5372 110.981 55.5302 111.492 55.5932C112.038 55.5302 112.627 55.5582 113.271 55.6913C114.287 55.4881 115.289 55.5932 116.186 55.6913C116.375 55.7123 116.564 55.7333 116.753 55.7473C117.461 55.6142 118.441 55.5302 119.401 55.7753C119.611 55.7823 119.828 55.7894 120.046 55.7894C120.522 55.7894 121.012 55.7964 121.524 55.8734C122.512 55.5161 123.822 55.369 124.977 55.8454C125.496 55.8104 125.986 55.8804 126.385 55.9575C127.268 55.8734 128.256 55.8174 129.223 55.9785C130.182 55.6492 131.289 55.6352 132.606 55.9505C133.426 55.8594 134.232 55.8594 135.009 55.8524C135.829 55.7193 136.592 55.7053 137.321 55.8104C137.972 55.7263 138.701 55.6773 139.423 55.8594C139.794 55.7823 140.165 55.7613 140.487 55.7473C141.482 55.39 142.694 55.369 143.668 55.6843C144.572 55.5372 145.573 55.4181 146.575 55.5442C147.227 55.39 147.878 55.4041 148.452 55.4321H148.635C149.16 55.4111 149.748 55.3971 150.351 55.4881C151.647 55.2289 152.838 55.6212 153.749 55.9365C154.792 56.0626 155.829 56.3708 156.768 56.8191C157.104 56.9172 157.517 57.0573 157.896 57.3025C158.87 57.4847 159.689 58.0521 160.13 58.8507C160.159 58.8787 160.194 58.9138 160.222 58.9418C160.698 59.243 161.034 59.6493 161.188 60.1187C161.539 60.7772 161.581 61.4357 161.609 61.9821C161.763 62.6406 161.728 63.2291 161.504 63.7405C161.539 64.2238 161.412 64.7212 161.118 65.2396C161.048 65.9192 160.67 66.5496 160.032 67.061C159.717 68.0838 158.785 68.7914 158.015 69.3798C157.791 69.555 157.567 69.7161 157.377 69.8842C156.726 70.5427 155.913 70.9911 155.017 71.1802C154.337 71.5445 153.693 71.7266 153.062 71.7406C152.13 72.266 151.037 72.4412 150.057 72.238C149.405 72.4272 148.698 72.4342 147.906 72.259C147.668 72.3011 147.444 72.3221 147.241 72.3431C147.044 72.3641 146.855 72.3781 146.666 72.4202C146.603 72.4342 146.547 72.4412 146.484 72.4412L145.938 72.4692C145.202 72.5112 144.445 72.5603 143.654 72.4762C142.869 72.7564 141.951 72.7985 140.908 72.5953C140.074 72.8755 139.114 72.8965 138.274 72.6443L138.049 72.6583C137.293 72.6934 136.459 72.7354 135.717 72.6654C134.876 72.9526 133.895 72.9736 132.971 72.7284C132.116 73.0016 131.17 73.0226 130.323 72.7914C129.804 72.9035 129.307 72.9386 128.837 72.8895C128.487 72.9666 128.137 72.9946 127.808 72.9946L127.843 72.9736ZM126.224 70.5497C126.224 70.5497 126.28 70.5497 126.308 70.5497C126.505 70.5637 126.701 70.5847 126.904 70.6058C127.513 70.6688 128.039 70.7249 128.487 70.5918C128.655 70.5427 128.823 70.5357 128.991 70.5637C129.307 70.6198 129.664 70.5847 130.07 70.4657C130.309 70.3956 130.561 70.4096 130.792 70.4937C131.303 70.6898 131.983 70.6618 132.515 70.4306C132.788 70.3115 133.097 70.3045 133.37 70.4096C133.951 70.6268 134.638 70.6268 135.128 70.4096C135.324 70.3185 135.549 70.2905 135.766 70.3255C136.354 70.4096 137.251 70.3676 137.965 70.3326L138.414 70.3115C138.568 70.3115 138.722 70.3326 138.869 70.3816C139.303 70.5427 139.934 70.5217 140.361 70.3255C140.599 70.2205 140.866 70.1924 141.111 70.2485C141.937 70.4446 142.589 70.4376 143.037 70.2275C143.24 70.1294 143.472 70.0944 143.696 70.1294C144.368 70.2275 145.076 70.1854 145.825 70.1434L146.309 70.1154C146.547 70.0734 146.799 70.0453 147.044 70.0173C147.283 69.9963 147.5 69.9753 147.675 69.9262C147.864 69.8772 148.067 69.8772 148.256 69.9262C148.81 70.0734 149.251 70.0804 149.587 69.9262C149.847 69.8142 150.141 69.8001 150.407 69.8912C151.037 70.1014 151.731 69.8562 152.13 69.576C152.354 69.4219 152.628 69.3518 152.894 69.3798C153.237 69.4148 153.601 69.3098 154.078 69.0366C154.197 68.9665 154.323 68.9245 154.456 68.9035C154.975 68.8194 155.423 68.5812 155.787 68.2029C155.808 68.1819 155.829 68.1609 155.85 68.1469C156.088 67.9297 156.369 67.7195 156.656 67.4954C157.104 67.1521 157.861 66.5777 157.882 66.2694C157.903 65.8911 158.106 65.5479 158.435 65.3517C158.757 65.1556 158.855 64.9804 158.862 64.9454C158.855 64.7563 158.891 64.5881 158.968 64.413L159.045 64.2449C159.066 64.2028 159.087 64.1538 159.115 64.1118C159.234 63.9226 159.241 63.8456 159.241 63.8386C159.094 63.4603 159.164 63.096 159.416 62.7807C159.451 62.7387 159.437 62.5846 159.388 62.4024C159.367 62.3184 159.353 62.2343 159.346 62.1502C159.325 61.7089 159.311 61.3516 159.164 61.0994C159.115 61.0224 159.08 60.9383 159.052 60.8472C159.038 60.8332 159.017 60.8192 158.989 60.8052C158.87 60.7422 158.764 60.6581 158.673 60.56C158.617 60.497 158.554 60.4409 158.491 60.3849C158.358 60.2728 158.253 60.1257 158.183 59.9646C158.113 59.8105 157.868 59.5302 157.37 59.4882C157.111 59.4672 156.873 59.3551 156.684 59.18C156.6 59.1029 156.235 58.9908 156.053 58.9418C155.99 58.9208 155.927 58.8997 155.864 58.8717C155.108 58.4934 154.253 58.2412 153.391 58.1502C153.3 58.1432 153.216 58.1221 153.132 58.0941C152.158 57.7509 151.423 57.5267 150.701 57.7158C150.526 57.7649 150.344 57.7649 150.162 57.7298C149.734 57.6388 149.244 57.6528 148.726 57.6668H148.495C148.495 57.6668 148.438 57.6668 148.41 57.6668C147.92 57.6388 147.409 57.6248 147.016 57.7509C146.841 57.8069 146.659 57.8209 146.477 57.7859C145.636 57.6388 144.684 57.7859 143.78 57.933C143.556 57.968 143.332 57.94 143.128 57.8559C142.603 57.6248 141.776 57.6388 141.202 57.884C141.076 57.94 140.943 57.968 140.803 57.975H140.719C140.389 57.989 140.011 58.0031 139.794 58.0801C139.542 58.1642 139.275 58.1572 139.03 58.0661C138.631 57.919 138.028 57.982 137.489 58.0521C137.377 58.0661 137.258 58.0661 137.146 58.0521C136.592 57.961 136.004 57.968 135.331 58.0801C135.268 58.0941 135.198 58.0661 135.135 58.0941C134.351 58.0941 133.51 58.0941 132.711 58.1992C132.564 58.2132 132.424 58.2062 132.284 58.1712C131.24 57.905 130.421 57.898 129.846 58.1642C129.615 58.2693 129.349 58.2973 129.104 58.2342C128.305 58.0451 127.373 58.1151 126.477 58.1992C126.357 58.2132 126.238 58.1992 126.119 58.1782C125.769 58.1011 125.363 58.0311 125.005 58.0941C124.753 58.1362 124.501 58.0941 124.277 57.975C123.751 57.6878 122.89 57.7228 122.14 58.0591C121.916 58.1572 121.664 58.1852 121.419 58.1292C121.019 58.0381 120.557 58.0311 120.067 58.0311C119.772 58.0311 119.485 58.0311 119.191 58.0101C119.107 58.0101 119.03 57.989 118.953 57.968C118.455 57.8279 117.797 57.8349 117.096 57.982C116.991 58.0031 116.879 58.0101 116.774 58.0031C116.515 57.982 116.256 57.954 115.996 57.926C115.135 57.8349 114.322 57.7509 113.608 57.933C113.426 57.982 113.236 57.982 113.047 57.933C112.522 57.7999 112.101 57.7719 111.737 57.8349C111.618 57.8559 111.499 57.8559 111.387 57.8349C110.939 57.7649 110.448 57.7859 110.035 57.8139C109.881 57.8209 109.727 57.7999 109.58 57.7509L109.453 57.7088C109.25 57.6458 109.012 57.6318 108.669 57.6248C108.214 57.5967 107.863 57.6318 107.562 57.7298C107.457 57.7649 107.345 57.7789 107.233 57.7859H106.889C106.371 57.7859 105.881 57.7929 105.453 57.891C105.341 57.919 105.222 57.926 105.103 57.912L104.704 57.87C104.185 57.8139 103.73 57.7719 103.324 57.8559C103.212 57.877 103.1 57.884 102.987 57.87C102.658 57.8349 102.364 57.8279 102.077 57.8279C101.811 57.8349 101.551 57.7439 101.348 57.5827C101.243 57.6108 101.082 57.6388 100.977 57.6388C100.788 57.6388 100.592 57.6178 100.402 57.5967C100.269 57.5827 100.115 57.5617 100.045 57.5757C99.779 57.6248 99.5058 57.5757 99.2746 57.4426C99.2466 57.4286 99.2256 57.4146 99.2046 57.4076H99.1976C99.1976 57.4076 99.1415 57.4216 99.1205 57.4216C98.8543 57.4636 98.5881 57.4987 98.3149 57.5337C97.8035 57.6038 97.2781 57.5337 96.8017 57.3445C96.6826 57.3445 96.5635 57.3445 96.4444 57.3445C95.926 57.3025 95.4497 57.1274 95.0714 56.8542C94.7771 56.8121 94.5039 56.7211 94.2658 56.595C94.1186 56.5179 93.9855 56.4268 93.8664 56.3218C93.4952 56.1676 93.1729 55.9225 92.9417 55.6142C92.8226 55.5372 92.7106 55.4601 92.6125 55.369C92.4303 55.2009 92.2762 55.0118 92.1711 54.8016C92.1011 54.7385 92.038 54.6755 91.975 54.6054C91.7999 54.5004 91.5967 54.3673 91.4216 54.1921C91.2324 53.996 91.0783 53.7508 90.9802 53.4706C90.7911 53.3024 90.644 53.1133 90.5319 52.8961C90.5039 52.8401 90.4758 52.784 90.4548 52.728C90.3427 52.5739 90.2307 52.3847 90.1606 52.1606C90.0976 51.9714 90.0765 51.7893 90.0765 51.6211C90.0765 51.6071 90.0625 51.5931 90.0625 51.5861C90.0065 51.467 89.8454 51.1097 89.8734 50.6474C89.8243 50.5563 89.7823 50.4582 89.7543 50.3532C89.5932 49.8558 89.6632 49.3234 89.9294 48.868C89.9504 48.6368 90.0135 48.4127 90.1186 48.2025C90.1816 47.7542 90.4058 47.3338 90.7841 46.9836C90.8471 46.9205 90.9102 46.8715 90.9802 46.8154C91.0082 46.5632 91.0923 46.3181 91.2464 46.1009C91.4496 45.7997 91.7438 45.5615 92.1011 45.4144C92.1151 45.3933 92.1361 45.3793 92.1501 45.3583C92.3393 45.1762 92.5564 45.0431 92.7736 44.917L92.8577 44.8679C93.0468 44.7489 93.236 44.6718 93.4251 44.6298C93.6353 44.4756 93.8875 44.3636 94.1607 44.3005C94.1817 44.2935 94.2027 44.2865 94.2237 44.2795C94.595 43.9853 95.0994 43.8241 95.5898 43.8452C95.7229 43.7891 95.863 43.7471 96.0101 43.7191C96.3954 43.649 96.7877 43.677 97.138 43.7961C97.201 43.7961 97.2571 43.7891 97.3201 43.7891C97.4672 43.7541 97.6213 43.7331 97.7825 43.7261V43.7821C97.7825 43.7821 97.8385 43.7611 97.8595 43.7541V43.7331C97.8595 43.7331 97.9016 43.7331 97.9226 43.7331C98.0347 43.691 98.1537 43.656 98.2798 43.635C98.6511 43.5579 99.0434 43.5789 99.4077 43.684C99.7089 43.635 100.024 43.649 100.318 43.7261C100.402 43.698 100.487 43.677 100.571 43.656C101.152 43.5089 101.586 43.5789 102.021 43.7681C102.084 43.7541 102.147 43.7471 102.21 43.7401C102.455 43.7121 102.693 43.7261 102.931 43.7821C103.128 43.7261 103.324 43.705 103.499 43.705C103.702 43.656 103.926 43.635 104.136 43.649C104.311 43.656 104.487 43.691 104.655 43.7401C104.858 43.7261 105.061 43.7401 105.257 43.7751C105.404 43.7751 105.544 43.7961 105.678 43.8241C105.678 43.8241 105.692 43.8241 105.699 43.8241C105.881 43.7751 106.07 43.7541 106.266 43.7611H106.616V43.7681C106.658 43.7681 106.7 43.7681 106.749 43.7751C106.826 43.7751 106.896 43.7751 106.967 43.7891C107.044 43.8031 107.149 43.7891 107.275 43.7541C107.387 43.7191 107.513 43.698 107.632 43.698C107.639 43.698 107.646 43.698 107.653 43.698C107.891 43.698 108.108 43.67 108.263 43.621C108.354 43.593 108.452 43.5719 108.55 43.5649C108.627 43.5649 108.697 43.5509 108.774 43.5369C109.005 43.4949 109.25 43.5369 109.467 43.635C109.685 43.7401 110.049 43.7611 110.427 43.698C110.532 43.677 110.637 43.677 110.742 43.684L110.932 43.705C111.289 43.7471 111.618 43.7821 111.828 43.705C112.059 43.621 112.319 43.621 112.55 43.705C112.844 43.8031 113.271 43.8101 113.853 43.7261C113.937 43.7121 114.028 43.7121 114.119 43.7261C114.539 43.7681 115.072 43.7961 115.429 43.663C115.639 43.586 115.87 43.5719 116.088 43.621C116.592 43.7401 117.208 43.649 117.853 43.5579C118.021 43.5299 118.189 43.5089 118.35 43.4879C118.518 43.4669 118.687 43.4879 118.848 43.5369C119.408 43.7191 120.067 43.4809 120.501 43.2007C120.781 43.0185 121.131 42.9625 121.454 43.0606C121.958 43.2077 122.554 43.0746 122.799 42.8644C122.925 42.7523 123.072 42.6753 123.233 42.6262L123.415 42.5772C124.046 42.395 124.69 42.2129 125.096 41.9397C125.279 41.8206 125.496 41.7505 125.713 41.7435C126.21 41.7365 126.61 41.5194 126.687 41.4073C126.799 41.029 127.072 40.7768 127.45 40.6717C127.576 40.6227 127.913 40.3214 128.116 40.1463C128.235 40.0412 128.361 39.9361 128.473 39.8381C128.571 39.719 128.669 39.6069 128.76 39.4948C129.118 39.0745 129.342 38.8013 129.335 38.5771C129.328 38.2408 129.468 37.9116 129.72 37.6874C129.839 37.5823 129.944 37.4422 129.832 37.176C129.657 36.7627 129.734 36.2933 130.028 35.9571C130.196 35.7679 130.105 35.6488 130.063 35.5998C129.902 35.3896 129.818 35.1234 129.832 34.8572C129.846 34.549 129.727 34.2057 129.51 33.9115C129.468 33.8555 129.433 33.7994 129.405 33.7364L129.293 33.5122C129.048 33.0078 128.963 32.9027 128.774 32.8537C128.48 32.7766 128.221 32.5875 128.067 32.3283C127.99 32.2302 127.604 32.0271 127.107 31.992C126.967 31.978 126.834 31.943 126.715 31.8869C125.944 31.5297 125.026 31.2845 124.06 31.0253C123.583 30.8992 123.1 30.7731 122.645 30.633C122.476 30.5839 122.336 30.598 122.252 30.619C122.112 30.654 121.972 30.654 121.832 30.64C121.503 30.598 121.096 30.605 120.606 30.668C120.361 30.696 120.109 30.647 119.898 30.5279C119.471 30.2827 118.799 30.2057 118.336 30.3388C118.196 30.3808 118.049 30.3948 117.902 30.3808C117.103 30.3037 116.263 30.2407 115.506 30.3177C115.45 30.3177 115.401 30.3247 115.345 30.3177L115.282 29.1618L115.24 30.3107C115.093 30.3107 114.939 30.2757 114.806 30.2127C114.462 30.0655 114.007 29.9745 113.615 29.9955C113.397 30.0025 113.18 29.9535 112.991 29.8414C112.949 29.8133 112.858 29.7923 112.732 29.7643C112.333 29.9254 111.87 29.9394 111.443 29.8063C111.247 29.8694 111.037 29.9044 110.827 29.8904C110.469 29.9745 110.084 29.9535 109.748 29.8344C109.524 29.8484 109.306 29.8344 109.096 29.7783C108.949 29.7573 108.809 29.7223 108.676 29.6662L108.606 29.6382C108.606 29.6382 108.543 29.6382 108.508 29.6312C108.508 29.6312 108.494 29.6312 108.487 29.6312C108.164 29.7013 107.835 29.6873 107.527 29.5892C107.499 29.5892 107.478 29.5822 107.457 29.5752C107.317 29.5752 107.128 29.5682 106.918 29.5051C106.854 29.4841 106.791 29.4631 106.735 29.4421C106.651 29.4421 106.574 29.4281 106.497 29.414C106.308 29.379 106.147 29.316 105.993 29.2319C105.902 29.2039 105.818 29.1689 105.727 29.1268C105.565 29.0918 105.397 29.0287 105.236 28.9377C105.236 28.9377 105.236 28.9377 105.229 28.9377C105.103 28.9097 104.984 28.8746 104.865 28.8256C104.788 28.7976 104.613 28.7345 104.438 28.5874C104.382 28.5384 104.269 28.4473 104.157 28.3072C104.031 28.2371 103.912 28.1531 103.807 28.055C103.723 27.9779 103.653 27.8869 103.59 27.7958C103.317 27.6767 103.086 27.4946 102.917 27.2704C102.623 27.0883 102.392 26.808 102.273 26.4718C102.245 26.3947 102.231 26.3247 102.217 26.2616C102.175 26.1846 102.147 26.0935 102.119 25.9884C102.021 25.8763 101.902 25.7222 101.832 25.505C101.769 25.3299 101.748 25.1408 101.762 24.9586C101.719 24.8605 101.684 24.7555 101.67 24.6294C101.628 24.3702 101.677 24.153 101.705 24.0479C101.677 23.9498 101.663 23.8658 101.663 23.8237C101.649 23.7257 101.649 23.6346 101.656 23.5435C101.579 23.3474 101.544 23.1372 101.558 22.92C101.579 22.6608 101.663 22.4157 101.811 22.2055C101.846 22.1354 101.888 22.0654 101.937 21.9953C101.972 21.9113 102.028 21.8272 102.084 21.7501C102.098 21.6941 102.112 21.6451 102.133 21.589C102.147 21.3578 102.217 21.1267 102.343 20.9165C102.441 20.7414 102.602 20.5942 102.798 20.4822C102.805 20.4822 102.812 20.4682 102.826 20.4611C102.854 20.4191 102.889 20.3771 102.924 20.3351C102.987 20.23 103.079 20.0899 103.212 19.9638C103.233 19.9427 103.247 19.9287 103.268 19.9147C103.268 19.9147 103.268 19.9077 103.275 19.9007C103.303 19.8377 103.324 19.7886 103.345 19.7396C103.443 19.5294 103.611 19.3403 103.821 19.1862C103.842 19.1581 103.863 19.1371 103.877 19.1161C104.15 18.8079 104.494 18.6047 104.872 18.5417C104.914 18.5207 104.956 18.4926 105.012 18.4646C105.096 18.4086 105.18 18.3665 105.271 18.3315C105.313 18.3105 105.355 18.2895 105.383 18.2825C105.404 18.2755 105.418 18.2615 105.439 18.2544C105.446 18.2544 105.46 18.2474 105.467 18.2404C105.523 18.2054 105.565 18.1774 105.6 18.1634C105.79 18.0513 105.986 17.9742 106.182 17.9322C106.196 17.9322 106.21 17.9182 106.231 17.9112C106.315 17.8692 106.427 17.8201 106.56 17.7781C106.651 17.694 106.756 17.624 106.861 17.5609C107.051 17.4558 107.261 17.3928 107.471 17.3648C107.639 17.2947 107.842 17.2527 108.059 17.2457C108.115 17.2247 108.178 17.2036 108.235 17.1896C108.543 17.0285 108.9 16.9584 109.243 17.0005C109.453 16.9164 109.65 16.8954 109.79 16.8814C109.804 16.8814 109.818 16.8814 109.825 16.8814H109.839H109.853C110.028 16.8324 110.259 16.7693 110.56 16.7623C110.588 16.7623 110.63 16.7623 110.665 16.7623C110.791 16.7623 110.918 16.7833 111.037 16.8113C111.226 16.8183 111.408 16.8534 111.576 16.9234C111.681 16.9024 111.8 16.8884 111.905 16.8954C112.221 16.9164 112.543 16.9374 112.865 16.9374C113.215 16.9444 113.573 16.9024 113.958 16.8534L114.077 16.8394C114.28 16.8183 114.483 16.8464 114.672 16.9304C115.03 17.0916 115.597 17.0285 116.2 16.9655C116.515 16.9304 116.83 16.9024 117.138 16.8884C117.173 16.8884 117.208 16.8884 117.243 16.8884C119.03 17.0005 120.928 17.0005 122.897 16.8884C123.618 16.8183 124.354 16.9164 124.998 17.0075C125.279 17.0425 125.559 17.0845 125.832 17.1056C126.028 17.0986 126.231 17.0705 126.428 17.0425C126.82 16.9935 127.268 16.9304 127.752 16.9655C128.158 16.9584 128.55 17.0145 128.893 17.0565C129.104 17.0845 129.314 17.1126 129.531 17.1266C130.442 17.0495 131.296 17.1546 132.004 17.0145C132.13 16.9935 132.256 16.9865 132.382 17.0075C133.223 17.1336 134.119 17.2247 134.96 17.0986C134.995 17.0986 135.023 17.0916 135.058 17.0845C135.471 17.0565 135.871 17.0635 136.249 17.0705C136.718 17.0775 137.195 17.0845 137.629 17.0145C137.762 16.9935 137.895 16.9935 138.028 17.0145C138.575 17.1196 139.121 17.1196 139.696 17.0145C139.808 16.9935 139.927 16.9935 140.039 17.0005C140.494 17.0565 141.006 16.9935 141.552 16.9234L141.678 16.9094C141.846 16.8884 142.022 16.9094 142.176 16.9584C142.547 17.0845 143.093 17.1826 143.612 16.9725C143.829 16.8814 144.067 16.8604 144.298 16.9094C144.908 17.0425 145.622 16.9935 146.379 16.9444C147.009 16.9024 147.717 16.8534 148.424 16.9164C148.971 16.8744 149.44 16.9584 149.868 17.0285C150.085 17.0635 150.302 17.1056 150.526 17.1126C150.659 17.1126 150.848 17.0495 151.164 16.9444C151.367 16.8744 151.584 16.8674 151.794 16.9164C152.432 17.0705 153.083 17.1966 153.496 17.0215C153.714 16.9304 153.952 16.9094 154.183 16.9584C154.813 17.0916 155.493 17.0775 156.214 17.0635C156.432 17.0635 156.642 17.0565 156.859 17.0565C157.237 17.0145 157.588 17.0285 157.882 17.0425C158.19 17.0565 158.477 17.0705 158.701 17.0145C158.954 16.9514 159.22 16.9795 159.451 17.0845C159.85 17.2667 160.544 17.2457 161.041 17.0425C161.244 16.9584 161.462 16.9374 161.679 16.9725C162.288 17.0775 162.975 17.0355 163.689 16.9865C163.808 16.9795 163.92 16.9865 164.032 17.0145C164.334 17.0845 164.649 17.1546 164.908 17.1546C165.097 17.1546 165.272 17.0986 165.553 16.9725C165.84 16.8534 166.162 16.8534 166.449 16.9725C166.912 17.1686 167.416 17.0495 167.759 16.9164C167.899 16.8604 168.047 16.8324 168.208 16.8394H168.502C169.132 16.8744 169.728 16.8954 170.155 16.7273C170.393 16.6362 170.653 16.6292 170.898 16.6992C171.136 16.7693 171.493 16.7343 171.872 16.6992L172.18 16.6712C172.257 16.6712 172.327 16.6712 172.404 16.6712C172.691 16.7063 172.992 16.6712 173.336 16.5521C173.539 16.4891 173.749 16.4751 173.959 16.5241C174.127 16.5661 174.421 16.6012 174.912 16.5381C175.052 16.5241 175.192 16.5381 175.325 16.5661C175.535 16.6222 175.851 16.5451 176.068 16.4891C176.285 16.426 176.516 16.433 176.726 16.5031C176.936 16.5732 177.245 16.5732 177.581 16.5101C177.784 16.4751 178.001 16.4891 178.197 16.5661C178.197 16.5661 178.302 16.6082 178.597 16.5661C178.695 16.5521 178.8 16.5521 178.898 16.5661C179.115 16.5942 179.213 16.5661 179.22 16.5661C179.332 16.5241 179.444 16.5031 179.556 16.4961C179.605 16.4961 179.626 16.4821 179.626 16.4821C179.928 16.1038 180.404 15.9777 180.866 16.1388C180.922 16.1388 181.154 16.1038 181.238 16.0477C181.413 15.9427 181.623 15.8726 181.826 15.8726C181.938 15.7815 182.057 15.7325 182.197 15.6835C182.254 15.6625 182.296 15.6274 182.31 15.6134C182.429 15.4733 182.576 15.3682 182.737 15.2982C182.975 15.2001 183.157 15.095 183.29 14.9829C183.472 14.8358 183.69 14.7447 183.928 14.7237C184.068 14.7097 184.194 14.6257 184.474 14.4155C184.565 14.3454 184.663 14.2754 184.754 14.2053C184.846 14.1423 184.951 14.0862 185.063 14.0512C185.448 13.9251 185.672 13.7009 185.721 13.5748C185.847 13.2736 186.099 13.0424 186.408 12.9303C186.492 12.9023 186.541 12.8883 186.604 12.6291C186.625 12.5521 186.653 12.475 186.688 12.4049C186.779 12.2158 186.884 12.0337 186.989 11.8515C187.213 11.4452 187.43 11.0669 187.437 10.7867C187.444 10.4644 187.592 10.1562 187.844 9.94605C187.942 9.86198 188.005 9.76391 188.012 9.67984C188.012 9.65883 188.012 9.59578 187.935 9.50471C187.711 9.25952 187.606 8.92326 187.648 8.59401C187.683 8.31379 187.669 8.24374 187.662 8.22973C187.599 8.14566 187.543 8.04759 187.508 7.94951C187.423 7.72534 187.395 7.52919 187.381 7.39608C187.178 7.12287 187.052 6.85667 186.94 6.6325C186.807 6.35929 186.73 6.21217 186.604 6.10709C186.562 6.07207 186.52 6.03003 186.485 5.988C186.422 5.91795 186.282 5.81287 186.163 5.71479C185.917 5.52564 185.644 5.30848 185.42 5.01425C185.315 4.87414 185.245 4.71302 185.21 4.54489C185.175 4.36275 184.635 3.97745 183.725 3.90039C183.465 3.87938 183.22 3.76729 183.031 3.58515C182.695 3.2629 181.896 3.04574 181.14 3.22788C180.993 3.2629 180.845 3.26991 180.698 3.24889C180.201 3.17884 179.612 3.10178 179.01 3.14381C178.954 3.14381 178.891 3.14381 178.835 3.14381C178.436 3.10878 178.078 3.08076 177.805 3.13681C177.574 3.18584 177.336 3.16483 177.119 3.07376C176.614 2.8636 175.935 2.84958 175.297 3.03172C175.031 3.10878 174.751 3.08777 174.499 2.96868C174.036 2.78654 173.35 2.80755 172.6 3.01771C172.446 3.05975 172.292 3.06675 172.131 3.04574C171.458 2.94766 170.709 2.91964 169.777 2.96167C168.887 3.11579 168.012 3.15082 167.164 3.05975C166.835 3.06675 166.505 3.06675 166.176 3.05975H166.043C165.777 3.05975 165.518 3.05975 165.251 3.05975C165.167 3.05975 165.083 3.05975 165.006 3.03873C164.362 2.91263 163.717 2.93365 163.269 3.10178C163.045 3.18584 162.793 3.19985 162.554 3.13681C162.169 3.03172 161.644 3.05274 161.139 3.07376C161.09 3.07376 160.978 3.07376 160.929 3.07376L160.782 3.05975C160.376 3.02472 159.997 2.98269 159.654 3.0037C159.577 3.01071 159.5 3.01771 159.423 3.02472C159.36 3.03172 159.297 3.04574 159.234 3.05975C159.171 3.07376 159.101 3.08777 159.031 3.08777C158.666 3.10878 158.33 3.08777 157.945 3.08076C157.686 3.07376 157.468 3.05975 157.258 3.06675H157.244C156.999 3.06675 156.768 2.98969 156.579 2.85659C156.558 2.85659 156.537 2.85659 156.516 2.85659L156.362 2.8706C156.193 2.88461 156.025 2.89162 155.857 2.88461C155.752 2.88461 155.654 2.8706 155.563 2.85659C155.423 2.89162 155.283 2.92664 155.143 2.95467C154.834 3.01071 154.512 3.01771 154.197 2.97568C153.608 3.10178 153.062 3.01771 152.614 2.94766C152.376 3.02472 152.081 3.10878 151.738 3.13681C151.514 3.15082 151.094 3.16483 150.659 3.04574C150.421 3.04574 150.204 3.01071 150.001 2.97568C149.973 2.97568 149.952 2.96868 149.924 2.96167C149.924 2.96167 149.924 2.96167 149.917 2.96167C149.91 2.96167 149.896 2.96167 149.889 2.96167L149.763 2.94065C149.699 2.94065 149.629 2.94065 149.566 2.92664C149.531 2.92664 149.503 2.91964 149.475 2.91263H149.447L149.027 3.02472C148.368 3.19285 147.626 3.13681 147.002 2.87761C146.911 2.87761 146.827 2.87761 146.736 2.87761C146.358 2.93365 145.945 2.95467 145.489 2.85659C144.992 2.96868 144.529 2.92664 144.207 2.87761C143.934 2.94065 143.661 3.0037 143.388 3.05975C142.687 3.21386 142.015 3.05975 141.58 2.91263C141.58 2.91263 141.58 2.91263 141.566 2.91263C141.013 3.06675 140.382 3.05975 139.815 2.89862C139.17 3.02472 138.561 2.98269 138.014 2.94766C137.804 2.93365 137.601 2.91964 137.391 2.91964C137.349 2.91964 137.237 2.93365 137.132 2.94065C136.739 2.96868 136.298 2.9967 135.815 2.91964C135.57 2.91263 135.289 2.95467 134.988 2.98969C134.764 3.01771 134.547 3.05274 134.323 3.06675C134.19 3.08076 134.056 3.06675 133.923 3.02472C133.685 2.95467 133.426 2.89862 133.244 2.89862C133.118 2.89862 132.978 2.93365 132.816 2.97568C132.536 3.04574 132.179 3.1298 131.766 3.10878C131.661 3.10878 131.555 3.08777 131.45 3.05274C130.981 2.89862 130.505 2.89862 130.077 3.05274C129.944 3.10178 129.811 3.1298 129.671 3.12279H129.265C128.676 3.09477 128.123 3.08076 127.611 3.16483C127.429 3.19285 127.233 3.17884 127.058 3.11579C126.624 2.96868 126.077 3.04574 125.44 3.1298L125.019 3.18584C124.851 3.20686 124.69 3.18584 124.529 3.13681C124.284 3.05975 124.046 2.98969 123.843 2.98969C123.639 2.98969 123.401 3.05975 123.107 3.15082C122.953 3.19985 122.792 3.21386 122.631 3.19285C122.301 3.15082 121.951 3.15782 121.58 3.16483H121.314C121.258 3.16483 121.201 3.16483 121.152 3.16483L120.928 3.13681C120.662 3.09477 120.403 3.05975 120.214 3.07376C119.562 3.18584 119.058 3.22788 118.399 3.15082C118.07 3.17183 117.762 3.16483 117.461 3.15082C117.166 3.15082 116.914 3.13681 116.655 3.15082C116.55 3.15082 116.452 3.15082 116.354 3.1298C115.765 3.01071 115.289 3.01771 114.897 3.15782C114.715 3.22087 114.511 3.24189 114.315 3.20686C113.923 3.13681 113.489 3.12279 113.033 3.10878C112.662 3.09477 112.277 3.08777 111.877 3.03873C111.387 3.09477 110.918 3.09477 110.462 3.09477C110.161 3.09477 109.86 3.09477 109.559 3.11579C109.404 3.1298 109.25 3.10178 109.103 3.05274C108.697 2.90563 108.256 2.89162 107.779 2.98969C107.625 3.02472 107.457 3.02472 107.303 2.98969C107.093 2.94766 106.854 2.96167 106.588 3.03873C106.378 3.10178 106.154 3.09477 105.944 3.03873C105.474 2.89862 105.054 2.85659 104.711 2.91964C104.641 2.93365 104.571 2.93365 104.494 2.93365C104.024 2.93365 103.59 2.8706 103.17 2.81456L102.966 2.78654C102.728 2.75151 102.455 2.76552 102.161 2.78654C101.832 2.80055 101.467 2.82156 101.082 2.78654C100.935 2.77253 100.788 2.77953 100.641 2.78654C100.262 2.80055 99.772 2.81456 99.2606 2.63942C98.8403 2.54835 98.3219 2.6044 97.7755 2.66744L97.3411 2.70948C97.222 2.72349 97.1099 2.70948 96.9909 2.68846C96.3183 2.54135 95.5758 2.54135 94.8682 2.56236C94.7702 2.56236 94.6791 2.56236 94.588 2.53434C94.539 2.54835 94.4829 2.55536 94.4269 2.56236C93.9295 2.63942 93.4181 2.58338 92.9768 2.40824C92.7876 2.4853 92.5915 2.50632 92.3883 2.4783C92.0801 2.43627 91.7438 2.43627 91.2955 2.47129C91.1834 2.4853 91.0643 2.47129 90.9452 2.45028L90.8471 2.42926C90.7911 2.41525 90.735 2.40124 90.679 2.39423C90.5879 2.40824 90.4969 2.41525 90.4058 2.41525C90.1536 2.42226 89.9154 2.39423 89.7263 2.3522C89.5651 2.3522 89.404 2.35921 89.2359 2.3522C89.0677 2.36621 88.8996 2.38723 88.7315 2.40124C88.3882 2.42926 88.066 2.40124 87.7647 2.32418C87.7367 2.31717 87.7087 2.31017 87.6807 2.30316C87.4285 2.28915 87.1623 2.27514 86.9031 2.26814L86.5948 2.28915L85.9433 2.43627C85.7332 2.4853 85.523 2.49231 85.3759 2.49931L84.7594 2.53434C84.3531 2.56236 83.9678 2.50632 83.6175 2.37322C83.5685 2.38022 83.5195 2.38723 83.4704 2.39423C83.2813 2.45028 83.1062 2.4783 82.959 2.49931L82.7209 2.54135C82.4827 2.59038 82.2095 2.64643 81.8522 2.63942C81.656 2.63942 81.4459 2.63942 81.2427 2.63242L80.7944 2.71648C80.6823 2.7445 80.5072 2.77253 80.332 2.78654C80.0658 2.80055 79.8416 2.77953 79.6665 2.75851L79.4423 2.7375C79.1971 2.71648 78.9449 2.69547 78.7068 2.64643L78.2724 2.56236L77.74 2.59739C77.5369 2.6114 77.3407 2.59739 77.1656 2.56236C76.9064 2.6044 76.6752 2.6114 76.4791 2.61841H76.36C76.2549 2.63942 76.1498 2.65343 76.0447 2.66044L74.6717 2.82156C74.2864 2.8636 73.9361 2.82156 73.6559 2.78654L73.4037 2.75851H73.0114C72.8853 2.75851 72.7382 2.76552 72.577 2.75851C72.2128 3.03172 71.7504 3.20686 71.232 3.2629C71.0919 3.27691 70.9308 3.29092 70.7486 3.28392C70.7206 3.30493 70.6856 3.31895 70.6506 3.33996C70.4894 3.43103 70.3213 3.49408 70.1672 3.53611C69.943 3.79531 69.6068 3.92842 69.2565 3.92141C68.633 3.92141 68.0376 4.18761 67.4771 4.47484C67.372 4.52387 67.267 4.56591 67.1549 4.57992C66.5874 4.67799 66.1391 5.00024 65.6277 5.36452L65.4105 5.51864C65.2354 5.69377 65.0603 5.83388 64.8991 5.96698C64.787 6.05805 64.6119 6.19116 64.5769 6.25421C64.4858 6.51341 64.3317 6.68153 64.0935 6.82164C63.5891 7.11587 63.435 7.37507 63.421 7.43111C63.6242 7.82341 63.5891 8.24374 63.3229 8.59401C63.1268 8.85321 63.0637 9.25251 63.1198 9.89001C63.1408 10.1492 63.0777 10.4154 62.9306 10.6326C62.9306 10.6606 63.0217 10.8147 63.2459 10.9758C63.6101 11.228 63.7993 11.6764 63.7222 12.1107C63.6872 12.3139 63.9394 12.5451 64.3247 12.6641C64.5068 12.7202 64.668 12.8183 64.8081 12.9514C65.0673 13.2106 65.3405 13.4768 65.6277 13.6729C65.6697 13.6939 65.7048 13.715 65.7468 13.743C65.9569 13.792 66.1531 13.8691 66.3422 13.9671C66.4263 14.0162 66.5104 14.0652 66.5874 14.1213C66.6155 14.1423 66.6505 14.1633 66.6785 14.1843C66.7836 14.2544 66.8677 14.3384 66.9377 14.4365C67.0008 14.5066 67.0638 14.5836 67.1128 14.6677C67.1899 14.7097 67.267 14.7588 67.33 14.8008C67.4421 14.8778 67.5472 14.9619 67.6382 15.053L68.1146 15.2071L67.8694 16.335L68.2057 15.2351C68.3878 15.2912 68.612 15.3612 68.8362 15.4943C68.9062 15.5293 68.9833 15.5854 69.0533 15.6414C69.0954 15.6695 69.1304 15.7045 69.1724 15.7325C69.2355 15.7885 69.2845 15.8376 69.3265 15.8796C69.3826 15.8866 69.4386 15.9006 69.4947 15.9076C69.7679 15.9637 70.0201 16.0618 70.2162 16.1388L70.3703 16.1949C70.3703 16.1949 70.3984 16.2019 70.4124 16.2089C70.4684 16.2299 70.5245 16.2579 70.5735 16.2789C70.7066 16.2579 70.8397 16.2579 70.9728 16.2789C71.155 16.314 71.3441 16.349 71.5052 16.356C72.4089 16.2509 73.2846 16.2999 74.1673 16.37C74.8888 16.2719 75.5613 16.3069 76.2128 16.342L76.5771 16.363C76.6612 16.37 76.7593 16.328 76.8363 16.3069C77.0115 16.2509 77.2567 16.1738 77.5509 16.1528C77.6349 16.1528 77.712 16.1528 77.7961 16.1528C78.2024 16.2089 78.5106 16.335 78.7628 16.4401C78.966 16.5241 79.0711 16.5661 79.1761 16.5732C79.4704 16.6012 79.7296 16.5381 80.0588 16.4541L80.283 16.398C80.4371 16.363 80.5982 16.356 80.7523 16.384C80.9135 16.412 81.0956 16.4401 81.2427 16.426C81.3408 16.419 81.4529 16.384 81.593 16.342C81.8802 16.2509 82.1885 16.2789 82.4547 16.412C82.5177 16.4471 82.6928 16.4961 83.0921 16.4681C83.3233 16.4471 83.5545 16.5101 83.7507 16.6292C84.1079 16.8464 84.4232 17.0005 84.7874 17.0916C84.9626 17.1336 85.1307 17.2247 85.2638 17.3437C85.3269 17.3928 85.551 17.4768 85.6982 17.5329L85.9644 17.631C86.0975 17.68 86.2166 17.7571 86.3216 17.8551C86.4407 17.9672 86.5458 18.0303 86.6719 18.0653C87.0292 18.1774 87.3024 18.4576 87.4145 18.8149C87.4565 18.948 87.4775 18.983 87.4845 18.99C87.5196 19.018 87.6036 19.0811 87.8278 19.1511C88.1641 19.2632 88.4373 19.5224 88.5564 19.8517C88.5844 19.9287 88.6404 20.0268 88.7315 20.1459C88.8085 20.251 88.8716 20.3771 88.9066 20.5032L88.9487 20.6713C88.9697 20.7484 88.9977 20.8464 89.0117 20.8815C89.1938 21.2458 89.1938 21.7361 88.9697 22.0794C88.9837 22.0724 88.9977 22.1144 89.0467 22.1775C89.425 22.6258 89.397 23.2913 88.9907 23.7116C88.9066 23.7957 88.8856 23.8588 88.8856 23.8728C89.0257 24.153 89.0537 24.4963 88.9487 24.7905C88.8856 24.9586 88.8085 25.1337 88.7315 25.3019C88.6825 25.414 88.6054 25.5751 88.5844 25.6521C88.6474 26.0374 88.5143 26.4297 88.2201 26.6889C88.101 26.801 88.059 26.8851 88.052 26.9061C88.0239 27.0252 87.9819 27.1513 87.9189 27.2564C87.8488 27.3755 87.7577 27.4946 87.6597 27.6137L87.6457 27.6277C87.5406 27.9009 87.3374 28.125 87.0712 28.2582C86.7139 28.4333 86.3497 28.5174 86.0274 28.5944C85.8102 28.6434 85.53 28.7135 85.439 28.7766C85.2218 28.9237 84.9626 28.9937 84.7104 28.9727C84.6193 28.9727 84.5142 28.9867 84.3881 29.0358C84.255 29.0848 84.1149 29.1128 83.9678 29.1128C83.8487 29.1128 83.7366 29.0988 83.6246 29.0918C83.5825 29.0918 83.5475 29.0778 83.5055 29.0778C83.4004 29.0918 83.3303 29.1198 83.2463 29.1408C83.0921 29.1829 82.903 29.2389 82.6858 29.2669C82.4056 29.316 82.1534 29.2879 81.9923 29.2669C81.9573 29.2669 81.9293 29.2599 81.8942 29.2599C81.5299 29.33 81.1867 29.323 80.8924 29.316C80.8084 29.316 80.7243 29.316 80.6403 29.316C80.0098 29.4491 79.4003 29.4421 78.8118 29.4421C78.5316 29.4421 78.2514 29.4421 77.9782 29.4561C77.8731 29.4561 77.768 29.4561 77.67 29.4351C77.4598 29.393 77.1726 29.414 76.8644 29.4351C76.6612 29.4491 76.451 29.4631 76.2479 29.4631C76.1008 29.4631 75.9677 29.4351 75.8346 29.386C75.7015 29.337 75.4913 29.344 75.3232 29.4C75.162 29.4561 74.9939 29.4771 74.8258 29.4631C74.5876 29.4421 74.4755 29.4561 74.4265 29.4701C74.2934 29.5121 74.1533 29.5261 74.0202 29.5191C73.9151 29.5191 73.5998 29.4981 73.5088 29.5331C73.2916 29.6102 73.0464 29.6312 72.8292 29.5752C72.7592 29.5542 72.6821 29.5401 72.6121 29.5331C72.563 29.5331 72.507 29.5331 72.4229 29.5471C72.2548 29.5822 72.0797 29.5752 71.9185 29.5331C71.7154 29.4841 71.4982 29.4561 71.3161 29.4421C71.2881 29.4421 71.176 29.4911 71.0919 29.5191C70.9168 29.5892 70.7416 29.6522 70.5525 29.6943C70.3703 29.7363 70.1812 29.7363 70.0061 29.6873C69.8379 29.6452 69.5577 29.6873 69.2565 29.7223C69.0603 29.7503 68.8712 29.7713 68.682 29.7853C68.654 29.7853 68.619 29.7853 68.605 29.7853C68.4369 29.7853 68.2617 29.7783 68.0866 29.7643C67.7713 29.7503 67.4491 29.7293 67.274 29.7923C67.0778 29.8624 66.8606 29.8764 66.6575 29.8344C66.5384 29.8133 66.4473 29.7923 66.3563 29.7713C66.1111 29.7433 65.8098 29.7713 65.4946 29.8134C65.1864 29.8484 64.8781 29.8834 64.5489 29.8764C64.4648 29.8764 64.3737 29.8624 64.2897 29.8414C63.9814 29.7643 63.6592 29.7573 63.2879 29.7433C63.0077 29.7363 62.7205 29.7223 62.4332 29.6943C61.9639 29.6732 61.5365 29.7013 61.1723 29.7783C61.0812 29.7993 60.9901 29.8063 60.8991 29.7993L60.4717 29.7783C60.0234 29.7573 59.5961 29.7363 59.2108 29.7853C59.1547 29.7923 59.0987 29.7923 59.0426 29.7993C58.8465 29.7993 58.6433 29.7783 58.4472 29.7643C58.181 29.7433 57.9568 29.7223 57.7887 29.7503C57.6275 29.7853 57.4664 29.7783 57.3053 29.7503C56.913 29.6592 56.4576 29.6662 55.9743 29.6662H55.9042C55.652 29.6662 55.3858 29.6662 55.1266 29.6522C54.9515 29.6452 54.7833 29.5962 54.6362 29.5121C54.363 29.358 53.8446 29.351 53.2562 29.4841C53.1161 29.5191 52.9619 29.5191 52.8218 29.4981C52.5556 29.4561 52.2194 29.414 52.0022 29.4701C51.8551 29.5121 51.694 29.5191 51.5398 29.4981C51.0565 29.4281 50.7132 29.4351 50.503 29.5261C50.2789 29.6242 50.0197 29.6452 49.7745 29.5892C49.6974 29.5682 49.6204 29.5541 49.5363 29.5401L49.3261 29.4981C49.151 29.4701 48.9408 29.4911 48.6676 29.5471C48.4575 29.5892 48.2403 29.5682 48.0371 29.4911C47.869 29.4281 47.7289 29.386 47.5818 29.365C47.5538 29.365 47.4767 29.365 47.3927 29.365C46.9583 29.365 46.594 29.4351 46.3909 29.5612C46.1107 29.7293 45.7744 29.7713 45.4662 29.6732C45.1089 29.5682 44.6676 29.6032 44.1632 29.6522C43.897 29.6802 43.6308 29.7013 43.3575 29.7083C42.9863 29.7433 42.671 29.6732 42.4398 29.6242C42.3698 29.6102 42.2997 29.5892 42.2297 29.5822C41.9284 29.5682 41.5712 29.6032 41.2629 29.6943C41.1018 29.7433 40.9407 29.7503 40.7726 29.7293C40.6184 29.7083 40.4643 29.6873 40.3382 29.7013C40.2401 29.7083 40.107 29.7433 39.9669 29.7853C39.7988 29.8344 39.6167 29.8414 39.4415 29.8063C39.1613 29.7503 38.79 29.7643 38.3907 29.8344C38.2086 29.8694 38.0194 29.8554 37.8443 29.7993C37.5711 29.7153 37.2418 29.7083 36.7304 29.7713C36.5973 29.7923 36.4712 29.7853 36.3381 29.7573C35.9879 29.6802 35.5886 29.7153 35.1262 29.7503C34.881 29.7713 34.6428 29.7853 34.3976 29.7923C34.3136 29.7923 34.2225 29.7923 34.1384 29.7713C33.55 29.6522 32.8495 29.6592 32.0578 29.7993C31.9107 29.8274 31.7496 29.8204 31.6025 29.7853C31.2242 29.7013 30.8319 29.7013 30.4816 29.7853C30.3065 29.8274 30.1314 29.8344 29.9562 29.7923C29.704 29.7363 29.4448 29.7363 29.1646 29.7783C29.0595 29.7923 28.9544 29.7993 28.8494 29.7783C28.0437 29.6802 27.1471 29.6802 26.1803 29.7853C25.9842 29.8063 25.788 29.7783 25.6059 29.7013C25.1295 29.4981 24.464 29.5121 23.8615 29.7293C23.6304 29.8133 23.3782 29.8204 23.14 29.7503C23.0209 29.7153 22.8457 29.6943 22.6566 29.6662L22.3834 29.6312C22.2853 29.6172 22.1102 29.6522 21.9421 29.6802C21.7249 29.7223 21.4587 29.7783 21.1574 29.7853C21.1224 29.7853 21.0944 29.7853 21.0594 29.7853C20.8352 29.7713 20.59 29.7853 20.3238 29.8134C20.0226 29.8414 19.6863 29.8624 19.329 29.8484C18.9788 29.8134 18.6705 29.8274 18.3413 29.8344C18.0471 29.8414 17.7108 29.8554 17.3605 29.8344C16.9192 29.8694 16.4778 29.8484 16.0295 29.7713C15.5952 29.7573 15.0978 29.8624 14.6144 29.9675C14.3762 30.0165 14.117 29.9955 13.8929 29.8974C13.3324 29.6522 12.5969 29.7923 11.7562 29.9535C11.2098 30.0585 10.6494 30.1636 10.0539 30.1846C9.94181 30.1986 9.86475 30.2267 9.81571 30.2477C9.68962 30.3177 9.54951 30.3528 9.40239 30.3738C9.1502 30.4018 8.90501 30.4438 8.65282 30.4929C8.19747 30.5699 7.78415 30.682 7.34281 30.8011C6.95051 30.9062 6.56521 31.0113 6.1589 31.0953C5.94173 31.1584 5.75959 31.2565 5.67552 31.3615C5.54943 31.5227 5.37429 31.6488 5.18515 31.7188C4.84889 31.8449 4.63172 32.0621 4.56167 32.2232C4.43557 32.5104 4.20439 32.7346 3.91016 32.8467C3.35674 33.0568 3.0485 33.4281 3.13257 33.7924C3.22364 34.1917 3.09053 34.612 2.7893 34.8923C2.55812 35.1024 2.20785 35.5087 2.43903 35.81C2.67021 36.1042 2.74026 36.4895 2.63518 36.8468C2.64219 36.8958 2.68422 37.0219 2.86636 37.3301C2.89438 37.3792 2.9224 37.4212 2.94342 37.4773C3.10454 37.8485 3.28668 38.0867 3.55289 38.2829C3.78407 38.451 3.94519 38.7032 4.00123 38.9834C4.03626 39.1515 4.43557 39.5228 5.09408 39.6419C5.43734 39.705 5.73857 39.9151 5.9067 40.2234C6.06082 40.5106 6.48114 40.8188 7.03457 40.8328C7.18869 40.8328 7.34281 40.8749 7.48292 40.9379L7.84019 41.106C8.33757 41.3442 8.7649 41.5474 9.24127 41.5894C9.39539 41.6034 9.54951 41.6455 9.68962 41.7225C10.0329 41.9047 10.3551 42.0097 10.6774 42.0448C10.8105 42.0588 10.9366 42.1008 11.0627 42.1569C11.2168 42.2339 11.455 42.325 11.7212 42.311C11.9804 42.297 12.2396 42.374 12.4497 42.5281C12.6179 42.6472 12.9331 42.7523 13.2063 42.6893C13.3745 42.6472 13.5566 42.6472 13.7247 42.6893C14.0119 42.7523 14.3622 42.8013 14.6985 42.8434L14.9156 42.8714C15.0067 42.8854 15.1048 42.9064 15.1889 42.9415C15.329 42.9695 15.7143 42.9905 16.0085 42.9905C16.0715 42.9905 16.1416 42.9905 16.2046 43.0045C16.4498 43.0395 16.667 43.1026 16.8491 43.1586C16.9822 43.2007 17.1013 43.2357 17.1924 43.2497C17.5707 43.2427 17.935 43.2637 18.2572 43.2917C18.7546 43.3268 19.1749 43.3618 19.5462 43.2707C19.6653 43.2427 19.7844 43.2357 19.9035 43.2497C20.0856 43.2637 20.2678 43.2917 20.4569 43.3127C21.0804 43.3898 21.6688 43.4599 22.0892 43.2917C22.3063 43.2077 22.5515 43.1866 22.7827 43.2427C22.9718 43.2917 23.231 43.2497 23.5323 43.2077C23.7564 43.1726 23.9806 43.1446 24.2048 43.1306C24.3239 43.1306 24.443 43.1306 24.5621 43.1656C24.9334 43.2637 25.4728 43.3828 25.9421 43.3198C26.7127 43.2427 27.4273 43.2497 28.1208 43.2637C28.429 43.2637 28.7303 43.2777 29.0315 43.2707L29.2977 43.2427C29.7391 43.1866 30.0823 43.1446 30.7198 43.2147C30.8949 43.2147 31.0771 43.2287 31.2522 43.2357C31.6866 43.2637 32.0088 43.2847 32.247 43.2007C32.4081 43.1446 32.5832 43.1236 32.7584 43.1446C33.1857 43.1937 33.557 43.1937 33.8863 43.1446C34.1104 43.1096 34.3486 43.1446 34.5588 43.2357C35.0772 43.4739 35.8898 43.5019 36.3732 43.2847C36.5553 43.2077 36.7445 43.1726 36.9406 43.1937C37.8373 43.2777 38.783 43.3478 39.6027 43.1937C39.8268 43.1516 40.058 43.1796 40.2682 43.2707C40.6535 43.4388 40.9687 43.5019 41.2349 43.4739C41.2629 43.4739 41.2839 43.4739 41.312 43.4739C41.4241 43.4739 41.5852 43.4248 41.7533 43.3828C42.0545 43.3057 42.4328 43.2147 42.8742 43.2287C42.9092 43.2287 42.9442 43.2287 42.9863 43.2357C43.3015 43.2777 43.6518 43.2707 44.016 43.2707C44.2893 43.2707 44.5415 43.2707 44.7866 43.2707C44.8357 43.2707 44.8917 43.2707 44.9408 43.2847C45.4942 43.3758 45.8795 43.3828 46.1947 43.2917C46.3348 43.2497 46.489 43.2427 46.6291 43.2567C46.8743 43.2847 47.1194 43.2777 47.3646 43.2357C47.4837 43.2147 47.6098 43.2147 47.7289 43.2357C48.1352 43.2987 48.6326 43.2707 49.0599 43.1656C49.207 43.1306 49.3612 43.1236 49.5083 43.1446C49.9636 43.2147 50.3629 43.2287 50.6992 43.1866C50.8393 43.1726 50.9864 43.1796 51.1195 43.2077C51.8201 43.3758 52.5977 43.2357 53.3472 43.0956C53.3963 43.0886 53.4453 43.0816 53.4873 43.0816C54.1108 43.0465 54.7063 43.0956 55.2317 43.1306C55.603 43.1586 55.9322 43.1796 56.2545 43.1866C56.6888 43.1096 57.0951 43.1096 57.4384 43.1096C57.7326 43.1096 58.0058 43.1096 58.216 43.0676C58.3911 43.0325 58.5733 43.0395 58.7484 43.0886C59.3999 43.2707 59.8833 43.3057 60.2265 43.2007C60.3596 43.1586 60.4997 43.1446 60.6399 43.1516L60.9411 43.1726C61.3334 43.2007 61.7047 43.2217 62.0479 43.2007C62.132 43.2007 62.2091 43.2007 62.2861 43.2077C62.5103 43.2427 62.7765 43.2287 63.0637 43.2077C63.5121 43.1866 64.0094 43.1586 64.5489 43.2777C65.0182 43.3758 65.5787 43.3268 66.1531 43.2637C66.2372 43.2567 66.3212 43.2567 66.4053 43.2637C66.8957 43.3197 67.4491 43.2987 68.1496 43.2007C68.3108 43.1796 68.4719 43.1937 68.619 43.2357C68.675 43.2497 68.7381 43.2637 68.7941 43.2777C68.8642 43.2917 68.9272 43.3057 68.9973 43.3268C69.0814 43.3548 69.1794 43.3758 69.2915 43.3898C69.4176 43.4038 69.5437 43.4318 69.6628 43.4879C69.943 43.614 70.3774 43.649 70.6856 43.663C70.7136 43.663 70.7346 43.663 70.7627 43.663C71.0849 43.698 71.3791 43.7751 71.6734 43.8522C71.9816 43.9292 72.2758 44.0063 72.514 44.0133C72.8082 44.0133 73.0884 44.1324 73.2986 44.3425C73.3757 44.4126 73.7119 44.5037 73.9151 44.5527C74.1953 44.6298 74.5105 44.7138 74.8258 44.8539C74.8888 44.882 74.9449 44.917 75.0009 44.952C75.064 44.987 75.141 45.008 75.2181 45.0361C75.4633 45.1271 75.7995 45.2462 76.1008 45.5054C76.1428 45.5405 76.1848 45.5825 76.2199 45.6245C76.2759 45.6315 76.3319 45.6385 76.395 45.6525C76.6051 45.6946 76.8153 45.7646 77.0115 45.8697C77.3968 45.9047 77.761 46.0098 78.0763 46.192C78.4195 46.3951 78.6998 46.6753 78.8749 46.9976C79.2112 47.2918 79.4353 47.6701 79.4984 48.0904C79.5544 48.4757 79.4774 48.861 79.2812 49.2043C79.2952 49.2463 79.3092 49.2954 79.3162 49.3514C79.3373 49.4495 79.3443 49.5475 79.3373 49.6526C79.3302 49.8138 79.3443 49.9749 79.3583 50.136C79.3723 50.2971 79.3793 50.4582 79.3863 50.6124C79.3863 50.8435 79.3303 51.0677 79.2042 51.2639C79.3303 51.6562 79.2392 52.0835 78.959 52.3917C78.966 52.6439 78.8959 52.8891 78.7418 53.0993C78.6227 53.2674 78.4756 53.4355 78.3285 53.5967C78.2304 53.7087 78.0763 53.8699 78.0483 53.9399C77.9782 54.1501 77.8451 54.3322 77.663 54.4723C77.5789 54.5354 77.5018 54.6195 77.4458 54.7105C77.3477 54.8716 77.2146 55.0047 77.0535 55.0958C77.0395 55.1028 77.0325 55.1098 77.0325 55.1098C76.8714 55.348 76.6262 55.5232 76.3459 55.5862C76.2689 55.6072 76.2129 55.6282 76.1778 55.6492C76.0587 55.9505 75.8135 56.1957 75.4983 56.3078C75.4142 56.3358 75.3162 56.4058 75.1901 56.4899C75.057 56.581 74.9239 56.665 74.7767 56.7491C74.6577 56.8121 74.5316 56.8542 74.3914 56.8752C74.3564 56.8752 74.3144 56.8892 74.2794 56.9032C74.2513 56.9102 74.2443 56.9102 74.2443 56.9032C74.0482 57.0994 73.782 57.2185 73.4948 57.2325C73.3546 57.2395 73.1935 57.3025 73.0674 57.4006C72.9203 57.5127 72.7522 57.5967 72.57 57.6318L72.3529 57.6738C72.2268 57.6948 72.0937 57.7158 71.9746 57.7509C71.8835 57.7789 71.7854 57.7929 71.6874 57.7929C71.5753 57.7929 71.4702 57.8069 71.3581 57.8279C71.218 57.8559 71.0779 57.8559 70.9378 57.8349C70.2232 57.7158 69.5577 57.7018 68.9062 57.7929C68.8222 57.8069 68.7381 57.8069 68.647 57.7929C68.1286 57.7439 67.5892 57.7789 67.0218 57.8139C66.5314 57.8419 65.971 57.877 65.3895 57.8559C64.9202 57.877 64.4858 57.8489 64.0585 57.8139C63.421 57.7649 62.8816 57.7228 62.4332 57.87C62.2931 57.919 62.146 57.933 62.0059 57.926C61.7467 57.912 61.4945 57.898 61.2353 57.884C61.0392 57.877 60.843 57.94 60.6399 58.0101C60.4507 58.0731 60.2546 58.0941 60.0584 58.0591C59.484 57.954 58.8465 57.989 58.174 58.0311L57.7116 58.0521C57.6486 58.0521 57.5925 58.0521 57.5295 58.0521C56.8499 57.975 56.1494 58.0381 55.4979 58.2342C55.2667 58.3043 55.0215 58.2973 54.7974 58.2202C53.9567 57.933 53.1301 58.0871 52.0793 58.2903L51.8901 58.3253C51.8411 58.3323 51.799 58.3393 51.75 58.3463C51.3647 58.3743 51.0074 58.3253 50.6992 58.2833C50.475 58.2553 50.2649 58.2202 50.1177 58.2272C49.4733 58.2272 48.9058 58.3533 48.4505 58.5775C48.2753 58.6616 48.0722 58.7036 47.89 58.6966C46.1947 58.6265 45.0108 58.7316 44.3663 59.0048C44.2753 59.0399 44.1842 59.0679 44.0931 59.0819C43.946 59.1029 43.8339 59.1309 43.7569 59.1589C43.5257 59.25 43.2665 59.264 43.0283 59.194C42.1526 58.9418 41.0738 59.243 40.7655 59.6563C40.5974 59.8875 40.3452 60.0486 40.065 60.0977C39.6027 60.1887 39.1893 60.4129 38.762 60.7912C38.6919 60.8543 38.6219 60.9033 38.5378 60.9523C38.2366 61.1205 38.0194 61.3236 37.9214 61.5478C37.8023 61.821 37.5851 62.0382 37.3119 62.1502C36.7655 62.3814 36.4572 62.7667 36.5343 62.9629C36.7164 63.3972 36.6113 63.9016 36.2681 64.2309C36.163 64.3359 36.149 64.413 36.149 64.476C36.149 64.5951 36.2261 64.7983 36.4362 64.9804C36.6604 65.1836 36.8005 65.4638 36.8215 65.765C36.8425 66.1573 37.0947 66.7458 37.7112 67.1171C37.9984 67.2922 38.1946 67.5794 38.2436 67.9087C38.2646 68.0348 38.5238 68.357 39.3435 68.6723C39.3855 68.6863 39.4275 68.7073 39.4625 68.7283C39.988 69.0085 40.8846 69.2537 41.5782 69.1977C41.8234 69.1767 42.0686 69.2397 42.2787 69.3658C42.3348 69.4008 42.4819 69.4709 42.7481 69.4919C42.8321 69.4989 42.9162 69.5199 42.9933 69.5409C43.1194 69.5059 43.2385 69.4849 43.3645 69.4639C43.4556 69.4499 43.5467 69.4499 43.6308 69.4639C43.6728 69.4639 43.7148 69.4639 43.7639 69.4569L43.904 69.4429C43.953 69.4429 44.002 69.4429 44.0441 69.4429C44.5204 69.4709 44.9548 69.604 45.3471 69.8212L45.4241 69.8632H45.5082C45.6833 69.8422 45.8655 69.8282 46.0406 69.8352C46.1737 69.8352 46.3138 69.8562 46.4609 69.8842L46.9653 69.9963L47.2385 69.9122C47.3506 69.8772 47.4557 69.8492 47.5538 69.8212C47.785 69.7651 48.0301 69.7861 48.2543 69.8772C48.6887 70.0523 49.2141 70.0733 49.6204 69.9332C49.7605 69.8842 49.9146 69.8632 50.0617 69.8772C50.2719 69.8912 50.482 69.8702 50.6572 69.8142C50.8043 69.7651 50.9654 69.7511 51.1195 69.7651C51.4137 69.7931 51.708 69.8352 52.0092 69.8772C52.8078 69.9893 53.5644 70.0944 54.2439 69.9683C54.4191 69.9403 54.6012 69.9473 54.7763 70.0033C55.2947 70.1574 55.8832 70.3255 56.4226 70.2765C56.5627 70.2695 56.6958 70.2345 56.8569 70.1924C57.0601 70.1434 57.2983 70.0804 57.5715 70.0593C57.6556 70.0523 57.7326 70.0593 57.8167 70.0593C58.3841 70.1294 58.9726 70.1364 59.596 70.1364H60.0724C60.1355 70.1364 60.2055 70.1504 60.2686 70.1574C60.6749 70.2345 61.1232 70.2345 61.5155 70.1574C61.6416 70.1294 61.7817 70.1294 61.9148 70.1504C62.5103 70.2415 63.0357 70.2205 63.435 70.0804C63.6662 70.0033 63.9114 69.9963 64.1496 70.0663C64.5208 70.1784 64.9972 70.2135 65.4175 70.1434C65.6487 70.1084 65.8799 70.1434 66.0901 70.2415C66.5664 70.4727 67.344 70.4376 67.9815 70.1644C68.1637 70.0874 68.3598 70.0593 68.5489 70.0734L68.8642 70.1084C69.6418 70.1924 70.3703 70.2695 70.9868 70.1084C71.1199 70.0733 71.26 70.0593 71.4001 70.0804L71.6874 70.1154C72.0586 70.1574 72.3739 70.1995 72.6471 70.1504C72.7242 70.1364 72.8012 70.1294 72.8853 70.1364H73.0394C73.4107 70.1644 73.7329 70.1784 74.0202 70.1364C74.2093 70.1014 74.4055 70.1224 74.5876 70.1854C75.092 70.3606 75.7575 70.3466 76.451 70.1434C76.5841 70.1084 76.7242 70.0874 76.8573 70.1014C77.3827 70.1434 78.0062 70.1784 78.6297 70.1294C78.7138 70.1294 78.7978 70.1294 78.8749 70.1294C79.4213 70.2065 80.0028 70.1784 80.6263 70.1574C81.0606 70.1434 81.5019 70.1224 81.9433 70.1364C82.0133 70.1364 82.0834 70.1504 82.1534 70.1644C82.8259 70.3115 83.4634 70.2905 83.9468 70.1084C84.143 70.0313 84.3531 70.0173 84.5633 70.0523C84.9626 70.1294 85.2848 70.1294 85.537 70.0523C85.7892 69.9823 86.0624 69.9963 86.3006 70.0944C86.798 70.3045 87.1763 70.3816 87.5406 70.3466C87.7577 70.3255 87.9889 70.2555 88.2761 70.1154C88.4933 70.0173 88.7315 69.9823 88.9627 70.0243C89.2639 70.0804 89.6352 70.0593 90.0275 70.0453C90.0976 70.0453 90.1816 70.0453 90.2517 70.0523C90.665 70.1084 91.1554 70.1714 91.6317 70.1504C91.7648 70.1504 91.9189 70.1714 92.052 70.2205C92.6335 70.4306 93.327 70.4376 93.8104 70.2345C94.0556 70.1294 94.3358 70.1154 94.588 70.1924C95.2465 70.3886 96.0101 70.4236 96.8578 70.2835C96.9348 70.2695 97.0189 70.2695 97.0959 70.2695C98.2518 70.3255 99.2816 70.3185 100.248 70.2415C100.332 70.2415 100.416 70.2415 100.501 70.2485C100.83 70.2975 101.194 70.2905 101.579 70.2905C101.818 70.2905 102.056 70.2905 102.287 70.2975C102.357 70.2975 102.427 70.3115 102.49 70.3255C103.1 70.4586 103.744 70.4446 104.227 70.2835C104.452 70.2065 104.697 70.2065 104.928 70.2835C105.762 70.5427 106.434 70.5777 106.868 70.3746C107.051 70.2905 107.254 70.2555 107.457 70.2765C108.389 70.3676 109.159 70.4306 109.895 70.3115C110 70.2975 110.105 70.2905 110.21 70.3045C110.602 70.3466 111.016 70.3746 111.373 70.3045C111.527 70.2765 111.688 70.2695 111.835 70.3045C112.347 70.4096 112.788 70.4516 113.18 70.4236C113.909 70.2765 114.581 70.3606 115.184 70.4236C115.723 70.4867 116.186 70.5427 116.571 70.4236C116.718 70.3816 116.879 70.3676 117.033 70.3816C117.468 70.4306 117.804 70.4306 118.049 70.3746C118.189 70.3396 118.336 70.3326 118.476 70.3536C118.876 70.4166 119.261 70.3956 119.527 70.3115C119.723 70.2485 119.927 70.2345 120.13 70.2835C120.543 70.3746 120.879 70.3536 121.244 70.2835C121.419 70.2485 121.587 70.2485 121.762 70.2905C122.315 70.4306 122.54 70.4026 123.016 70.3115C123.205 70.2765 123.401 70.2835 123.583 70.3466C123.765 70.4026 124.053 70.4166 124.305 70.4166C124.34 70.4166 124.389 70.4096 124.403 70.4026C124.515 70.4026 124.627 70.4026 124.739 70.4306C125.097 70.5147 125.643 70.5007 126.126 70.4867H126.245C126.245 70.4867 126.266 70.4867 126.273 70.4867L126.224 70.5497ZM94.0836 46.8224L94.0556 46.8365C94.0556 46.8365 94.0696 46.8295 94.0836 46.8224ZM106.532 46.0799C106.532 46.0799 106.553 46.0799 106.56 46.0799H106.532ZM99.6949 45.9468C99.6949 45.9468 99.6949 45.9468 99.7019 45.9468C99.7019 45.9468 99.7019 45.9468 99.6949 45.9468ZM108.641 27.8658L108.606 28.4893L108.697 27.7327L108.634 27.8658H108.641ZM110.182 27.6837C110.182 27.6837 110.168 27.6837 110.168 27.6907C110.168 27.6907 110.182 27.6907 110.182 27.6837ZM108.669 27.3404L108.655 27.6277L108.746 27.3545C108.746 27.3545 108.711 27.3475 108.697 27.3404C108.69 27.3404 108.683 27.3404 108.669 27.3404ZM108.718 27.3334C108.718 27.3334 108.739 27.3334 108.746 27.3404C108.746 27.3404 108.725 27.3334 108.718 27.3334ZM106.084 27.2844C106.084 27.2844 106.084 27.2844 106.084 27.2914C106.084 27.2914 106.084 27.2914 106.084 27.2844ZM107.317 27.1793C107.317 27.1793 107.331 27.1793 107.338 27.1793H107.317ZM106.826 27.1233C106.826 27.1233 106.826 27.1233 106.833 27.1303C106.833 27.1303 106.833 27.1303 106.826 27.1233ZM106.805 27.1093C106.805 27.1093 106.812 27.1093 106.819 27.1163C106.819 27.1163 106.812 27.1163 106.805 27.1093ZM104.879 26.4928C104.879 26.4928 104.879 26.4998 104.879 26.5068C104.879 26.5068 104.879 26.4998 104.879 26.4928ZM104.424 26.1495H104.438C104.438 26.1495 104.438 26.1075 104.445 26.0795C104.445 26.0795 104.438 26.1285 104.431 26.1495H104.424ZM103.303 25.9604L103.702 26.0304L103.611 25.9954L103.303 25.9604ZM107.919 19.5084C107.919 19.5084 107.954 19.5084 107.975 19.5084C107.954 19.5084 107.933 19.5084 107.919 19.5084ZM67.6242 17.4208C67.6242 17.4208 67.6242 17.4208 67.6382 17.4348C67.6382 17.4348 67.6312 17.4278 67.6242 17.4208Z" fill="#EDB371"/>
</svg>
