<svg width="56" height="56" viewBox="0 0 56 56" fill="none" xmlns="http://www.w3.org/2000/svg">
<path d="M11.6281 23.0128C9.98089 22.967 7.67472 23.0585 6 23.0585V31.6243H8.39768V25.1451C8.39768 25.1451 10.53 25.0718 11.2987 25.1634C12.0217 25.2458 12.2871 25.6942 12.3146 26.6276C12.3328 27.6892 12.3146 28.2475 12.3146 31.6243H14.7123C14.7123 31.6243 14.7397 27.7624 14.7123 26.4172C14.6756 24.0286 13.8428 23.0677 11.6281 23.0128Z" fill="#3B3B3B"/>
<path d="M23.0255 23C20.6554 23 18.7244 24.9401 18.7244 27.3286C18.7244 29.7172 20.6554 31.6573 23.0255 31.6573C25.3958 31.6573 27.3267 29.7172 27.3267 27.3286C27.3267 24.9401 25.3958 23 23.0255 23ZM23.0255 29.5891C21.781 29.5891 20.7743 28.5732 20.7743 27.3195C20.7743 26.0657 21.781 25.0499 23.0255 25.0499C24.2702 25.0499 25.2768 26.0657 25.2768 27.3195C25.2768 28.5824 24.2702 29.5891 23.0255 29.5891Z" fill="#3B3B3B"/>
<path d="M35.8751 23H33.6331V25.4069H31.3269V27.5117H33.6331V30.0101H35.8751V27.5117H38.1813V25.4069H35.8751V23Z" fill="#3B3B3B"/>
<path d="M50.7835 27.3286C50.7835 24.9401 48.8525 23 46.4823 23C44.1121 23 42.1812 24.9401 42.1812 27.3286C42.1812 28.7288 42.8218 29.9276 43.8193 30.7239C44.5148 31.2729 45.4848 31.6573 46.7844 31.6573C47.4158 31.6573 49.0539 31.4834 50.2344 30.1747L49.2644 28.8752C48.8525 29.2413 47.8184 29.7537 46.9948 29.7537C45.9515 29.7537 45.3201 29.5524 44.8625 29.1223C44.5788 28.8661 44.3775 28.4725 44.286 27.9876H50.7195C50.7561 27.7678 50.7835 27.5574 50.7835 27.3286ZM44.3043 26.5416C44.5422 25.5258 45.256 24.7753 46.4732 24.7753C47.7452 24.7753 48.4133 25.5807 48.6329 26.5416H44.3043Z" fill="#3B3B3B"/>
</svg>
