<svg id="eOR5SC1sN7q1" xmlns="http://www.w3.org/2000/svg" xmlns:xlink="http://www.w3.org/1999/xlink" viewBox="0 0 1440 130" shape-rendering="geometricPrecision" text-rendering="geometricPrecision">
<style><![CDATA[
#eOR5SC1sN7q3 {animation: eOR5SC1sN7q3_c_o 3000ms linear 1 normal forwards}@keyframes eOR5SC1sN7q3_c_o { 0% {opacity: 0} 90% {opacity: 0} 100% {opacity: 1}} #eOR5SC1sN7q22_to {animation: eOR5SC1sN7q22_to__to 3000ms linear 1 normal forwards}@keyframes eOR5SC1sN7q22_to__to { 0% {transform: translate(0px,59.5px)} 83.333333% {transform: translate(331px,59.5px)} 100% {transform: translate(331px,59.5px)}} #eOR5SC1sN7q22_ts {animation: eOR5SC1sN7q22_ts__ts 3000ms linear 1 normal forwards}@keyframes eOR5SC1sN7q22_ts__ts { 0% {transform: scale(0,1)} 83.333333% {transform: scale(1,1)} 100% {transform: scale(1,1)}} #eOR5SC1sN7q26_to {animation: eOR5SC1sN7q26_to__to 3000ms linear 1 normal forwards}@keyframes eOR5SC1sN7q26_to__to { 0% {transform: translate(1440px,61.5px)} 83.333333% {transform: translate(1109px,61.5px)} 100% {transform: translate(1109px,61.5px)}} #eOR5SC1sN7q26_ts {animation: eOR5SC1sN7q26_ts__ts 3000ms linear 1 normal forwards}@keyframes eOR5SC1sN7q26_ts__ts { 0% {transform: scale(0,1)} 83.333333% {transform: scale(1,1)} 100% {transform: scale(1,1)}}
]]></style>
<g><g id="eOR5SC1sN7q3" opacity="0" clip-path="url(#eOR5SC1sN7q20)"><g><path d="M685.529,41.2844c-.799,0-1.598,0-2.418-.021-3.385-.0421-6.791-.3786-10.281-.7362-3.785-.4838-7.128-1.0306-10.282-1.6827-1.703-.3576-3.385-.7362-5.004-1.1568l-1.534-.3997c-.19-.042-.19-.042-.442-.1472l-2.271-.8834c-3.385-1.4093-6.097-2.8396-8.305-4.3961-2.67-1.872-4.667-3.8071-5.95-5.7843-.715-1.0937-1.282-2.2506-1.64-3.4074-.105-.3155-.336-1.0938-.42-1.83-.063-.4627-.084-.9675-.042-1.5144.21-2.1034,1.493-4.0595,3.511-5.4057.946-.631,2.018-1.1148,3.175-1.4092.567-.1473,1.051-.2314,1.745-.3155l2.355-.1893c5.824-.3156,12.426.5048,19.721,2.4399c11.796,3.1761,24.221,8.6869,36.963,16.4273c1.009.61,1.345,1.9351.715,2.9658-.61,1.0096-1.935,1.3462-2.965.7151-12.405-7.509-24.452-12.8726-35.848-15.9435-6.854-1.809-13.015-2.5872-18.334-2.3138l-2.187.1683c-.378.0421-.693.1052-1.093.2103-.673.1683-1.325.4628-1.871.8204-.925.6099-1.535,1.4513-1.598,2.2085c0,.1893,0,.3786,0,.5469.042.3365.147.7572.252,1.1148.252.7572.631,1.5565,1.157,2.3347.988,1.5355,2.607,3.0709,4.814,4.6064c1.977,1.3672,4.416,2.6503,7.464,3.9333l2.586.9676l1.136.2944c1.556.3997,3.175.7573,4.794,1.0938c3.027.631,6.265,1.1569,9.902,1.6196c3.343.3576,6.644.6731,9.861.7152c7.191.1893,13.498-.4628,18.755-1.8721c1.156-.3155,2.334.3576,2.628,1.5145.315,1.1568-.357,2.3347-1.514,2.6292-5.046,1.3672-10.933,2.0613-17.535,2.0613v.021Z" fill="#b89e2e"/><path d="M685.55,46.9846c-.883,0-1.766,0-2.67-.0421-3.743-.042-7.527-.4207-11.101-.7993-4.037-.5258-7.591-1.0937-10.955-1.7878-1.808-.3786-3.616-.7783-5.382-1.241l-.694-.1683c-.736-.1893-1.451-.3786-2.144-.652l-2.481-.9676c-3.869-1.6196-7.002-3.2813-9.63-5.1112-3.385-2.3558-5.866-4.7747-7.59-7.4459-2.229-3.4285-3.196-6.7939-2.923-9.9911.379-3.6388,2.565-7.0042,6.035-9.31793c1.619-1.07272,3.448-1.89304,5.424-2.41888c1.661-.46274,3.343-.58895,4.983-.71515l.799-.0631c6.77-.35757,14.045.54688,22.287,2.71335c6.56,1.74581,13.225,4.16471,20.373,7.40391c5.53,2.503,10.933,5.3215,16.085,8.3504c1.03.61,1.366,1.914.757,2.9447-.61,1.0307-1.914,1.3672-2.944.7572-5.025-2.9657-10.302-5.7001-15.685-8.14-6.917-3.1341-13.372-5.4688-19.679-7.1515-7.801-2.0403-14.634-2.9027-20.9-2.5661l-.756.0631c-1.493.1051-2.902.2103-4.163.5679-1.535.3996-2.965,1.0517-4.184,1.8509-2.355,1.5776-3.911,3.8703-4.142,6.1419-.19,2.1875.567,4.6274,2.249,7.2356c1.409,2.1455,3.575,4.2488,6.434,6.247c2.376,1.6407,5.256,3.1761,8.789,4.6485l2.417.9465c.526.2103,1.094.3366,1.64.4838l.715.1893c1.682.4417,3.427.8203,5.151,1.1779c3.238.6731,6.707,1.241,10.576,1.7247c3.553.3787,7.086.7152,10.681.7783c8.116.1893,14.97-.5048,21.067-2.1454c1.157-.3155,2.334.3786,2.628,1.5144.316,1.1568-.378,2.3347-1.513,2.6292-5.803,1.5565-12.237,2.3137-19.596,2.3137l.042.0421Z" fill="#b89e2e"/><path d="M685.529,52.6847c-.946,0-1.892,0-2.838-.042-4.121-.0631-8.137-.4628-11.901-.8624-4.247-.5469-8.031-1.1569-11.648-1.8931-1.934-.3996-3.826-.8203-5.76-1.3251l-1.451-.3786c-.904-.2524-1.724-.4838-2.292-.7362l-2.628-1.0306c-4.394-1.851-7.864-3.6809-10.954-5.8264-4.058-2.8185-7.086-5.8053-9.251-9.0865-1.283-1.9351-2.25-3.9544-2.902-5.9947-.378-1.241-.61-2.2295-.757-3.3023-.189-1.262-.21-2.6081-.084-3.9333.547-5.1532,3.68-9.96997,8.578-13.20917c2.292-1.53546,4.878-2.69232,7.696-3.4285c1.577-.42067,3.132-.652046,4.184-.757214l.82-.063102c.82-.063101,1.661-.147236,2.481-.189303c7.716-.378608,15.6.546879,24.809,2.965759c7.002,1.85097,14.066,4.41709,21.593,7.82453c4.521,2.0613,8.978,4.3119,13.246,6.6888c1.031.5889,1.409,1.893.841,2.9236-.588,1.0307-1.892,1.4093-2.922.8204-4.163-2.3348-8.515-4.5223-12.931-6.5415-7.317-3.3023-14.171-5.80535-20.92-7.59322-8.767-2.29267-16.231-3.19713-23.464-2.83955-.757.04207-1.556.1262-2.355.1893l-.778.0631c-1.198.12621-2.46.37861-3.49.65205-2.334.60998-4.541,1.59856-6.413,2.86059-3.784,2.50303-6.265,6.26803-6.665,10.05413-.105.9886-.084,1.9561.063,2.9027.126.8623.316,1.6406.61,2.6502.526,1.6617,1.325,3.3023,2.376,4.9009c1.85,2.8185,4.499,5.4267,8.095,7.9297c2.838,1.9561,6.055,3.6599,10.134,5.3636l2.712,1.0517c.252.1052.61.2314,1.556.4838l1.577.4206c1.85.4838,3.7.8835,5.551,1.2831c3.49.7151,7.169,1.3251,11.269,1.851c3.616.3786,7.527.7782,11.48.8203c8.116.1893,15.138-.4417,21.53-1.9562c1.156-.2734,2.312.4418,2.586,1.5986.273,1.1569-.442,2.3137-1.598,2.5872-5.971,1.4092-12.468,2.1033-19.743,2.1033h-.042Z" fill="#b89e2e"/><path d="M754.471,41.2844c-6.581,0-12.468-.6941-17.514-2.0613-1.157-.3155-1.829-1.4934-1.514-2.6292.315-1.1568,1.493-1.8299,2.628-1.5144c5.257,1.4303,11.564,2.0613,18.713,1.872c3.259-.0421,6.56-.3576,9.945-.7152c3.595-.4627,6.833-.9886,9.86-1.6196c1.619-.3365,3.238-.6941,4.794-1.0937l1.514-.3997l2.25-.8834c3.006-1.262,5.445-2.5451,7.422-3.9123c2.207-1.5354,3.805-3.0709,4.793-4.6063.526-.7993.905-1.5986,1.157-2.3558.105-.3366.21-.7572.252-1.0727.021-.1894.021-.3997,0-.61-.063-.7152-.694-1.5776-1.598-2.1875-.546-.3576-1.198-.6521-1.871-.8204-.379-.1051-.715-.1472-1.198-.2103l-2.145-.1683c-5.235-.2734-11.417.5048-18.292,2.3138-11.375,3.0709-23.443,8.4345-35.827,15.9435-1.009.61-2.334.2945-2.965-.7151-.609-1.0096-.294-2.3348.715-2.9658c12.742-7.7194,25.167-13.2512,36.963-16.4273c7.316-1.9351,13.939-2.7555,19.679-2.4399l2.313.1893c.799.1051,1.262.1893,1.829.3365c1.157.2945,2.25.7993,3.175,1.4093c2.018,1.3461,3.28,3.3023,3.49,5.3636.042.5889.042,1.0937-.042,1.5775-.084.6941-.315,1.4934-.42,1.7879-.379,1.1568-.925,2.3137-1.661,3.4285-1.283,1.9771-3.28,3.9333-5.95,5.7843-2.229,1.5354-4.92,2.9657-8.263,4.375l-2.25.8834c-.315.1262-.315.1262-.505.1683l-1.514.3996c-1.639.4207-3.322.7993-5.004,1.1569-3.153.652-6.496,1.1989-10.239,1.6827-3.532.3786-6.959.7151-10.365.7361-.82,0-1.619.0211-2.418.0211l.063-.0211Z" fill="#cf2a23"/><path d="M754.429,46.9846c-7.338,0-13.772-.7572-19.575-2.3348-1.156-.3155-1.829-1.4933-1.513-2.6292.315-1.1568,1.492-1.8299,2.628-1.5144c6.097,1.6406,12.993,2.3348,21.046,2.1454c3.616-.042,7.149-.3996,10.744-.7782c3.826-.4838,7.296-1.0517,10.555-1.7248c1.724-.3575,3.469-.7572,5.172-1.1989l.694-.1893c.567-.1472,1.114-.2734,1.64-.4838l2.481-.9675c3.49-1.4724,6.37-2.9868,8.746-4.6485c2.88-1.9982,5.046-4.1016,6.434-6.247c1.682-2.5872,2.439-5.0481,2.228-7.2567-.231-2.2506-1.766-4.5433-4.12-6.0997-1.22-.8204-2.65-1.4514-4.142-1.851-1.304-.3786-2.713-.4628-4.206-.589l-.82-.0631c-6.202-.3155-13.035.5259-20.857,2.5872-6.307,1.6827-12.762,4.0174-19.679,7.1515-5.383,2.4399-10.66,5.1953-15.685,8.14-1.03.61-2.334.2524-2.944-.7572-.609-1.0096-.252-2.3347.757-2.9447c5.152-3.0289,10.576-5.8474,16.085-8.3504c7.148-3.2392,13.813-5.6581,20.373-7.40389c8.242-2.16648,15.517-3.0499,22.224-2.71336l.841.0631c1.64.1262,3.343.25241,5.025.71515c1.955.50481,3.784,1.32513,5.403,2.41888c3.448,2.29272,5.656,5.67912,6.014,9.27592.294,3.2392-.694,6.5835-2.923,10.012-1.724,2.6503-4.226,5.0902-7.59,7.446-2.649,1.8299-5.782,3.4916-9.588,5.0901l-2.523.9886c-.693.2735-1.408.4628-2.144.6521l-.652.1683c-1.808.4627-3.595.8623-5.403,1.2409-3.364.6942-6.939,1.2831-10.913,1.7879-3.616.3786-7.4.7572-11.164.7993-.904.021-1.787.0421-2.649.0421v.021Z" fill="#cf2a23"/><path d="M754.471,52.6847c-7.275,0-13.751-.6941-19.743-2.1033-1.156-.2735-1.871-1.4303-1.598-2.5872.274-1.1568,1.43-1.872,2.586-1.5986c6.392,1.4934,13.415,2.1455,21.509,1.9562c3.974-.0421,7.885-.4417,11.543-.8414c4.058-.5258,7.737-1.1148,11.228-1.8299c1.85-.3786,3.679-.7993,5.55-1.2831l1.43-.3786c1.093-.2944,1.451-.4206,1.577-.4837l2.88-1.1359c4.016-1.6827,7.233-3.3864,10.071-5.3636c3.596-2.503,6.245-5.0901,8.095-7.9087c1.051-1.5985,1.85-3.2602,2.397-4.9219.294-.9885.484-1.7668.61-2.6292.126-.9465.147-1.914.063-2.9026-.4-3.7861-2.881-7.5511-6.665-10.05417-1.871-1.26202-4.1-2.25061-6.413-2.86059-1.051-.27343-2.313-.50481-3.574-.65204l-.715-.0631c-.799-.0631-1.598-.14724-2.376-.18931-7.212-.35757-14.676.54688-23.464,2.83956-6.749,1.78787-13.582,4.26985-20.92,7.59315-4.415,1.9982-8.768,4.2068-12.931,6.5415-1.03.589-2.355.2104-2.922-.8203-.589-1.0306-.21-2.3558.841-2.9237c4.268-2.3768,8.725-4.6274,13.246-6.6887c7.548-3.40748,14.612-5.9736,21.593-7.82457c9.209-2.41888,17.093-3.365396,24.788-2.965754.862.063101,1.682.126202,2.502.189303l.757.063102c1.094.126202,2.671.357569,4.247.778249c2.818.73618,5.404,1.89304,7.696,3.4285c4.899,3.2392,8.031,8.05597,8.557,13.18817.126,1.3461.105,2.6713-.084,3.9543-.147,1.0938-.379,2.0824-.757,3.3023-.652,2.0613-1.64,4.0806-2.902,6.0157-2.165,3.2813-5.172,6.268-9.23,9.0866-3.09,2.1454-6.56,3.9753-10.912,5.8053l-2.796,1.0937c-.442.2104-1.262.4417-1.998.6521l-1.597.4207c-1.935.5048-3.848.9254-5.761,1.3251-3.617.7362-7.401,1.3672-11.606,1.893-3.806.3997-7.822.7993-11.964.8624-.967.021-1.913.0421-2.838.0421v-.0211Z" fill="#cf2a23"/><path d="M656.367,129.5c-.652,0-1.282-.294-1.703-.841-.715-.947-.547-2.293.4-3.029.862-.673,1.745-1.325,2.607-1.977c2.207-1.662,4.478-3.366,6.475-5.175l4.458-3.807l4.079-3.891c1.997-1.83,3.826-3.807,5.613-5.721.736-.8,1.493-1.599,2.25-2.398.778-.862,1.556-1.788,2.334-2.7134.42-.5048.82-.9886,1.261-1.4934c1.052-1.241,2.292-2.6923,3.407-4.2278c4.289-5.4267,8.22-11.3372,12.068-18.1311c3.974-7.1094,6.77-13.2723,8.852-19.3721.378-1.1358,1.598-1.7248,2.733-1.3461c1.135.3786,1.724,1.5985,1.346,2.7343-2.166,6.3522-5.068,12.7465-9.167,20.1083-3.953,6.9832-8.011,13.083-12.384,18.6149-1.157,1.5985-2.46,3.134-3.575,4.4174-.399.483-.82.967-1.219,1.451-.82.968-1.619,1.935-2.481,2.882-.778.82-1.514,1.598-2.229,2.397-1.829,1.978-3.742,4.018-5.824,5.932l-4.121,3.933-4.499,3.849c-2.103,1.894-4.457,3.66-6.728,5.364-.862.652-1.724,1.283-2.565,1.956-.4.295-.862.442-1.304.442l-.084.042Z" fill="#cf2a23"/><path d="M651.132,124.662c-.652,0-1.283-.294-1.703-.841-.736-.947-.547-2.293.378-3.029.862-.652,1.724-1.304,2.586-1.956c2.061-1.557,4.205-3.155,6.098-4.859l4.268-3.66l3.889-3.723c1.893-1.725,3.554-3.512,5.299-5.405.736-.8,1.472-1.5779,2.228-2.3772.736-.7993,1.451-1.6617,2.166-2.5241.421-.5048.82-.9886,1.262-1.4934c1.03-1.1989,2.207-2.6082,3.259-4.0385c4.099-5.1953,7.863-10.8534,11.563-17.3738c3.533-6.3312,6.182-12.0524,8.095-17.4791.4-1.1148,1.619-1.7248,2.733-1.3041c1.115.3997,1.703,1.6196,1.304,2.7344-1.997,5.6581-4.731,11.5896-8.41,18.1521-3.806,6.7098-7.695,12.5572-11.879,17.8577-1.094,1.4934-2.334,2.9868-3.427,4.2488-.4.4838-.82.9676-1.22,1.4513-.757.9045-1.514,1.8299-2.334,2.7129-.778.8-1.493,1.578-2.207,2.356-1.746,1.872-3.533,3.807-5.509,5.616l-3.953,3.765-4.31,3.702c-1.976,1.788-4.205,3.45-6.35,5.069-.841.631-1.703,1.283-2.544,1.936-.399.294-.862.441-1.303.441l.021.021Z" fill="#cf2a23"/><path d="M645.875,119.824c-.651,0-1.282-.294-1.703-.841-.735-.946-.546-2.293.379-3.008.841-.652,1.682-1.283,2.544-1.914c2.039-1.535,3.974-2.987,5.74-4.585l4.079-3.492l3.7-3.554c1.787-1.62,3.343-3.3027,4.983-5.0906.736-.7783,1.451-1.5775,2.208-2.3558.673-.7362,1.345-1.5565,2.018-2.3558.421-.4837.82-.9886,1.241-1.4723c1.03-1.199,2.123-2.503,3.111-3.8702c3.911-4.943,7.506-10.3697,11.039-16.5957c2.943-5.2584,5.319-10.2434,7.043-14.8077.421-1.1148,1.661-1.6617,2.776-1.241c1.114.4207,1.661,1.6617,1.24,2.7764-1.808,4.7747-4.268,9.949-7.317,15.3967-3.658,6.4574-7.38,12.0313-11.374,17.1005-1.031,1.4092-2.187,2.7975-3.28,4.0595-.4.4838-.799.9465-1.199,1.4303-.715.8624-1.43,1.7248-2.186,2.5451-.757.7993-1.472,1.5565-2.187,2.3346-1.64,1.767-3.343,3.597-5.214,5.301l-3.764,3.596-4.121,3.534c-1.871,1.704-3.974,3.281-5.992,4.796-.841.631-1.661,1.241-2.481,1.872-.399.294-.862.441-1.325.441h.042Z" fill="#cf2a23"/><path d="M782.792,129.5c-.463,0-.925-.147-1.304-.442-.841-.652-1.703-1.304-2.565-1.935-2.27-1.704-4.625-3.47-6.77-5.406l-4.373-3.744-4.247-4.038c-2.061-1.893-3.953-3.933-5.803-5.91-.736-.779-1.451-1.578-2.208-2.356-.883-.968-1.682-1.914-2.481-2.882-.42-.505-.82-.988-1.261-1.493-1.115-1.3044-2.418-2.8609-3.617-4.4805-4.31-5.4687-8.368-11.5685-12.32-18.5517-4.1-7.3618-7.023-13.7561-9.189-20.1083-.378-1.1358.211-2.3558,1.346-2.7344s2.355.2103,2.733,1.3462c2.082,6.0998,4.878,12.2626,8.852,19.3931c3.848,6.7729,7.779,12.6833,12.005,18.0469c1.157,1.5776,2.397,3.0499,3.449,4.2909.441.5048.862,1.0097,1.282,1.5358.757.904,1.514,1.83,2.334,2.713.715.757,1.472,1.557,2.208,2.356c1.787,1.914,3.616,3.891,5.592,5.7l4.184,3.996l4.332,3.702c2.039,1.851,4.331,3.555,6.517,5.196.883.652,1.745,1.304,2.607,1.977.947.736,1.115,2.082.4,3.029-.421.547-1.051.841-1.703.841v-.042Z" fill="#b89e2e"/><path d="M788.027,124.662c-.462,0-.925-.147-1.303-.441-.841-.653-1.682-1.284-2.544-1.915-2.145-1.619-4.374-3.281-6.392-5.111l-4.184-3.575-4.058-3.871c-1.955-1.788-3.764-3.723-5.488-5.595-.714-.778-1.429-1.535-2.165-2.313-.841-.926-1.598-1.83-2.376-2.7558-.4-.4838-.799-.9676-1.198-1.4303-1.073-1.262-2.334-2.7554-3.47-4.3119-4.142-5.2374-8.01-11.0848-11.816-17.7735-3.595-6.4574-6.307-12.2627-8.284-17.8156-.399-1.1148.189-2.3558,1.304-2.7554c1.114-.3997,2.355.1893,2.754,1.3041c1.892,5.3215,4.499,10.9375,7.99,17.1635c3.679,6.4994,7.443,12.1575,11.5,17.2897c1.094,1.4934,2.292,2.9237,3.301,4.1016.421.4838.841.9886,1.241,1.4724.715.8624,1.451,1.7458,2.208,2.5871.714.7362,1.429,1.5351,2.165,2.3141c1.766,1.893,3.427,3.681,5.278,5.384l4.015,3.828l4.142,3.534c1.935,1.746,4.058,3.344,6.14,4.901.862.652,1.724,1.304,2.586,1.956.946.736,1.114,2.082.378,3.029-.42.547-1.051.841-1.703.841l-.021-.042Z" fill="#b89e2e"/><path d="M793.263,119.824c-.463,0-.926-.147-1.325-.441-.82-.631-1.661-1.262-2.502-1.893-2.019-1.515-4.121-3.092-6.034-4.817l-3.995-3.407-3.89-3.702c-1.85-1.683-3.553-3.513-5.193-5.28-.715-.7571-1.409-1.5143-2.124-2.2715-.799-.8834-1.534-1.7458-2.249-2.6292-.379-.4628-.778-.9255-1.178-1.3883-1.03-1.1989-2.249-2.6502-3.322-4.1226-3.931-4.985-7.653-10.5589-11.311-17.0163-3.049-5.4688-5.509-10.6431-7.317-15.4177-.421-1.1148.147-2.3558,1.24-2.7765c1.115-.4207,2.355.1472,2.776,1.241c1.724,4.5643,4.1,9.5493,7.043,14.8288c3.553,6.247,7.149,11.6527,10.996,16.5325c1.052,1.4303,2.145,2.7344,3.154,3.9333.4.4838.799.9466,1.22,1.4303.693.8203,1.366,1.6407,2.102,2.4399.694.7362,1.43,1.5145,2.145,2.2927c1.661,1.7879,3.217,3.4706,4.962,5.0696l3.847,3.659l3.953,3.366c1.808,1.64,3.743,3.092,5.782,4.606.862.631,1.703,1.283,2.544,1.935.946.737,1.114,2.083.379,3.029-.421.547-1.052.842-1.703.842v-.043Z" fill="#b89e2e"/><path d="M728.694,53.4209c-1.198,0-2.145-.9675-2.145-2.1454v-28.1642c0-1.1779.968-2.1454,2.145-2.1454s2.145.9675,2.145,2.1454v28.1642c0,1.1779-.968,2.1454-2.145,2.1454Z" fill="#b89e2e"/><path d="M720.011,53.4209c-1.199,0-2.145-.9675-2.145-2.1454v-28.1642c0-1.1779.967-2.1454,2.145-2.1454c1.177,0,2.144.9675,2.144,2.1454v28.1642c0,1.1779-.967,2.1454-2.144,2.1454Z" fill="#b89e2e"/><path d="M711.306,53.4209c-1.198,0-2.145-.9675-2.145-2.1454v-28.1642c0-1.1779.968-2.1454,2.145-2.1454s2.145.9675,2.145,2.1454v28.1642c0,1.1779-.968,2.1454-2.145,2.1454Z" fill="#b89e2e"/></g><clipPath id="eOR5SC1sN7q20"><rect width="194" height="129" rx="0" ry="0" transform="translate(623 0.5)" fill="#fff"/></clipPath></g><g id="eOR5SC1sN7q22_to" transform="translate(0,59.5)"><g id="eOR5SC1sN7q22_ts" transform="scale(0,1)"><g transform="translate(-330.999991,-59.5)"><path d="M654,54.5l-654.000009.0001" fill="none" stroke="#b89e2e" stroke-width="4" stroke-linecap="round"/><path d="M658,59.5L-0.000003,59.4999" fill="none" stroke="#b89e2e" stroke-width="4" stroke-linecap="round"/><path d="M662,64.5L0.000002,64.4999" fill="none" stroke="#b89e2e" stroke-width="4" stroke-linecap="round"/></g></g></g><g id="eOR5SC1sN7q26_to" transform="translate(1440,61.5)"><g id="eOR5SC1sN7q26_ts" transform="scale(0,1)"><g transform="translate(-1109,-61.5)"><path d="M786,56.5l654,.0001" fill="none" stroke="#cf2a23" stroke-width="4" stroke-linecap="round"/><path d="M782,61.5l658-.0001" fill="none" stroke="#cf2a23" stroke-width="4" stroke-linecap="round"/><path d="M778,66.5l662-.0001" fill="none" stroke="#cf2a23" stroke-width="4" stroke-linecap="round"/></g></g></g></g></svg>
