<svg width="150" height="140" viewBox="0 0 150 140" fill="none" xmlns="http://www.w3.org/2000/svg">
<path d="M114.069 86.1258C123.858 84.1926 130.7 75.7924 131.045 66.2415C140.535 65.1599 148.413 57.7033 149.611 47.8072C150.809 37.9111 144.912 28.8204 135.928 25.5294C137.84 16.1626 133.164 6.38155 124.112 2.19296C115.059 -1.99563 104.578 0.789111 98.6816 8.29175C90.3661 3.59685 79.609 5.00069 72.8368 12.2962C69.6811 15.6793 67.8614 19.8449 67.3546 24.1025C66.7557 29.0276 67.9305 34.0907 70.7637 38.3483C66.9861 41.8004 64.6596 46.4493 64.0837 51.3744C63.577 55.632 64.3602 60.0967 66.6175 64.1472C71.4778 72.8466 81.59 76.7591 90.7807 74.1354C94.7427 82.8348 104.279 88.013 114.046 86.0798L114.069 86.1258Z" fill="#CF2A23"/>
<path d="M101.1 58.3476C99.9947 58.7388 99.1654 59.7054 99.0042 60.9482C98.7969 62.6972 100.041 64.2622 101.768 64.4693C103.496 64.6765 105.085 63.4337 105.293 61.7076C105.431 60.4649 104.855 59.3372 103.864 58.6928L105.108 48.3364L109.208 57.9333C108.448 58.8309 108.218 60.0967 108.702 61.2244C109.393 62.8354 111.259 63.5718 112.871 62.8814C114.483 62.191 115.22 60.3268 114.529 58.7158C114.046 57.5651 112.963 56.8747 111.788 56.8056L107.688 47.2087L116.05 53.4685C115.842 54.6193 116.257 55.839 117.248 56.5755C118.653 57.6341 120.634 57.3349 121.693 55.9311C122.753 54.5272 122.453 52.548 121.048 51.4893C120.058 50.7529 118.768 50.6838 117.731 51.2132L109.37 44.9533L119.735 46.1961C120.127 47.3008 121.094 48.1292 122.338 48.2903C124.089 48.4975 125.655 47.2547 125.862 45.5286C126.07 43.7796 124.826 42.2146 123.098 42.0075C121.854 41.8694 120.726 42.4447 120.081 43.4343L109.715 42.1916L119.321 38.0951C120.219 38.8545 121.463 39.0847 122.615 38.6014C124.227 37.9109 124.964 36.0468 124.273 34.4358C123.582 32.8248 121.716 32.0884 120.104 32.7788C118.952 33.2621 118.261 34.3438 118.192 35.5175L108.587 39.614L114.852 31.2598C116.004 31.467 117.224 31.0527 117.962 30.0631C119.021 28.6592 118.722 26.68 117.317 25.6214C115.912 24.5627 113.931 24.8619 112.871 26.2657C112.134 27.2554 112.065 28.5442 112.595 29.5798L106.329 37.9339L107.573 27.5775C108.679 27.1863 109.508 26.2197 109.669 24.977C109.876 23.2279 108.633 21.6629 106.905 21.4558C105.154 21.2487 103.588 22.4914 103.381 24.2175C103.243 25.4603 103.818 26.5879 104.809 27.2323L103.565 37.5887L99.4649 27.9918C100.225 27.0943 100.455 25.8285 99.9716 24.7008C99.2806 23.0898 97.4148 22.3533 95.8024 23.0437C94.19 23.7342 93.4529 25.5983 94.1439 27.2093C94.6276 28.3601 95.7103 29.0505 96.885 29.1195L100.985 38.7165L92.6236 32.4566C92.831 31.3059 92.4163 30.0861 91.4258 29.3496C90.0207 28.291 88.0398 28.5902 86.9802 29.994C85.9206 31.3979 86.2201 33.3772 87.6252 34.4358C88.6156 35.1723 89.9056 35.2413 90.9421 34.712L99.3037 40.9718L88.9381 39.729C88.5465 38.6244 87.5791 37.7959 86.3352 37.6348C84.5846 37.4277 83.0183 38.6704 82.8109 40.3965C82.6036 42.1225 83.8475 43.7105 85.5751 43.9177C86.8189 44.0557 87.9476 43.4804 88.5926 42.4908L98.9581 43.7335L89.3527 47.8301C88.4544 47.0706 87.1875 46.8405 86.0588 47.3237C84.4464 48.0142 83.7093 49.8783 84.4003 51.4893C85.0914 53.1003 86.9572 53.8368 88.5696 53.1463C89.7213 52.663 90.4123 51.5814 90.4814 50.4077L100.087 46.3111L93.8214 54.6653C92.6697 54.4582 91.4489 54.8724 90.7118 55.862C89.6522 57.2659 89.9516 59.2451 91.3567 60.3038C92.7619 61.3624 94.7428 61.0632 95.8024 59.6594C96.5395 58.6698 96.6086 57.381 96.0788 56.3453L102.344 47.9912L101.1 58.3476Z" fill="white"/>
<path d="M68.7375 127.551C74.3349 120.877 74.3579 111.395 69.3595 104.721C75.2102 98.7606 76.4771 89.3938 71.8472 82.0063C67.2172 74.6187 58.2108 71.6728 50.3099 74.3655C46.4632 66.9549 37.9174 62.8584 29.4637 64.9987C21.01 67.116 15.4127 74.7568 15.5278 83.1109C7.28148 84.4918 0.762702 91.327 0.163802 100.026C-0.112612 104.054 0.946981 107.874 2.92795 111.05C5.2314 114.709 8.80174 117.54 13.0862 118.852C12.4182 123.271 13.4086 127.712 15.7121 131.372C17.7161 134.548 20.7106 137.148 24.4652 138.667C32.5503 141.912 41.5798 139.012 46.394 132.2C53.8572 135.929 63.1862 134.226 68.7836 127.528L68.7375 127.551Z" fill="#B89E2E"/>
<path d="M44.6662 115.791C44.1364 116.666 44.0903 117.793 44.6662 118.714C45.4724 120.003 47.2 120.394 48.4899 119.589C49.7798 118.783 50.1714 117.057 49.3652 115.768C48.7893 114.848 47.7528 114.387 46.7393 114.502L41.879 106.77L49.9411 111.027C49.918 112.04 50.4478 113.029 51.4153 113.536C52.7743 114.249 54.4558 113.743 55.1699 112.385C55.884 111.027 55.3772 109.347 54.0182 108.634C53.0507 108.127 51.9451 108.242 51.1158 108.841L43.0538 104.583L52.1754 104.238C52.6591 105.136 53.6266 105.734 54.7092 105.688C56.2295 105.642 57.4273 104.353 57.3812 102.811C57.3352 101.292 56.0452 100.095 54.5019 100.141C53.4193 100.187 52.4979 100.855 52.0833 101.775L42.9616 102.121L50.7012 97.2647C51.5765 97.794 52.7052 97.84 53.6266 97.2647C54.9165 96.4592 55.3081 94.7331 54.5019 93.4443C53.6957 92.1555 51.9681 91.7643 50.6782 92.5698C49.7568 93.1451 49.2961 94.1808 49.4113 95.1934L41.6717 100.049L45.9331 91.9944C46.9466 92.0175 47.9371 91.4881 48.4438 90.5215C49.1579 89.1637 48.6512 87.4836 47.2921 86.7702C45.9331 86.0568 44.2516 86.5631 43.5375 87.9209C43.0307 88.8875 43.1459 89.9922 43.7448 90.8207L39.4834 98.8757L39.1379 89.7621C40.0362 89.2788 40.6351 88.3122 40.5891 87.2305C40.543 85.7116 39.2531 84.5148 37.7098 84.5609C36.1895 84.6069 34.9917 85.8957 35.0378 87.4376C35.0838 88.5193 35.7518 89.4399 36.6732 89.8541L37.0187 98.9677L32.1584 91.235C32.6882 90.3604 32.7343 89.2327 32.1584 88.3121C31.3522 87.0234 29.6246 86.6321 28.3347 87.4376C27.0448 88.2431 26.6532 89.9692 27.4594 91.258C28.0353 92.1786 29.0718 92.6388 30.0853 92.5238L34.9456 100.257L26.8835 95.9989C26.9066 94.9863 26.3768 93.9967 25.4093 93.4903C24.0503 92.7769 22.3688 93.2832 21.6547 94.6411C20.9406 95.9989 21.4474 97.6789 22.8064 98.3924C23.7739 98.8987 24.8795 98.7836 25.7088 98.1853L33.7709 102.443L24.6492 102.788C24.1655 101.891 23.198 101.292 22.1154 101.338C20.5951 101.384 19.3973 102.673 19.4434 104.215C19.4895 105.734 20.7794 106.931 22.3227 106.885C23.4053 106.839 24.3267 106.171 24.7413 105.251L33.863 104.905L26.1234 109.761C25.2481 109.232 24.1194 109.186 23.198 109.761C21.9081 110.567 21.5165 112.293 22.3227 113.582C23.1289 114.871 24.8565 115.262 26.1464 114.456C27.0678 113.881 27.5285 112.845 27.4133 111.833L35.1529 106.977L30.8915 115.032C29.878 115.009 28.8875 115.538 28.3578 116.505C27.6437 117.862 28.1504 119.542 29.5095 120.256C30.8685 120.969 32.55 120.463 33.2641 119.105C33.7709 118.139 33.6557 117.034 33.0568 116.205L37.3182 108.15L37.6637 117.264C36.7653 117.747 36.1664 118.714 36.2125 119.796C36.2586 121.315 37.5485 122.511 39.0918 122.465C40.6121 122.419 41.8099 121.13 41.7638 119.589C41.7178 118.507 41.0498 117.586 40.1284 117.172L39.7829 108.058L44.6431 115.791L44.6662 115.791Z" fill="white"/>
</svg>
